ply
format ascii 1.0
comment VCGLIB generated
element vertex 247
property float x
property float y
property float z
property float nx
property float ny
property float nz
element face 342
property list uchar int vertex_indices
property list uchar float texcoord
end_header
0.3590855 -0.4949129 0.0001127243 0.7423465 -0.6700162 -8.786202e-08 
0.3374618 -0.4949129 -0.1225209 0.6975782 -0.6700187 -0.253889 
0.3374618 -0.1962622 -0.1225209 0.9096926 -0.2506566 -0.3311052 
0.3590855 -0.1962622 0.0001127635 0.9680761 -0.2506566 -3.286965e-08 
0.275199 -0.4949129 -0.2303636 0.568666 -0.6700208 -0.4771698 
0.275199 -0.1962622 -0.2303636 0.7415932 -0.2506572 -0.6222624 
0.179807 -0.4949129 -0.3104075 0.3711748 -0.6700188 -0.6428874 
0.179807 -0.1962622 -0.3104075 0.4840337 -0.250623 -0.8383911 
0.06279065 -0.4949128 -0.352998 0.1288842 -0.6700251 -0.7310644 
0.06279065 -0.1962622 -0.352998 0.168098 -0.2506208 -0.9533794 
-0.06173524 -0.4949128 -0.352998 -0.1288842 -0.6700251 -0.7310644 
-0.06173524 -0.1962622 -0.352998 -0.168098 -0.2506208 -0.9533794 
-0.1787512 -0.4949129 -0.3104075 -0.3711748 -0.6700188 -0.6428874 
-0.1787512 -0.1962622 -0.3104075 -0.4840337 -0.250623 -0.8383911 
-0.2741436 -0.4949129 -0.2303636 -0.568666 -0.6700208 -0.4771698 
-0.2741436 -0.1962622 -0.2303636 -0.7415932 -0.2506572 -0.6222624 
-0.336406 -0.4949129 -0.1225209 -0.6975782 -0.6700187 -0.253889 
-0.336406 -0.1962622 -0.1225209 -0.9096926 -0.2506566 -0.3311052 
-0.3580299 -0.4949129 0.0001127243 -0.7423465 -0.6700162 -8.786201e-08 
-0.3580299 -0.1962622 0.0001127635 -0.9680761 -0.2506566 -3.286965e-08 
-0.3580299 -0.4949129 0.0001127243 -0.7423465 -0.6700162 -8.786202e-08 
-0.336406 -0.4949129 0.1227472 -0.6975782 -0.6700187 0.2538889 
-0.336406 -0.1962622 0.1227472 -0.9096926 -0.2506568 0.3311052 
-0.3580299 -0.1962622 0.0001127635 -0.9680761 -0.2506566 -3.286965e-08 
-0.2741436 -0.4949129 0.2305898 -0.5686661 -0.6700209 0.4771696 
-0.2741436 -0.1962623 0.2305898 -0.7415932 -0.2506573 0.6222624 
-0.1787512 -0.4949129 0.3106329 -0.3711489 -0.6700265 0.6428942 
-0.1787512 -0.1962623 0.310633 -0.4840299 -0.2506522 0.8383845 
-0.06173524 -0.494913 0.3532234 -0.1288842 -0.6700254 0.7310641 
-0.06173524 -0.1962623 0.3532235 -0.1681016 -0.2506576 0.9533691 
0.06279065 -0.494913 0.3532242 0.1288842 -0.6700254 0.7310641 
0.06279065 -0.1962623 0.3532235 0.1680967 -0.2506502 0.9533719 
0.179807 -0.4949129 0.3106339 0.3711748 -0.6700191 0.6428871 
0.179807 -0.1962623 0.310634 0.4840299 -0.2506522 0.8383845 
0.275199 -0.4949129 0.2305898 0.5686661 -0.6700209 0.4771696 
0.275199 -0.1962623 0.2305898 0.7415932 -0.2506573 0.6222624 
0.3374618 -0.4949129 0.1227472 0.6975782 -0.6700187 0.2538889 
0.3374618 -0.1962622 0.1227472 0.9096926 -0.2506568 0.3311052 
0.3590855 -0.1551111 0.0001127689 0.9680761 0.2506566 3.286965e-08 
0.3374618 -0.1551111 -0.1225209 0.9096926 0.2506568 -0.3311052 
0.3374618 0.1429314 -0.1225208 0.9096926 -0.2506566 -0.3311052 
0.3590855 0.1429314 0.000112808 0.9680761 -0.2506566 -3.286965e-08 
0.275199 -0.155111 -0.2303635 0.7415932 0.2506573 -0.6222624 
0.275199 0.1429315 -0.2303635 0.7415932 -0.2506572 -0.6222624 
0.179807 -0.155111 -0.3104075 0.4840299 0.2506522 -0.8383845 
0.179807 0.1429315 -0.3104075 0.4840299 -0.2506521 -0.8383846 
0.06279065 -0.155111 -0.352998 0.1680967 0.2506502 -0.9533719 
0.06279065 0.1429315 -0.352998 0.1680967 -0.2506499 -0.9533721 
-0.06173524 -0.155111 -0.352998 -0.1680967 0.2506502 -0.9533719 
-0.06173524 0.1429315 -0.352998 -0.1680967 -0.2506499 -0.9533721 
-0.1787512 -0.155111 -0.3104075 -0.4840299 0.2506522 -0.8383845 
-0.1787512 0.1429315 -0.3104075 -0.4840299 -0.2506521 -0.8383846 
-0.2741436 -0.155111 -0.2303635 -0.7415932 0.2506573 -0.6222624 
-0.2741436 0.1429315 -0.2303635 -0.7415932 -0.2506572 -0.6222624 
-0.336406 -0.1551111 -0.1225209 -0.9096926 0.2506568 -0.3311052 
-0.336406 0.1429314 -0.1225208 -0.9096926 -0.2506566 -0.3311052 
-0.3580299 -0.1551111 0.0001127689 -0.9680761 0.2506566 3.286965e-08 
-0.3580299 0.1429314 0.000112808 -0.9680761 -0.2506566 -3.286965e-08 
-0.3580299 -0.1551111 0.0001127689 -0.9680761 0.2506566 3.286965e-08 
-0.336406 -0.1551111 0.1227472 -0.9096926 0.2506566 0.3311052 
-0.336406 0.1429314 0.1227472 -0.9096926 -0.2506568 0.3311052 
-0.3580299 0.1429314 0.000112808 -0.9680761 -0.2506566 -3.286965e-08 
-0.2741436 -0.1551111 0.2305899 -0.7415932 0.2506572 0.6222624 
-0.2741436 0.1429314 0.2305899 -0.7415932 -0.2506573 0.6222624 
-0.1787512 -0.1551111 0.310633 -0.4840299 0.2506521 0.8383846 
-0.1787512 0.1429314 0.310633 -0.4840299 -0.2506522 0.8383845 
-0.06173524 -0.1551111 0.3532235 -0.1681017 0.2506573 0.9533692 
-0.06173524 0.1429314 0.3532235 -0.1681016 -0.2506576 0.9533691 
0.06279065 -0.1551111 0.3532235 0.1681017 0.2506573 0.9533692 
0.06279065 0.1429314 0.3532235 0.1680967 -0.2506502 0.9533719 
0.179807 -0.1551111 0.310634 0.4840299 0.2506521 0.8383846 
0.179807 0.1429314 0.310634 0.4840299 -0.2506522 0.8383845 
0.275199 -0.1551111 0.2305899 0.7415932 0.2506572 0.6222624 
0.275199 0.1429314 0.2305899 0.7415932 -0.2506573 0.6222624 
0.3374618 -0.1551111 0.1227472 0.9096926 0.2506566 0.3311052 
0.3374618 0.1429314 0.1227472 0.9096926 -0.2506568 0.3311052 
0.3590855 0.1840831 0.0001128134 0.9680761 0.2506566 3.286965e-08 
0.3374618 0.1840831 -0.1225208 0.9096926 0.2506568 -0.3311052 
0.3374618 0.4927179 -0.1225208 0.6975782 0.6700187 -0.2538889 
0.3590855 0.4927179 0.0001128538 0.7423465 0.6700162 8.786202e-08 
0.275199 0.1840832 -0.2303635 0.7415932 0.2506573 -0.6222624 
0.275199 0.4927179 -0.2303635 0.5686661 0.6700209 -0.4771696 
0.179807 0.1840832 -0.3104075 0.4840336 0.2506232 -0.838391 
0.179807 0.4927179 -0.3104074 0.3711748 0.6700191 -0.6428871 
0.06279065 0.1840832 -0.352998 0.168098 0.2506211 -0.9533793 
0.06279065 0.492718 -0.3529979 0.1288842 0.6700254 -0.7310641 
-0.06173524 0.1840832 -0.352998 -0.168098 0.2506211 -0.9533793 
-0.06173524 0.492718 -0.3529979 -0.1288842 0.6700254 -0.7310641 
-0.1787512 0.1840832 -0.3104075 -0.4840336 0.2506232 -0.838391 
-0.1787512 0.4927179 -0.3104074 -0.3711748 0.6700191 -0.6428871 
-0.2741436 0.1840832 -0.2303635 -0.7415932 0.2506573 -0.6222624 
-0.2741436 0.4927179 -0.2303635 -0.5686661 0.6700209 -0.4771696 
-0.336406 0.1840831 -0.1225208 -0.9096926 0.2506568 -0.3311052 
-0.336406 0.4927179 -0.1225208 -0.6975782 0.6700187 -0.2538889 
-0.3580299 0.1840831 0.0001128134 -0.9680761 0.2506566 3.286965e-08 
-0.3580299 0.4927179 0.0001128538 -0.7423465 0.6700162 8.786202e-08 
-0.3580299 0.1840831 0.0001128134 -0.9680761 0.2506566 3.286965e-08 
-0.336406 0.1840831 0.1227472 -0.9096926 0.2506566 0.3311052 
-0.336406 0.4927179 0.1227473 -0.6975782 0.6700187 0.253889 
-0.3580299 0.4927179 0.0001128538 -0.7423465 0.6700162 8.786201e-08 
-0.2741436 0.1840831 0.2305899 -0.7415932 0.2506572 0.6222624 
-0.2741436 0.4927179 0.2305899 -0.568666 0.6700208 0.4771698 
-0.1787512 0.1840831 0.310633 -0.4840299 0.2506521 0.8383846 
-0.1787512 0.4927179 0.3106331 -0.3711489 0.6700262 0.6428945 
-0.06173524 0.1840831 0.3532235 -0.1681017 0.2506573 0.9533692 
-0.06173524 0.4927178 0.3532236 -0.1288842 0.6700251 0.7310644 
0.06279065 0.1840831 0.3532235 0.1680967 0.2506499 0.9533721 
0.06279065 0.4927178 0.3532244 0.1288842 0.6700251 0.7310644 
0.179807 0.1840831 0.310634 0.4840299 0.2506521 0.8383846 
0.179807 0.4927179 0.3106341 0.3711748 0.6700188 0.6428874 
0.275199 0.1840831 0.2305899 0.7415932 0.2506572 0.6222624 
0.275199 0.4927179 0.2305899 0.568666 0.6700208 0.4771698 
0.3374618 0.1840831 0.1227472 0.9096926 0.2506566 0.3311052 
0.3374618 0.4927179 0.1227473 0.6975782 0.6700187 0.253889 
-0.1957843 0.5050871 -0.06333216 0.6975782 0.6700187 -0.2538889 
-0.1934128 0.5050871 -0.04988219 0.7423331 0.6700311 8.786397e-08 
-0.1934128 0.4964693 -0.04988219 1 0 0 
-0.1957843 0.4964693 -0.06333216 0.9396891 4.48518e-08 -0.3420299 
-0.202613 0.5050871 -0.07515924 0.5686544 0.670038 -0.4771597 
-0.202613 0.4964693 -0.07515924 0.7660355 8.429283e-08 -0.6427984 
-0.213075 0.5050871 -0.0839381 0.3711748 0.6700191 -0.6428871 
-0.213075 0.4964693 -0.0839381 0.5000027 1.135653e-07 -0.8660238 
-0.2259084 0.5050871 -0.08860921 0.1288842 0.6700254 -0.7310641 
-0.2259084 0.4964693 -0.08860921 0.1736509 1.291419e-07 -0.9848073 
-0.2395654 0.5050871 -0.08860921 -0.1288842 0.6700254 -0.7310641 
-0.2259084 0.5050871 -0.08860921 0.1288842 0.6700254 -0.7310641 
-0.2259084 0.4964693 -0.08860921 0.1736509 1.291419e-07 -0.9848073 
-0.2395654 0.4964693 -0.08860921 -0.1736218 1.291426e-07 -0.9848124 
-0.2523994 0.5050871 -0.0839381 -0.3711748 0.6700191 -0.6428871 
-0.2523994 0.4964693 -0.0839381 -0.5000027 1.135653e-07 -0.8660238 
-0.2628613 0.5050871 -0.07515924 -0.5686745 0.6700308 -0.4771456 
-0.2628613 0.4964693 -0.07515924 -0.7660632 8.428849e-08 -0.6427653 
-0.2696895 0.5050871 -0.06333216 -0.6975782 0.6700187 -0.2538889 
-0.2696895 0.4964693 -0.06333216 -0.9397026 4.484695e-08 -0.3419929 
-0.272061 0.5050871 -0.04988219 -0.7423331 0.6700311 8.786397e-08 
-0.272061 0.4964693 -0.04988219 -1 0 0 
-0.2696895 0.5050871 -0.03643222 -0.6975782 0.6700187 0.253889 
-0.2696895 0.4964693 -0.03643222 -0.9397026 -4.484695e-08 0.3419929 
-0.2628613 0.5050871 -0.02460513 -0.5686744 0.6700308 0.4771459 
-0.2628613 0.4964693 -0.02460513 -0.7660632 -8.428849e-08 0.6427653 
-0.2523994 0.5050871 -0.01582607 -0.3711748 0.6700188 0.6428874 
-0.2523994 0.4964693 -0.01582607 -0.4999892 -1.135663e-07 0.8660316 
-0.2395654 0.5050871 -0.01115516 -0.1288842 0.6700251 0.7310644 
-0.2395654 0.4964693 -0.01115516 -0.1736218 -1.291426e-07 0.9848124 
-0.2259084 0.5050871 -0.01115516 0.1288842 0.6700251 0.7310644 
-0.2259084 0.4964693 -0.01115516 0.1736218 -1.291426e-07 0.9848124 
-0.213075 0.5050871 -0.01582607 0.3711748 0.6700188 0.6428874 
-0.213075 0.4964693 -0.01582607 0.5000027 -1.135653e-07 0.8660238 
-0.202613 0.5050871 -0.02460513 0.5686542 0.6700379 0.4771599 
-0.202613 0.4964693 -0.02460513 0.7660479 -8.429089e-08 0.6427836 
-0.1957843 0.5050871 -0.03643222 0.6975782 0.6700187 0.253889 
-0.1957843 0.4964693 -0.03643222 0.9396891 -4.48518e-08 0.3420299 
0.3478503 0.1635072 -0.1263023 0.9396891 4.48518e-08 -0.3420299 
0.3701409 0.1635072 0.0001128107 1 0 0 
0.3701409 -0.1756863 0.0001127662 1 0 0 
0.3478503 -0.1756863 -0.1263024 0.9396891 4.48518e-08 -0.3420299 
0.2836676 0.1635072 -0.2374694 0.7660355 8.429283e-08 -0.6427984 
0.2836676 -0.1756862 -0.2374695 0.7660355 8.429283e-08 -0.6427984 
0.1853341 0.1635072 -0.3199807 0.4999892 1.135663e-07 -0.8660316 
0.1853341 -0.1756862 -0.3199807 0.4999892 1.135663e-07 -0.8660316 
0.06471061 0.1635072 -0.3638845 0.1736509 1.291419e-07 -0.9848073 
0.06471061 -0.1756862 -0.3638845 0.1736509 1.291419e-07 -0.9848073 
-0.0636544 0.1635072 -0.3638845 -0.1736218 1.291426e-07 -0.9848124 
-0.0636544 -0.1756862 -0.3638845 -0.1736218 1.291426e-07 -0.9848124 
-0.1842785 0.1635072 -0.3199807 -0.4999892 1.135663e-07 -0.8660316 
-0.1842785 -0.1756862 -0.3199807 -0.4999892 1.135663e-07 -0.8660316 
-0.2826119 0.1635072 -0.2374694 -0.7660355 8.429283e-08 -0.6427984 
-0.2826119 -0.1756862 -0.2374695 -0.7660355 8.429283e-08 -0.6427984 
-0.3467945 0.1635072 -0.1263023 -0.9396991 4.484821e-08 -0.3420025 
-0.3467945 -0.1756863 -0.1263024 -0.9396991 4.484821e-08 -0.3420025 
-0.3690842 0.1635072 0.0001128107 -1 0 0 
-0.3690842 -0.1756863 0.0001127662 -1 0 0 
-0.3467945 0.1635072 0.1265279 -0.9396991 -4.484821e-08 0.3420025 
-0.3690842 0.1635072 0.0001128107 -1 0 0 
-0.3690842 -0.1756863 0.0001127662 -1 0 0 
-0.3467945 -0.1756863 0.1265278 -0.9396991 -4.484821e-08 0.3420025 
-0.2826119 0.1635071 0.2376958 -0.7660355 -8.429283e-08 0.6427984 
-0.2826119 -0.1756863 0.2376958 -0.7660355 -8.429283e-08 0.6427984 
-0.1842785 0.1635071 0.3202073 -0.4999892 -1.135663e-07 0.8660316 
-0.1842785 -0.1756863 0.3202073 -0.4999892 -1.135663e-07 0.8660316 
-0.06365518 0.1635071 0.3641109 -0.1736218 -1.291426e-07 0.9848124 
-0.06365518 -0.1756863 0.3641109 -0.1736218 -1.291426e-07 0.9848124 
0.06470983 0.1635071 0.3641109 0.1736218 -1.291426e-07 0.9848124 
0.06470983 -0.1756863 0.3641109 0.1736218 -1.291426e-07 0.9848124 
0.1853341 0.1635071 0.3202073 0.4999892 -1.135663e-07 0.8660316 
0.1853341 -0.1756863 0.3202073 0.4999892 -1.135663e-07 0.8660316 
0.2836676 0.1635071 0.2376958 0.7660355 -8.429283e-08 0.6427984 
0.2836676 -0.1756863 0.2376958 0.7660355 -8.429283e-08 0.6427984 
0.3478503 0.1635072 0.1265289 0.9396891 -4.48518e-08 0.3420299 
0.3478503 -0.1756863 0.1265288 0.9396891 -4.48518e-08 0.3420299 
0.3590855 0.4927179 0.0001128538 0.7423465 0.6700162 8.786202e-08 
0.3374618 0.4927179 -0.1225208 0.6975782 0.6700187 -0.2538889 
0.0005282976 0.4927167 0.0001128538 0 1 1.311342e-07 
0.275199 0.4927179 -0.2303635 0.5686661 0.6700209 -0.4771696 
0.179807 0.4927179 -0.3104074 0.3711748 0.6700191 -0.6428871 
0.06279065 0.492718 -0.3529979 0.1288842 0.6700254 -0.7310641 
-0.06173524 0.492718 -0.3529979 -0.1288842 0.6700254 -0.7310641 
-0.1787512 0.4927179 -0.3104074 -0.3711748 0.6700191 -0.6428871 
-0.2741436 0.4927179 -0.2303635 -0.5686661 0.6700209 -0.4771696 
-0.336406 0.4927179 -0.1225208 -0.6975782 0.6700187 -0.2538889 
-0.3580299 0.4927179 0.0001128538 -0.7423465 0.6700162 8.786202e-08 
-0.336406 0.4927179 0.1227473 -0.6975782 0.6700187 0.253889 
-0.2741436 0.4927179 0.2305899 -0.568666 0.6700208 0.4771698 
-0.1787512 0.4927179 0.3106331 -0.3711489 0.6700262 0.6428945 
-0.06173524 0.4927178 0.3532236 -0.1288842 0.6700251 0.7310644 
0.06279065 0.4927178 0.3532244 0.1288842 0.6700251 0.7310644 
0.179807 0.4927179 0.3106341 0.3711748 0.6700188 0.6428874 
0.275199 0.4927179 0.2305899 0.568666 0.6700208 0.4771698 
0.3374618 0.4927179 0.1227473 0.6975782 0.6700187 0.253889 
0.3374618 -0.4949129 -0.1225209 0.6975782 -0.6700187 -0.253889 
0.3590855 -0.4949129 0.0001127243 0.7423465 -0.6700162 -8.786202e-08 
0.0005282976 -0.4949129 0.0001127243 0 -1 -1.311342e-07 
0.3374618 -0.4949129 0.1227472 0.6975782 -0.6700187 0.2538889 
0.275199 -0.4949129 0.2305898 0.5686661 -0.6700209 0.4771696 
0.179807 -0.4949129 0.3106339 0.3711748 -0.6700191 0.6428871 
0.06279065 -0.494913 0.3532242 0.1288842 -0.6700254 0.7310641 
-0.06173524 -0.494913 0.3532234 -0.1288842 -0.6700254 0.7310641 
-0.1787512 -0.4949129 0.3106329 -0.3711489 -0.6700265 0.6428942 
-0.2741436 -0.4949129 0.2305898 -0.5686661 -0.6700209 0.4771696 
-0.336406 -0.4949129 0.1227472 -0.6975782 -0.6700187 0.2538889 
-0.3580299 -0.4949129 0.0001127243 -0.7423465 -0.6700162 -8.786202e-08 
-0.336406 -0.4949129 -0.1225209 -0.6975782 -0.6700187 -0.253889 
-0.2741436 -0.4949129 -0.2303636 -0.568666 -0.6700208 -0.4771698 
-0.1787512 -0.4949129 -0.3104075 -0.3711748 -0.6700188 -0.6428874 
-0.06173524 -0.4949128 -0.352998 -0.1288842 -0.6700251 -0.7310644 
0.06279065 -0.4949128 -0.352998 0.1288842 -0.6700251 -0.7310644 
0.179807 -0.4949129 -0.3104075 0.3711748 -0.6700188 -0.6428874 
0.275199 -0.4949129 -0.2303636 0.568666 -0.6700208 -0.4771698 
-0.1934128 0.5050871 -0.04988219 0.7423331 0.6700311 8.786397e-08 
-0.1957843 0.5050871 -0.06333216 0.6975782 0.6700187 -0.2538889 
-0.2327373 0.5050871 -0.04988219 0 1 1.311342e-07 
-0.202613 0.5050871 -0.07515924 0.5686544 0.670038 -0.4771597 
-0.213075 0.5050871 -0.0839381 0.3711748 0.6700191 -0.6428871 
-0.2259084 0.5050871 -0.08860921 0.1288842 0.6700254 -0.7310641 
-0.2395654 0.5050871 -0.08860921 -0.1288842 0.6700254 -0.7310641 
-0.2523994 0.5050871 -0.0839381 -0.3711748 0.6700191 -0.6428871 
-0.2628613 0.5050871 -0.07515924 -0.5686745 0.6700308 -0.4771456 
-0.2696895 0.5050871 -0.06333216 -0.6975782 0.6700187 -0.2538889 
-0.272061 0.5050871 -0.04988219 -0.7423331 0.6700311 8.786397e-08 
-0.2696895 0.5050871 -0.03643222 -0.6975782 0.6700187 0.253889 
-0.2628613 0.5050871 -0.02460513 -0.5686744 0.6700308 0.4771459 
-0.2523994 0.5050871 -0.01582607 -0.3711748 0.6700188 0.6428874 
-0.2395654 0.5050871 -0.01115516 -0.1288842 0.6700251 0.7310644 
-0.2259084 0.5050871 -0.01115516 0.1288842 0.6700251 0.7310644 
-0.213075 0.5050871 -0.01582607 0.3711748 0.6700188 0.6428874 
-0.202613 0.5050871 -0.02460513 0.5686542 0.6700379 0.4771599 
-0.1957843 0.5050871 -0.03643222 0.6975782 0.6700187 0.253889 
3 0 1 2 6 0.073332 0.484811 0.073332 0.433307 0.197961 0.433307 
3 0 2 3 6 0.073332 0.484811 0.197961 0.433307 0.197961 0.484811 
3 1 4 5 6 0.073332 0.433307 0.073332 0.381803 0.197961 0.381803 
3 1 5 2 6 0.073332 0.433307 0.197961 0.381803 0.197961 0.433307 
3 4 6 7 6 0.073332 0.381803 0.073332 0.330299 0.197961 0.330299 
3 4 7 5 6 0.073332 0.381803 0.197961 0.330299 0.197961 0.381803 
3 6 8 9 6 0.073332 0.330299 0.073332 0.278795 0.197961 0.278795 
3 6 9 7 6 0.073332 0.330299 0.197961 0.278795 0.197961 0.330299 
3 8 10 11 6 0.073332 0.278795 0.073332 0.227291 0.197961 0.227291 
3 8 11 9 6 0.073332 0.278795 0.197961 0.227291 0.197961 0.278795 
3 10 12 13 6 0.073332 0.227291 0.073332 0.175787 0.197961 0.175787 
3 10 13 11 6 0.073332 0.227291 0.197961 0.175787 0.197961 0.227291 
3 12 14 15 6 0.073332 0.175787 0.073332 0.124283 0.197961 0.124283 
3 12 15 13 6 0.073332 0.175787 0.197961 0.124283 0.197961 0.175787 
3 14 16 17 6 0.073332 0.124283 0.073332 0.072778 0.197961 0.072778 
3 14 17 15 6 0.073332 0.124283 0.197961 0.072778 0.197961 0.124283 
3 16 18 19 6 0.073332 0.072778 0.073332 0.021274 0.197961 0.021274 
3 16 19 17 6 0.073332 0.072778 0.197961 0.021274 0.197961 0.072778 
3 20 21 22 6 0.073332 0.948348 0.073332 0.896844 0.197961 0.896844 
3 20 22 23 6 0.073332 0.948348 0.197961 0.896844 0.197961 0.948348 
3 21 24 25 6 0.073332 0.896844 0.073332 0.845340 0.197961 0.845340 
3 21 25 22 6 0.073332 0.896844 0.197961 0.845340 0.197961 0.896844 
3 24 26 27 6 0.073332 0.845340 0.073332 0.793836 0.197961 0.793836 
3 24 27 25 6 0.073332 0.845340 0.197961 0.793836 0.197961 0.845340 
3 26 28 29 6 0.073332 0.793836 0.073332 0.742332 0.197961 0.742332 
3 26 29 27 6 0.073332 0.793836 0.197961 0.742332 0.197961 0.793836 
3 28 30 31 6 0.073332 0.742332 0.073332 0.690828 0.197961 0.690828 
3 28 31 29 6 0.073332 0.742332 0.197961 0.690828 0.197961 0.742332 
3 30 32 33 6 0.073332 0.690828 0.073332 0.639323 0.197961 0.639323 
3 30 33 31 6 0.073332 0.690828 0.197961 0.639323 0.197961 0.690828 
3 32 34 35 6 0.073332 0.639323 0.073332 0.587820 0.197961 0.587820 
3 32 35 33 6 0.073332 0.639323 0.197961 0.587820 0.197961 0.639323 
3 34 36 37 6 0.073332 0.587820 0.073332 0.536315 0.197961 0.536315 
3 34 37 35 6 0.073332 0.587820 0.197961 0.536315 0.197961 0.587820 
3 0 3 37 6 0.073332 0.484811 0.197961 0.484811 0.197961 0.536315 
3 0 37 36 6 0.073332 0.484811 0.197961 0.536315 0.073332 0.536315 
3 38 39 40 6 0.214981 0.484811 0.214981 0.433307 0.337145 0.433307 
3 38 40 41 6 0.214981 0.484811 0.337145 0.433307 0.337145 0.484811 
3 39 42 43 6 0.214981 0.433307 0.214981 0.381803 0.337145 0.381803 
3 39 43 40 6 0.214981 0.433307 0.337145 0.381803 0.337145 0.433307 
3 42 44 45 6 0.214981 0.381803 0.214981 0.330299 0.337145 0.330299 
3 42 45 43 6 0.214981 0.381803 0.337145 0.330299 0.337145 0.381803 
3 44 46 47 6 0.214981 0.330299 0.214981 0.278795 0.337145 0.278795 
3 44 47 45 6 0.214981 0.330299 0.337145 0.278795 0.337145 0.330299 
3 46 48 49 6 0.214981 0.278795 0.214981 0.227291 0.337145 0.227291 
3 46 49 47 6 0.214981 0.278795 0.337145 0.227291 0.337145 0.278795 
3 48 50 51 6 0.214981 0.227291 0.214981 0.175787 0.337145 0.175787 
3 48 51 49 6 0.214981 0.227291 0.337145 0.175787 0.337145 0.227291 
3 50 52 53 6 0.214981 0.175787 0.214981 0.124283 0.337145 0.124283 
3 50 53 51 6 0.214981 0.175787 0.337145 0.124283 0.337145 0.175787 
3 52 54 55 6 0.214981 0.124283 0.214981 0.072778 0.337145 0.072778 
3 52 55 53 6 0.214981 0.124283 0.337145 0.072778 0.337145 0.124283 
3 54 56 57 6 0.214981 0.072778 0.214981 0.021274 0.337145 0.021274 
3 54 57 55 6 0.214981 0.072778 0.337145 0.021274 0.337145 0.072778 
3 58 59 60 6 0.214981 0.948348 0.214981 0.896844 0.337145 0.896844 
3 58 60 61 6 0.214981 0.948348 0.337145 0.896844 0.337145 0.948348 
3 59 62 63 6 0.214981 0.896844 0.214981 0.845340 0.337145 0.845340 
3 59 63 60 6 0.214981 0.896844 0.337145 0.845340 0.337145 0.896844 
3 62 64 65 6 0.214981 0.845340 0.214981 0.793836 0.337145 0.793836 
3 62 65 63 6 0.214981 0.845340 0.337145 0.793836 0.337145 0.845340 
3 64 66 67 6 0.214981 0.793836 0.214981 0.742332 0.337145 0.742332 
3 64 67 65 6 0.214981 0.793836 0.337145 0.742332 0.337145 0.793836 
3 66 68 69 6 0.214981 0.742332 0.214981 0.690828 0.337145 0.690828 
3 66 69 67 6 0.214981 0.742332 0.337145 0.690828 0.337145 0.742332 
3 68 70 71 6 0.214981 0.690828 0.214981 0.639323 0.337145 0.639323 
3 68 71 69 6 0.214981 0.690828 0.337145 0.639323 0.337145 0.690828 
3 70 72 73 6 0.214981 0.639323 0.214981 0.587820 0.337145 0.587820 
3 70 73 71 6 0.214981 0.639323 0.337145 0.587820 0.337145 0.639323 
3 72 74 75 6 0.214981 0.587820 0.214981 0.536315 0.337145 0.536315 
3 72 75 73 6 0.214981 0.587820 0.337145 0.536315 0.337145 0.587820 
3 38 41 75 6 0.214981 0.484811 0.337145 0.484811 0.337145 0.536315 
3 38 75 74 6 0.214981 0.484811 0.337145 0.536315 0.214981 0.536315 
3 76 77 78 6 0.354146 0.484706 0.354146 0.433202 0.481511 0.431630 
3 76 78 79 6 0.354146 0.484706 0.481511 0.431630 0.481511 0.483134 
3 77 80 81 6 0.354146 0.433202 0.354146 0.381698 0.481511 0.380126 
3 77 81 78 6 0.354146 0.433202 0.481511 0.380126 0.481511 0.431630 
3 80 82 83 6 0.354146 0.381698 0.354146 0.330194 0.481511 0.328622 
3 80 83 81 6 0.354146 0.381698 0.481511 0.328622 0.481511 0.380126 
3 82 84 85 6 0.354146 0.330194 0.354146 0.278690 0.481511 0.277117 
3 82 85 83 6 0.354146 0.330194 0.481511 0.277117 0.481511 0.328622 
3 84 86 87 6 0.354146 0.278690 0.354146 0.227186 0.481511 0.225613 
3 84 87 85 6 0.354146 0.278690 0.481511 0.225613 0.481511 0.277117 
3 86 88 89 6 0.354146 0.227186 0.354146 0.175682 0.481511 0.174109 
3 86 89 87 6 0.354146 0.227186 0.481511 0.174109 0.481511 0.225613 
3 88 90 91 6 0.354146 0.175682 0.354147 0.124178 0.481511 0.122605 
3 88 91 89 6 0.354146 0.175682 0.481511 0.122605 0.481511 0.174109 
3 90 92 93 6 0.354147 0.124178 0.354166 0.072778 0.481817 0.072778 
3 90 93 91 6 0.354147 0.124178 0.481817 0.072778 0.481511 0.122605 
3 92 94 95 6 0.354166 0.072778 0.354166 0.021274 0.481817 0.021274 
3 92 95 93 6 0.354166 0.072778 0.481817 0.021274 0.481817 0.072778 
3 96 97 98 6 0.354146 0.948243 0.354146 0.896739 0.481511 0.895166 
3 96 98 99 6 0.354146 0.948243 0.481511 0.895166 0.481511 0.946671 
3 97 100 101 6 0.354146 0.896739 0.354146 0.845235 0.481511 0.843663 
3 97 101 98 6 0.354146 0.896739 0.481511 0.843663 0.481511 0.895166 
3 100 102 103 6 0.354146 0.845235 0.354146 0.793731 0.481511 0.792158 
3 100 103 101 6 0.354146 0.845235 0.481511 0.792158 0.481511 0.843663 
3 102 104 105 6 0.354146 0.793731 0.354146 0.742227 0.481511 0.740654 
3 102 105 103 6 0.354146 0.793731 0.481511 0.740654 0.481511 0.792158 
3 104 106 107 6 0.354146 0.742227 0.354146 0.690723 0.481511 0.689150 
3 104 107 105 6 0.354146 0.742227 0.481511 0.689150 0.481511 0.740654 
3 106 108 109 6 0.354146 0.690723 0.354146 0.639219 0.481511 0.637646 
3 106 109 107 6 0.354146 0.690723 0.481511 0.637646 0.481511 0.689150 
3 108 110 111 6 0.354146 0.639219 0.354146 0.587715 0.481511 0.586142 
3 108 111 109 6 0.354146 0.639219 0.481511 0.586142 0.481511 0.637646 
3 110 112 113 6 0.354146 0.587715 0.354146 0.536211 0.481511 0.534638 
3 110 113 111 6 0.354146 0.587715 0.481511 0.534638 0.481511 0.586142 
3 76 79 113 6 0.354146 0.484706 0.481511 0.483134 0.481511 0.534638 
3 76 113 112 6 0.354146 0.484706 0.481511 0.534638 0.354146 0.536211 
3 114 115 116 6 0.091854 0.112668 0.091854 0.134627 0.083829 0.134627 
3 114 116 117 6 0.091854 0.112668 0.083829 0.134627 0.083829 0.112668 
3 118 114 117 6 0.091854 0.090710 0.091854 0.112668 0.083829 0.112668 
3 118 117 119 6 0.091854 0.090710 0.083829 0.112668 0.083829 0.090710 
3 120 118 119 6 0.091854 0.068751 0.091854 0.090710 0.083829 0.090710 
3 120 119 121 6 0.091854 0.068751 0.083829 0.090710 0.083829 0.068751 
3 122 120 121 6 0.091854 0.046792 0.091854 0.068751 0.083829 0.068751 
3 122 121 123 6 0.091854 0.046792 0.083829 0.068751 0.083829 0.046792 
3 124 125 126 6 0.091854 0.420090 0.091854 0.442049 0.083829 0.442049 
3 124 126 127 6 0.091854 0.420090 0.083829 0.442049 0.083829 0.420090 
3 128 124 127 6 0.091854 0.398132 0.091854 0.420090 0.083829 0.420090 
3 128 127 129 6 0.091854 0.398132 0.083829 0.420090 0.083829 0.398132 
3 130 128 129 6 0.091854 0.376173 0.091854 0.398132 0.083829 0.398132 
3 130 129 131 6 0.091854 0.376173 0.083829 0.398132 0.083829 0.376173 
3 132 130 131 6 0.091854 0.354214 0.091854 0.376173 0.083829 0.376173 
3 132 131 133 6 0.091854 0.354214 0.083829 0.376173 0.083829 0.354214 
3 134 132 133 6 0.091854 0.332256 0.091854 0.354214 0.083829 0.354214 
3 134 133 135 6 0.091854 0.332256 0.083829 0.354214 0.083829 0.332256 
3 136 134 135 6 0.091854 0.310297 0.091854 0.332256 0.083829 0.332256 
3 136 135 137 6 0.091854 0.310297 0.083829 0.332256 0.083829 0.310297 
3 138 136 137 6 0.091854 0.288338 0.091854 0.310297 0.083829 0.310297 
3 138 137 139 6 0.091854 0.288338 0.083829 0.310297 0.083829 0.288338 
3 140 138 139 6 0.091854 0.266379 0.091854 0.288338 0.083829 0.288338 
3 140 139 141 6 0.091854 0.266379 0.083829 0.288338 0.083829 0.266379 
3 142 140 141 6 0.091854 0.244421 0.091854 0.266379 0.083829 0.266379 
3 142 141 143 6 0.091854 0.244421 0.083829 0.266379 0.083829 0.244421 
3 144 142 143 6 0.091854 0.222462 0.091854 0.244421 0.083829 0.244421 
3 144 143 145 6 0.091854 0.222462 0.083829 0.244421 0.083829 0.222462 
3 146 144 145 6 0.091854 0.200503 0.091854 0.222462 0.083829 0.222462 
3 146 145 147 6 0.091854 0.200503 0.083829 0.222462 0.083829 0.200503 
3 148 146 147 6 0.091854 0.178545 0.091854 0.200503 0.083829 0.200503 
3 148 147 149 6 0.091854 0.178545 0.083829 0.200503 0.083829 0.178545 
3 150 148 149 6 0.091854 0.156586 0.091854 0.178545 0.083829 0.178545 
3 150 149 151 6 0.091854 0.156586 0.083829 0.178545 0.083829 0.156586 
3 115 150 151 6 0.091854 0.134627 0.091854 0.156586 0.083829 0.156586 
3 115 151 116 6 0.091854 0.134627 0.083829 0.156586 0.083829 0.134627 
3 41 40 152 6 0.337145 0.484811 0.337145 0.433307 0.345656 0.433307 
3 41 152 153 6 0.337145 0.484811 0.345656 0.433307 0.345656 0.484811 
3 39 38 154 6 0.214981 0.433307 0.214981 0.484811 0.206471 0.484811 
3 39 154 155 6 0.214981 0.433307 0.206471 0.484811 0.206471 0.433307 
3 40 43 156 6 0.337145 0.433307 0.337145 0.381803 0.345656 0.381803 
3 40 156 152 6 0.337145 0.433307 0.345656 0.381803 0.345656 0.433307 
3 42 39 155 6 0.214981 0.381803 0.214981 0.433307 0.206471 0.433307 
3 42 155 157 6 0.214981 0.381803 0.206471 0.433307 0.206471 0.381803 
3 43 45 158 6 0.337145 0.381803 0.337145 0.330299 0.345656 0.330299 
3 43 158 156 6 0.337145 0.381803 0.345656 0.330299 0.345656 0.381803 
3 44 42 157 6 0.214981 0.330299 0.214981 0.381803 0.206471 0.381803 
3 44 157 159 6 0.214981 0.330299 0.206471 0.381803 0.206471 0.330299 
3 45 47 160 6 0.337145 0.330299 0.337145 0.278795 0.345656 0.278795 
3 45 160 158 6 0.337145 0.330299 0.345656 0.278795 0.345656 0.330299 
3 46 44 159 6 0.214981 0.278795 0.214981 0.330299 0.206471 0.330299 
3 46 159 161 6 0.214981 0.278795 0.206471 0.330299 0.206471 0.278795 
3 47 49 162 6 0.337145 0.278795 0.337145 0.227291 0.345656 0.227291 
3 47 162 160 6 0.337145 0.278795 0.345656 0.227291 0.345656 0.278795 
3 48 46 161 6 0.214981 0.227291 0.214981 0.278795 0.206471 0.278795 
3 48 161 163 6 0.214981 0.227291 0.206471 0.278795 0.206471 0.227291 
3 49 51 164 6 0.337145 0.227291 0.337145 0.175787 0.345656 0.175787 
3 49 164 162 6 0.337145 0.227291 0.345656 0.175787 0.345656 0.227291 
3 50 48 163 6 0.214981 0.175787 0.214981 0.227291 0.206471 0.227291 
3 50 163 165 6 0.214981 0.175787 0.206471 0.227291 0.206471 0.175787 
3 51 53 166 6 0.337145 0.175787 0.337145 0.124283 0.345656 0.124283 
3 51 166 164 6 0.337145 0.175787 0.345656 0.124283 0.345656 0.175787 
3 52 50 165 6 0.214981 0.124283 0.214981 0.175787 0.206471 0.175787 
3 52 165 167 6 0.214981 0.124283 0.206471 0.175787 0.206471 0.124283 
3 53 55 168 6 0.337145 0.124283 0.337145 0.072778 0.345656 0.072778 
3 53 168 166 6 0.337145 0.124283 0.345656 0.072778 0.345656 0.124283 
3 54 52 167 6 0.214981 0.072778 0.214981 0.124283 0.206471 0.124283 
3 54 167 169 6 0.214981 0.072778 0.206471 0.124283 0.206471 0.072778 
3 55 57 170 6 0.337145 0.072778 0.337145 0.021274 0.345656 0.021274 
3 55 170 168 6 0.337145 0.072778 0.345656 0.021274 0.345656 0.072778 
3 56 54 169 6 0.214981 0.021274 0.214981 0.072778 0.206471 0.072778 
3 56 169 171 6 0.214981 0.021274 0.206471 0.072778 0.206471 0.021274 
3 61 60 172 6 0.337145 0.948348 0.337145 0.896844 0.345655 0.896844 
3 61 172 173 6 0.337145 0.948348 0.345655 0.896844 0.345655 0.948348 
3 59 58 174 6 0.214981 0.896844 0.214981 0.948348 0.206471 0.948348 
3 59 174 175 6 0.214981 0.896844 0.206471 0.948348 0.206471 0.896844 
3 60 63 176 6 0.337145 0.896844 0.337145 0.845340 0.345655 0.845340 
3 60 176 172 6 0.337145 0.896844 0.345655 0.845340 0.345655 0.896844 
3 62 59 175 6 0.214981 0.845340 0.214981 0.896844 0.206471 0.896844 
3 62 175 177 6 0.214981 0.845340 0.206471 0.896844 0.206471 0.845340 
3 63 65 178 6 0.337145 0.845340 0.337145 0.793836 0.345655 0.793836 
3 63 178 176 6 0.337145 0.845340 0.345655 0.793836 0.345655 0.845340 
3 64 62 177 6 0.214981 0.793836 0.214981 0.845340 0.206471 0.845340 
3 64 177 179 6 0.214981 0.793836 0.206471 0.845340 0.206471 0.793836 
3 65 67 180 6 0.337145 0.793836 0.337145 0.742332 0.345655 0.742332 
3 65 180 178 6 0.337145 0.793836 0.345655 0.742332 0.345655 0.793836 
3 66 64 179 6 0.214981 0.742332 0.214981 0.793836 0.206471 0.793836 
3 66 179 181 6 0.214981 0.742332 0.206471 0.793836 0.206471 0.742332 
3 67 69 182 6 0.337145 0.742332 0.337145 0.690828 0.345655 0.690828 
3 67 182 180 6 0.337145 0.742332 0.345655 0.690828 0.345655 0.742332 
3 68 66 181 6 0.214981 0.690828 0.214981 0.742332 0.206471 0.742332 
3 68 181 183 6 0.214981 0.690828 0.206471 0.742332 0.206471 0.690828 
3 69 71 184 6 0.337145 0.690828 0.337145 0.639323 0.345656 0.639323 
3 69 184 182 6 0.337145 0.690828 0.345656 0.639323 0.345655 0.690828 
3 70 68 183 6 0.214981 0.639323 0.214981 0.690828 0.206471 0.690828 
3 70 183 185 6 0.214981 0.639323 0.206471 0.690828 0.206471 0.639323 
3 71 73 186 6 0.337145 0.639323 0.337145 0.587820 0.345656 0.587820 
3 71 186 184 6 0.337145 0.639323 0.345656 0.587820 0.345656 0.639323 
3 72 70 185 6 0.214981 0.587820 0.214981 0.639323 0.206471 0.639323 
3 72 185 187 6 0.214981 0.587820 0.206471 0.639323 0.206471 0.587820 
3 73 75 188 6 0.337145 0.587820 0.337145 0.536315 0.345656 0.536315 
3 73 188 186 6 0.337145 0.587820 0.345656 0.536315 0.345656 0.587820 
3 74 72 187 6 0.214981 0.536315 0.214981 0.587820 0.206471 0.587820 
3 74 187 189 6 0.214981 0.536315 0.206471 0.587820 0.206471 0.536315 
3 75 41 153 6 0.337145 0.536315 0.337145 0.484811 0.345656 0.484811 
3 75 153 188 6 0.337145 0.536315 0.345656 0.484811 0.345656 0.536315 
3 38 74 189 6 0.214981 0.484811 0.214981 0.536315 0.206471 0.536315 
3 38 189 154 6 0.214981 0.484811 0.206471 0.536315 0.206471 0.484811 
3 3 2 155 6 0.197961 0.484811 0.197961 0.433307 0.206471 0.433307 
3 3 155 154 6 0.197961 0.484811 0.206471 0.433307 0.206471 0.484811 
3 2 5 157 6 0.197961 0.433307 0.197961 0.381803 0.206471 0.381803 
3 2 157 155 6 0.197961 0.433307 0.206471 0.381803 0.206471 0.433307 
3 5 7 159 6 0.197961 0.381803 0.197961 0.330299 0.206471 0.330299 
3 5 159 157 6 0.197961 0.381803 0.206471 0.330299 0.206471 0.381803 
3 7 9 161 6 0.197961 0.330299 0.197961 0.278795 0.206471 0.278795 
3 7 161 159 6 0.197961 0.330299 0.206471 0.278795 0.206471 0.330299 
3 9 11 163 6 0.197961 0.278795 0.197961 0.227291 0.206471 0.227291 
3 9 163 161 6 0.197961 0.278795 0.206471 0.227291 0.206471 0.278795 
3 11 13 165 6 0.197961 0.227291 0.197961 0.175787 0.206471 0.175787 
3 11 165 163 6 0.197961 0.227291 0.206471 0.175787 0.206471 0.227291 
3 13 15 167 6 0.197961 0.175787 0.197961 0.124283 0.206471 0.124283 
3 13 167 165 6 0.197961 0.175787 0.206471 0.124283 0.206471 0.175787 
3 15 17 169 6 0.197961 0.124283 0.197961 0.072778 0.206471 0.072778 
3 15 169 167 6 0.197961 0.124283 0.206471 0.072778 0.206471 0.124283 
3 17 19 171 6 0.197961 0.072778 0.197961 0.021274 0.206471 0.021274 
3 17 171 169 6 0.197961 0.072778 0.206471 0.021274 0.206471 0.072778 
3 23 22 175 6 0.197961 0.948348 0.197961 0.896844 0.206471 0.896844 
3 23 175 174 6 0.197961 0.948348 0.206471 0.896844 0.206471 0.948348 
3 22 25 177 6 0.197961 0.896844 0.197961 0.845340 0.206471 0.845340 
3 22 177 175 6 0.197961 0.896844 0.206471 0.845340 0.206471 0.896844 
3 25 27 179 6 0.197961 0.845340 0.197961 0.793836 0.206471 0.793836 
3 25 179 177 6 0.197961 0.845340 0.206471 0.793836 0.206471 0.845340 
3 27 29 181 6 0.197961 0.793836 0.197961 0.742332 0.206471 0.742332 
3 27 181 179 6 0.197961 0.793836 0.206471 0.742332 0.206471 0.793836 
3 29 31 183 6 0.197961 0.742332 0.197961 0.690828 0.206471 0.690828 
3 29 183 181 6 0.197961 0.742332 0.206471 0.690828 0.206471 0.742332 
3 31 33 185 6 0.197961 0.690828 0.197961 0.639323 0.206471 0.639323 
3 31 185 183 6 0.197961 0.690828 0.206471 0.639323 0.206471 0.690828 
3 33 35 187 6 0.197961 0.639323 0.197961 0.587820 0.206471 0.587820 
3 33 187 185 6 0.197961 0.639323 0.206471 0.587820 0.206471 0.639323 
3 35 37 189 6 0.197961 0.587820 0.197961 0.536315 0.206471 0.536315 
3 35 189 187 6 0.197961 0.587820 0.206471 0.536315 0.206471 0.587820 
3 37 3 154 6 0.197961 0.536315 0.197961 0.484811 0.206471 0.484811 
3 37 154 189 6 0.197961 0.536315 0.206471 0.484811 0.206471 0.536315 
3 77 76 153 6 0.354146 0.433202 0.354146 0.484706 0.345656 0.484811 
3 77 153 152 6 0.354146 0.433202 0.345656 0.484811 0.345656 0.433307 
3 80 77 152 6 0.354146 0.381698 0.354146 0.433202 0.345656 0.433307 
3 80 152 156 6 0.354146 0.381698 0.345656 0.433307 0.345656 0.381803 
3 82 80 156 6 0.354146 0.330194 0.354146 0.381698 0.345656 0.381803 
3 82 156 158 6 0.354146 0.330194 0.345656 0.381803 0.345656 0.330299 
3 84 82 158 6 0.354146 0.278690 0.354146 0.330194 0.345656 0.330299 
3 84 158 160 6 0.354146 0.278690 0.345656 0.330299 0.345656 0.278795 
3 86 84 160 6 0.354146 0.227186 0.354146 0.278690 0.345656 0.278795 
3 86 160 162 6 0.354146 0.227186 0.345656 0.278795 0.345656 0.227291 
3 88 86 162 6 0.354146 0.175682 0.354146 0.227186 0.345656 0.227291 
3 88 162 164 6 0.354146 0.175682 0.345656 0.227291 0.345656 0.175787 
3 90 88 164 6 0.354147 0.124178 0.354146 0.175682 0.345656 0.175787 
3 90 164 166 6 0.354147 0.124178 0.345656 0.175787 0.345656 0.124283 
3 92 90 166 6 0.354166 0.072778 0.354147 0.124178 0.345656 0.124283 
3 92 166 168 6 0.354166 0.072778 0.345656 0.124283 0.345656 0.072778 
3 94 92 168 6 0.354166 0.021274 0.354166 0.072778 0.345656 0.072778 
3 94 168 170 6 0.354166 0.021274 0.345656 0.072778 0.345656 0.021274 
3 97 96 173 6 0.354146 0.896739 0.354146 0.948243 0.345655 0.948348 
3 97 173 172 6 0.354146 0.896739 0.345655 0.948348 0.345655 0.896844 
3 100 97 172 6 0.354146 0.845235 0.354146 0.896739 0.345655 0.896844 
3 100 172 176 6 0.354146 0.845235 0.345655 0.896844 0.345655 0.845340 
3 102 100 176 6 0.354146 0.793731 0.354146 0.845235 0.345655 0.845340 
3 102 176 178 6 0.354146 0.793731 0.345655 0.845340 0.345655 0.793836 
3 104 102 178 6 0.354146 0.742227 0.354146 0.793731 0.345655 0.793836 
3 104 178 180 6 0.354146 0.742227 0.345655 0.793836 0.345655 0.742332 
3 106 104 180 6 0.354146 0.690723 0.354146 0.742227 0.345655 0.742332 
3 106 180 182 6 0.354146 0.690723 0.345655 0.742332 0.345655 0.690828 
3 108 106 182 6 0.354146 0.639219 0.354146 0.690723 0.345655 0.690828 
3 108 182 184 6 0.354146 0.639219 0.345655 0.690828 0.345656 0.639323 
3 110 108 184 6 0.354146 0.587715 0.354146 0.639219 0.345656 0.639323 
3 110 184 186 6 0.354146 0.587715 0.345656 0.639323 0.345656 0.587820 
3 112 110 186 6 0.354146 0.536211 0.354146 0.587715 0.345656 0.587820 
3 112 186 188 6 0.354146 0.536211 0.345656 0.587820 0.345656 0.536315 
3 76 112 188 6 0.354146 0.484706 0.354146 0.536211 0.345656 0.536315 
3 76 188 153 6 0.354146 0.484706 0.345656 0.536315 0.345656 0.484811 
3 190 191 192 6 0.770469 0.948592 0.708523 0.948592 0.739496 0.772934 
3 191 193 192 6 0.708523 0.948592 0.650312 0.927405 0.739496 0.772934 
3 193 194 192 6 0.650312 0.927405 0.602858 0.887587 0.739496 0.772934 
3 194 195 192 6 0.602858 0.887587 0.571885 0.833939 0.739496 0.772934 
3 195 196 192 6 0.571885 0.833939 0.561128 0.772934 0.739496 0.772934 
3 196 197 192 6 0.561128 0.772934 0.571885 0.711929 0.739496 0.772934 
3 197 198 192 6 0.571885 0.711929 0.602858 0.658281 0.739496 0.772934 
3 198 199 192 6 0.602858 0.658281 0.650312 0.618463 0.739496 0.772934 
3 199 200 192 6 0.650312 0.618463 0.708523 0.597276 0.739496 0.772934 
3 200 201 192 6 0.708523 0.597276 0.770469 0.597276 0.739496 0.772934 
3 201 202 192 6 0.770469 0.597276 0.828680 0.618463 0.739496 0.772934 
3 202 203 192 6 0.828680 0.618463 0.876134 0.658281 0.739496 0.772934 
3 203 204 192 6 0.876134 0.658281 0.907107 0.711928 0.739496 0.772934 
3 204 205 192 6 0.907107 0.711928 0.917864 0.772934 0.739496 0.772934 
3 205 206 192 6 0.917864 0.772934 0.907107 0.833939 0.739496 0.772934 
3 206 207 192 6 0.907107 0.833939 0.876134 0.887587 0.739496 0.772934 
3 207 208 192 6 0.876134 0.887587 0.828680 0.927405 0.739496 0.772934 
3 208 190 192 6 0.828680 0.927405 0.770469 0.948592 0.739496 0.772934 
3 209 210 211 6 0.916784 0.188430 0.927792 0.250855 0.745272 0.250855 
3 210 212 211 6 0.927792 0.250855 0.916784 0.313280 0.745272 0.250855 
3 212 213 211 6 0.916784 0.313280 0.885090 0.368176 0.745272 0.250855 
3 213 214 211 6 0.885090 0.368176 0.836532 0.408922 0.745272 0.250855 
3 214 215 211 6 0.836532 0.408922 0.776966 0.430602 0.745272 0.250855 
3 215 216 211 6 0.776966 0.430602 0.713578 0.430602 0.745272 0.250855 
3 216 217 211 6 0.713578 0.430602 0.654012 0.408922 0.745272 0.250855 
3 217 218 211 6 0.654012 0.408922 0.605454 0.368176 0.745272 0.250855 
3 218 219 211 6 0.605454 0.368176 0.573760 0.313280 0.745272 0.250855 
3 219 220 211 6 0.573760 0.313280 0.562753 0.250855 0.745272 0.250855 
3 220 221 211 6 0.562753 0.250855 0.573760 0.188430 0.745272 0.250855 
3 221 222 211 6 0.573760 0.188430 0.605454 0.133534 0.745272 0.250855 
3 222 223 211 6 0.605454 0.133534 0.654012 0.092789 0.745272 0.250855 
3 223 224 211 6 0.654012 0.092789 0.713578 0.071108 0.745272 0.250855 
3 224 225 211 6 0.713578 0.071108 0.776966 0.071108 0.745272 0.250855 
3 225 226 211 6 0.776966 0.071108 0.836532 0.092789 0.745272 0.250855 
3 226 227 211 6 0.836532 0.092789 0.885090 0.133534 0.745272 0.250855 
3 227 209 211 6 0.885090 0.133534 0.916784 0.188430 0.745272 0.250855 
3 228 229 230 6 0.653927 0.522083 0.645699 0.522083 0.649813 0.498749 
3 229 231 230 6 0.645699 0.522083 0.637966 0.519268 0.649813 0.498749 
3 231 232 230 6 0.637966 0.519268 0.631663 0.513979 0.649813 0.498749 
3 232 233 230 6 0.631663 0.513979 0.627548 0.506853 0.649813 0.498749 
3 233 234 230 6 0.627548 0.506853 0.626120 0.498749 0.649813 0.498749 
3 234 235 230 6 0.626120 0.498749 0.627548 0.490646 0.649813 0.498749 
3 235 236 230 6 0.627548 0.490646 0.631663 0.483520 0.649813 0.498749 
3 236 237 230 6 0.631663 0.483520 0.637966 0.478230 0.649813 0.498749 
3 237 238 230 6 0.637966 0.478230 0.645699 0.475416 0.649813 0.498749 
3 238 239 230 6 0.645699 0.475416 0.653927 0.475416 0.649813 0.498749 
3 239 240 230 6 0.653927 0.475416 0.661660 0.478230 0.649813 0.498749 
3 240 241 230 6 0.661660 0.478230 0.667963 0.483520 0.649813 0.498749 
3 241 242 230 6 0.667963 0.483520 0.672077 0.490646 0.649813 0.498749 
3 242 243 230 6 0.672077 0.490646 0.673506 0.498749 0.649813 0.498749 
3 243 244 230 6 0.673506 0.498749 0.672077 0.506853 0.649813 0.498749 
3 244 245 230 6 0.672077 0.506853 0.667963 0.513979 0.649813 0.498749 
3 245 246 230 6 0.667963 0.513979 0.661660 0.519268 0.649813 0.498749 
3 246 228 230 6 0.661660 0.519268 0.653927 0.522083 0.649813 0.498749 
