ply
format ascii 1.0
comment VCGLIB generated
element vertex 453
property float x
property float y
property float z
property float nx
property float ny
property float nz
element face 948
property list uchar int vertex_indices
end_header
-0.09072923 0.1225684 0.0302093 0.1467789 0.9712619 -0.187367 
-0.1796604 0.1549531 0.03388101 0.7220478 0.630901 -0.2839208 
-0.3357927 0.2449961 0.2695893 0.2486901 0.6000802 0.7603006 
0.07595748 0.1496262 0.1144716 -0.1400477 0.9833864 0.1154895 
0.0009051152 0.1312197 0.03099982 -0.2017068 0.9672655 -0.1539863 
0.3340591 -0.004789661 0.2073676 0.6767838 0.4725151 0.5645292 
0.380561 -0.01684472 0.1107923 0.8887602 0.4521668 0.07517052 
-0.08384647 -0.009495365 0.2603742 -0.08529836 0.517352 0.851511 
0.3166639 0.07146657 0.120474 0.7030956 0.7033178 0.1048839 
-0.3079094 0.3412449 -0.1155806 0.8399878 0.510191 0.1847312 
0.4110774 -0.09894538 0.02972426 0.9692945 0.2126429 -0.1234953 
-0.09372846 0.4139718 -0.04579226 0.5329059 0.1961191 0.8231334 
-0.4451818 0.1739478 0.3069237 -0.6227421 0.2726441 0.7333877 
-0.3394515 0.09446637 0.3382457 0.4428797 -0.01009777 0.8965243 
0.1549743 0.1537635 0.1139864 0.1161244 0.9844314 0.1319467 
0.3830434 -0.01729415 0.03854038 0.8955442 0.4421023 -0.05045954 
0.3716182 -0.03699598 -0.03443043 0.8496721 0.3695657 -0.3761363 
-0.4887955 0.1743312 0.1092107 -0.9966872 0.07867608 -0.02061137 
-0.4254853 -0.003917242 0.2011662 -0.7628573 -0.2847586 0.5804839 
-0.3286344 0.3198577 0.1143903 -0.02412346 0.9986112 0.04683759 
-0.4102618 0.2981798 0.193996 -0.3583901 0.877841 0.3177291 
0.1550095 0.09745369 0.2250331 0.1527711 0.6725754 0.724088 
-0.2256224 0.2461394 0.1183168 0.8619381 0.3504684 0.3663803 
-0.3997493 0.1638491 0.3355525 -0.01219319 0.40606 0.9137651 
0.07657788 0.1333412 0.1776794 -0.1340255 0.8928546 0.4299394 
-0.201047 0.142376 0.17439 0.5693074 0.5283451 0.6298735 
-0.4291528 -0.09877552 -0.04057256 -0.8531472 -0.03522725 -0.5204795 
0.2308819 0.131755 0.1186763 0.4204375 0.8850463 0.1998135 
-0.4837428 0.0829202 0.04032895 -0.9467567 -0.08864658 -0.3095056 
-0.07871515 0.4710417 -0.0559 -0.5053976 0.7976117 0.3292248 
-0.4117185 0.2379374 0.2783834 -0.3083317 0.6357337 0.707654 
-0.00524931 0.003769172 0.2705212 -0.2137384 0.4404694 0.8719534 
-0.01810143 0.489653 -0.124951 -0.01251861 0.9998437 -0.01248421 
-0.1335716 0.398057 -0.08999991 -0.5016159 0.1236285 -0.8562111 
0.1540946 0.134174 0.1805827 0.09640688 0.8958247 0.4338246 
-0.1721359 0.1470883 0.1120572 0.5886064 0.7775533 0.2212542 
0.2403323 0.07999235 0.2103728 0.3984358 0.640332 0.6566764 
-0.1752502 0.3917651 0.01150373 0.02108377 0.5204254 0.8536468 
-0.4779545 0.1628643 0.04282079 -0.8804454 0.1096211 -0.4613016 
-0.2634286 0.2460601 0.2044946 0.7516228 0.3257608 0.5735357 
0.4081535 -0.09455096 0.1127737 0.9615276 0.2213743 0.1626595 
0.3881417 -0.1030074 0.1849362 0.8883615 0.2291169 0.3978938 
-0.2571056 0.3093493 0.1077263 0.5079624 0.8371941 0.2026823 
-0.02061887 0.3437696 -0.05124473 0.73661 -0.05036425 0.67444 
-0.3667776 -0.2785559 0.1162607 -0.5965748 -0.7893988 0.1447344 
-0.3298154 0.3139161 0.03460206 0.06842622 0.9824479 -0.1735342 
-0.4824184 0.07172433 0.2685715 -0.8560359 -0.3145028 0.4102322 
0.2961418 0.06745482 0.1853248 0.5757362 0.6842805 0.4475357 
0.3925876 -0.1065399 -0.04063198 0.8537796 0.2150246 -0.474157 
-0.3484148 0.3803182 -0.1324768 0.2597744 0.9155505 0.3070579 
0.07474305 0.09894075 0.2260893 -0.07999884 0.6998202 0.7098252 
0.3139839 -0.09570095 0.2747365 0.545184 0.2517603 0.7996194 
-0.0001265763 0.3593209 -0.09997839 0.2737333 -0.7103159 -0.6484762 
-0.3893042 0.4198936 -0.2754721 -0.9719672 -0.1592544 -0.1729676 
-0.4489517 -0.01568152 0.01861437 -0.9018828 0.05343761 -0.4286628 
0.3604414 0.01774092 0.1331377 0.7822675 0.5843684 0.2158036 
0.07201599 -0.4297934 0.3064042 -0.008806756 -0.3905154 0.9205543 
0.1579034 -0.4233687 0.3056567 0.244333 -0.4574665 0.8550005 
-0.2539954 0.3294476 0.03956328 -0.2491913 0.9539024 0.1672542 
-0.4867705 0.0730792 0.1934217 -0.9243365 -0.3328157 0.1866437 
-0.2776971 0.1361039 0.2602955 0.6816611 0.1423387 0.7176892 
-0.00092363 0.131167 0.1147227 -0.2371234 0.9453098 0.2239687 
-0.324768 0.3044981 0.2002033 0.1772973 0.8545746 0.4881271 
-0.172816 0.4076469 -0.04018791 -0.646708 0.6859641 -0.3334998 
-0.2629257 -0.4263931 0.279458 -0.362144 0.6400363 0.6776469 
-0.3891695 0.3269031 -0.1154438 -0.9999275 0.006185173 -0.01033604 
-0.1715226 0.3191638 0.036876 0.6534275 0.1475513 0.7424697 
-0.1666695 -0.433521 0.27839 -0.1703948 0.2018384 0.9644827 
-0.05238633 -0.1262114 0.3291634 -0.6385757 0.1536408 0.754066 
0.02190763 0.1223437 0.1722559 -0.3101942 0.8767309 0.3675901 
-0.4676919 -0.1182375 0.04221817 -0.9670795 -0.0756842 -0.2429591 
-0.3395493 0.3305513 -0.04926668 0.3279146 0.860181 0.3905903 
-0.3335885 0.2321016 -0.05389638 0.404672 -0.09196755 -0.9098256 
0.2402259 -0.009687018 0.2717135 0.2659058 0.4506478 0.85218 
-0.125529 0.4194574 -0.0002204991 -0.003296894 0.9088868 0.4170299 
-0.3234608 0.0623856 -0.06906554 -0.3074243 0.2645447 -0.9140604 
-0.3355251 0.4139917 -0.2926387 0.7199427 0.639353 0.2700194 
-0.4853171 0.2530725 0.1220033 -0.8936691 0.4475993 -0.0317862 
0.1604696 0.05341702 0.2526627 0.130554 0.5119761 0.8490207 
0.3205937 -0.09708226 -0.1214521 0.5636533 0.2909604 -0.7730698 
0.1532748 -0.01235051 0.2840124 0.1253835 0.5105804 0.850639 
-0.3513294 0.1511595 0.3282844 0.4371139 0.4551167 0.7757578 
0.1551055 0.1526664 0.03447583 0.07311229 0.9890972 -0.1278336 
0.2373701 -0.4325052 0.2769136 0.4937087 -0.4461524 0.7464582 
0.2133518 -0.1109277 0.3330172 0.3407245 0.3302823 0.8802389 
0.07608061 0.05056188 0.2618824 -0.03475459 0.4722833 0.8807614 
-0.4205886 0.06750109 -0.02757946 -0.6420434 0.03685051 -0.7657822 
-0.4045416 0.2413346 -0.0295357 -0.7900385 0.1366637 -0.5976305 
0.154083 -0.01012985 -0.1419325 0.1053714 0.4984604 -0.8604848 
-0.01177979 0.07993288 0.2129972 -0.2924784 0.7356948 0.6109087 
0.07641873 0.1484167 0.03552807 -0.1426865 0.9778922 -0.1528638 
-0.4747901 0.2312292 0.1880577 -0.907106 0.3718263 0.1972409 
0.0652214 0.1025361 -0.06869503 -0.08446448 0.7757269 -0.6253908 
-0.3419075 0.4703279 -0.362529 0.2062917 0.9580374 -0.1990176 
-0.081834 0.1090065 0.1347537 0.0429047 0.8891136 0.4556712 
-0.445012 0.2724834 0.2127567 -0.6814766 0.6661832 0.3029681 
-0.4716138 -0.1109436 0.1145033 -0.9626392 -0.1552899 0.2218353 
-0.08654102 0.0966606 -0.04584169 0.128625 0.842159 -0.5236639 
-0.08741277 0.06761345 0.1985266 0.004339956 0.6971977 0.7168658 
-0.4002985 0.08522018 0.3358862 -0.3377442 -0.2864991 0.8965753 
0.3355138 0.004886127 -0.05294149 0.6438143 0.5054974 -0.574435 
-0.331894 -0.09825736 -0.1153942 -0.3997776 0.1429051 -0.9054039 
-0.3844684 -0.1095596 -0.09434608 -0.6164713 0.01872311 -0.7871547 
-0.4291197 -0.0835831 0.2016408 -0.8067828 0.01983621 0.5905151 
-0.4507739 0.1926187 0.00887488 -0.7882874 0.1710127 -0.5910649 
-0.07789958 -0.4360973 0.335867 -0.5556868 0.201637 0.8065698 
-0.001574633 -0.4320545 0.3377639 0.430098 0.1327314 0.8929715 
-0.3185931 0.4180167 -0.3781906 -0.03151692 -0.3887665 -0.9207971 
-0.08167934 0.4173425 -0.113276 -0.4665626 0.1123087 -0.8773291 
-0.2561466 0.1801274 0.2145795 0.7638931 0.3053124 0.5685522 
-0.3246338 0.166962 0.2916347 0.6079322 0.3118579 0.7301803 
-0.1655202 0.3151388 -0.05334848 -0.03162912 -0.7345876 -0.6777763 
-0.2447829 -0.2399011 0.2585877 -0.202354 -0.5392303 0.8174862 
-0.1574438 -0.1127942 -0.1531105 -0.2358003 0.006685381 -0.9717786 
0.001362462 -0.1029789 0.3505671 -0.3579266 0.404406 0.8416319 
0.07608808 -0.09072956 0.3548174 -0.04591581 0.4541638 0.8897343 
0.3956635 -0.2676859 0.1916762 0.5837469 0.2532281 0.7714371 
0.3044687 0.06047555 -0.02971547 0.6029838 0.6972182 -0.3876821 
-0.1036798 -0.4142891 0.2943458 -0.5705844 0.1862013 0.7998516 
-0.2408795 0.07142691 0.2299629 0.5133746 0.2530906 0.819995 
0.3950026 -0.1864047 -0.04212009 0.891378 -0.05619654 -0.4497636 
0.3120903 -0.4309719 0.1977394 0.4437189 -0.7027004 0.5561706 
-0.09299154 -0.078157 -0.1603277 -0.3339321 0.3440695 -0.8775566 
0.367958 -0.01743291 0.1726062 0.8401345 0.3968565 0.3697013 
-0.07273387 -0.114118 -0.1960521 -0.5526074 0.3233782 -0.7681482 
0.001155597 -0.4227501 0.2821513 -0.007859692 -0.6427145 0.7660655 
0.1405188 -0.396572 0.3279804 0.1124631 -0.4687226 0.8761571 
0.401578 -0.4093011 0.1800772 0.4345133 -0.5776766 0.6910051 
-0.03858711 0.4856413 -0.07843524 0.6063268 0.3082287 0.7330504 
0.0784369 -0.3387506 0.3522894 -0.1464053 -0.3200263 0.9360281 
0.1506094 -0.3441965 0.3483656 0.265983 -0.3008955 0.9158138 
-0.4681129 -0.01322953 0.1105041 -0.975756 -0.1954305 0.09852451 
-0.2587057 -0.4014409 0.1982906 -0.6528939 0.6791182 0.3354522 
-0.08017246 -0.3531916 0.2598494 -0.3016275 0.2666182 0.9153883 
0.07613513 -0.01230422 0.2874214 -0.08410011 0.4947536 0.8649544 
-0.02589757 -0.350688 0.2912157 -0.454321 0.09138574 0.8861383 
0.008888952 -0.3325876 0.3326087 -0.4630342 -0.3276035 0.8235747 
-0.2599819 0.2553327 -0.02128803 0.04994079 0.2634273 -0.9633857 
-0.5 0.07473809 0.1151074 -0.9926825 -0.1167052 -0.03100565 
-0.2932358 0.3348076 -0.1974876 0.9020381 -0.4315267 -0.01058454 
-0.4500297 -0.006071822 0.1397872 0 0 0 
0.3381099 -0.3549397 0.2280529 0.5564201 -0.2731123 0.7847334 
0.3982979 -0.3418483 0.204755 0.3877821 -0.06457058 0.9194866 
-0.1716072 0.06233936 0.205716 0.1672741 0.5756863 0.8003778 
-0.3344385 0.3235985 -0.2854869 -0.2240619 -0.6263062 -0.746684 
0.2956409 -0.03041987 0.2585983 0.4939106 0.3878212 0.7782333 
-0.07864508 0.4677768 -0.1000273 -0.7579789 0.5213218 -0.3920353 
-0.3884583 -0.1092768 0.2495841 -0.6175815 0.01123982 0.7864267 
-0.01080429 -0.06056281 0.2980007 -0.2368701 0.5843251 0.7761809 
-0.2352671 -0.3371882 0.1904614 -0.7884849 -0.4569653 0.4116726 
-0.1698816 -0.3448713 0.2544874 -0.4299261 -0.0941276 0.8979441 
-0.4349588 0.05210842 0.3056699 -0.449272 -0.5677174 0.68982 
0.2110181 0.1277038 0.1699777 0.3340795 0.8261213 0.453778 
-0.1414193 0.1057614 0.161259 0.2947195 0.7445093 0.5990379 
-0.2772014 0.08027655 0.2603815 0.6161798 -0.08837047 0.7826322 
-0.3485623 0.3073467 -0.2102928 -0.4897855 -0.4846765 -0.7247061 
-0.2640584 0.2962036 0.1842125 0.6270023 0.5946129 0.5032929 
-0.2016451 -0.3396614 0.2358662 -0.5359613 -0.5097092 0.6730097 
0.04472765 0.4752187 -0.1872077 0.8200199 0.5298333 0.2164351 
-0.4675009 -0.01118727 0.05214053 -0.9408155 -0.09563382 -0.3251468 
-0.4064635 0.3055092 0.03925972 -0.526432 0.8295441 -0.1863491 
-0.07979705 0.1210351 0.09289405 0.03422962 0.9928305 0.1145253 
-0.4245832 0.3081927 0.1133784 -0.5006915 0.8642688 -0.04845186 
-0.4101177 -0.02355959 -0.04481748 -0.6486648 0.1790991 -0.7397009 
-0.04868983 0.1001568 0.1583846 -0.1673306 0.8598004 0.4824353 
-0.3235031 0.3449857 -0.3565609 0.2953338 -0.8473724 -0.4412913 
-0.403118 -0.2460608 0.1114809 -0.7771389 -0.6214435 0.09931325 
0.05170155 0.4326757 -0.1789285 0.06584214 -0.3426945 -0.9371368 
-0.2586462 -0.3506517 0.04538646 -0.9700687 -0.2333911 -0.06704745 
-0.005999449 0.09557009 -0.05505238 -0.1602938 0.8551452 -0.4929833 
-0.3443456 0.2554649 -0.1229987 0.005049534 -0.9291524 -0.3696625 
-0.1570195 0.1020272 -0.067144 0.1014182 0.7493103 -0.6544069 
-0.3370888 0.2672424 -0.1936768 0.1586204 -0.7273254 -0.6677105 
-0.2412986 -0.3451007 0.1136044 -0.8400294 -0.521292 0.1503507 
0.003790001 -0.2613378 0.3474522 -0.5439548 -0.2416366 0.8035702 
0.07548651 -0.264686 0.3692636 -0.05551515 -0.1684192 0.9841509 
0.1624594 -0.267253 0.3619064 0.2346865 -0.118669 0.9648005 
0.02099292 0.06088535 0.2462406 -0.2492236 0.5746299 0.7795435 
0.4718001 -0.3437015 0.1721416 0.6740075 -0.1684648 0.719259 
0.1498443 -0.09639359 0.350343 0.2083413 0.4138096 0.8862029 
-0.1692603 -0.2664797 0.2656562 -0.1813263 -0.1532478 0.9714093 
-0.07807472 -0.2622862 0.2672576 -0.3648749 -0.1573408 0.9176657 
-0.1352345 0.3581841 -0.08843354 -0.400894 -0.4024824 -0.8229774 
-0.255263 -0.279737 0.2221958 -0.4742674 -0.4582476 0.7517178 
-0.3878039 0.3159187 -0.0429964 -0.6128298 0.7863877 0.07767807 
-0.2493254 0.09746692 -0.06637741 0.005065318 0.5369256 -0.8436143 
0.2326029 -0.01173587 -0.1268439 0.3714551 0.4694153 -0.8010434 
0.4689318 -0.2783847 0.1708805 0.5826807 0.4038033 0.7052844 
-0.4588159 -0.08818637 0.01554984 -0.9269667 0.04963383 -0.3718458 
-0.3894893 0.3565517 -0.2004558 -0.8361925 -0.3676159 -0.4069897 
-0.1758172 0.1301623 -0.02549243 0.2553771 0.8248693 -0.5043544 
-0.09119385 -0.1845859 0.2836377 -0.4567289 -0.2484813 0.8541989 
-0.2475191 -0.009323508 -0.1265048 -0.2234734 0.3104587 -0.9239454 
-0.3627077 0.01518974 -0.06616386 -0.4663464 0.2298056 -0.8542309 
-0.2503022 -0.1042644 -0.143793 -0.2180469 0.07200851 -0.9732782 
-0.2069674 -0.275905 0.2433319 -0.2994502 -0.5695906 0.7654386 
-0.1970504 0.2471638 0.04167913 0.9928073 -0.1130141 0.03951607 
-0.4156986 0.1445768 -0.03486947 -0.5263867 0.04094269 -0.849259 
-0.1606565 -0.01205968 -0.135141 -0.09894162 0.2993942 -0.9489856 
0.07383965 -0.09645043 -0.2212203 0.1834953 0.4134206 -0.8918593 
0.07615846 -0.01071144 -0.1507319 0.04298936 0.5670022 -0.8225937 
-0.0792366 0.333988 -0.04475086 0.3502063 -0.9362638 0.02767138 
-0.001992992 -0.009713461 -0.1477505 -0.04765863 0.5793397 -0.8136917 
-0.4694625 0.1988048 0.2565535 -0.7947229 0.4351362 0.4231691 
-0.3304552 0.1363683 -0.0608907 -0.03529436 0.1548795 -0.9873027 
0.4220796 -0.2395541 0.139433 0.7291185 0.3565234 0.5841894 
-0.1550685 0.06218735 -0.1001899 0.02207877 0.5928649 -0.8049992 
0.04512817 0.3951094 -0.1353531 0.7665671 -0.474956 0.4321939 
-0.236349 0.3284562 -0.02245361 -0.6585309 0.1826607 -0.7300494 
0.1507123 -0.09547426 -0.2033208 0.2462939 0.4215346 -0.8727244 
-0.3955558 -0.2315583 0.1723412 -0.6962253 -0.6120588 0.3750391 
-0.29751 0.2787422 -0.1031706 0.9424648 -0.3303148 0.05149993 
-0.3390993 -0.2589863 0.1988458 -0.4700754 -0.6772721 0.5659784 
-0.2447459 -0.1778578 -0.1371336 -0.1159367 -0.2740612 -0.9546985 
-0.1730473 -0.1906253 0.2796134 -0.01350096 -0.153987 0.9879807 
-0.007144813 -0.1902665 0.3645395 -0.3591464 -0.1663267 0.9183405 
0.07596422 -0.1870643 0.3781906 -0.01133045 0.0619606 0.9980143 
0.1623111 -0.1755849 0.3650907 0.2304533 0.07251147 0.970378 
-0.4463358 0.2529667 0.03490377 -0.7867313 0.4550494 -0.4171138 
0.36023 0.0174369 0.01371092 0.7974762 0.5590477 -0.2269302 
-0.3358409 -0.1812694 0.2652411 -0.389508 -0.3235182 0.8623337 
-0.2537925 -0.1883557 0.2838961 -0.09615303 -0.2548754 0.9621815 
0.367728 -0.12989 -0.09547492 0.7579187 0.1432875 -0.6364182 
-0.3092411 -0.4501939 0.2580577 -0.8400218 0.165329 0.5167491 
-0.3461591 0.4016855 -0.2108995 0.3532842 0.8710456 0.3412767 
-0.2927996 0.3171216 -0.1412419 0.9318112 0.2345337 -0.2769875 
-0.2960301 0.3608674 -0.2657349 0.9454781 0.2071858 -0.2512871 
-0.3383393 -0.1017034 0.2750683 -0.4128596 0.1115467 0.9039382 
-0.2105621 0.2084476 0.09396275 0.9332842 0.3383586 0.1203917 
-0.4026547 0.01564583 0.2723638 -0.3458747 -0.7840431 0.5154098 
0.234197 -0.1882546 0.3391002 0.4749679 0.03461063 0.8793223 
0.1508276 0.1051005 -0.06972275 0.1030367 0.7621017 -0.6392062 
-0.2523609 -0.09410154 0.2883474 -0.03042603 0.08798413 0.9956571 
-0.1698459 -0.1033887 0.2821473 -0.01574248 0.07017073 0.9974108 
-0.08174741 -0.09085117 0.2901549 -0.3068016 0.318885 0.8967637 
0.251737 -0.1364502 0.3215616 0.4628348 0.208012 0.8616931 
0.2293618 0.1315502 0.03005524 0.4318091 0.8868417 -0.1644776 
-0.07612899 -0.006871512 -0.1409484 -0.1736949 0.4706249 -0.8650678 
0.2381804 -0.08557179 0.311821 0.3304838 0.3979388 0.8558185 
0.07671218 0.05857876 -0.1096013 -0.01456361 0.5858222 -0.8103087 
-0.23347 0.3627775 0.01578731 -0.5731791 0.726923 0.3782177 
0.3522772 -0.07864409 -0.08334914 0.727056 0.2688971 -0.6317309 
-0.4871769 0.1563476 0.1913497 -0.9920235 0.08373614 0.09422155 
-0.3329699 -0.005331618 0.2630046 0.01394294 -0.1845368 0.9827268 
-0.1762647 -0.01877456 0.2616702 0.02807753 0.4147011 0.9095244 
0.1651597 -0.06218336 0.3188716 -1 0 0 
-0.2511627 -0.02551587 0.2680804 0.04017365 0.3719442 0.9273854 
-0.3265618 0.05259749 0.309106 0.4537848 -0.4317889 0.7795112 
-0.2158455 0.2152416 0.01328291 0.7190969 -0.1129885 -0.6856627 
-0.2508633 0.1629899 -0.03590645 0.4437808 0.3538462 -0.8233174 
0.01812059 0.4899901 -0.1774983 -0.375149 0.1688489 -0.9114567 
-0.07973427 0.3570539 -0.09857658 -0.133783 -0.5336556 -0.8350532 
-0.2557184 0.02325291 0.2431693 0.2077891 0.2238782 0.9522092 
-0.1552503 0.01809118 0.2412989 0.05521202 0.5168032 0.854322 
-0.09591013 0.01790613 0.2410048 0.01064007 0.619026 0.7852984 
0.2808688 0.01885123 0.2396968 0.4586592 0.5228062 0.718544 
-0.1949249 0.2622195 -0.01853043 0.5751297 -0.5120018 -0.6380283 
-0.00559761 -0.4793112 0.3318804 0.5226753 -0.6217968 0.583249 
-0.002292383 0.4145601 -0.1235426 0.993982 -0.07014201 0.0841425 
-0.2607532 -0.4812581 0.2762176 -0.1515214 -0.6468453 0.7474173 
0.1541722 -0.480161 0.2743651 0.1472632 -0.674551 0.7233911 
-0.1672683 -0.4798319 0.2716936 0.01061333 -0.8453934 0.5340387 
-0.3236379 -0.01970646 -0.1020226 -0.4229741 0.2474069 -0.8717126 
0.2857721 -0.408742 0.2481076 0.6329609 -0.4243118 0.6475493 
0.3664029 -0.1721151 -0.09737307 0.7693326 -0.1893282 -0.6101493 
-0.4423656 -0.1849719 0.1193266 -0.885649 -0.4014635 0.2333515 
0.4675577 -0.3976631 0.1163994 0.6843429 -0.6813164 0.2597743 
0.2388287 -0.3579191 0.3016185 0.4722177 -0.26686 0.8401168 
0.1640315 0.06929217 -0.1049504 0.1458797 0.5740101 -0.8057491 
-0.09237359 0.3258787 0.002629221 0.3066153 -0.9455764 0.108961 
0.3047912 -0.3362907 0.2655888 0.5893462 -0.2465413 0.769343 
0.5 -0.3486789 0.1153096 0.93565 -0.3267327 0.1334348 
0.227075 -0.1177993 -0.1816772 0.4128875 0.3139065 -0.8549776 
0.2119652 -0.3250492 0.3277517 0.4409886 -0.2527515 0.8611886 
0.3583378 -0.1053516 0.2382356 0.7650213 0.1620383 0.6232865 
-0.01577171 0.3875947 -0.07830703 0.6690586 0.4404953 0.5986022 
0.2149499 -0.2645175 0.3402958 0.4379299 -0.1507597 0.8862782 
0.2547567 -0.2620033 0.3162881 0.5537304 -0.1541153 0.81831 
0.3130837 -0.262813 0.2732138 0.5966185 -0.1323238 0.7915408 
0.3590714 -0.2637653 0.2383426 0.7171519 -0.1115412 0.6879329 
0.4954773 -0.2613048 0.1094744 0.8334441 0.5118586 0.2082593 
0.3250237 -0.1933172 -0.130771 0.6594808 -0.09602457 -0.7455631 
-0.3868549 0.4490598 -0.3388643 -0.8405722 0.01796483 -0.5414016 
-0.3175416 -0.3104324 0.1123044 -0.489777 -0.8569353 0.1605629 
-0.4170949 -0.1738976 0.1987579 -0.7446496 -0.3538797 0.5659206 
0.2410263 0.09085777 -0.04972747 0.4555449 0.6724442 -0.5833504 
0.3184133 -0.1864609 0.2813661 0.6292751 -0.02301895 0.7768417 
0.3614044 -0.1884285 0.2393519 0.7403364 -0.02290088 0.6718464 
0.3927833 -0.1861635 0.1917489 0.8888744 0.06902323 0.4529218 
0.4198503 -0.1876287 0.1136177 0.9139192 0.3046685 0.2681954 
-0.4051292 -0.2444151 0.04148852 -0.7831125 -0.6086574 -0.1275575 
-0.07868144 0.05391929 -0.10102 -0.02051645 0.6749409 -0.7375865 
-0.459326 0.03806399 0.02330177 -0.9327457 -0.2555327 -0.2543394 
0.02164591 0.4378837 -0.1755327 -0.5513194 -0.4018862 -0.7311186 
0.231143 -0.4794638 -0.04300538 0.3456016 -0.9065097 -0.2424867 
0.2227798 -0.4752709 -0.1109773 0.3437712 -0.8470861 -0.4052982 
0.2433388 -0.475372 0.2031794 0.2830776 -0.9416139 0.1822922 
0.4034755 -0.4404897 0.03450472 0.4338225 -0.8810868 -0.1883723 
0.2651113 -0.4438266 -0.05626913 0.5453047 -0.7195685 -0.4299582 
0.2420831 -0.4294398 -0.1307809 0.5809093 -0.5644587 -0.5864561 
0.3896552 -0.4106164 -0.02725296 0.3938762 -0.6094692 -0.6880471 
0.4043882 -0.4399167 0.1132912 0.4449915 -0.8729105 0.2000247 
0.4545827 -0.4055551 0.03454536 0.6788615 -0.6911837 -0.2478148 
0.3044925 -0.01703637 -0.09792427 0.4735806 0.498235 -0.7262805 
0.3183525 -0.4180034 -0.04466672 0.4995061 -0.5816764 -0.6419862 
-0.006067526 -0.08560682 -0.20701 -0.223005 0.5616009 -0.7967893 
-0.0928891 -0.4854833 -0.1915757 -0.07142448 -0.8117355 -0.5796414 
0.2877079 -0.3976618 -0.1133982 0.6286476 -0.5678941 -0.5313177 
0.4818949 -0.2585554 0.03514824 0.7716163 0.467805 -0.4310068 
0.4595408 -0.348207 -0.02022396 0.6736326 -0.1990036 -0.7117702 
0.4906045 -0.3538287 0.03004797 0.9386638 -0.1845436 -0.2912969 
0.398522 -0.3465177 -0.04378843 0.4317794 -0.1736316 -0.8851095 
-0.2941723 0.3943229 -0.3522333 0.9991672 0.03954352 -0.01006346 
0.3410747 -0.3541248 -0.0665002 0.6059829 -0.3893833 -0.6936609 
0.3107071 -0.3417075 -0.1200609 0.709453 -0.2926404 -0.6411225 
-0.001949376 0.05387965 -0.10814 -0.07668909 0.6397457 -0.7647512 
-0.1605362 -0.4758479 -0.1783746 -0.757821 -0.1568091 -0.633339 
0.08132119 -0.4276951 -0.1844722 0.1769589 -0.480664 -0.8588642 
-0.323267 -0.4850696 -0.03136088 -0.6502086 -0.5005924 -0.5715209 
0.4298261 -0.2415064 0.03203957 0.7040626 0.5248322 -0.4783795 
0.2802773 -0.1668305 -0.1663262 0.5320145 0.0605006 -0.8445711 
-0.08201046 -0.4306222 -0.1909796 -0.3725504 0.3563778 -0.8568554 
0.2597777 -0.3712497 -0.1601235 0.5557574 -0.3629398 -0.7479362 
-0.06384394 -0.4798095 0.3327588 -0.2328426 -0.6806795 0.6945933 
0.2221453 0.05202249 -0.09995326 0.4273236 0.5203149 -0.7393693 
0.3253793 -0.2627819 -0.1251215 0.6616302 -0.1142202 -0.7410798 
0.3920298 -0.2659424 -0.04027575 0.73527 0.13473 -0.6642484 
0.4559038 -0.2910056 -0.0153751 0.5207288 0.3820998 -0.7634405 
-0.4747775 0.1358197 0.2790635 -0.8881109 0.09282228 0.4501591 
0.4192323 -0.1859018 0.03448594 0.9388922 0.226872 -0.2588637 
-0.3506117 0.2784977 -0.2598071 0 -0.7071068 -0.7071068 
-0.1683211 -0.4278392 -0.1203339 -0.6579316 0.5701546 -0.4919856 
-0.3600258 0.4632297 -0.317495 0.2893253 0.7849864 0.5478022 
-0.3870254 0.4619277 -0.3154151 -0.3698128 0.8464239 0.3831516 
0.3166507 0.07095767 0.03410142 0.7291035 0.6762929 -0.1050529 
-0.3942439 0.3961999 -0.2013024 -0.732703 0.628601 0.2607817 
0.2495646 -0.09846093 -0.1606992 0.4328619 0.3898892 -0.8127835 
-0.05279213 -0.1843222 0.3336041 -0.602174 -0.1920596 0.7749192 
-0.3143328 -0.4787183 0.1034019 -0.7737777 -0.5434205 0.3255184 
-0.3124393 -0.4803487 0.1908038 -0.9515927 -0.2862909 -0.1118427 
-0.3101863 -0.4381831 0.1974096 -0.7969809 0.5976774 -0.08719636 
-0.3094811 -0.4793778 0.2525549 -0.5546663 -0.754926 0.3499029 
-0.331159 -0.4872837 0.03520363 -0.6933826 -0.7164903 0.07656505 
-0.3334947 -0.4355414 0.04035234 -0.9142736 0.3910011 0.1059336 
-0.2634134 -0.426976 0.1285113 -0.8686793 0.4901228 0.07194378 
-0.3038184 -0.4383616 0.09006137 -0.6459377 0.6130121 0.4549514 
-0.27705 -0.4006492 0.03771821 -0.6747699 0.7380266 0.001565439 
-0.0389255 -0.2783577 0.2942335 -0.6670348 -0.2196922 0.7118988 
-0.3043127 -0.2385482 0.2469695 -0.3079937 -0.6364668 0.7071421 
-0.01196154 -0.1767673 -0.2578237 -0.02861449 0.1447743 -0.9890509 
-0.1667277 -0.4851304 -0.1302568 -0.1368042 -0.9855711 -0.09967136 
0.06999987 -0.4832515 -0.1374403 0.08069569 -0.9944966 -0.06681956 
-0.3184609 -0.4423198 -0.03037777 -0.6527243 0.5659861 -0.5035979 
-0.1381108 -0.4351251 -0.1783297 -0.3942144 0.4728149 -0.7880616 
-0.252236 -0.4261049 -0.05397509 -0.5696146 0.3820247 -0.7277337 
-0.1598403 -0.4344258 -0.06989287 0.09519758 -0.6852722 -0.7220384 
-0.09738992 -0.4170325 -0.1145251 -0.7405981 -0.007640027 -0.6719049 
-0.08753636 -0.3398947 -0.1262041 -0.8643312 -0.1328632 -0.4850555 
-0.1679305 -0.3408265 -0.07853438 -0.38566 -0.08829612 -0.9184064 
-0.2480723 -0.3377467 -0.03894202 -0.5897514 -0.3158405 -0.7432619 
-0.05744695 -0.3362405 -0.190659 -0.6279269 -0.1751352 -0.758311 
-0.2493307 0.06412385 -0.09221596 -0.1481491 0.4961533 -0.8555021 
-0.01038989 -0.3508738 -0.2144202 -0.2213973 -0.3264208 -0.9189302 
-0.3388448 -0.2583465 -0.04710867 -0.5131053 -0.6651831 -0.5424523 
-0.3671815 -0.2798222 0.03271648 -0.5900713 -0.7818545 -0.2012942 
-0.02134521 -0.2675339 -0.2454065 -0.4051501 -0.3061833 -0.8614553 
-0.07656982 -0.2665643 -0.195832 -0.8116211 -0.2382492 -0.5333934 
-0.1011981 -0.2729243 -0.132843 -0.6859818 -0.2471691 -0.6843512 
-0.001764978 -0.4852877 -0.1750932 0.122636 -0.686991 -0.7162428 
-0.3957217 -0.2280258 -0.03090505 -0.6851525 -0.58592 -0.4327398 
0.2158237 0.1212466 -0.02142913 0.3223535 0.8406919 -0.4351153 
-0.443022 -0.183083 0.03125209 -0.8968512 -0.4059232 -0.1757389 
-0.4088276 -0.1844134 -0.04615854 -0.7508676 -0.3598002 -0.5538426 
-0.08908488 -0.1869632 -0.2103417 -0.8042614 -0.05799952 -0.5914386 
-0.1191009 -0.171558 -0.1537754 -0.6138092 -0.1522857 -0.7746272 
-0.3347346 -0.1826501 -0.1123963 -0.4202743 -0.2839617 -0.8618209 
-0.2233852 -0.485981 -0.08908918 -0.705961 -0.1909319 -0.6820295 
0.2226363 -0.1802952 -0.1969245 0.4615927 0.08882929 -0.8826333 
0.02013109 -0.1310678 -0.2551662 0.0383967 0.3366515 -0.9408461 
0.001176746 -0.4262318 -0.1907991 -0.07035898 -0.2682075 -0.9607884 
-0.01215454 -0.06499163 -0.1676764 0 0 1 
-0.251505 -0.4895856 -0.04473414 -0.2854806 -0.8607851 -0.4213667 
0.1620561 -0.06554215 -0.1664438 0.5773503 -0.5773503 0.5773503 
0.01721382 0.1210087 -0.02048607 -0.27277 0.9057587 -0.3243422 
0.2314139 -0.3472922 -0.1840909 0.4306254 -0.2230277 -0.8745401 
0.05258982 -0.1873578 -0.2548767 0.1381671 0.07652272 -0.9874483 
0.150268 -0.4535526 -0.1488734 0.0423612 -0.74419 -0.6666235 
0.23171 -0.2632075 -0.1950832 0.4216063 -0.07191892 -0.9039224 
0.07734705 0.1342864 -0.0226657 -0.1264684 0.9002401 -0.4166216 
0.1570285 0.1340881 -0.02477699 0.08325668 0.9142035 -0.396611 
0.1526283 -0.4831166 -0.1223364 -0.1077825 -0.9939018 -0.02328419 
0.3127294 -0.4748301 0.02849443 0.2734549 -0.9216277 -0.275363 
0.1569384 -0.4084208 -0.1781598 0.2077526 -0.4415426 -0.8728569 
0.2102964 -0.3992599 -0.1700511 0.312185 -0.4848733 -0.8169691 
0.1555434 -0.3453366 -0.204948 0.2292276 -0.2774217 -0.9330016 
0.07507727 -0.3510872 -0.2195119 0.0927602 -0.2983673 -0.9499329 
-0.1135162 -0.3346516 -0.07979673 -0.5168538 -0.1508295 -0.8426818 
0.0703762 -0.2629412 -0.241359 0.1506313 -0.2265784 -0.9622746 
0.1529985 -0.2652577 -0.2213948 0.2561521 -0.1534879 -0.9543729 
-0.2609251 -0.2815221 -0.06715272 -0.2836991 -0.5738252 -0.7682705 
-0.1638131 -0.2495894 -0.1105358 -0.2714537 -0.413126 -0.8692755 
-0.0005165106 -0.2459352 -0.2564642 -0.0623695 -0.1752338 -0.9825493 
-0.2517568 -0.2343626 -0.1103739 -0.150443 -0.5056968 -0.8494926 
-0.3059676 -0.2411608 -0.09538239 -0.3457991 -0.5953498 -0.725246 
0.1531955 -0.1897087 -0.2279973 0.311415 0.08124465 -0.9467946 
0.09325134 -0.1804796 -0.2465274 0.2466222 0.1026885 -0.9636559 
-0.04894098 -0.1735447 -0.2490732 -0.4418379 0.162167 -0.8823158 
-0.1570169 -0.1891594 -0.1345157 -0.2321017 -0.2788366 -0.9318686 
-0.3706942 -0.1986449 -0.08446939 0.3713907 0.9284767 0 
-0.003755643 -0.4791359 -0.1329659 -0.01479695 -0.9432524 0.3317468 
-0.09307812 -0.475263 -0.1225684 0.119 -0.7460787 0.655138 
0.07582933 -0.4602272 -0.09977681 0.05053845 -0.9340293 0.353603 
-0.001899137 -0.459362 -0.1059359 -0.08624697 -0.9153771 0.3932508 
0.1654149 -0.4771738 -0.04678627 -0.4417831 -0.8941734 -0.07267458 
0.1440668 -0.4583898 -0.05124592 -0.2680894 -0.9579116 -0.1026327 
0.07636461 -0.4547793 -0.04295734 -0.00801984 -0.999882 0.01310288 
-0.0007960817 -0.4570429 -0.04245365 0.01654464 -0.9997394 0.01573004 
-0.1687778 -0.4865619 -0.04122858 0.3989682 -0.8744658 -0.2759238 
0.240678 -0.480161 0.02920769 0.05927305 -0.9982182 -0.006870453 
-0.08207986 -0.4584592 -0.04233264 -0.05534033 -0.9229805 -0.3808471 
0.1494617 -0.4819309 0.03308917 -0.201368 -0.9714308 -0.125591 
0.1224609 -0.4637433 0.002470642 -0.3983816 -0.8868889 -0.2339236 
0.07697403 -0.4587852 0.03522425 -0.1736027 -0.9792306 -0.1047363 
-0.1650192 -0.4854034 0.03521064 0.002325868 -0.9992108 0.03965456 
-0.002506523 -0.4589523 0.03579713 0.02087008 -0.9994593 -0.02541045 
0.3050496 -0.4753132 0.1200959 0.2406822 -0.9620807 0.1283465 
-0.2480558 -0.4899901 0.03476247 -0.05139676 -0.9985803 0.01399164 
-0.07256534 -0.4600607 0.02537994 0.01915059 -0.9994346 -0.02763805 
0.1093597 -0.4759987 0.06456134 -0.3872744 -0.9154766 -0.1091846 
0.2433229 -0.4796732 0.1261235 0.06059246 -0.997434 0.0381305 
-0.1106287 -0.4890741 0.04359895 -0.08419397 -0.9900591 0.1126696 
0.151045 -0.4835449 0.1150565 -0.2186106 -0.9568399 0.1914861 
0.1130693 -0.4799079 0.08485272 -0.2955023 -0.9552886 0.01010856 
0.3364424 -0.4635701 0.1350233 0.2975411 -0.8807403 0.3684642 
0.07663848 -0.459867 0.1132 -0.2372136 -0.9647238 0.1141833 
-0.1173171 -0.4804948 0.1139898 0.20904 -0.977289 0.03476528 
-0.002075608 -0.4597481 0.1138952 0.02439288 -0.9995275 0.01870326 
-0.05747339 -0.4626362 0.1131881 0.1033277 -0.9945331 0.01507834 
-0.256639 -0.4896213 0.1120123 -0.1888704 -0.9817474 0.02236404 
0.1231605 -0.4632852 0.1438346 -0.2876629 -0.9085741 0.3028915 
0.1818771 -0.4775485 0.1921778 -0.1667115 -0.9793432 0.1144299 
0.1519772 -0.4573727 0.1922102 -0.2907683 -0.9287227 0.2300605 
0.07618972 -0.4551322 0.193957 -0.03188965 -0.9889359 0.1448754 
-0.1029753 -0.4774242 0.18932 0.1841569 -0.9828902 -0.003624442 
-0.06792837 -0.4593508 0.2095631 0.2029509 -0.975225 0.0880181 
-0.002745113 -0.457144 0.1919181 0.05274572 -0.9792535 0.195654 
-0.1615712 -0.4850372 0.1942319 0.07293888 -0.995871 0.05404541 
0.2163616 -0.47683 0.268931 0.4195498 -0.7164379 0.5574 
-0.2507265 -0.4857927 0.1930978 -0.08490112 -0.9958333 0.03328346 
-0.3209248 -0.3082785 0.03487694 -0.5140652 -0.8527255 -0.09271599 
0.07233455 -0.4806263 0.296205 0.2376202 -0.3366593 0.9111515 
-0.08782782 -0.482461 0.2823258 -0.4582322 -0.6455908 0.6109303 
-0.003897078 -0.4821001 0.2993859 0.3407963 -0.8821425 0.3250882 
3 164 94 98 
3 224 335 49 
3 331 350 376 
3 124 122 237 
3 61 89 69 
3 61 161 94 
3 24 89 50 
3 109 25 35 
3 27 34 152 
3 444 443 435 
3 94 35 153 
3 3 61 69 
3 24 69 89 
3 38 218 104 
3 22 42 39 
3 14 24 34 
3 290 166 371 
3 226 76 224 
3 204 197 72 
3 82 3 14 
3 13 81 23 
3 99 13 23 
3 23 110 30 
3 110 2 30 
3 166 265 371 
3 90 61 3 
3 34 24 50 
3 293 167 207 
3 80 78 85 
3 61 94 164 
3 84 238 80 
3 4 161 61 
3 132 149 64 
3 196 22 228 
3 59 46 242 
3 179 84 80 
3 265 96 371 
3 52 258 207 
3 121 127 141 
3 343 168 346 
3 232 227 220 
3 232 243 227 
3 232 246 243 
3 57 126 56 
3 57 130 126 
3 221 232 220 
3 4 61 90 
3 134 80 85 
3 176 217 175 
3 4 0 161 
3 78 21 50 
3 126 130 129 
3 56 126 129 
3 111 182 201 
3 96 70 371 
3 89 164 98 
3 123 6 55 
3 197 87 72 
3 416 419 412 
3 245 80 179 
3 21 78 36 
3 61 164 89 
3 67 132 64 
3 150 149 132 
3 384 387 325 
3 214 221 112 
3 214 233 232 
3 221 214 232 
3 244 246 232 
3 233 244 232 
3 244 252 246 
3 244 143 119 
3 252 244 119 
3 127 142 141 
3 67 150 132 
3 82 90 3 
3 112 180 214 
3 244 253 143 
3 111 201 269 
3 37 74 63 
3 133 150 67 
3 118 133 67 
3 133 180 150 
3 191 214 180 
3 181 191 180 
3 191 234 233 
3 214 191 233 
3 234 244 233 
3 234 7 244 
3 244 98 253 
3 253 98 143 
3 216 217 115 
3 181 180 133 
3 15 16 219 
3 254 98 244 
3 7 254 244 
3 74 11 63 
3 14 3 24 
3 3 69 24 
3 217 216 175 
3 85 78 50 
3 73 78 80 
3 7 98 254 
3 105 133 118 
3 1 248 196 
3 48 241 100 
3 42 156 39 
3 149 173 344 
3 135 133 105 
3 106 135 105 
3 31 7 234 
3 148 31 234 
3 89 98 7 
3 31 89 7 
3 235 84 230 
3 14 27 236 
3 106 125 135 
3 19 20 62 
3 131 54 159 
3 34 50 21 
3 82 14 236 
3 201 52 43 
3 310 308 280 
3 131 159 54 
3 271 310 280 
3 27 14 34 
3 177 89 31 
3 238 73 80 
3 130 176 175 
3 354 331 381 
3 129 130 175 
3 125 136 135 
3 251 52 201 
3 106 56 125 
3 56 129 136 
3 125 56 136 
3 129 175 174 
3 136 129 174 
3 175 216 215 
3 174 175 215 
3 115 114 215 
3 216 115 215 
3 134 85 31 
3 85 177 31 
3 50 89 177 
3 85 50 177 
3 179 80 245 
3 400 407 367 
3 263 83 121 
3 217 179 115 
3 149 132 64 
3 178 187 116 
3 142 178 116 
3 326 120 319 
3 57 83 267 
3 304 391 294 
3 355 354 359 
3 128 29 11 
3 267 273 130 
3 48 16 10 
3 301 302 266 
3 196 66 22 
3 230 84 217 
3 247 13 243 
3 110 81 13 
3 271 178 266 
3 110 13 247 
3 278 277 267 
3 48 10 329 
3 258 11 275 
3 1 196 228 
3 154 247 243 
3 154 110 247 
3 263 141 270 
3 154 60 110 
3 60 154 110 
3 154 60 110 
3 11 74 37 
3 274 5 51 
3 252 154 243 
3 119 252 243 
3 109 110 60 
3 39 2 110 
3 109 39 110 
3 32 128 29 
3 32 128 11 
3 309 300 311 
3 252 119 154 
3 73 145 255 
3 67 64 259 
3 32 29 128 
3 258 275 43 
3 154 119 60 
3 119 109 60 
3 137 256 248 
3 270 267 83 
3 235 238 84 
3 267 130 57 
3 258 32 11 
3 302 310 271 
3 51 238 235 
3 266 302 271 
3 5 36 255 
3 51 235 230 
3 51 145 73 
3 286 51 230 
3 287 274 286 
3 119 25 109 
3 10 40 289 
3 120 48 329 
3 274 51 286 
3 276 230 217 
3 10 16 15 
3 51 5 145 
3 43 11 201 
3 176 276 217 
3 143 25 119 
3 158 207 167 
3 360 321 357 
3 130 273 276 
3 122 198 237 
3 270 278 267 
3 77 218 38 
3 15 6 40 
3 280 187 178 
3 271 280 178 
3 258 207 32 
3 66 58 22 
3 279 287 278 
3 155 139 172 
3 121 141 263 
3 288 41 274 
3 287 288 274 
3 276 176 130 
3 289 288 205 
3 274 41 5 
3 288 287 279 
3 329 10 289 
3 16 100 219 
3 127 178 142 
3 273 267 276 
3 252 119 243 
3 116 279 141 
3 41 123 5 
3 116 288 279 
3 142 116 141 
3 207 158 32 
3 276 277 230 
3 101 102 163 
3 299 298 294 
3 287 286 278 
3 5 255 145 
3 131 159 70 
3 275 11 43 
3 32 158 250 
3 205 288 116 
3 73 36 78 
3 120 329 319 
3 297 391 300 
3 84 179 217 
3 17 77 38 
3 255 36 73 
3 263 270 83 
3 249 248 1 
3 286 230 277 
3 11 37 66 
3 43 52 258 
3 267 277 276 
3 279 278 270 
3 141 279 270 
3 51 73 238 
3 47 36 5 
3 201 66 269 
3 201 11 66 
3 309 310 302 
3 300 309 302 
3 182 33 251 
3 278 286 277 
3 243 246 252 
3 416 427 419 
3 96 131 70 
3 66 256 111 
3 65 335 189 
3 113 374 407 
3 144 139 155 
3 226 224 139 
3 358 400 396 
3 30 91 203 
3 226 139 144 
3 46 328 242 
3 307 304 298 
3 70 159 54 
3 103 265 284 
3 443 261 446 
3 17 38 28 
3 88 200 239 
3 72 170 211 
3 138 17 28 
3 35 1 228 
3 295 299 294 
3 18 131 140 
3 18 59 131 
3 207 258 52 
3 188 70 54 
3 104 87 197 
3 222 48 120 
3 325 326 311 
3 326 281 120 
3 54 159 292 
3 386 299 295 
3 138 59 17 
3 48 100 16 
3 59 242 17 
3 296 121 83 
3 10 15 40 
3 242 91 17 
3 225 9 211 
3 314 322 384 
3 326 325 281 
3 170 225 211 
3 17 91 77 
3 144 76 226 
3 155 9 225 
3 159 131 28 
3 172 139 170 
3 131 138 28 
3 281 264 120 
3 264 222 120 
3 139 155 225 
3 139 225 170 
3 314 325 313 
3 386 295 390 
3 292 159 28 
3 132 149 344 
3 424 427 416 
3 49 335 65 
3 314 313 304 
3 111 269 66 
3 9 71 72 
3 211 9 72 
3 306 316 353 
3 307 314 304 
3 325 311 313 
3 40 41 288 
3 289 40 288 
3 40 6 41 
3 6 123 41 
3 22 39 109 
3 165 312 76 
3 299 307 298 
3 144 165 76 
3 312 107 76 
3 376 381 331 
3 165 107 312 
3 155 172 330 
3 35 228 22 
3 45 184 160 
3 42 62 156 
3 2 39 62 
3 58 42 22 
3 49 71 9 
3 280 116 187 
3 280 205 116 
3 155 330 144 
3 280 289 205 
3 319 280 308 
3 162 77 20 
3 20 77 91 
3 329 289 280 
3 319 329 280 
3 156 62 39 
3 372 408 375 
3 190 1 0 
3 1 35 0 
3 42 19 62 
3 35 161 0 
3 190 0 97 
3 35 22 109 
3 76 53 224 
3 161 35 94 
3 49 9 155 
3 224 49 155 
3 29 63 11 
3 160 162 19 
3 76 333 53 
3 153 25 143 
3 71 49 65 
3 2 20 30 
3 62 20 2 
3 55 8 5 
3 169 0 4 
3 6 8 55 
3 35 25 153 
3 160 218 162 
3 218 77 162 
3 15 334 6 
3 334 8 6 
3 332 76 93 
3 8 47 5 
3 98 153 143 
3 94 153 98 
3 219 334 15 
3 332 333 76 
3 93 76 107 
3 100 334 219 
3 160 19 45 
3 19 162 20 
3 340 132 344 
3 45 19 42 
3 27 47 8 
3 27 36 47 
3 80 115 179 
3 45 42 58 
3 71 184 45 
3 236 27 8 
3 334 236 8 
3 332 93 333 
3 27 152 36 
3 223 64 340 
3 236 334 117 
3 152 21 36 
3 134 148 115 
3 115 148 114 
3 152 34 21 
3 5 123 55 
3 337 68 191 
3 333 93 282 
3 256 66 196 
3 135 174 347 
3 183 180 195 
3 117 285 236 
3 182 111 63 
3 354 318 352 
3 114 234 68 
3 71 65 184 
3 135 136 174 
3 191 215 337 
3 337 215 114 
3 63 33 182 
3 133 135 181 
3 135 347 181 
3 110 23 81 
3 157 180 183 
3 149 157 183 
3 227 147 220 
3 12 23 30 
3 151 99 46 
3 174 215 191 
3 99 328 46 
3 114 148 234 
3 149 150 157 
3 220 147 284 
3 79 186 336 
3 68 234 191 
3 396 357 356 
3 99 23 12 
3 328 99 12 
3 337 114 68 
3 356 358 396 
3 338 343 342 
3 223 340 339 
3 265 103 96 
3 341 223 339 
3 347 174 191 
3 182 251 201 
3 134 115 80 
3 12 30 203 
3 345 343 338 
3 147 227 103 
3 33 108 251 
3 95 20 91 
3 181 347 191 
3 345 346 343 
3 157 150 180 
3 103 227 18 
3 66 240 58 
3 345 344 346 
3 146 32 108 
3 445 125 444 
3 30 95 91 
3 124 373 374 
3 137 249 72 
3 344 345 338 
3 344 168 346 
3 12 203 328 
3 284 147 103 
3 240 66 37 
3 344 173 168 
3 314 384 322 
3 107 282 93 
3 76 53 107 
3 107 53 282 
3 282 53 333 
3 165 76 107 
3 315 202 291 
3 165 144 76 
3 407 374 367 
3 144 53 76 
3 388 389 92 
3 155 144 330 
3 144 224 53 
3 432 431 434 
3 155 189 144 
3 144 189 224 
3 189 335 53 
3 224 189 53 
3 146 29 32 
3 382 88 209 
3 331 316 350 
3 331 353 316 
3 357 367 366 
3 360 357 366 
3 367 374 373 
3 366 367 373 
3 373 407 374 
3 388 92 169 
3 170 65 155 
3 155 65 189 
3 328 203 91 
3 413 421 414 
3 356 331 358 
3 242 328 91 
3 168 343 346 
3 113 198 122 
3 124 113 122 
3 239 200 315 
3 331 356 357 
3 372 26 102 
3 375 372 102 
3 26 163 102 
3 408 372 375 
3 72 87 65 
3 170 72 65 
3 87 184 65 
3 63 108 11 
3 63 29 108 
3 370 285 231 
3 389 370 231 
3 131 18 140 
3 33 63 108 
3 368 306 321 
3 374 113 124 
3 285 324 268 
3 231 285 268 
3 336 272 186 
3 224 155 139 
3 363 369 372 
3 86 193 163 
3 208 63 111 
3 380 305 202 
3 356 357 321 
3 346 354 352 
3 346 168 354 
3 168 359 354 
3 364 290 369 
3 363 364 369 
3 290 371 372 
3 369 290 372 
3 371 70 26 
3 372 371 26 
3 70 188 26 
3 188 54 26 
3 54 163 26 
3 54 86 163 
3 54 28 86 
3 28 38 86 
3 38 197 86 
3 38 104 197 
3 104 218 87 
3 218 160 87 
3 160 184 87 
3 58 240 208 
3 240 37 63 
3 208 240 63 
3 340 64 132 
3 343 168 346 
3 400 367 357 
3 396 400 357 
3 54 292 28 
3 96 103 18 
3 346 168 343 
3 249 137 248 
3 200 209 199 
3 79 222 281 
3 327 308 309 
3 343 346 352 
3 383 388 169 
3 200 88 209 
3 285 186 324 
3 241 48 79 
3 16 100 79 
3 303 100 79 
3 323 105 451 
3 100 303 186 
3 100 16 79 
3 321 353 331 
3 236 285 370 
3 389 231 92 
3 100 285 117 
3 108 63 11 
3 186 303 79 
3 88 382 209 
3 82 236 389 
3 100 241 79 
3 45 72 71 
3 0 169 97 
3 45 137 72 
3 285 100 186 
3 137 45 58 
3 199 378 305 
3 208 137 58 
3 356 331 357 
3 305 380 202 
3 378 349 305 
3 169 92 315 
3 192 262 75 
3 361 192 75 
3 291 202 237 
3 258 293 207 
3 272 79 377 
3 324 186 268 
3 268 186 88 
3 90 389 388 
3 169 315 291 
3 97 169 291 
3 79 320 377 
3 4 383 169 
3 379 317 368 
3 200 202 315 
3 92 239 315 
3 306 353 321 
3 370 389 236 
3 48 222 79 
3 206 361 185 
3 361 206 185 
3 92 231 239 
3 356 321 331 
3 190 171 185 
3 249 190 185 
3 206 198 361 
3 198 192 361 
3 90 388 383 
3 305 124 237 
3 327 311 326 
3 4 90 383 
3 190 249 1 
3 206 361 185 
3 171 206 185 
3 202 305 237 
3 108 29 146 
3 308 310 309 
3 334 100 117 
3 90 82 389 
3 79 336 186 
3 224 53 335 
3 354 381 318 
3 231 268 239 
3 186 272 209 
3 88 186 209 
3 200 199 202 
3 327 326 319 
3 308 327 319 
3 309 311 327 
3 435 443 446 
3 199 305 202 
3 97 171 190 
3 171 97 206 
3 97 291 206 
3 237 198 206 
3 291 237 206 
3 406 124 305 
3 399 402 400 
3 373 374 407 
3 300 304 311 
3 304 313 311 
3 407 213 113 
3 208 111 256 
3 403 402 399 
3 363 403 399 
3 29 128 32 
3 403 375 402 
3 363 399 359 
3 194 192 198 
3 193 86 75 
3 400 213 407 
3 272 336 79 
3 79 281 320 
3 300 302 297 
3 294 298 304 
3 299 322 314 
3 307 299 314 
3 322 384 314 
3 377 281 325 
3 387 377 325 
3 281 377 320 
3 355 358 331 
3 101 102 262 
3 363 375 403 
3 197 204 75 
3 102 101 262 
3 299 384 322 
3 262 163 193 
3 318 343 352 
3 299 322 384 
3 299 393 322 
3 322 393 384 
3 137 208 256 
3 86 197 75 
3 186 79 336 
3 222 264 281 
3 185 361 75 
3 365 360 366 
3 386 392 393 
3 299 386 393 
3 393 392 384 
3 392 394 384 
3 394 398 387 
3 384 394 387 
3 404 377 387 
3 398 404 387 
3 404 209 377 
3 209 272 377 
3 399 400 358 
3 359 399 358 
3 101 163 262 
3 262 193 75 
3 102 101 375 
3 204 72 249 
3 31 148 134 
3 424 437 427 
3 359 358 355 
3 400 402 213 
3 204 249 185 
3 351 317 386 
3 390 351 386 
3 317 392 386 
3 392 317 394 
3 317 395 394 
3 395 397 398 
3 394 395 398 
3 397 405 404 
3 398 397 404 
3 199 209 404 
3 405 199 404 
3 268 88 239 
3 75 204 185 
3 318 352 354 
3 243 18 227 
3 397 385 405 
3 385 199 405 
3 262 192 194 
3 101 262 194 
3 18 131 96 
3 349 378 199 
3 385 349 199 
3 250 158 167 
3 293 250 167 
3 379 362 395 
3 317 379 395 
3 395 362 397 
3 362 365 397 
3 365 401 397 
3 401 349 385 
3 397 401 385 
3 375 194 213 
3 213 194 113 
3 375 101 194 
3 354 352 318 
3 342 343 318 
3 375 213 402 
3 451 261 443 
3 32 250 293 
3 258 32 293 
3 113 194 198 
3 351 409 368 
3 355 331 354 
3 339 340 344 
3 372 375 363 
3 339 344 338 
3 368 321 379 
3 360 362 379 
3 360 365 362 
3 366 365 362 
3 365 366 362 
3 406 349 401 
3 365 406 401 
3 108 258 52 
3 258 108 32 
3 305 349 406 
3 297 302 301 
3 52 251 108 
3 321 360 379 
3 384 325 314 
3 373 406 365 
3 366 373 365 
3 373 349 406 
3 349 373 406 
3 373 124 406 
3 106 105 323 
3 439 434 431 
3 18 243 229 
3 83 57 260 
3 447 83 260 
3 418 425 429 
3 439 441 434 
3 441 442 434 
3 257 106 323 
3 391 425 418 
3 435 437 444 
3 257 323 452 
3 391 418 294 
3 296 440 441 
3 440 296 441 
3 131 59 138 
3 294 413 295 
3 95 30 20 
3 428 432 434 
3 422 424 415 
3 294 420 413 
3 425 296 429 
3 414 422 415 
3 425 121 296 
3 296 440 431 
3 452 323 451 
3 296 83 447 
3 431 441 439 
3 445 444 436 
3 429 296 431 
3 450 56 106 
3 301 121 433 
3 106 257 452 
3 414 415 411 
3 390 413 386 
3 18 229 59 
3 59 229 46 
3 386 414 411 
3 301 433 425 
3 248 256 196 
3 411 416 412 
3 300 391 304 
3 422 436 424 
3 46 229 151 
3 127 121 301 
3 412 419 356 
3 295 413 390 
3 351 390 411 
3 442 56 125 
3 409 351 412 
3 247 243 13 
3 330 172 155 
3 451 118 67 
3 364 44 290 
3 290 44 166 
3 166 210 265 
3 265 210 284 
3 442 436 434 
3 229 99 151 
3 364 449 44 
3 449 283 44 
3 418 420 294 
3 363 449 364 
3 212 284 210 
3 44 210 166 
3 420 428 422 
3 44 212 210 
3 247 229 243 
3 229 247 99 
3 127 266 178 
3 56 450 260 
3 413 420 421 
3 359 168 363 
3 363 168 449 
3 415 424 416 
3 296 447 260 
3 212 220 284 
3 436 437 424 
3 351 411 412 
3 440 441 431 
3 283 212 44 
3 451 67 261 
3 168 173 449 
3 449 173 283 
3 426 342 318 
3 381 426 318 
3 212 348 220 
3 266 127 301 
3 426 338 342 
3 149 283 173 
3 149 212 283 
3 438 338 426 
3 433 121 425 
3 149 183 212 
3 414 421 422 
3 172 170 155 
3 368 317 351 
3 350 381 376 
3 67 259 261 
3 183 112 212 
3 212 112 348 
3 348 112 220 
3 432 431 434 
3 448 339 338 
3 438 448 338 
3 420 431 432 
3 112 221 220 
3 428 420 432 
3 431 432 434 
3 417 381 350 
3 422 428 434 
3 423 426 381 
3 417 423 381 
3 56 260 57 
3 451 105 118 
3 296 260 440 
3 386 413 414 
3 306 350 316 
3 448 341 339 
3 415 416 411 
3 436 444 437 
3 259 341 448 
3 297 425 391 
3 442 125 445 
3 450 106 452 
3 410 350 306 
3 341 259 223 
3 355 417 350 
3 410 355 350 
3 259 64 223 
3 410 356 350 
3 356 410 350 
3 356 355 410 
3 355 419 417 
3 247 13 99 
3 195 112 183 
3 180 112 195 
3 419 355 356 
3 301 425 297 
3 390 386 411 
3 446 259 448 
3 446 261 259 
3 434 436 422 
3 421 420 422 
3 409 410 306 
3 368 409 306 
3 412 356 410 
3 409 412 410 
3 442 445 436 
3 435 423 430 
