ply
format ascii 1.0
comment VCGLIB generated
element vertex 453
property float x
property float y
property float z
property float nx
property float ny
property float nz
element face 948
property list uchar int vertex_indices
end_header
-0.01372785 0.0185453 0.00457084 0.1467789 0.9712618 -0.1873673 
-0.02718365 0.02344529 0.00512639 0.7220479 0.6309009 -0.2839208 
-0.05080735 0.03706931 0.0407904 0.2486902 0.6000802 0.7603006 
0.0114928 0.0226393 0.0173202 -0.140048 0.9833863 0.1154896 
0.0001369491 0.01985429 0.00469045 -0.2017066 0.9672655 -0.1539864 
0.05054505 -0.0007247031 0.0313759 0.6767838 0.4725151 0.5645291 
0.05758105 -0.002548702 0.0167635 0.8887602 0.4521667 0.07517068 
-0.01268645 -0.001436703 0.0393961 -0.08529839 0.5173521 0.851511 
0.04791305 0.0108133 0.0182284 0.7030956 0.7033179 0.104884 
-0.04658845 0.0516323 -0.017488 0.8399877 0.5101913 0.1847313 
0.06219835 -0.014971 0.00449745 0.9692945 0.2126429 -0.1234951 
-0.01418165 0.0626363 -0.00692863 0.5329059 0.1961192 0.8231334 
-0.06735855 0.0263193 0.0464393 -0.6227421 0.2726439 0.7333877 
-0.05136095 0.0142933 0.0511785 0.4428796 -0.01009774 0.8965243 
0.0234485 0.0232653 0.0172468 0.1161244 0.9844314 0.1319468 
0.05795665 -0.002616704 0.00583138 0.8955442 0.4421024 -0.05045942 
0.05622795 -0.005597703 -0.00520952 0.8496721 0.3695657 -0.3761362 
-0.07395755 0.02637731 0.0165242 -0.9966871 0.07867615 -0.02061159 
-0.06437835 -0.0005927011 0.0304376 -0.762857 -0.2847587 0.580484 
-0.04972425 0.0483963 0.0173079 -0.0241235 0.9986112 0.04683771 
-0.06207495 0.04511631 0.0293527 -0.3583901 0.8778411 0.317729 
0.02345382 0.0147453 0.0340488 0.1527712 0.6725755 0.7240879 
-0.03413795 0.03724229 0.017902 0.8619381 0.3504685 0.3663803 
-0.06048435 0.0247913 0.050771 -0.01219325 0.40606 0.9137651 
0.01158667 0.02017529 0.0268839 -0.1340257 0.8928546 0.4299393 
-0.03041955 0.0215423 0.0263862 0.5693074 0.5283449 0.6298736 
-0.06493326 -0.0149453 -0.00613886 -0.8531472 -0.03522725 -0.5204795 
0.03493375 0.01993529 0.0179564 0.4204375 0.8850462 0.1998138 
-0.07319305 0.0125463 0.006102 -0.9467566 -0.08864664 -0.3095057 
-0.01191005 0.0712713 -0.008457989 -0.5053976 0.7976117 0.3292248 
-0.06229535 0.03600129 0.042121 -0.3083317 0.6357337 0.7076541 
-0.0007942505 0.0005702972 0.0409314 -0.2137384 0.4404694 0.8719534 
-0.00273885 0.07408729 -0.0189058 -0.01251839 0.9998437 -0.01248415 
-0.02021015 0.0602283 -0.0136175 -0.5016158 0.1236287 -0.8562111 
0.02331539 0.0203013 0.0273232 0.09640704 0.8958246 0.4338248 
-0.02604515 0.0222553 0.0169549 0.5886064 0.7775533 0.2212544 
0.03636365 0.0121033 0.0318306 0.3984358 0.640332 0.6566764 
-0.02651635 0.0592763 0.00174058 0.02108415 0.5204252 0.8536469 
-0.07231725 0.0246423 0.00647903 -0.8804451 0.1096213 -0.461302 
-0.03985825 0.0372303 0.0309412 0.7516228 0.3257607 0.5735357 
0.06175595 -0.0143061 0.0170633 0.9615276 0.2213743 0.1626595 
0.05872805 -0.0155856 0.0279819 0.8883614 0.2291169 0.3978938 
-0.03890155 0.04680631 0.0162996 0.5079626 0.8371941 0.2026825 
-0.003119752 0.05201431 -0.00775362 0.7366099 -0.05036421 0.67444 
-0.05549555 -0.0421471 0.0175909 -0.5965746 -0.789399 0.1447345 
-0.04990295 0.0474973 0.00523549 0.06842633 0.9824478 -0.1735342 
-0.07299265 0.0108523 0.0406364 -0.8560359 -0.314503 0.4102322 
0.04480795 0.0102063 0.0280407 0.5757362 0.6842803 0.4475358 
0.05940075 -0.0161201 -0.00614785 0.8537796 0.2150246 -0.4741571 
-0.05271715 0.05754431 -0.0200445 0.2597743 0.9155506 0.3070577 
0.01130905 0.0149703 0.0342086 -0.07999892 0.6998202 0.7098253 
0.04750755 -0.0144801 0.0415692 0.5451841 0.2517602 0.7996193 
-1.915172e-05 0.0543673 -0.0151273 0.2737329 -0.7103159 -0.6484764 
-0.05890395 0.06353229 -0.0416805 -0.9719671 -0.1592544 -0.1729684 
-0.06792895 -0.002372704 0.00281646 -0.9018828 0.05343713 -0.4286629 
0.05453685 0.002684303 0.0201445 0.7822673 0.5843685 0.2158038 
0.01089643 -0.0650302 0.0463607 -0.008806758 -0.3905156 0.9205542 
0.02389169 -0.0640581 0.0462476 0.2443331 -0.4574665 0.8550004 
-0.03843095 0.0498473 0.00598615 -0.2491912 0.9539023 0.1672546 
-0.07365115 0.0110573 0.0292658 -0.9243364 -0.3328159 0.1866438 
-0.04201715 0.0205933 0.0393842 0.6816612 0.1423387 0.7176892 
-0.0001397505 0.01984631 0.0173582 -0.2371233 0.9453098 0.2239689 
-0.04913925 0.0460723 0.0302919 0.1772973 0.8545745 0.4881271 
-0.02614805 0.0616793 -0.00608066 -0.6467077 0.6859645 -0.3334995 
-0.03978215 -0.0645157 0.0422836 -0.3621438 0.6400363 0.677647 
-0.05888356 0.0494623 -0.0174673 -0.9999275 0.006185166 -0.01033609 
-0.02595235 0.0482913 0.00557955 0.6534276 0.1475513 0.7424695 
-0.02521805 -0.0655942 0.042122 -0.1703947 0.2018384 0.9644827 
-0.00792635 -0.0190965 0.0498043 -0.6385757 0.1536408 0.754066 
0.003314749 0.0185113 0.0260633 -0.3101947 0.8767309 0.3675899 
-0.07076445 -0.01789 0.00638785 -0.9670794 -0.07568441 -0.2429596 
-0.05137575 0.0500143 -0.00745433 0.3279144 0.8601811 0.3905901 
-0.05047385 0.0351183 -0.00815483 0.4046718 -0.09196747 -0.9098257 
0.03634755 -0.001465701 0.0411118 0.2659057 0.4506478 0.85218 
-0.01899325 0.0634663 -3.336277e-05 -0.003296311 0.9088864 0.4170309 
-0.04894146 0.009439297 -0.01045001 -0.3074243 0.2645448 -0.9140604 
-0.05076686 0.0626393 -0.0442779 0.7199429 0.6393526 0.2700194 
-0.07343125 0.03829131 0.0184598 -0.893669 0.4475996 -0.03178632 
0.02427997 0.0080823 0.0382293 0.1305541 0.511976 0.8490207 
0.04850765 -0.0146891 -0.0183764 0.5636533 0.2909604 -0.7730699 
0.02319135 -0.001868702 0.0429727 0.1253835 0.5105803 0.850639 
-0.05315815 0.0228713 0.0496713 0.4371139 0.4551169 0.7757577 
0.02346835 0.0230993 0.00521639 0.07311247 0.9890972 -0.1278336 
0.03591545 -0.06544051 0.0418986 0.4937086 -0.4461522 0.7464584 
0.03228135 -0.016784 0.0503874 0.3407245 0.3302823 0.8802388 
0.01151143 0.007650301 0.0396243 -0.0347546 0.4722833 0.8807614 
-0.06363745 0.0102133 -0.00417293 -0.6420433 0.03685073 -0.7657823 
-0.06120946 0.0365153 -0.00446892 -0.7900386 0.1366635 -0.5976305 
0.02331363 -0.001532704 -0.0214752 0.1053714 0.4984603 -0.8604848 
-0.00178235 0.0120943 0.0322277 -0.2924784 0.7356949 0.6109087 
0.01156259 0.0224563 0.0053756 -0.1426867 0.9778922 -0.152864 
-0.07183845 0.0349863 0.0284542 -0.9071059 0.3718266 0.1972409 
0.009868369 0.0155143 -0.01039395 -0.08446454 0.7757268 -0.6253908 
-0.05173256 0.0711633 -0.0548527 0.2062921 0.9580376 -0.1990166 
-0.01238195 0.0164933 0.020389 0.04290472 0.8891136 0.4556712 
-0.06733286 0.04122829 0.0321913 -0.6814764 0.6661837 0.3029676 
-0.07135785 -0.0167864 0.017325 -0.9626392 -0.15529 0.2218353 
-0.01309415 0.0146253 -0.00693611 0.1286251 0.842159 -0.5236638 
-0.01322605 0.0102303 0.0300382 0.004339838 0.6971978 0.7168657 
-0.06056745 0.0128943 0.0508215 -0.3377442 -0.286499 0.8965753 
0.05076515 0.0007392988 -0.00801035 0.6438141 0.5054975 -0.5744351 
-0.05021745 -0.0148669 -0.0174598 -0.3997776 0.1429051 -0.9054038 
-0.05817226 -0.016577 -0.0142751 -0.6164713 0.01872326 -0.7871548 
-0.06492826 -0.0126466 0.0305094 -0.8067828 0.01983664 0.5905151 
-0.06820466 0.0291443 0.00134282 -0.7882871 0.1710126 -0.5910652 
-0.01178665 -0.065984 0.0508186 -0.5556868 0.2016369 0.8065698 
-0.0002382509 -0.0653723 0.0511056 0.4300982 0.1327314 0.8929715 
-0.04820495 0.06324831 -0.0572224 -0.03151737 -0.3887663 -0.9207972 
-0.01235855 0.06314629 -0.0171393 -0.4665625 0.1123087 -0.877329 
-0.03875645 0.0272543 0.0324671 0.7638932 0.3053122 0.5685523 
-0.04911895 0.0252623 0.044126 0.6079323 0.3118579 0.7301801 
-0.02504415 0.0476823 -0.008071929 -0.03162898 -0.7345875 -0.6777765 
-0.03703705 -0.0362984 0.0391258 -0.2023539 -0.5392303 0.8174861 
-0.02382215 -0.0170664 -0.0231665 -0.2358004 0.00668534 -0.9717785 
0.0002061483 -0.0155813 0.0530428 -0.3579265 0.4044059 0.841632 
0.01151256 -0.0137279 0.0536859 -0.04591585 0.4541638 0.8897343 
0.05986615 -0.0405024 0.0290017 0.5837469 0.2532281 0.7714371 
0.04606785 0.009150296 -0.00449612 0.6029837 0.6972182 -0.3876823 
-0.01568735 -0.0626843 0.0445362 -0.5705845 0.1862012 0.7998516 
-0.03644645 0.0108073 0.0347947 0.5133746 0.2530906 0.819995 
0.05976615 -0.0282041 -0.00637301 0.891378 -0.05619661 -0.4497636 
0.04722105 -0.0652085 0.0299191 0.4437189 -0.7027004 0.5561707 
-0.01407015 -0.0118256 -0.0242585 -0.3339323 0.3440695 -0.8775566 
0.05567415 -0.002637699 0.0261163 0.8401343 0.3968565 0.3697015 
-0.01100505 -0.0172667 -0.0296638 -0.5526074 0.3233782 -0.7681481 
0.0001748484 -0.0639645 0.0426911 -0.007859605 -0.6427146 0.7660654 
0.02126129 -0.0600036 0.0496253 0.1124633 -0.4687227 0.876157 
0.06076105 -0.0619296 0.0272467 0.4345132 -0.5776767 0.6910051 
-0.00583845 0.07348029 -0.0118677 0.6063267 0.3082289 0.7330505 
0.01186795 -0.0512549 0.0533034 -0.1464052 -0.3200263 0.9360281 
0.02278806 -0.0520789 0.0527097 0.2659831 -0.3008955 0.9158138 
-0.07082815 -0.002001703 0.0167199 -0.975756 -0.1954305 0.09852441 
-0.03914365 -0.0607403 0.0300025 -0.6528939 0.679118 0.3354523 
-0.01213055 -0.0534399 0.0393167 -0.3016275 0.2666182 0.9153882 
0.01151968 -0.001861699 0.0434885 -0.0841001 0.4947535 0.8649544 
-0.00391845 -0.0530611 0.0440626 -0.4543211 0.09138576 0.8861383 
0.001344949 -0.0503224 0.0503256 -0.4630342 -0.3276035 0.8235747 
-0.03933675 0.0386333 -0.003221 0.04994071 0.2634271 -0.9633858 
-0.07565285 0.0113083 0.0174164 -0.9926825 -0.1167052 -0.03100565 
-0.04436825 0.0506583 -0.029881 0.9020382 -0.4315265 -0.0105845 
-0.06809206 -0.0009187013 0.0211506 0.8146131 0.5430754 -0.2036533 
0.05115795 -0.0537044 0.0345057 0.55642 -0.2731123 0.7847334 
0.06026475 -0.0517236 0.0309806 0.387782 -0.06457058 0.9194866 
-0.02596515 0.009432301 0.031126 0.167274 0.5756864 0.8003778 
-0.05060245 0.0489623 -0.0431958 -0.2240614 -0.6263064 -0.746684 
0.04473215 -0.0046027 0.0391274 0.4939106 0.3878213 0.7782332 
-0.01189945 0.0707773 -0.0151347 -0.7579789 0.5213218 -0.3920354 
-0.05877595 -0.0165342 0.0377635 -0.6175813 0.0112403 0.7864267 
-0.001634751 -0.009163499 0.0450892 -0.2368701 0.5843251 0.7761809 
-0.03559725 -0.0510185 0.0288179 -0.7884849 -0.4569651 0.4116728 
-0.02570405 -0.052181 0.0385054 -0.4299261 -0.09412758 0.8979442 
-0.06581175 0.007884301 0.0462496 -0.4492719 -0.5677175 0.68982 
0.03192825 0.01932231 0.0257186 0.3340795 0.8261212 0.4537783 
-0.02139755 0.0160023 0.0243994 0.2947193 0.7445093 0.5990379 
-0.04194215 0.0121463 0.0393972 0.6161799 -0.0883704 0.7826321 
-0.05273946 0.04650331 -0.0318185 -0.4897853 -0.4846771 -0.7247058 
-0.03995355 0.0448173 0.0278724 0.6270024 0.594613 0.5032926 
-0.03051005 -0.0513927 0.0356879 -0.5359612 -0.509709 0.6730099 
0.006767549 0.0719033 -0.0283256 0.8200198 0.5298332 0.2164354 
-0.07073555 -0.001692697 0.00788916 -0.9408156 -0.09563368 -0.3251466 
-0.06150025 0.04622529 0.00594022 -0.5264322 0.829544 -0.186349 
-0.01207375 0.0183133 0.0140554 0.0342298 0.9928305 0.1145256 
-0.06424186 0.04663131 0.0171548 -0.5006917 0.8642687 -0.0484516 
-0.06205315 -0.0035647 -0.00678114 -0.6486648 0.1790989 -0.739701 
-0.00736705 0.0151543 0.0239645 -0.1673303 0.8598005 0.4824352 
-0.04894786 0.05219831 -0.0539497 0.2953344 -0.8473722 -0.4412913 
-0.06099405 -0.0372304 0.0168677 -0.7771388 -0.6214436 0.099313 
0.007822739 0.0654663 -0.0270729 0.06584227 -0.3426944 -0.9371368 
-0.03913465 -0.0530556 0.00686723 -0.9700688 -0.233391 -0.06704752 
-0.0009077508 0.0144603 -0.00832974 -0.1602939 0.8551453 -0.4929833 
-0.05210146 0.0386533 -0.0186104 0.005049646 -0.9291524 -0.3696626 
-0.02375795 0.0154373 -0.01015927 0.1014183 0.7493104 -0.6544069 
-0.05100346 0.0404353 -0.0293044 0.1586208 -0.7273253 -0.6677106 
-0.03650985 -0.0522157 0.017189 -0.8400294 -0.521292 0.1503505 
0.0005734488 -0.0395419 0.0525715 -0.5439548 -0.2416365 0.8035702 
0.01142154 -0.0400485 0.0558717 -0.05551511 -0.1684191 0.9841509 
0.02458103 -0.0404369 0.0547585 0.2346866 -0.118669 0.9648005 
0.003176349 0.0092123 0.0372576 -0.2492238 0.5746298 0.7795435 
0.07138605 -0.052004 0.026046 0.6740076 -0.1684648 0.7192589 
0.0226723 -0.0145849 0.0530089 0.2083412 0.4138097 0.8862029 
-0.02561005 -0.0403199 0.0401953 -0.1813265 -0.1532476 0.9714093 
-0.01181315 -0.0396854 0.0404376 -0.3648749 -0.1573408 0.9176656 
-0.02046175 0.0541953 -0.0133805 -0.4008939 -0.4024824 -0.8229775 
-0.03862275 -0.0423258 0.0336195 -0.4742677 -0.4582469 0.751718 
-0.05867695 0.0478003 -0.0065056 -0.61283 0.7863877 0.07767796 
-0.03772435 0.0147473 -0.01004328 0.005065291 0.5369256 -0.8436143 
0.03519415 -0.001775704 -0.0191922 0.3714551 0.4694152 -0.8010433 
0.07095205 -0.0421212 0.0258552 0.5826806 0.4038034 0.7052845 
-0.06942146 -0.0133431 0.00235278 -0.9269663 0.04963332 -0.3718469 
-0.05893195 0.0539483 -0.0303301 -0.8361925 -0.3676162 -0.4069895 
-0.02660215 0.0196943 -0.00385715 0.2553771 0.8248691 -0.5043546 
-0.01379815 -0.0279289 0.042916 -0.4567289 -0.2484812 0.8541989 
-0.03745105 -0.0014107 -0.0191409 -0.2234735 0.3104587 -0.9239454 
-0.05487975 0.002298295 -0.01001097 -0.4663463 0.2298055 -0.854231 
-0.03787215 -0.0157758 -0.0217567 -0.218047 0.07200854 -0.9732782 
-0.03131535 -0.041746 0.0368175 -0.2994507 -0.5695888 0.7654396 
-0.02981485 0.0373973 0.00630629 0.9928073 -0.113014 0.03951622 
-0.06289756 0.02187529 -0.00527595 -0.5263867 0.04094284 -0.849259 
-0.02430825 -0.001824699 -0.0204476 -0.09894163 0.2993942 -0.9489856 
0.01117236 -0.0145935 -0.0334719 0.1834953 0.4134207 -0.8918592 
0.01152321 -0.001620702 -0.0228066 0.04298937 0.5670022 -0.8225937 
-0.01198895 0.05053429 -0.00677106 0.3502063 -0.9362638 0.02767105 
-0.0003015511 -0.001469702 -0.0223555 -0.04765866 0.5793396 -0.8136918 
-0.07103235 0.0300803 0.038818 -0.7947229 0.4351359 0.4231692 
-0.04999975 0.0206333 -0.00921311 -0.03529444 0.1548795 -0.9873027 
0.06386305 -0.0362459 0.021097 0.7291185 0.3565235 0.5841894 
-0.02346275 0.009409301 -0.0151593 0.02207877 0.592865 -0.8049992 
0.006828149 0.0597823 -0.0204797 0.7665675 -0.4749557 0.4321938 
-0.03576095 0.04969729 -0.00339736 -0.658531 0.1826607 -0.7300494 
0.02280363 -0.0144458 -0.0307636 0.2462939 0.4215346 -0.8727245 
-0.05984985 -0.0350361 0.0260762 -0.696225 -0.6120591 0.3750392 
-0.04501496 0.04217529 -0.0156103 0.9424648 -0.3303146 0.0515001 
-0.05130766 -0.0391861 0.0300865 -0.4700755 -0.6772722 0.5659783 
-0.03703145 -0.0269109 -0.0207491 -0.1159368 -0.2740613 -0.9546984 
-0.02618305 -0.0288427 0.0423071 -0.01350097 -0.153987 0.9879806 
-0.001081051 -0.0287884 0.0551569 -0.3591466 -0.1663264 0.9183405 
0.01149382 -0.0283039 0.0572224 -0.01133047 0.06196066 0.9980143 
0.0245586 -0.026567 0.0552403 0.2304533 0.0725115 0.970378 
-0.06753315 0.0382753 0.00528114 -0.7867312 0.4550493 -0.417114 
0.05450485 0.002638303 0.00207454 0.7974762 0.5590478 -0.2269301 
-0.05081465 -0.0274271 0.0401325 -0.389508 -0.3235182 0.8623338 
-0.03840025 -0.0284993 0.0429551 -0.09615304 -0.2548754 0.9621815 
0.05563935 -0.0196531 -0.0144459 0.7579186 0.1432872 -0.6364182 
-0.04678995 -0.0681169 0.0390456 -0.8400218 0.165329 0.5167492 
-0.05237585 0.06077731 -0.0319103 0.3532843 0.8710456 0.3412766 
-0.04430225 0.04798231 -0.0213707 0.9318112 0.2345334 -0.2769877 
-0.04479105 0.0546013 -0.0402072 0.9454781 0.2071857 -0.2512869 
-0.05119266 -0.0153883 0.0416194 -0.4128595 0.1115467 0.9039383 
-0.03185925 0.03153931 0.0142171 0.9332841 0.3383587 0.1203914 
-0.06092396 0.002367303 0.0412102 -0.3458745 -0.7840431 0.5154098 
0.03543535 -0.028484 0.0513078 0.4749678 0.03461058 0.8793223 
0.02282107 0.0159023 -0.01054945 0.1030368 0.7621016 -0.6392062 
-0.03818365 -0.0142381 0.0436286 -0.03042607 0.08798408 0.9956571 
-0.02569865 -0.0156433 0.0426905 -0.01574249 0.07017076 0.9974108 
-0.01236885 -0.0137463 0.0439021 -0.3068016 0.318885 0.8967637 
0.03808925 -0.0206457 0.0486541 0.4628349 0.208012 0.8616931 
0.03470375 0.0199043 0.00454753 0.4318091 0.8868416 -0.1644778 
-0.01151875 -0.001039699 -0.0213263 -0.1736948 0.4706249 -0.8650678 
0.03603805 -0.0129475 0.0471803 0.3304838 0.3979389 0.8558185 
0.01160699 0.0088633 -0.0165833 -0.0145636 0.5858223 -0.8103086 
-0.03532535 0.0548903 0.00238871 -0.5731788 0.726923 0.3782181 
0.05330155 -0.0118993 -0.0126112 0.7270559 0.2688973 -0.631731 
-0.07371265 0.02365629 0.0289523 -0.9920235 0.08373614 0.0942218 
-0.05038025 -0.0008067042 0.0397941 0.01394293 -0.1845369 0.9827267 
-0.02666985 -0.002840698 0.0395922 0.02807747 0.4147011 0.9095244 
0.02498961 -0.009408697 0.0482471 1 0 0 
-0.03800235 -0.003860697 0.0405621 0.04017364 0.3719442 0.9273854 
-0.04941066 0.0079583 0.0467695 0.4537849 -0.4317889 0.7795112 
-0.03265865 0.03256729 0.00200978 0.719097 -0.1129885 -0.6856626 
-0.03795705 0.0246613 -0.00543285 0.4437807 0.3538461 -0.8233175 
0.002741749 0.0741383 -0.0268565 -0.3751489 0.1688488 -0.9114568 
-0.01206425 0.05402429 -0.0149152 -0.1337829 -0.5336556 -0.8350532 
-0.03869165 0.003518298 0.0367929 0.2077891 0.2238783 0.9522091 
-0.02349025 0.002737299 0.0365099 0.0552118 0.5168033 0.854322 
-0.01451175 0.002709299 0.0364654 0.01063993 0.6190259 0.7852984 
0.04249705 0.002852298 0.0362675 0.4586592 0.5228064 0.7185439 
-0.02949325 0.0396753 -0.00280376 0.5751297 -0.5120018 -0.6380283 
-0.0008469503 -0.07252251 0.0502154 0.5226749 -0.6217964 0.5832497 
-0.0003468506 0.06272531 -0.0186927 0.993982 -0.07014159 0.08414208 
-0.03945345 -0.0728171 0.0417933 -0.1515214 -0.6468453 0.7474172 
0.02332714 -0.0726511 0.041513 0.1472628 -0.674551 0.7233911 
-0.02530865 -0.0726013 0.0411088 0.01061335 -0.8453932 0.534039 
-0.04896826 -0.0029817 -0.0154366 -0.4229741 0.2474068 -0.8717126 
0.04323895 -0.061845 0.0375401 0.6329607 -0.4243119 0.6475495 
0.05543885 -0.026042 -0.0147331 0.7693327 -0.1893284 -0.6101491 
-0.06693245 -0.0279873 0.0180548 -0.8856491 -0.4014634 0.2333513 
0.07074415 -0.0601687 0.0176119 0.684343 -0.6813165 0.2597741 
0.03613615 -0.0541552 0.0456366 0.4722177 -0.26686 0.8401168 
0.0248189 0.0104843 -0.0158796 0.1458797 0.5740103 -0.805749 
-0.01397665 0.0493073 0.0003978162 0.3066156 -0.9455763 0.1089608 
0.04611665 -0.0508827 0.0401851 0.5893461 -0.2465413 0.769343 
0.07565285 -0.0527571 0.017447 0.9356501 -0.3267327 0.1334346 
0.03435775 -0.0178237 -0.0274888 0.4128875 0.3139065 -0.8549776 
0.03207155 -0.0491818 0.0495907 0.4409887 -0.2527515 0.8611885 
0.05421855 -0.0159403 0.0360464 0.7650213 0.1620383 0.6232864 
-0.00238635 0.05864529 -0.0118483 0.6690586 0.4404955 0.5986021 
0.03252315 -0.040023 0.0514887 0.4379299 -0.1507597 0.8862782 
0.03854615 -0.0396426 0.0478562 0.5537304 -0.1541153 0.81831 
0.04737135 -0.0397651 0.0413388 0.5966185 -0.1323238 0.7915408 
0.05432955 -0.0399092 0.0360626 0.7171518 -0.1115411 0.6879331 
0.07496855 -0.0395369 0.0165641 0.8334441 0.5118585 0.2082593 
0.04917795 -0.02925 -0.0197864 0.6594809 -0.09602452 -0.7455631 
-0.05853336 0.0679453 -0.0512721 -0.840572 0.01796493 -0.5414019 
-0.04804585 -0.0469702 0.0169923 -0.4897771 -0.8569353 0.1605629 
-0.06310885 -0.0263117 0.0300732 -0.7446496 -0.3538796 0.5659207 
0.03646865 0.0137473 -0.00752405 0.4555448 0.6724443 -0.5833505 
0.04817775 -0.0282126 0.0425723 0.6292751 -0.02301897 0.7768416 
0.05468255 -0.0285103 0.0362153 0.7403364 -0.02290082 0.6718464 
0.05943035 -0.0281676 0.0290127 0.8888744 0.06902338 0.4529218 
0.06352575 -0.0283893 0.017191 0.9139192 0.3046687 0.2681955 
-0.06129836 -0.0369814 0.00627745 -0.7831126 -0.6086574 -0.1275575 
-0.01190495 0.008158296 -0.0152849 -0.02051643 0.6749411 -0.7375864 
-0.06949865 0.005759299 0.00352569 -0.9327462 -0.2555327 -0.2543376 
0.00327515 0.0662543 -0.0265591 -0.5513192 -0.4018861 -0.7311188 
0.03497325 -0.0725456 -0.00650696 0.3456014 -0.9065098 -0.2424866 
0.03370785 -0.0719112 -0.0167915 0.3437711 -0.8470862 -0.405298 
0.03681855 -0.0719265 0.0307422 0.2830772 -0.9416139 0.1822924 
0.06104815 -0.0666486 0.00522076 0.4338224 -0.8810869 -0.1883724 
0.04011285 -0.0671535 -0.00851384 0.5453047 -0.7195686 -0.429958 
0.03662855 -0.0649767 -0.0197879 0.5809093 -0.5644587 -0.5864561 
0.05895705 -0.0621286 -0.004123529 0.3938761 -0.6094694 -0.6880471 
0.06118625 -0.0665619 0.0171416 0.4449915 -0.8729106 0.2000246 
0.06878095 -0.0613628 0.00522691 0.6788616 -0.6911837 -0.2478148 
0.04607145 -0.0025777 -0.0148165 0.4735806 0.4982349 -0.7262805 
0.04816855 -0.0632463 -0.00675833 0.4995062 -0.5816765 -0.641986 
-0.0009180512 -0.0129528 -0.0313218 -0.2230049 0.561601 -0.7967893 
-0.01405465 -0.0734564 -0.0289865 -0.07142462 -0.8117355 -0.5796414 
0.04353185 -0.0601685 -0.0171578 0.6286477 -0.567894 -0.5313177 
0.07291345 -0.0391209 0.00531813 0.7716163 0.467805 -0.4310068 
0.06953115 -0.0526857 -0.00306 0.6736327 -0.1990035 -0.7117701 
0.07423125 -0.0535363 0.00454643 0.9386638 -0.1845436 -0.2912969 
0.06029865 -0.0524301 -0.00662544 0.4317794 -0.1736316 -0.8851095 
-0.04450995 0.0596633 -0.0532949 0.9991672 0.03954361 -0.01006345 
0.05160655 -0.0535811 -0.01006186 0.6059829 -0.3893834 -0.6936609 
0.04701175 -0.0517023 -0.0181659 0.709453 -0.2926406 -0.6411223 
-0.0002949517 0.008152299 -0.0163622 -0.07668912 0.6397457 -0.7647511 
-0.02429005 -0.0719985 -0.0269891 -0.7578209 -0.1568091 -0.633339 
0.01230436 -0.0647127 -0.0279117 0.1769589 -0.480664 -0.8588642 
-0.04891215 -0.0733938 -0.00474508 -0.6502087 -0.5005925 -0.5715207 
0.06503515 -0.0365413 0.00484777 0.7040627 0.5248322 -0.4783796 
0.04240755 -0.0252424 -0.0251661 0.5320145 0.0605005 -0.8445711 
-0.01240865 -0.0651556 -0.0288963 -0.3725504 0.3563779 -0.8568553 
0.03930585 -0.0561722 -0.0242276 0.5557573 -0.36294 -0.7479361 
-0.009659952 -0.07259791 0.0503483 -0.2328423 -0.680679 0.6945939 
0.03361185 0.0078713 -0.0151235 0.4273238 0.5203149 -0.7393693 
0.04923175 -0.0397604 -0.0189316 0.6616302 -0.1142203 -0.7410797 
0.05931635 -0.0402386 -0.00609395 0.73527 0.13473 -0.6642483 
0.06898085 -0.0440308 -0.00232634 0.5207288 0.3820997 -0.7634405 
-0.07183655 0.0205503 0.0422239 -0.8881108 0.09282233 0.4501593 
0.06343225 -0.028128 0.00521792 0.9388923 0.2268719 -0.2588637 
-0.05304955 0.04213829 -0.0393103 0.9922779 0.1240347 0 
-0.02546795 -0.0647345 -0.0182072 -0.6579315 0.5701546 -0.4919856 
-0.05447395 0.0700893 -0.0480388 0.2893261 0.784986 0.5478024 
-0.05855915 0.0698923 -0.0477241 -0.3698119 0.8464242 0.3831519 
0.04791105 0.0107363 0.00515974 0.7291034 0.676293 -0.1050528 
-0.05965135 0.0599473 -0.0304582 -0.7327029 0.6286011 0.2607821 
0.03776055 -0.0148977 -0.0243147 0.432862 0.3898892 -0.8127835 
-0.007987751 -0.027889 0.0504762 -0.6021741 -0.1920591 0.7749192 
-0.04756035 -0.0724328 0.0156453 -0.7737777 -0.5434205 0.3255185 
-0.04727385 -0.0726795 0.0288697 -0.9515928 -0.2862909 -0.1118426 
-0.04693295 -0.0662996 0.0298692 -0.7969807 0.5976777 -0.08719635 
-0.04682625 -0.0725326 0.038213 -0.554666 -0.7549262 0.349903 
-0.05010625 -0.0737288 0.00532651 -0.6933825 -0.7164904 0.07656515 
-0.05045965 -0.0658999 0.00610554 -0.9142736 0.391001 0.1059338 
-0.03985595 -0.0646039 0.0194445 -0.8686794 0.4901227 0.07194375 
-0.04596946 -0.0663266 0.0136268 -0.6459376 0.6130121 0.4549513 
-0.04191925 -0.0606205 0.00570698 -0.6747697 0.7380267 0.001565538 
-0.00588965 -0.0421171 0.0445192 -0.6670347 -0.2196922 0.7118989 
-0.04604425 -0.0360937 0.0373679 -0.3079938 -0.6364671 0.7071418 
-0.00180985 -0.0267459 -0.0390102 -0.0286145 0.1447744 -0.9890509 
-0.02522685 -0.073403 -0.0197086 -0.1368043 -0.985571 -0.09967151 
0.01059138 -0.0731187 -0.0207955 0.08069585 -0.9944965 -0.06681973 
-0.04818495 -0.0669255 -0.00459633 -0.6527243 0.5659861 -0.5035978 
-0.02089695 -0.06583691 -0.0269823 -0.3942145 0.4728148 -0.7880616 
-0.03816475 -0.0644721 -0.00816674 -0.5696146 0.3820249 -0.7277336 
-0.02418475 -0.0657311 -0.01057519 0.09519755 -0.6852722 -0.7220384 
-0.01473565 -0.0630994 -0.0173283 -0.7405981 -0.007639777 -0.6719049 
-0.01324475 -0.051428 -0.0190954 -0.8643313 -0.1328632 -0.4850555 
-0.02540885 -0.051569 -0.0118827 -0.38566 -0.08829619 -0.9184063 
-0.03753475 -0.051103 -0.00589215 -0.5897514 -0.3158405 -0.7432618 
-0.00869205 -0.0508751 -0.0288478 -0.6279269 -0.1751351 -0.758311 
-0.03772515 0.009702303 -0.0139528 -0.1481491 0.4961532 -0.8555021 
-0.00157205 -0.0530892 -0.032443 -0.2213973 -0.3264209 -0.9189302 
-0.05126915 -0.0390893 -0.00712781 -0.5131054 -0.6651831 -0.5424522 
-0.05555665 -0.0423387 0.00495019 -0.5900714 -0.7818545 -0.2012943 
-0.003229652 -0.0404794 -0.0371314 -0.4051501 -0.3061834 -0.8614552 
-0.01158545 -0.0403327 -0.0296305 -0.8116211 -0.2382491 -0.5333934 
-0.01531185 -0.041295 -0.0200999 -0.6859817 -0.247169 -0.6843513 
-0.0002670512 -0.0734268 -0.0264926 0.1226361 -0.686991 -0.7162429 
-0.05987495 -0.0345016 -0.00467611 -0.6851526 -0.5859202 -0.4327396 
0.03265535 0.0183453 -0.00324235 0.3223538 0.8406916 -0.4351156 
-0.06703176 -0.0277015 0.00472862 -0.8968513 -0.4059232 -0.1757391 
-0.06185795 -0.0279028 -0.00698405 -0.7508678 -0.3598002 -0.5538424 
-0.01347905 -0.0282886 -0.0318259 -0.8042614 -0.05799964 -0.5914386 
-0.01802065 -0.0259577 -0.0232671 -0.6138093 -0.1522858 -0.7746272 
-0.05064725 -0.027636 -0.0170062 -0.4202743 -0.2839617 -0.8618209 
-0.03379945 -0.0735317 -0.0134797 -0.705961 -0.1909321 -0.6820294 
0.03368615 -0.0272797 -0.0297958 0.4615927 0.08882929 -0.8826333 
0.003045949 -0.0198313 -0.0386081 0.03839659 0.3366518 -0.940846 
0.0001780484 -0.0644913 -0.028869 -0.07035896 -0.2682074 -0.9607884 
-0.001839051 -0.009833604 -0.0253704 0 -0.4472136 0.8944272 
-0.03805415 -0.0740771 -0.00676853 -0.2854806 -0.8607851 -0.4213668 
0.02452002 -0.009916902 -0.0251839 0.8944272 -0.4472136 0 
0.002604549 0.0183093 -0.00309966 -0.2727701 0.9057585 -0.3243425 
0.03501425 -0.0525473 -0.027854 0.4306254 -0.2230279 -0.87454 
0.007957139 -0.0283483 -0.0385643 0.1381671 0.07652272 -0.9874483 
0.02273641 -0.0686251 -0.0225254 0.04236139 -0.74419 -0.6666234 
0.03505905 -0.0398248 -0.0295172 0.4216063 -0.07191895 -0.9039225 
0.01170305 0.0203183 -0.00342945 -0.1264688 0.90024 -0.4166217 
0.02375931 0.0202883 -0.0037489 0.08325689 0.9142033 -0.3966113 
0.02309354 -0.0730983 -0.0185102 -0.1077826 -0.9939018 -0.0232839 
0.04731775 -0.0718445 0.00431137 0.2734548 -0.9216278 -0.275363 
0.02374568 -0.0617964 -0.0269566 0.2077525 -0.4415425 -0.8728569 
0.03181905 -0.0604103 -0.0257297 0.312185 -0.4848734 -0.816969 
0.02353461 -0.0522514 -0.0310098 0.2292275 -0.2774217 -0.9330016 
0.01135962 -0.0531215 -0.0332134 0.09276021 -0.2983673 -0.9499329 
-0.01717565 -0.0506347 -0.0120737 -0.5168539 -0.1508296 -0.8426818 
0.01064832 -0.0397845 -0.036519 0.1506314 -0.2265785 -0.9622746 
0.02314955 -0.040135 -0.0334983 0.256152 -0.153488 -0.9543729 
-0.03947945 -0.0425959 -0.01016059 -0.2836992 -0.5738252 -0.7682704 
-0.02478585 -0.0377643 -0.0167247 -0.2714537 -0.413126 -0.8692755 
-7.8151e-05 -0.0372114 -0.0388045 -0.06236953 -0.1752339 -0.9825493 
-0.03809225 -0.0354604 -0.0167002 -0.150443 -0.5056968 -0.8494926 
-0.04629465 -0.036489 -0.0144319 -0.345799 -0.5953497 -0.725246 
0.02317936 -0.028704 -0.0344973 0.311415 0.08124469 -0.9467946 
0.01410946 -0.0273076 -0.037301 0.2466222 0.1026885 -0.9636558 
-0.00740505 -0.0262583 -0.0376862 -0.4418379 0.162167 -0.8823158 
-0.02375755 -0.0286209 -0.020353 -0.2321017 -0.2788366 -0.9318686 
-0.05608815 -0.0300561 -0.0127807 0 1 0 
-0.0005682502 -0.072496 -0.0201185 -0.01479699 -0.9432525 0.3317467 
-0.01408325 -0.07191 -0.0185453 0.1189999 -0.7460787 0.655138 
0.01147341 -0.069635 -0.0150968 0.05053857 -0.9340293 0.353603 
-0.0002873503 -0.0695041 -0.0160287 -0.086247 -0.9153772 0.3932507 
0.02502822 -0.07219911 -0.00707903 -0.441783 -0.8941735 -0.07267442 
0.02179812 -0.069357 -0.0077538 -0.2680885 -0.957912 -0.1026319 
0.0115544 -0.0688107 -0.00649969 -0.00801949 -0.999882 0.01310349 
-0.0001204517 -0.0691532 -0.00642348 0.01654456 -0.9997394 0.01573046 
-0.02553705 -0.0736196 -0.00623812 0.398968 -0.8744658 -0.2759239 
0.03641595 -0.0726511 0.00441929 0.05927321 -0.9982182 -0.006870656 
-0.01241915 -0.0693675 -0.00640517 -0.05534042 -0.9229805 -0.3808469 
0.02261441 -0.0729189 0.00500658 -0.201369 -0.9714305 -0.1255917 
0.01852903 -0.07016701 0.0003738222 -0.3983814 -0.886889 -0.2339233 
0.01164661 -0.06941681 0.00532963 -0.1736024 -0.9792306 -0.104736 
-0.02496835 -0.0734443 0.00532757 0.00232601 -0.9992108 0.03965458 
-0.0003792513 -0.0694421 0.00541631 0.0208701 -0.9994593 -0.02541031 
0.04615575 -0.0719176 0.0181712 0.2406823 -0.9620807 0.1283463 
-0.03753225 -0.0741383 0.00525976 -0.05139686 -0.9985803 0.01399157 
-0.01097955 -0.06960981 0.00384013 0.01914991 -0.9994346 -0.02763769 
0.01654674 -0.07202131 0.0097685 -0.3872757 -0.9154758 -0.1091857 
0.03681615 -0.0725773 0.0190832 0.06059263 -0.997434 0.03813032 
-0.01673875 -0.0739997 0.00659677 -0.08419353 -0.9900591 0.1126697 
0.02285397 -0.0731631 0.0174087 -0.2186108 -0.9568397 0.1914863 
0.01710803 -0.0726128 0.0128387 -0.2955039 -0.9552881 0.01010728 
0.05090565 -0.0701408 0.0204298 0.2975411 -0.8807403 0.3684641 
0.01159584 -0.0695805 0.0171278 -0.2372138 -0.9647238 0.1141828 
-0.01775075 -0.0727016 0.0172473 0.2090401 -0.977289 0.03476503 
-0.0003140513 -0.0695625 0.017233 0.02439316 -0.9995275 0.01870309 
-0.008696051 -0.0699995 0.017126 0.1033273 -0.9945331 0.01507804 
-0.03883095 -0.0740825 0.0169481 -0.1888705 -0.9817473 0.02236431 
0.01863489 -0.0700977 0.021763 -0.2876632 -0.908574 0.3028916 
0.02751905 -0.07225581 0.0290776 -0.166712 -0.9793431 0.1144302 
0.02299502 -0.0692031 0.0290825 -0.2907681 -0.9287228 0.2300605 
0.01152794 -0.0688641 0.0293468 -0.0318896 -0.9889359 0.1448753 
-0.01558075 -0.072237 0.0286452 0.1841569 -0.9828902 -0.0036245 
-0.01027795 -0.0695024 0.0317081 0.2029509 -0.975225 0.08801791 
-0.0004153512 -0.0691685 0.0290383 0.0527459 -0.9792535 0.195654 
-0.02444665 -0.0733889 0.0293884 0.07293902 -0.995871 0.05404554 
0.03273675 -0.0721471 0.0406908 0.4195498 -0.7164375 0.5574006 
-0.03793635 -0.0735032 0.0292168 -0.08490092 -0.9958333 0.03328341 
-0.04855775 -0.0466443 0.00527708 -0.5140651 -0.8527255 -0.09271601 
0.01094463 -0.0727215 0.0448175 0.2376203 -0.3366593 0.9111516 
-0.01328885 -0.0729991 0.0427175 -0.458232 -0.6455905 0.6109307 
-0.0005896501 -0.0729445 0.0452988 0.3407963 -0.8821421 0.3250896 
3 164 94 98 
3 224 335 49 
3 331 350 376 
3 124 122 237 
3 61 89 69 
3 61 161 94 
3 24 89 50 
3 109 25 35 
3 27 34 152 
3 444 443 435 
3 94 35 153 
3 3 61 69 
3 24 69 89 
3 38 218 104 
3 22 42 39 
3 14 24 34 
3 290 166 371 
3 226 76 224 
3 204 197 72 
3 82 3 14 
3 13 81 23 
3 99 13 23 
3 23 110 30 
3 110 2 30 
3 166 265 371 
3 90 61 3 
3 34 24 50 
3 293 167 207 
3 80 78 85 
3 61 94 164 
3 84 238 80 
3 4 161 61 
3 132 149 64 
3 196 22 228 
3 59 46 242 
3 179 84 80 
3 265 96 371 
3 52 258 207 
3 121 127 141 
3 343 168 346 
3 232 227 220 
3 232 243 227 
3 232 246 243 
3 57 126 56 
3 57 130 126 
3 221 232 220 
3 4 61 90 
3 134 80 85 
3 176 217 175 
3 4 0 161 
3 78 21 50 
3 126 130 129 
3 56 126 129 
3 111 182 201 
3 96 70 371 
3 89 164 98 
3 123 6 55 
3 197 87 72 
3 416 419 412 
3 245 80 179 
3 21 78 36 
3 61 164 89 
3 67 132 64 
3 150 149 132 
3 384 387 325 
3 214 221 112 
3 214 233 232 
3 221 214 232 
3 244 246 232 
3 233 244 232 
3 244 252 246 
3 244 143 119 
3 252 244 119 
3 127 142 141 
3 67 150 132 
3 82 90 3 
3 112 180 214 
3 244 253 143 
3 111 201 269 
3 37 74 63 
3 133 150 67 
3 118 133 67 
3 133 180 150 
3 191 214 180 
3 181 191 180 
3 191 234 233 
3 214 191 233 
3 234 244 233 
3 234 7 244 
3 244 98 253 
3 253 98 143 
3 216 217 115 
3 181 180 133 
3 15 16 219 
3 254 98 244 
3 7 254 244 
3 74 11 63 
3 14 3 24 
3 3 69 24 
3 217 216 175 
3 85 78 50 
3 73 78 80 
3 7 98 254 
3 105 133 118 
3 1 248 196 
3 48 241 100 
3 42 156 39 
3 149 173 344 
3 135 133 105 
3 106 135 105 
3 31 7 234 
3 148 31 234 
3 89 98 7 
3 31 89 7 
3 235 84 230 
3 14 27 236 
3 106 125 135 
3 19 20 62 
3 131 54 159 
3 34 50 21 
3 82 14 236 
3 201 52 43 
3 310 308 280 
3 131 159 54 
3 271 310 280 
3 27 14 34 
3 177 89 31 
3 238 73 80 
3 130 176 175 
3 354 331 381 
3 129 130 175 
3 125 136 135 
3 251 52 201 
3 106 56 125 
3 56 129 136 
3 125 56 136 
3 129 175 174 
3 136 129 174 
3 175 216 215 
3 174 175 215 
3 115 114 215 
3 216 115 215 
3 134 85 31 
3 85 177 31 
3 50 89 177 
3 85 50 177 
3 179 80 245 
3 400 407 367 
3 263 83 121 
3 217 179 115 
3 149 132 64 
3 178 187 116 
3 142 178 116 
3 326 120 319 
3 57 83 267 
3 304 391 294 
3 355 354 359 
3 128 29 11 
3 267 273 130 
3 48 16 10 
3 301 302 266 
3 196 66 22 
3 230 84 217 
3 247 13 243 
3 110 81 13 
3 271 178 266 
3 110 13 247 
3 278 277 267 
3 48 10 329 
3 258 11 275 
3 1 196 228 
3 154 247 243 
3 154 110 247 
3 263 141 270 
3 154 60 110 
3 60 154 110 
3 154 60 110 
3 11 74 37 
3 274 5 51 
3 252 154 243 
3 119 252 243 
3 109 110 60 
3 39 2 110 
3 109 39 110 
3 32 128 29 
3 32 128 11 
3 309 300 311 
3 252 119 154 
3 73 145 255 
3 67 64 259 
3 32 29 128 
3 258 275 43 
3 154 119 60 
3 119 109 60 
3 137 256 248 
3 270 267 83 
3 235 238 84 
3 267 130 57 
3 258 32 11 
3 302 310 271 
3 51 238 235 
3 266 302 271 
3 5 36 255 
3 51 235 230 
3 51 145 73 
3 286 51 230 
3 287 274 286 
3 119 25 109 
3 10 40 289 
3 120 48 329 
3 274 51 286 
3 276 230 217 
3 10 16 15 
3 51 5 145 
3 43 11 201 
3 176 276 217 
3 143 25 119 
3 158 207 167 
3 360 321 357 
3 130 273 276 
3 122 198 237 
3 270 278 267 
3 77 218 38 
3 15 6 40 
3 280 187 178 
3 271 280 178 
3 258 207 32 
3 66 58 22 
3 279 287 278 
3 155 139 172 
3 121 141 263 
3 288 41 274 
3 287 288 274 
3 276 176 130 
3 289 288 205 
3 274 41 5 
3 288 287 279 
3 329 10 289 
3 16 100 219 
3 127 178 142 
3 273 267 276 
3 252 119 243 
3 116 279 141 
3 41 123 5 
3 116 288 279 
3 142 116 141 
3 207 158 32 
3 276 277 230 
3 101 102 163 
3 299 298 294 
3 287 286 278 
3 5 255 145 
3 131 159 70 
3 275 11 43 
3 32 158 250 
3 205 288 116 
3 73 36 78 
3 120 329 319 
3 297 391 300 
3 84 179 217 
3 17 77 38 
3 255 36 73 
3 263 270 83 
3 249 248 1 
3 286 230 277 
3 11 37 66 
3 43 52 258 
3 267 277 276 
3 279 278 270 
3 141 279 270 
3 51 73 238 
3 47 36 5 
3 201 66 269 
3 201 11 66 
3 309 310 302 
3 300 309 302 
3 182 33 251 
3 278 286 277 
3 243 246 252 
3 416 427 419 
3 96 131 70 
3 66 256 111 
3 65 335 189 
3 113 374 407 
3 144 139 155 
3 226 224 139 
3 358 400 396 
3 30 91 203 
3 226 139 144 
3 46 328 242 
3 307 304 298 
3 70 159 54 
3 103 265 284 
3 443 261 446 
3 17 38 28 
3 88 200 239 
3 72 170 211 
3 138 17 28 
3 35 1 228 
3 295 299 294 
3 18 131 140 
3 18 59 131 
3 207 258 52 
3 188 70 54 
3 104 87 197 
3 222 48 120 
3 325 326 311 
3 326 281 120 
3 54 159 292 
3 386 299 295 
3 138 59 17 
3 48 100 16 
3 59 242 17 
3 296 121 83 
3 10 15 40 
3 242 91 17 
3 225 9 211 
3 314 322 384 
3 326 325 281 
3 170 225 211 
3 17 91 77 
3 144 76 226 
3 155 9 225 
3 159 131 28 
3 172 139 170 
3 131 138 28 
3 281 264 120 
3 264 222 120 
3 139 155 225 
3 139 225 170 
3 314 325 313 
3 386 295 390 
3 292 159 28 
3 132 149 344 
3 424 427 416 
3 49 335 65 
3 314 313 304 
3 111 269 66 
3 9 71 72 
3 211 9 72 
3 306 316 353 
3 307 314 304 
3 325 311 313 
3 40 41 288 
3 289 40 288 
3 40 6 41 
3 6 123 41 
3 22 39 109 
3 165 312 76 
3 299 307 298 
3 144 165 76 
3 312 107 76 
3 376 381 331 
3 165 107 312 
3 155 172 330 
3 35 228 22 
3 45 184 160 
3 42 62 156 
3 2 39 62 
3 58 42 22 
3 49 71 9 
3 280 116 187 
3 280 205 116 
3 155 330 144 
3 280 289 205 
3 319 280 308 
3 162 77 20 
3 20 77 91 
3 329 289 280 
3 319 329 280 
3 156 62 39 
3 372 408 375 
3 190 1 0 
3 1 35 0 
3 42 19 62 
3 35 161 0 
3 190 0 97 
3 35 22 109 
3 76 53 224 
3 161 35 94 
3 49 9 155 
3 224 49 155 
3 29 63 11 
3 160 162 19 
3 76 333 53 
3 153 25 143 
3 71 49 65 
3 2 20 30 
3 62 20 2 
3 55 8 5 
3 169 0 4 
3 6 8 55 
3 35 25 153 
3 160 218 162 
3 218 77 162 
3 15 334 6 
3 334 8 6 
3 332 76 93 
3 8 47 5 
3 98 153 143 
3 94 153 98 
3 219 334 15 
3 332 333 76 
3 93 76 107 
3 100 334 219 
3 160 19 45 
3 19 162 20 
3 340 132 344 
3 45 19 42 
3 27 47 8 
3 27 36 47 
3 80 115 179 
3 45 42 58 
3 71 184 45 
3 236 27 8 
3 334 236 8 
3 332 93 333 
3 27 152 36 
3 223 64 340 
3 236 334 117 
3 152 21 36 
3 134 148 115 
3 115 148 114 
3 152 34 21 
3 5 123 55 
3 337 68 191 
3 333 93 282 
3 256 66 196 
3 135 174 347 
3 183 180 195 
3 117 285 236 
3 182 111 63 
3 354 318 352 
3 114 234 68 
3 71 65 184 
3 135 136 174 
3 191 215 337 
3 337 215 114 
3 63 33 182 
3 133 135 181 
3 135 347 181 
3 110 23 81 
3 157 180 183 
3 149 157 183 
3 227 147 220 
3 12 23 30 
3 151 99 46 
3 174 215 191 
3 99 328 46 
3 114 148 234 
3 149 150 157 
3 220 147 284 
3 79 186 336 
3 68 234 191 
3 396 357 356 
3 99 23 12 
3 328 99 12 
3 337 114 68 
3 356 358 396 
3 338 343 342 
3 223 340 339 
3 265 103 96 
3 341 223 339 
3 347 174 191 
3 182 251 201 
3 134 115 80 
3 12 30 203 
3 345 343 338 
3 147 227 103 
3 33 108 251 
3 95 20 91 
3 181 347 191 
3 345 346 343 
3 157 150 180 
3 103 227 18 
3 66 240 58 
3 345 344 346 
3 146 32 108 
3 445 125 444 
3 30 95 91 
3 124 373 374 
3 137 249 72 
3 344 345 338 
3 344 168 346 
3 12 203 328 
3 284 147 103 
3 240 66 37 
3 344 173 168 
3 314 384 322 
3 107 282 93 
3 76 53 107 
3 107 53 282 
3 282 53 333 
3 165 76 107 
3 315 202 291 
3 165 144 76 
3 407 374 367 
3 144 53 76 
3 388 389 92 
3 155 144 330 
3 144 224 53 
3 432 431 434 
3 155 189 144 
3 144 189 224 
3 189 335 53 
3 224 189 53 
3 146 29 32 
3 382 88 209 
3 331 316 350 
3 331 353 316 
3 357 367 366 
3 360 357 366 
3 367 374 373 
3 366 367 373 
3 373 407 374 
3 388 92 169 
3 170 65 155 
3 155 65 189 
3 328 203 91 
3 413 421 414 
3 356 331 358 
3 242 328 91 
3 168 343 346 
3 113 198 122 
3 124 113 122 
3 239 200 315 
3 331 356 357 
3 372 26 102 
3 375 372 102 
3 26 163 102 
3 408 372 375 
3 72 87 65 
3 170 72 65 
3 87 184 65 
3 63 108 11 
3 63 29 108 
3 370 285 231 
3 389 370 231 
3 131 18 140 
3 33 63 108 
3 368 306 321 
3 374 113 124 
3 285 324 268 
3 231 285 268 
3 336 272 186 
3 224 155 139 
3 363 369 372 
3 86 193 163 
3 208 63 111 
3 380 305 202 
3 356 357 321 
3 346 354 352 
3 346 168 354 
3 168 359 354 
3 364 290 369 
3 363 364 369 
3 290 371 372 
3 369 290 372 
3 371 70 26 
3 372 371 26 
3 70 188 26 
3 188 54 26 
3 54 163 26 
3 54 86 163 
3 54 28 86 
3 28 38 86 
3 38 197 86 
3 38 104 197 
3 104 218 87 
3 218 160 87 
3 160 184 87 
3 58 240 208 
3 240 37 63 
3 208 240 63 
3 340 64 132 
3 343 168 346 
3 400 367 357 
3 396 400 357 
3 54 292 28 
3 96 103 18 
3 346 168 343 
3 249 137 248 
3 200 209 199 
3 79 222 281 
3 327 308 309 
3 343 346 352 
3 383 388 169 
3 200 88 209 
3 285 186 324 
3 241 48 79 
3 16 100 79 
3 303 100 79 
3 323 105 451 
3 100 303 186 
3 100 16 79 
3 321 353 331 
3 236 285 370 
3 389 231 92 
3 100 285 117 
3 108 63 11 
3 186 303 79 
3 88 382 209 
3 82 236 389 
3 100 241 79 
3 45 72 71 
3 0 169 97 
3 45 137 72 
3 285 100 186 
3 137 45 58 
3 199 378 305 
3 208 137 58 
3 356 331 357 
3 305 380 202 
3 378 349 305 
3 169 92 315 
3 192 262 75 
3 361 192 75 
3 291 202 237 
3 258 293 207 
3 272 79 377 
3 324 186 268 
3 268 186 88 
3 90 389 388 
3 169 315 291 
3 97 169 291 
3 79 320 377 
3 4 383 169 
3 379 317 368 
3 200 202 315 
3 92 239 315 
3 306 353 321 
3 370 389 236 
3 48 222 79 
3 206 361 185 
3 361 206 185 
3 92 231 239 
3 356 321 331 
3 190 171 185 
3 249 190 185 
3 206 198 361 
3 198 192 361 
3 90 388 383 
3 305 124 237 
3 327 311 326 
3 4 90 383 
3 190 249 1 
3 206 361 185 
3 171 206 185 
3 202 305 237 
3 108 29 146 
3 308 310 309 
3 334 100 117 
3 90 82 389 
3 79 336 186 
3 224 53 335 
3 354 381 318 
3 231 268 239 
3 186 272 209 
3 88 186 209 
3 200 199 202 
3 327 326 319 
3 308 327 319 
3 309 311 327 
3 435 443 446 
3 199 305 202 
3 97 171 190 
3 171 97 206 
3 97 291 206 
3 237 198 206 
3 291 237 206 
3 406 124 305 
3 399 402 400 
3 373 374 407 
3 300 304 311 
3 304 313 311 
3 407 213 113 
3 208 111 256 
3 403 402 399 
3 363 403 399 
3 29 128 32 
3 403 375 402 
3 363 399 359 
3 194 192 198 
3 193 86 75 
3 400 213 407 
3 272 336 79 
3 79 281 320 
3 300 302 297 
3 294 298 304 
3 299 322 314 
3 307 299 314 
3 322 384 314 
3 377 281 325 
3 387 377 325 
3 281 377 320 
3 355 358 331 
3 101 102 262 
3 363 375 403 
3 197 204 75 
3 102 101 262 
3 299 384 322 
3 262 163 193 
3 318 343 352 
3 299 322 384 
3 299 393 322 
3 322 393 384 
3 137 208 256 
3 86 197 75 
3 186 79 336 
3 222 264 281 
3 185 361 75 
3 365 360 366 
3 386 392 393 
3 299 386 393 
3 393 392 384 
3 392 394 384 
3 394 398 387 
3 384 394 387 
3 404 377 387 
3 398 404 387 
3 404 209 377 
3 209 272 377 
3 399 400 358 
3 359 399 358 
3 101 163 262 
3 262 193 75 
3 102 101 375 
3 204 72 249 
3 31 148 134 
3 424 437 427 
3 359 358 355 
3 400 402 213 
3 204 249 185 
3 351 317 386 
3 390 351 386 
3 317 392 386 
3 392 317 394 
3 317 395 394 
3 395 397 398 
3 394 395 398 
3 397 405 404 
3 398 397 404 
3 199 209 404 
3 405 199 404 
3 268 88 239 
3 75 204 185 
3 318 352 354 
3 243 18 227 
3 397 385 405 
3 385 199 405 
3 262 192 194 
3 101 262 194 
3 18 131 96 
3 349 378 199 
3 385 349 199 
3 250 158 167 
3 293 250 167 
3 379 362 395 
3 317 379 395 
3 395 362 397 
3 362 365 397 
3 365 401 397 
3 401 349 385 
3 397 401 385 
3 375 194 213 
3 213 194 113 
3 375 101 194 
3 354 352 318 
3 342 343 318 
3 375 213 402 
3 451 261 443 
3 32 250 293 
3 258 32 293 
3 113 194 198 
3 351 409 368 
3 355 331 354 
3 339 340 344 
3 372 375 363 
3 339 344 338 
3 368 321 379 
3 360 362 379 
3 360 365 362 
3 366 365 362 
3 365 366 362 
3 406 349 401 
3 365 406 401 
3 108 258 52 
3 258 108 32 
3 305 349 406 
3 297 302 301 
3 52 251 108 
3 321 360 379 
3 384 325 314 
3 373 406 365 
3 366 373 365 
3 373 349 406 
3 349 373 406 
3 373 124 406 
3 106 105 323 
3 439 434 431 
3 18 243 229 
3 83 57 260 
3 447 83 260 
3 418 425 429 
3 439 441 434 
3 441 442 434 
3 257 106 323 
3 391 425 418 
3 435 437 444 
3 257 323 452 
3 391 418 294 
3 296 440 441 
3 440 296 441 
3 131 59 138 
3 294 413 295 
3 95 30 20 
3 428 432 434 
3 422 424 415 
3 294 420 413 
3 425 296 429 
3 414 422 415 
3 425 121 296 
3 296 440 431 
3 452 323 451 
3 296 83 447 
3 431 441 439 
3 445 444 436 
3 429 296 431 
3 450 56 106 
3 301 121 433 
3 106 257 452 
3 414 415 411 
3 390 413 386 
3 18 229 59 
3 59 229 46 
3 386 414 411 
3 301 433 425 
3 248 256 196 
3 411 416 412 
3 300 391 304 
3 422 436 424 
3 46 229 151 
3 127 121 301 
3 412 419 356 
3 295 413 390 
3 351 390 411 
3 442 56 125 
3 409 351 412 
3 247 243 13 
3 330 172 155 
3 451 118 67 
3 364 44 290 
3 290 44 166 
3 166 210 265 
3 265 210 284 
3 442 436 434 
3 229 99 151 
3 364 449 44 
3 449 283 44 
3 418 420 294 
3 363 449 364 
3 212 284 210 
3 44 210 166 
3 420 428 422 
3 44 212 210 
3 247 229 243 
3 229 247 99 
3 127 266 178 
3 56 450 260 
3 413 420 421 
3 359 168 363 
3 363 168 449 
3 415 424 416 
3 296 447 260 
3 212 220 284 
3 436 437 424 
3 351 411 412 
3 440 441 431 
3 283 212 44 
3 451 67 261 
3 168 173 449 
3 449 173 283 
3 426 342 318 
3 381 426 318 
3 212 348 220 
3 266 127 301 
3 426 338 342 
3 149 283 173 
3 149 212 283 
3 438 338 426 
3 433 121 425 
3 149 183 212 
3 414 421 422 
3 172 170 155 
3 368 317 351 
3 350 381 376 
3 67 259 261 
3 183 112 212 
3 212 112 348 
3 348 112 220 
3 432 431 434 
3 448 339 338 
3 438 448 338 
3 420 431 432 
3 112 221 220 
3 428 420 432 
3 431 432 434 
3 417 381 350 
3 422 428 434 
3 423 426 381 
3 417 423 381 
3 56 260 57 
3 451 105 118 
3 296 260 440 
3 386 413 414 
3 306 350 316 
3 448 341 339 
3 415 416 411 
3 436 444 437 
3 259 341 448 
3 297 425 391 
3 442 125 445 
3 450 106 452 
3 410 350 306 
3 341 259 223 
3 355 417 350 
3 410 355 350 
3 259 64 223 
3 410 356 350 
3 356 410 350 
3 356 355 410 
3 355 419 417 
3 247 13 99 
3 195 112 183 
3 180 112 195 
3 419 355 356 
3 301 425 297 
3 390 386 411 
3 446 259 448 
3 446 261 259 
3 434 436 422 
3 421 420 422 
3 409 410 306 
3 368 409 306 
3 412 356 410 
3 409 412 410 
3 442 445 436 
3 435 423 430 
