ply
format ascii 1.0
comment VCGLIB generated
element vertex 215
property float x
property float y
property float z
property float nx
property float ny
property float nz
element face 422
property list uchar int vertex_indices
end_header
-0.03526172 -0.02032521 -0.8414227 0.1163271 0.8425155 -0.5259617 
-0.03526172 0.02729136 0.1377087 -0.01640584 0.1188216 0.9927801 
-0.02465022 -0.02472063 -0.8414227 0.4739123 0.3589219 -0.8041034 
0.009019762 0.008949358 0.1377087 0.1085462 0.143322 0.9837055 
-0.0202548 -0.03533213 -0.8414227 0.8425155 -0.1163271 -0.5259617 
0.02736177 -0.03533213 0.1377087 0.1018006 0.01405571 0.9947056 
-0.02465022 -0.04594363 -0.8414227 0.3034973 -0.4007309 -0.8644676 
0.009019762 -0.07961361 0.1377087 0.143322 -0.1085462 0.9837055 
-0.03526172 -0.05033905 -0.8414227 -0.1163272 -0.8425154 -0.5259618 
-0.03526173 -0.09795561 0.1377087 0.01640583 -0.1188216 0.9927801 
-0.04587322 -0.04594363 -0.8414227 -0.4739123 -0.3589219 -0.8041034 
-0.07954322 -0.07961361 0.1377087 -0.1085463 -0.143322 0.9837055 
-0.05026864 -0.03533213 -0.8414227 -0.8425155 0.1163271 -0.5259618 
-0.09788521 -0.03533213 0.1377087 -0.1018006 -0.01405572 0.9947056 
-0.04587322 -0.02472063 -0.8414227 -0.3034973 0.4007309 -0.8644676 
-0.07954322 0.008949354 0.1377087 -0.143322 0.1085462 0.9837055 
-0.03526172 0.1064887 -0.274536 0.000521269 0.9869608 -0.16096 
0.06502075 0.06495034 -0.274536 0.6982554 0.6975181 -0.16096 
0.1065591 -0.03533214 -0.274536 0.9869608 -0.0005212851 -0.16096 
0.06502075 -0.1356146 -0.274536 0.6975181 -0.6982553 -0.16096 
-0.03526173 -0.177153 -0.274536 -0.0005212689 -0.9869608 -0.16096 
-0.1355442 -0.1356146 -0.274536 -0.6982554 -0.6975181 -0.16096 
-0.1770826 -0.03533213 -0.274536 -0.9869608 0.0005212367 -0.16096 
-0.1355442 0.06495034 -0.274536 -0.6975182 0.6982552 -0.16096 
-0.03526172 0.1315455 -0.08905405 0.0005319527 0.9976307 -0.06879418 
0.08273862 0.08266819 -0.08905405 0.7058076 0.7050553 -0.06879417 
0.1316159 -0.03533214 -0.08905405 0.9976308 -0.0005319582 -0.06879418 
0.08273862 -0.1533324 -0.08905405 0.7050553 -0.7058076 -0.06879418 
-0.03526174 -0.2022098 -0.08905405 -0.0005319744 -0.9976308 -0.06879416 
-0.1532621 -0.1533324 -0.08905405 -0.7058077 -0.7050553 -0.06879412 
-0.2021394 -0.03533212 -0.08905405 -0.9976308 0.0005319312 -0.06879412 
-0.1532621 0.08266819 -0.08905405 -0.7050554 0.7058076 -0.06879415 
-0.03526172 0.1319635 0.03634071 -0.003350864 0.9861581 0.165774 
0.08303418 0.08296377 0.03634071 0.6949497 0.6996885 0.165774 
0.1320339 -0.03533214 0.03634071 0.9861581 0.003350836 0.165774 
0.08303418 -0.153628 0.03634071 0.6996885 -0.6949497 0.165774 
-0.03526174 -0.2026278 0.03634071 0.003350761 -0.9861581 0.165774 
-0.1535576 -0.153628 0.03634071 -0.6949497 -0.6996884 0.165774 
-0.2025574 -0.03533212 0.03634071 -0.9861581 -0.003350825 0.165774 
-0.1535576 0.08296375 0.03634071 -0.6996886 0.6949496 0.165774 
0.01863132 0.01856091 -0.5906332 0.6891312 0.6889861 -0.2244915 
0.04095455 -0.03533213 -0.5906332 0.9744761 -0.0001027422 -0.2244915 
0.01863132 -0.08922516 -0.5906332 0.6889859 -0.6891313 -0.2244915 
-0.03526173 -0.1115484 -0.5906332 -0.0001027851 -0.9744761 -0.2244915 
-0.08915476 -0.08922516 -0.5906332 -0.6891313 -0.688986 -0.2244914 
-0.111478 -0.03533213 -0.5906332 -0.974476 0.0001027422 -0.2244915 
-0.08915476 0.01856091 -0.5906332 -0.6889859 0.6891313 -0.2244915 
-0.03526172 0.04088414 -0.5906331 0.0001027583 0.9744761 -0.2244915 
-0.002155293 -0.002225701 -0.7160279 0.6871266 0.6867645 -0.2370898 
0.01155784 -0.03533213 -0.7160279 0.9714877 -0.0002562469 -0.2370898 
-0.002155293 -0.06843856 -0.7160279 0.6867645 -0.6871267 -0.2370898 
-0.03526172 -0.08215169 -0.7160279 -0.0002562469 -0.9714877 -0.2370898 
-0.06836815 -0.06843856 -0.7160279 -0.6871267 -0.6867644 -0.2370898 
-0.08208128 -0.03533213 -0.7160279 -0.9714877 0.0002561987 -0.2370898 
-0.06836815 -0.002225701 -0.7160279 -0.6867644 0.6871268 -0.2370898 
-0.03526172 0.01148743 -0.7160279 0.0002562309 0.9714877 -0.2370898 
-0.03526172 0.07407656 -0.443969 0.0004065447 0.978898 -0.204349 
0.04210191 0.04203149 -0.443969 0.6924729 0.6918979 -0.204349 
0.07414697 -0.03533213 -0.443969 0.978898 -0.0004065394 -0.204349 
0.04210191 -0.1126957 -0.443969 0.6918979 -0.6924729 -0.204349 
-0.03526173 -0.1447408 -0.443969 -0.0004065394 -0.978898 -0.204349 
-0.1126254 -0.1126957 -0.443969 -0.692473 -0.6918979 -0.204349 
-0.1446704 -0.03533213 -0.443969 -0.978898 0.0004064965 -0.204349 
-0.1126254 0.04203149 -0.443969 -0.6918979 0.6924729 -0.204349 
-0.03526172 0.1030943 0.1192539 -0.05247411 0.6578817 0.7512911 
0.06262059 0.06255016 0.1192539 0.4280878 0.5022973 0.7512911 
0.1031647 -0.03533214 0.1192539 0.6578817 0.05247405 0.7512911 
0.06262059 -0.1332144 0.1192539 0.5022973 -0.4280878 0.7512911 
-0.03526173 -0.1737586 0.1192539 0.05247403 -0.6578816 0.7512911 
-0.133144 -0.1332144 0.1192539 -0.4280878 -0.5022973 0.7512911 
-0.1736882 -0.03533212 0.1192539 -0.6578817 -0.05247404 0.7512911 
-0.133144 0.06255016 0.1192539 -0.5022974 0.4280878 0.7512911 
-0.03526172 0.02729136 0.1377087 -0.3326246 0.8156773 -0.4733196 
0.009019762 0.008949358 0.1377087 0.3415698 0.8119721 -0.4733196 
0.02736177 -0.03533213 0.1377087 0.8156772 0.3326247 -0.4733196 
0.009019762 -0.07961361 0.1377087 0.8119721 -0.3415698 -0.4733196 
-0.03526173 -0.09795561 0.1377087 0.3326248 -0.8156773 -0.4733196 
-0.07954322 -0.07961361 0.1377087 -0.34157 -0.811972 -0.4733196 
-0.09788521 -0.03533213 0.1377087 -0.8762644 -0.2042114 -0.4364155 
-0.07954322 0.008949354 0.1377087 -0.8119721 0.3415696 -0.4733196 
-0.03526172 0.08013142 0.3790401 -0.018689 0.8824342 -0.4700644 
0.04638334 0.04631293 0.3790401 0.6316534 0.6145879 -0.4725419 
0.08020183 -0.03533213 0.3790401 0.8936065 -0.0130063 -0.4486628 
0.04638334 -0.1169772 0.3790401 0.6341565 -0.6440297 -0.4278684 
-0.03026889 -0.1372943 0.3477479 0.04780136 -0.9536883 -0.2969744 
-0.101672 -0.1108526 0.3540317 -0.607137 -0.7658816 -0.211684 
-0.140021 -0.0177525 0.3708664 -0.9013833 0.3219095 -0.2896249 
-0.1169068 0.04631292 0.3790401 -0.6933137 0.648788 -0.3136724 
-0.01804604 0.00623022 0.1377087 0.2172051 0.3389959 -0.9153708 
0.006300624 -0.01811644 0.1377087 0.6392075 0.1399668 -0.7561899 
0.006300624 -0.05254782 0.1377087 0.3920043 -0.2511692 -0.8850123 
-0.01804604 -0.07689448 0.1377087 0.1399667 -0.6392075 -0.7561899 
-0.05247742 -0.07689448 0.1377087 -0.2172051 -0.3389959 -0.9153708 
-0.07682408 -0.05254781 0.1377087 -0.6392075 -0.1399666 -0.7561899 
-0.07682408 -0.01811644 0.1377087 -0.3586086 0.2732919 -0.8925869 
-0.05247742 0.00623022 0.1377087 -0.1399668 0.6392075 -0.7561899 
-0.003519885 0.04129945 0.3790401 0.3876771 0.8352379 -0.3899797 
0.04136986 -0.00359029 0.3790401 0.8763278 0.3538072 -0.32691 
0.04136986 -0.06707397 0.3790401 0.8984093 -0.3623726 -0.2480864 
-0.003519889 -0.1119637 0.3790401 0.3946731 -0.9073705 -0.1446093 
-0.06700358 -0.1119637 0.3790401 -0.3685821 -0.9122545 -0.1787149 
-0.1237892 -0.07449137 0.3944767 -0.9464185 -0.2730307 -0.1724713 
-0.1118933 -0.003590293 0.3790401 -0.8175945 0.4856826 -0.3092762 
-0.06700357 0.04129945 0.3790401 -0.3128345 0.8565556 -0.4104232 
-0.09811796 -0.02469022 0.2559953 -0.9378837 0.2795439 -0.205498 
-0.08408991 0.01349604 0.2583743 -0.6870933 0.6950432 -0.2117021 
-0.03526173 -0.1043856 0.2583743 0.005342503 -0.9788097 -0.2047023 
-0.08408991 -0.0841603 0.2583743 -0.6949879 -0.6925302 -0.1933749 
0.03379174 -0.03533213 0.2583743 0.9773181 -0.005621735 -0.2117021 
0.01356645 -0.08416031 0.2583743 0.6870931 -0.6950434 -0.2117021 
-0.03526172 0.03372134 0.2583743 0.005621783 0.9773181 -0.2117021 
0.01356645 0.01349605 0.2583743 0.6950433 0.6870933 -0.2117021 
0.01056812 -0.01634879 0.2583743 0.9119354 0.3804366 -0.1537588 
-0.01627839 -0.08116197 0.2583743 0.3804366 -0.9119355 -0.1537588 
-0.08109158 -0.05431547 0.2583743 -0.9365797 -0.3175752 -0.1482044 
-0.05424508 0.01049771 0.2583743 -0.3804366 0.9119354 -0.1537588 
-0.01627838 0.01049771 0.2583743 0.3758265 0.913845 -0.1537588 
0.01056812 -0.05431547 0.2583743 0.9138451 -0.3758265 -0.1537588 
-0.05424508 -0.08116197 0.2583743 -0.3614657 -0.9210193 -0.1451416 
-0.08109158 -0.01634879 0.2583743 -0.8590832 0.4894663 -0.1496624 
-0.01244563 0.1691075 0.491174 0.2023312 0.3708549 -0.9063823 
0.100138 0.130415 0.5245701 0.5411375 0.5253153 -0.656669 
0.1428908 0.01010764 0.4954262 0.7962315 0.08598592 -0.5988505 
0.100138 -0.1160043 0.4566782 0.6274021 -0.6018245 -0.4941396 
-0.03452229 -0.1620233 0.4430158 -0.04029092 -0.9300405 -0.3652414 
-0.1225999 -0.1123802 0.4431864 -0.6232975 -0.7267539 -0.2886678 
-0.1674689 -0.00234022 0.4183885 -0.6887293 0.06156275 -0.7224001 
-0.1113378 0.1201836 0.4715869 -0.4678976 0.5841767 -0.6631814 
0.02257426 0.1219419 0.5388983 0.2548167 0.8931576 -0.3705914 
0.09227237 0.05482585 0.5295824 0.7841853 0.5442737 -0.2980262 
0.09366427 -0.04069281 0.4979289 0.9458349 -0.1864841 -0.2657444 
0.02482957 -0.1084385 0.5001533 0.4224458 -0.9015604 -0.0934269 
-0.07268234 -0.1104672 0.5170362 -0.2507243 -0.9589359 0.132587 
-0.1199337 -0.05246786 0.4674367 -0.9201574 -0.3786566 -0.09964733 
-0.1108349 0.04551259 0.4798487 -0.8363547 0.4481294 -0.3157388 
-0.06529094 0.1211566 0.524909 -0.3082629 0.6977153 -0.6466587 
0.05216098 0.004580691 0.5509261 0.4096033 -0.3745023 0.8318493 
-0.03268124 0.08610987 0.5547714 -0.111448 0.3716173 0.9216723 
-0.03330106 -0.0697042 0.5192393 0.05008866 -0.4185317 0.9068199 
-0.1125986 0.005814984 0.5518693 -0.2873602 0.1377235 0.9478694 
0.1087373 -0.05850813 0.7900479 0.8145185 -0.5536709 0.1732287 
0.07808519 -0.02665826 0.8414227 0.6019077 0.4304379 0.6726295 
0.05725481 -0.1024495 0.7865731 -0.1531505 -0.9871795 0.04496265 
0.02660273 -0.07059964 0.8379478 -0.3422818 -0.2623417 0.9022306 
0.1679687 0.2757199 0.6256654 0.7695377 0.4698153 -0.4325335 
0.08972409 0.2694169 0.6672283 -0.2096445 0.976047 0.05815117 
0.1861997 0.2158144 0.6886605 0.9402076 0.08356171 0.3301926 
0.1515119 0.1775458 0.7490948 0.156815 -0.001797423 0.9876264 
0.0550363 0.2311484 0.727663 -0.7816531 0.4948581 0.3796499 
0.3237785 -0.01752984 0.6057622 0.7243432 -0.2471821 -0.6436054 
0.2957046 0.02284606 0.6632969 0.7285346 0.6148599 0.301968 
0.2947979 -0.07197277 0.6496336 0.3385654 -0.8485012 0.4067176 
0.2719327 -0.03031261 0.6979105 -0.002806167 0.1259185 0.9920366 
-0.02852954 -0.003415711 0.7172709 -0.9306578 -0.06590546 0.3599063 
0.04028746 0.05984594 0.7247474 0.0851947 0.9042214 0.41848 
0.1006994 0.0007812232 0.6921412 0.9835519 -0.04289795 -0.1754577 
0.02502038 -0.05634775 0.670352 -0.038118 -0.9755903 -0.2162653 
-0.008862214 0.09969901 0.600397 -0.02181216 0.9997587 0.002623499 
0.07000411 0.02444739 0.5968183 0.9837164 -0.03386857 -0.1765076 
-0.08824584 0.02353967 0.5960579 -0.9210425 -0.03557577 0.3878338 
-0.01772315 -0.04662436 0.5688263 0.05643778 -0.9849134 0.1635858 
0.1683892 0.06536789 0.6006899 0.02974652 0.9848967 0.1705689 
0.2077354 0.02282084 0.5548444 0.6453984 0.1340315 -0.751995 
0.1686318 -0.02980085 0.5902398 -0.09321419 -0.988458 -0.1194235 
0.1364476 0.01366598 0.6286685 -0.6336105 -0.09838378 0.7673711 
0.1080165 0.0833538 0.6657412 0.2393703 -0.7872949 0.5682153 
0.02177703 0.1371309 0.6432213 -0.90227 0.101744 0.4189954 
0.130022 0.1873999 0.5775931 0.4160278 0.386571 -0.823094 
0.1389061 0.12358 0.618 0.9075513 -0.3777611 -0.1834315 
0.05826553 0.1791075 0.605279 -0.6030617 0.665266 -0.4401565 
-0.009136643 0.2208967 0.4967548 0.51469 0.5872285 -0.6247054 
0.00341421 0.208103 0.5702897 0.3898652 0.5804086 0.7149343 
-0.0775494 0.1983673 0.5200082 -0.7307239 0.569907 -0.3758306 
-0.05989875 0.1887984 0.5847071 -0.679134 0.1009635 0.7270374 
-0.1515857 0.22072 0.5473908 -0.007637987 0.979367 -0.2019455 
-0.1777559 0.1807643 0.6061043 -0.9909875 0.09114636 -0.09816344 
-0.08447696 0.2019036 0.581388 0.5277898 0.845427 -0.08179912 
-0.06271651 0.1830708 0.6299189 0.6636336 0.1719962 0.7280163 
-0.1564089 0.1516863 0.6634438 -0.5615101 0.4652846 0.6842636 
-0.2163695 0.0278632 0.4437888 -0.3642112 0.1420543 -0.9204188 
-0.2168729 -0.01774541 0.5331191 -0.3014039 -0.9047214 0.3010564 
-0.1767951 0.07661728 0.5177021 0.3797858 0.9138846 -0.1434496 
-0.1825803 0.04144903 0.5730901 0.3160357 0.07580594 0.945714 
-0.2899559 0.05659036 0.4907814 -0.4321207 0.3672937 -0.8236305 
-0.3237785 0.0102002 0.5381491 -0.9311221 -0.2999025 -0.2075338 
-0.2683523 0.1271718 0.5128177 -0.2971048 0.9504709 -0.09128962 
-0.2868763 0.09086184 0.5860276 -0.3016831 0.09012103 0.9491394 
-0.1945289 -0.1303185 0.5480428 -0.4222099 -0.387068 -0.8197056 
-0.1402557 -0.1520115 0.5987678 0.5040292 -0.8631602 -0.03014891 
-0.2269659 -0.07140856 0.5945237 -0.7280516 0.5762124 -0.371376 
-0.142469 -0.1164777 0.6613699 0.6302841 -0.2247364 0.7431256 
-0.190789 -0.07206065 0.661778 -0.06556971 0.7069821 0.7041853 
-0.2769331 -0.1925201 0.5882508 -0.7048761 -0.3749756 -0.6021155 
-0.2417183 -0.2311973 0.6287258 -0.09272836 -0.9381055 -0.3337059 
-0.3095567 -0.1566976 0.6385841 -0.9229512 0.3834246 0.03386278 
-0.2530918 -0.2221117 0.6885267 0.305364 -0.7544089 0.5810508 
-0.291414 -0.1818425 0.6960144 -0.6810474 -0.3274761 0.6549304 
-0.03860658 -0.1953035 0.492815 -0.08918631 -0.4112186 -0.9071632 
0.0005381629 -0.1803156 0.5552447 0.9327132 -0.255101 0.2548916 
-0.06346437 -0.1763904 0.5492296 -0.9676929 0.1935631 0.1615667 
-0.03697466 -0.1597813 0.5810347 -0.1633934 0.2909043 0.9426968 
-0.05148903 -0.2589517 0.4831206 -0.5442598 -0.3255148 -0.7731891 
-0.01450765 -0.2757199 0.5464106 0.6458709 -0.7562924 -0.1042719 
-0.07770984 -0.2642261 0.5417966 -0.8496562 -0.4771324 0.2245643 
-0.05172202 -0.2652587 0.5780276 0.05603547 -0.4445603 0.8939945 
0.1231067 -0.1604209 0.499795 0.3908235 -0.4824484 -0.7839009 
0.1332802 -0.1288725 0.5423137 0.9417762 0.3127334 -0.1235126 
0.08440379 -0.1642593 0.5381837 -0.5805532 -0.7154737 -0.3886585 
0.1204844 -0.1157029 0.5896677 0.4214347 0.4145989 0.8065362 
0.05640554 -0.1448024 0.5680664 -0.7585742 -0.4035585 0.5115718 
0.1596763 -0.2459545 0.5576352 0.2207651 -0.8152057 -0.5354461 
0.1744138 -0.2410266 0.5854263 0.9598915 -0.0630336 -0.2731943 
0.1422441 -0.256319 0.5827414 -0.3609295 -0.8990279 -0.247949 
0.1746981 -0.2459928 0.6150066 0.783362 -0.532923 0.3199017 
0.1324186 -0.2526691 0.6073799 -0.452738 -0.5288484 0.7178773 
3 64 1 3 
3 64 3 65 
3 65 3 5 
3 65 5 66 
3 66 5 7 
3 66 7 67 
3 67 7 9 
3 67 9 68 
3 68 9 11 
3 68 11 69 
3 69 11 13 
3 69 13 70 
3 5 3 1 
3 1 15 13 
3 13 11 9 
3 9 7 5 
3 5 1 13 
3 13 9 5 
3 70 13 15 
3 70 15 71 
3 71 15 1 
3 71 1 64 
3 14 0 2 
3 2 4 6 
3 6 8 10 
3 10 12 14 
3 14 2 6 
3 6 10 14 
3 63 23 16 
3 63 16 56 
3 62 22 23 
3 62 23 63 
3 61 21 22 
3 61 22 62 
3 60 20 21 
3 60 21 61 
3 59 19 20 
3 59 20 60 
3 58 18 19 
3 58 19 59 
3 57 17 18 
3 57 18 58 
3 56 16 17 
3 56 17 57 
3 23 31 24 
3 23 24 16 
3 22 30 31 
3 22 31 23 
3 21 29 30 
3 21 30 22 
3 20 28 29 
3 20 29 21 
3 19 27 28 
3 19 28 20 
3 18 26 27 
3 18 27 19 
3 17 25 26 
3 17 26 18 
3 16 24 25 
3 16 25 17 
3 31 39 32 
3 31 32 24 
3 30 38 39 
3 30 39 31 
3 29 37 38 
3 29 38 30 
3 28 36 37 
3 28 37 29 
3 27 35 36 
3 27 36 28 
3 26 34 35 
3 26 35 27 
3 25 33 34 
3 25 34 26 
3 24 32 33 
3 24 33 25 
3 55 47 40 
3 55 40 48 
3 48 40 41 
3 48 41 49 
3 49 41 42 
3 49 42 50 
3 50 42 43 
3 50 43 51 
3 51 43 44 
3 51 44 52 
3 52 44 45 
3 52 45 53 
3 53 45 46 
3 53 46 54 
3 54 46 47 
3 54 47 55 
3 55 0 14 
3 55 14 54 
3 12 53 54 
3 12 54 14 
3 10 52 53 
3 10 53 12 
3 8 51 52 
3 8 52 10 
3 6 50 51 
3 6 51 8 
3 4 49 50 
3 4 50 6 
3 2 48 49 
3 2 49 4 
3 0 55 48 
3 0 48 2 
3 47 56 57 
3 47 57 40 
3 40 57 58 
3 40 58 41 
3 41 58 59 
3 41 59 42 
3 42 59 60 
3 42 60 43 
3 43 60 61 
3 43 61 44 
3 44 61 62 
3 44 62 45 
3 45 62 63 
3 45 63 46 
3 46 63 56 
3 46 56 47 
3 39 71 64 
3 39 64 32 
3 38 70 71 
3 38 71 39 
3 37 69 70 
3 37 70 38 
3 36 68 69 
3 36 69 37 
3 35 67 68 
3 35 68 36 
3 34 66 67 
3 34 67 35 
3 33 65 66 
3 33 66 34 
3 32 64 65 
3 32 65 33 
3 88 73 89 
3 89 74 90 
3 90 75 91 
3 91 76 92 
3 92 77 93 
3 93 78 94 
3 94 79 95 
3 95 72 88 
3 88 89 90 
3 90 91 92 
3 92 93 94 
3 94 95 88 
3 88 90 92 
3 92 94 88 
3 82 97 129 
3 82 129 122 
3 119 104 86 
3 119 86 102 
3 118 106 84 
3 118 84 100 
3 117 108 82 
3 117 82 98 
3 116 110 80 
3 116 80 96 
3 115 105 87 
3 115 87 103 
3 114 107 85 
3 114 85 101 
3 113 109 83 
3 113 83 99 
3 112 111 81 
3 112 81 97 
3 108 112 97 
3 108 97 82 
3 74 89 112 
3 74 112 108 
3 89 73 111 
3 89 111 112 
3 106 113 99 
3 106 99 84 
3 76 91 113 
3 76 113 106 
3 91 75 109 
3 91 109 113 
3 104 114 101 
3 104 101 86 
3 78 93 114 
3 78 114 104 
3 93 77 107 
3 93 107 114 
3 110 115 103 
3 110 103 80 
3 72 95 115 
3 72 115 110 
3 95 79 105 
3 95 105 115 
3 111 116 96 
3 111 96 81 
3 73 88 116 
3 73 116 111 
3 88 72 110 
3 88 110 116 
3 109 117 98 
3 109 98 83 
3 75 90 117 
3 75 117 109 
3 90 74 108 
3 90 108 117 
3 107 118 100 
3 107 100 85 
3 77 92 118 
3 77 118 107 
3 92 76 106 
3 92 106 118 
3 105 119 102 
3 105 102 87 
3 79 94 119 
3 79 119 105 
3 94 78 104 
3 94 104 119 
3 166 165 147 
3 166 147 148 
3 99 83 123 
3 99 123 131 
3 83 98 130 
3 83 130 123 
3 100 84 124 
3 100 124 132 
3 84 99 131 
3 84 131 124 
3 101 85 125 
3 101 125 133 
3 85 100 132 
3 85 132 125 
3 102 86 126 
3 102 126 134 
3 86 101 133 
3 86 133 126 
3 103 87 127 
3 103 127 135 
3 96 80 120 
3 96 120 128 
3 87 102 134 
3 87 134 127 
3 97 81 121 
3 97 121 129 
3 80 103 135 
3 80 135 120 
3 81 96 128 
3 81 128 121 
3 98 82 122 
3 98 122 130 
3 133 139 182 
3 133 182 180 
3 162 161 150 
3 162 150 149 
3 154 153 143 
3 154 143 141 
3 128 120 170 
3 128 170 171 
3 138 131 207 
3 138 207 209 
3 127 134 175 
3 127 175 174 
3 131 138 200 
3 131 200 198 
3 133 125 187 
3 133 187 189 
3 140 141 143 
3 140 143 142 
3 155 154 141 
3 155 141 140 
3 153 156 142 
3 153 142 143 
3 156 155 140 
3 156 140 142 
3 146 144 145 
3 145 148 147 
3 145 147 146 
3 168 167 144 
3 168 144 146 
3 165 168 146 
3 165 146 147 
3 167 169 145 
3 167 145 144 
3 169 166 148 
3 169 148 145 
3 150 152 151 
3 150 151 149 
3 164 163 151 
3 164 151 152 
3 161 164 152 
3 161 152 150 
3 163 162 149 
3 163 149 151 
3 160 158 155 
3 160 155 156 
3 159 160 156 
3 159 156 153 
3 158 157 154 
3 158 154 155 
3 157 159 153 
3 157 153 154 
3 137 139 159 
3 137 159 157 
3 136 137 157 
3 136 157 158 
3 139 138 160 
3 139 160 159 
3 138 136 158 
3 138 158 160 
3 130 122 162 
3 130 162 163 
3 129 136 164 
3 129 164 161 
3 136 130 163 
3 136 163 164 
3 122 129 161 
3 122 161 162 
3 128 137 166 
3 128 166 169 
3 121 128 169 
3 121 169 167 
3 136 129 168 
3 136 168 165 
3 129 121 167 
3 129 167 168 
3 137 136 165 
3 137 165 166 
3 172 173 171 
3 172 171 170 
3 120 135 172 
3 120 172 170 
3 135 137 173 
3 135 173 172 
3 137 128 171 
3 137 171 173 
3 174 175 178 
3 178 177 176 
3 178 176 174 
3 134 139 178 
3 134 178 175 
3 137 135 176 
3 137 176 177 
3 135 127 174 
3 135 174 176 
3 139 137 177 
3 139 177 178 
3 180 182 186 
3 180 186 184 
3 139 134 181 
3 139 181 182 
3 134 126 179 
3 134 179 181 
3 126 133 180 
3 126 180 179 
3 184 186 185 
3 184 185 183 
3 181 179 183 
3 181 183 185 
3 182 181 185 
3 182 185 186 
3 179 180 184 
3 179 184 183 
3 188 190 195 
3 188 195 193 
3 125 132 188 
3 125 188 187 
3 138 139 191 
3 138 191 190 
3 139 133 189 
3 139 189 191 
3 132 138 190 
3 132 190 188 
3 193 195 196 
3 196 194 192 
3 196 192 193 
3 187 188 193 
3 187 193 192 
3 190 191 196 
3 190 196 195 
3 191 189 194 
3 191 194 196 
3 189 187 192 
3 189 192 194 
3 198 200 204 
3 198 204 202 
3 132 124 197 
3 132 197 199 
3 124 131 198 
3 124 198 197 
3 138 132 199 
3 138 199 200 
3 202 204 203 
3 202 203 201 
3 197 198 202 
3 197 202 201 
3 200 199 203 
3 200 203 204 
3 199 197 201 
3 199 201 203 
3 207 205 210 
3 207 210 212 
3 130 136 208 
3 130 208 206 
3 131 123 205 
3 131 205 207 
3 123 130 206 
3 123 206 205 
3 136 138 209 
3 136 209 208 
3 210 211 213 
3 213 214 212 
3 213 212 210 
3 208 209 214 
3 208 214 213 
3 205 206 211 
3 205 211 210 
3 209 207 212 
3 209 212 214 
3 206 208 213 
3 206 213 211 
