ply
format ascii 1.0
comment VCGLIB generated
element vertex 528
property float x
property float y
property float z
property float nx
property float ny
property float nz
element face 348
property list uchar int vertex_indices
property list uchar float texcoord
end_header
-0.2892999 -0.465 -0.40005 0 -1 0 
0.2885 -0.465 -0.40005 0 -1 0 
-0.0003999797 -0.465 -0.11115 0 -1 0 
-0.2892999 0.40005 -0.465 0 0 -1 
0.2885 0.40005 -0.465 0 0 -1 
-0.0003999797 0.11115 -0.465 0 0 -1 
0.2885 0.40005 -0.4849999 0 -1 0 
0.2885 0.40005 -0.465 0 -1 0 
-0.2892999 0.40005 -0.465 0 -1 0 
-0.2892999 0.40005 -0.4999999 0 -1 0 
0.4000499 0.40005 -0.4999999 0 -1 0 
0.4000499 0.40005 -0.4849999 0 -1 0 
0.4000499 -0.2893 -0.4999999 -1 0 0 
0.4000499 -0.2893 -0.465 -1 0 0 
0.4000499 0.2918501 -0.465 -1 0 0 
0.4000499 0.2918501 -0.4849999 -1 0 0 
0.4000499 0.40005 -0.4849999 -1 0 0 
0.4000499 0.40005 -0.4999999 -1 0 0 
-0.2892999 -0.4000499 -0.4849999 0 1 0 
-0.2892999 -0.4000499 -0.465 0 1 0 
0.2885 -0.4000499 -0.465 0 1 0 
0.2885 -0.4000499 -0.4999999 0 1 0 
-0.40005 -0.4000499 -0.4999999 0 1 0 
-0.40005 -0.4000499 -0.4849999 0 1 0 
0.4000499 -0.2893 -0.465 0 0 -1 
0.10945 0.001250068 -0.465 0 0 -1 
0.4000499 0.2918501 -0.465 0 0 -1 
-0.40005 0.2884999 -0.465 0 0 -1 
-0.11115 -0.0004000496 -0.465 0 0 -1 
-0.40005 -0.2893 -0.465 0 0 -1 
-0.2892999 0.40005 -0.4999999 0 0 -1 
0.2885 -0.4000499 -0.4999999 0 0 -1 
-0.40005 0.2884999 -0.4999999 0 0 -1 
0.4000499 -0.2893 -0.4999999 0 0 -1 
-0.4999999 0.5 -0.4999999 0 0 -1 
-0.4999999 -0.5 -0.4999999 0 0 -1 
0.4999999 0.5 -0.4999999 0 0 -1 
0.4000499 0.40005 -0.4999999 0 0 -1 
-0.40005 -0.4000499 -0.4999999 0 0 -1 
0.4999999 -0.5 -0.4999999 0 0 -1 
-0.40005 0.2884999 -0.4999999 1 0 0 
-0.40005 0.2884999 -0.465 1 0 0 
-0.40005 -0.2893 -0.465 1 0 0 
-0.40005 -0.2893 -0.4849999 1 0 0 
-0.40005 -0.4000499 -0.4849999 1 0 0 
-0.40005 -0.4000499 -0.4999999 1 0 0 
0.2885 -0.4000499 -0.465 0 0 -1 
-0.2892999 -0.4000499 -0.465 0 0 -1 
-0.0003999797 -0.1111499 -0.465 0 0 -1 
-0.2892999 0.40005 -0.4999999 0.7071068 0.7071068 0 
-0.2892999 0.40005 -0.465 0.7071068 0.7071068 0 
-0.0003999797 0.11115 -0.465 0.7071068 0.7071068 0 
-0.0003999797 0.11115 -0.4849999 0.7071068 0.7071068 0 
0.10945 0.001250068 -0.465 0.7071068 0.7071068 0 
0.4000499 -0.2893 -0.465 0.7071068 0.7071068 0 
0.4000499 -0.2893 -0.4999999 0.7071068 0.7071068 0 
0.10945 0.001250068 -0.4849999 0.7071068 0.7071068 0 
0.2885 -0.4000499 -0.4999999 -0.7071068 -0.7071068 0 
0.2885 -0.4000499 -0.465 -0.7071068 -0.7071068 0 
-0.0003999797 -0.1111499 -0.465 -0.7071068 -0.7071068 0 
-0.0003999797 -0.1111499 -0.4849999 -0.7071068 -0.7071068 0 
-0.11115 -0.0004000496 -0.465 -0.7071068 -0.7071068 0 
-0.40005 0.2884999 -0.465 -0.7071068 -0.7071068 0 
-0.40005 0.2884999 -0.4999999 -0.7071068 -0.7071068 0 
-0.11115 -0.0004000496 -0.4849999 -0.7071068 -0.7071068 0 
0.4000499 0.2918501 -0.465 0.7071068 -0.7071068 0 
0.10945 0.001250068 -0.465 0.7071068 -0.7071068 0 
0.10945 0.001250068 -0.4849999 0.7071068 -0.7071068 0 
0.4000499 0.2918501 -0.4849999 0.7071068 -0.7071068 0 
-0.0003999797 0.11115 -0.465 -0.7071068 0.7071068 0 
0.2885 0.40005 -0.465 -0.7071068 0.7071068 0 
0.2885 0.40005 -0.4849999 -0.7071068 0.7071068 0 
-0.0003999797 0.11115 -0.4849999 -0.7071068 0.7071068 0 
-0.40005 -0.2893 -0.465 -0.7071068 0.7071068 0 
-0.11115 -0.0004000496 -0.465 -0.7071068 0.7071068 0 
-0.11115 -0.0004000496 -0.4849999 -0.7071068 0.7071068 0 
-0.40005 -0.2893 -0.4849999 -0.7071068 0.7071068 0 
0.2885 0.40005 -0.4849999 0 0 -1 
0.4000499 0.40005 -0.4849999 0 0 -1 
0.4000499 0.2918501 -0.4849999 0 0 -1 
0.10945 0.001250068 -0.4849999 0 0 -1 
-0.0003999797 0.11115 -0.4849999 0 0 -1 
-0.0003999797 -0.1111499 -0.465 0.7071068 -0.7071068 0 
-0.2892999 -0.4000499 -0.465 0.7071068 -0.7071068 0 
-0.2892999 -0.4000499 -0.4849999 0.7071068 -0.7071068 0 
-0.0003999797 -0.1111499 -0.4849999 0.7071068 -0.7071068 0 
-0.2892999 -0.4000499 -0.4849999 0 0 -1 
-0.40005 -0.4000499 -0.4849999 0 0 -1 
-0.40005 -0.2893 -0.4849999 0 0 -1 
-0.11115 -0.0004000496 -0.4849999 0 0 -1 
-0.0003999797 -0.1111499 -0.4849999 0 0 -1 
0.4649999 0.40005 -0.2893 1 0 0 
0.4649999 0.40005 0.2885 1 0 0 
0.4649999 0.11115 -0.000400003 1 0 0 
0.4849999 0.40005 0.2885 0 -1 0 
0.4649999 0.40005 0.2885 0 -1 0 
0.4649999 0.40005 -0.2893 0 -1 0 
0.4999999 0.40005 -0.2893 0 -1 0 
0.4999999 0.40005 0.40005 0 -1 0 
0.4849999 0.40005 0.40005 0 -1 0 
0.4999999 -0.2893 0.40005 0 0 -1 
0.4649999 -0.2893 0.40005 0 0 -1 
0.4649999 0.2918501 0.40005 0 0 -1 
0.4849999 0.2918501 0.40005 0 0 -1 
0.4849999 0.40005 0.40005 0 0 -1 
0.4999999 0.40005 0.40005 0 0 -1 
0.4849999 -0.4000499 -0.2893 0 1 0 
0.4649999 -0.4000499 -0.2893 0 1 0 
0.4649999 -0.4000499 0.2885 0 1 0 
0.4999999 -0.4000499 0.2885 0 1 0 
0.4999999 -0.4000499 -0.40005 0 1 0 
0.4849999 -0.4000499 -0.40005 0 1 0 
0.4649999 -0.2893 0.40005 1 0 0 
0.4649999 0.001250068 0.10945 1 0 0 
0.4649999 0.2918501 0.40005 1 0 0 
0.4649999 0.2884999 -0.40005 1 0 0 
0.4649999 -0.0004000496 -0.11115 1 0 0 
0.4649999 -0.2893 -0.40005 1 0 0 
0.4999999 -0.5 -0.4999999 1 0 0 
0.4999999 -0.4000499 -0.40005 1 0 0 
0.4999999 -0.5 0.4999999 1 0 0 
0.4999999 0.5 -0.4999999 1 0 0 
0.4999999 0.2884999 -0.40005 1 0 0 
0.4999999 0.40005 -0.2893 1 0 0 
0.4999999 0.40005 0.40005 1 0 0 
0.4999999 -0.2893 0.40005 1 0 0 
0.4999999 0.5 0.4999999 1 0 0 
0.4999999 -0.4000499 0.2885 1 0 0 
0.4999999 0.2884999 -0.40005 0 0 1 
0.4649999 0.2884999 -0.40005 0 0 1 
0.4649999 -0.2893 -0.40005 0 0 1 
0.4849999 -0.2893 -0.40005 0 0 1 
0.4849999 -0.4000499 -0.40005 0 0 1 
0.4999999 -0.4000499 -0.40005 0 0 1 
0.4649999 -0.4000499 0.2885 1 0 0 
0.4649999 -0.4000499 -0.2893 1 0 0 
0.4649999 -0.1111499 -0.000400003 1 0 0 
0.4999999 0.40005 -0.2893 0 0.7071068 0.7071068 
0.4649999 0.40005 -0.2893 0 0.7071068 0.7071068 
0.4649999 0.11115 -0.000400003 0 0.7071068 0.7071068 
0.4849999 0.11115 -0.000400003 0 0.7071068 0.7071068 
0.4649999 0.001250068 0.10945 0 0.7071068 0.7071068 
0.4649999 -0.2893 0.40005 0 0.7071068 0.7071068 
0.4999999 -0.2893 0.40005 0 0.7071068 0.7071068 
0.4849999 0.001250068 0.10945 0 0.7071068 0.7071068 
0.4999999 -0.4000499 0.2885 0 -0.7071068 -0.7071068 
0.4649999 -0.4000499 0.2885 0 -0.7071068 -0.7071068 
0.4649999 -0.1111499 -0.000400003 0 -0.7071068 -0.7071068 
0.4849999 -0.1111499 -0.000400003 0 -0.7071068 -0.7071068 
0.4649999 -0.0004000496 -0.11115 0 -0.7071068 -0.7071068 
0.4649999 0.2884999 -0.40005 0 -0.7071068 -0.7071068 
0.4999999 0.2884999 -0.40005 0 -0.7071068 -0.7071068 
0.4849999 -0.0004000496 -0.11115 0 -0.7071068 -0.7071068 
0.4649999 0.2918501 0.40005 0 -0.7071068 0.7071068 
0.4649999 0.001250068 0.10945 0 -0.7071068 0.7071068 
0.4849999 0.001250068 0.10945 0 -0.7071068 0.7071068 
0.4849999 0.2918501 0.40005 0 -0.7071068 0.7071068 
0.4649999 0.11115 -0.000400003 0 0.7071068 -0.7071068 
0.4649999 0.40005 0.2885 0 0.7071068 -0.7071068 
0.4849999 0.40005 0.2885 0 0.7071068 -0.7071068 
0.4849999 0.11115 -0.000400003 0 0.7071068 -0.7071068 
0.4649999 -0.2893 -0.40005 0 0.7071068 -0.7071068 
0.4649999 -0.0004000496 -0.11115 0 0.7071068 -0.7071068 
0.4849999 -0.0004000496 -0.11115 0 0.7071068 -0.7071068 
0.4849999 -0.2893 -0.40005 0 0.7071068 -0.7071068 
0.2885 -0.4849999 -0.40005 0 0 1 
0.2885 -0.465 -0.40005 0 0 1 
-0.2892999 -0.465 -0.40005 0 0 1 
-0.2892999 -0.5 -0.40005 0 0 1 
0.4000499 -0.5 -0.40005 0 0 1 
0.4000499 -0.4849999 -0.40005 0 0 1 
0.4000499 -0.5 0.2893 -1 0 0 
0.4000499 -0.465 0.2893 -1 0 0 
0.4000499 -0.465 -0.29185 -1 0 0 
0.4000499 -0.4849999 -0.29185 -1 0 0 
0.4000499 -0.4849999 -0.40005 -1 0 0 
0.4000499 -0.5 -0.40005 -1 0 0 
-0.2892999 -0.4849999 0.40005 0 0 -1 
-0.2892999 -0.465 0.40005 0 0 -1 
0.2885 -0.465 0.40005 0 0 -1 
0.2885 -0.5 0.40005 0 0 -1 
-0.40005 -0.5 0.40005 0 0 -1 
-0.40005 -0.4849999 0.40005 0 0 -1 
0.4849999 0.40005 0.2885 1 0 0 
0.4849999 0.40005 0.40005 1 0 0 
0.4849999 0.2918501 0.40005 1 0 0 
0.4849999 0.001250068 0.10945 1 0 0 
0.4849999 0.11115 -0.000400003 1 0 0 
0.4649999 -0.1111499 -0.000400003 0 -0.7071068 0.7071068 
0.4649999 -0.4000499 -0.2893 0 -0.7071068 0.7071068 
0.4849999 -0.4000499 -0.2893 0 -0.7071068 0.7071068 
0.4849999 -0.1111499 -0.000400003 0 -0.7071068 0.7071068 
0.4849999 -0.4000499 -0.2893 1 0 0 
0.4849999 -0.4000499 -0.40005 1 0 0 
0.4849999 -0.2893 -0.40005 1 0 0 
0.4849999 -0.0004000496 -0.11115 1 0 0 
0.4849999 -0.1111499 -0.000400003 1 0 0 
0.2885 0.465 -0.40005 0 1 0 
-0.2892999 0.465 -0.40005 0 1 0 
-0.0003999797 0.465 -0.11115 0 1 0 
-0.2892999 0.5 -0.40005 0 0 1 
-0.2892999 0.465 -0.40005 0 0 1 
0.2885 0.465 -0.40005 0 0 1 
0.2885 0.485 -0.40005 0 0 1 
0.4000499 0.485 -0.40005 0 0 1 
0.4000499 0.5 -0.40005 0 0 1 
0.4000499 0.485 -0.29185 -1 0 0 
0.4000499 0.465 -0.29185 -1 0 0 
0.4000499 0.465 0.2893 -1 0 0 
0.4000499 0.5 0.2893 -1 0 0 
0.4000499 0.5 -0.40005 -1 0 0 
0.4000499 0.485 -0.40005 -1 0 0 
0.2885 0.5 0.40005 0 0 -1 
0.2885 0.465 0.40005 0 0 -1 
-0.2892999 0.465 0.40005 0 0 -1 
-0.2892999 0.485 0.40005 0 0 -1 
-0.40005 0.485 0.40005 0 0 -1 
-0.40005 0.5 0.40005 0 0 -1 
0.10945 0.465 -0.001249974 0 1 0 
0.4000499 0.465 0.2893 0 1 0 
0.4000499 0.465 -0.29185 0 1 0 
-0.11115 0.465 0.000400003 0 1 0 
-0.40005 0.465 -0.2885 0 1 0 
-0.40005 0.465 0.2893 0 1 0 
-0.40005 0.5 -0.2885 0 1 0 
0.4000499 0.5 0.2893 0 1 0 
-0.2892999 0.5 -0.40005 0 1 0 
0.2885 0.5 0.40005 0 1 0 
-0.4999999 0.5 -0.4999999 0 1 0 
0.4999999 0.5 -0.4999999 0 1 0 
-0.4999999 0.5 0.4999999 0 1 0 
-0.40005 0.5 0.40005 0 1 0 
0.4000499 0.5 -0.40005 0 1 0 
0.4999999 0.5 0.4999999 0 1 0 
-0.40005 0.485 0.2893 1 0 0 
-0.40005 0.465 0.2893 1 0 0 
-0.40005 0.465 -0.2885 1 0 0 
-0.40005 0.5 -0.2885 1 0 0 
-0.40005 0.5 0.40005 1 0 0 
-0.40005 0.485 0.40005 1 0 0 
-0.2892999 0.465 0.40005 0 1 0 
0.2885 0.465 0.40005 0 1 0 
-0.0003999797 0.465 0.11115 0 1 0 
0.4000499 0.5 0.2893 0.7071068 0 -0.7071068 
0.4000499 0.465 0.2893 0.7071068 0 -0.7071068 
0.10945 0.465 -0.001249974 0.7071068 0 -0.7071068 
0.10945 0.485 -0.001249974 0.7071068 0 -0.7071068 
-0.0003999797 0.465 -0.11115 0.7071068 0 -0.7071068 
-0.2892999 0.465 -0.40005 0.7071068 0 -0.7071068 
-0.2892999 0.5 -0.40005 0.7071068 0 -0.7071068 
-0.0003999797 0.485 -0.11115 0.7071068 0 -0.7071068 
-0.40005 0.5 -0.2885 -0.7071068 0 0.7071068 
-0.40005 0.465 -0.2885 -0.7071068 0 0.7071068 
-0.11115 0.465 0.000400003 -0.7071068 0 0.7071068 
-0.11115 0.485 0.000400003 -0.7071068 0 0.7071068 
-0.0003999797 0.465 0.11115 -0.7071068 0 0.7071068 
0.2885 0.465 0.40005 -0.7071068 0 0.7071068 
0.2885 0.5 0.40005 -0.7071068 0 0.7071068 
-0.0003999797 0.485 0.11115 -0.7071068 0 0.7071068 
0.10945 0.465 -0.001249974 0.7071068 0 0.7071068 
0.4000499 0.465 -0.29185 0.7071068 0 0.7071068 
0.4000499 0.485 -0.29185 0.7071068 0 0.7071068 
0.10945 0.485 -0.001249974 0.7071068 0 0.7071068 
0.2885 0.465 -0.40005 -0.7071068 0 -0.7071068 
-0.0003999797 0.465 -0.11115 -0.7071068 0 -0.7071068 
-0.0003999797 0.485 -0.11115 -0.7071068 0 -0.7071068 
0.2885 0.485 -0.40005 -0.7071068 0 -0.7071068 
-0.11115 0.465 0.000400003 -0.7071068 0 -0.7071068 
-0.40005 0.465 0.2893 -0.7071068 0 -0.7071068 
-0.40005 0.485 0.2893 -0.7071068 0 -0.7071068 
-0.11115 0.485 0.000400003 -0.7071068 0 -0.7071068 
0.10945 0.485 -0.001249974 0 1 0 
0.4000499 0.485 -0.29185 0 1 0 
0.4000499 0.485 -0.40005 0 1 0 
0.2885 0.485 -0.40005 0 1 0 
-0.0003999797 0.485 -0.11115 0 1 0 
-0.2892999 0.465 0.40005 0.7071068 0 0.7071068 
-0.0003999797 0.465 0.11115 0.7071068 0 0.7071068 
-0.0003999797 0.485 0.11115 0.7071068 0 0.7071068 
-0.2892999 0.485 0.40005 0.7071068 0 0.7071068 
-0.11115 0.485 0.000400003 0 1 0 
-0.40005 0.485 0.2893 0 1 0 
-0.40005 0.485 0.40005 0 1 0 
-0.2892999 0.485 0.40005 0 1 0 
-0.0003999797 0.485 0.11115 0 1 0 
-0.40005 0.2884999 0.4999999 -0.7071068 -0.7071068 0 
-0.40005 0.2884999 0.465 -0.7071068 -0.7071068 0 
-0.11115 -0.0004000496 0.465 -0.7071068 -0.7071068 0 
-0.11115 -0.0004000496 0.485 -0.7071068 -0.7071068 0 
-0.0003999797 -0.1111499 0.465 -0.7071068 -0.7071068 0 
0.2885 -0.4000499 0.465 -0.7071068 -0.7071068 0 
0.2885 -0.4000499 0.4999999 -0.7071068 -0.7071068 0 
-0.0003999797 -0.1111499 0.485 -0.7071068 -0.7071068 0 
0.4000499 -0.2893 0.4999999 0.7071068 0.7071068 0 
0.4000499 -0.2893 0.465 0.7071068 0.7071068 0 
0.10945 0.001250068 0.465 0.7071068 0.7071068 0 
0.10945 0.001250068 0.485 0.7071068 0.7071068 0 
-0.0003999797 0.11115 0.465 0.7071068 0.7071068 0 
-0.2892999 0.40005 0.465 0.7071068 0.7071068 0 
-0.2892999 0.40005 0.4999999 0.7071068 0.7071068 0 
-0.0003999797 0.11115 0.485 0.7071068 0.7071068 0 
-0.11115 -0.0004000496 0.465 -0.7071068 0.7071068 0 
-0.40005 -0.2893 0.465 -0.7071068 0.7071068 0 
-0.40005 -0.2893 0.485 -0.7071068 0.7071068 0 
-0.11115 -0.0004000496 0.485 -0.7071068 0.7071068 0 
0.10945 0.001250068 0.465 0.7071068 -0.7071068 0 
0.4000499 0.2918501 0.465 0.7071068 -0.7071068 0 
0.4000499 0.2918501 0.485 0.7071068 -0.7071068 0 
0.10945 0.001250068 0.485 0.7071068 -0.7071068 0 
0.10945 0.001250068 0.485 0 0 1 
0.4000499 0.2918501 0.485 0 0 1 
0.4000499 0.40005 0.485 0 0 1 
0.2885 0.40005 0.485 0 0 1 
-0.0003999797 0.11115 0.485 0 0 1 
-0.2892999 -0.4000499 0.465 0.7071068 -0.7071068 0 
-0.0003999797 -0.1111499 0.465 0.7071068 -0.7071068 0 
-0.0003999797 -0.1111499 0.485 0.7071068 -0.7071068 0 
-0.2892999 -0.4000499 0.485 0.7071068 -0.7071068 0 
0.4000499 -0.465 0.2893 0 -1 0 
0.10945 -0.465 -0.001249974 0 -1 0 
0.4000499 -0.465 -0.29185 0 -1 0 
-0.11115 -0.0004000496 0.485 0 0 1 
-0.40005 -0.2893 0.485 0 0 1 
-0.40005 -0.4000499 0.485 0 0 1 
-0.2892999 -0.4000499 0.485 0 0 1 
-0.0003999797 -0.1111499 0.485 0 0 1 
0.2885 0.40005 0.465 -0.7071068 0.7071068 0 
-0.0003999797 0.11115 0.465 -0.7071068 0.7071068 0 
-0.0003999797 0.11115 0.485 -0.7071068 0.7071068 0 
0.2885 0.40005 0.485 -0.7071068 0.7071068 0 
-0.40005 -0.465 -0.2885 0 -1 0 
-0.11115 -0.465 0.000400003 0 -1 0 
-0.40005 -0.465 0.2893 0 -1 0 
0.4999999 -0.5 -0.4999999 0 -1 0 
0.4000499 -0.5 -0.40005 0 -1 0 
-0.4999999 -0.5 -0.4999999 0 -1 0 
0.4999999 -0.5 0.4999999 0 -1 0 
0.4000499 -0.5 0.2893 0 -1 0 
0.2885 -0.5 0.40005 0 -1 0 
-0.40005 -0.5 0.40005 0 -1 0 
-0.40005 -0.5 -0.2885 0 -1 0 
-0.4999999 -0.5 0.4999999 0 -1 0 
-0.2892999 -0.5 -0.40005 0 -1 0 
-0.40005 -0.5 -0.2885 1 0 0 
-0.40005 -0.465 -0.2885 1 0 0 
-0.40005 -0.465 0.2893 1 0 0 
-0.40005 -0.4849999 0.2893 1 0 0 
-0.40005 -0.4849999 0.40005 1 0 0 
-0.40005 -0.5 0.40005 1 0 0 
0.2885 -0.465 0.40005 0 -1 0 
-0.2892999 -0.465 0.40005 0 -1 0 
-0.0003999797 -0.465 0.11115 0 -1 0 
-0.2892999 0.40005 0.4999999 0 -1 0 
-0.2892999 0.40005 0.465 0 -1 0 
0.2885 0.40005 0.465 0 -1 0 
0.2885 0.40005 0.485 0 -1 0 
0.4000499 0.40005 0.485 0 -1 0 
0.4000499 0.40005 0.4999999 0 -1 0 
-0.2892999 -0.5 -0.40005 0.7071068 0 -0.7071068 
-0.2892999 -0.465 -0.40005 0.7071068 0 -0.7071068 
-0.0003999797 -0.465 -0.11115 0.7071068 0 -0.7071068 
-0.0003999797 -0.4849999 -0.11115 0.7071068 0 -0.7071068 
0.10945 -0.465 -0.001249974 0.7071068 0 -0.7071068 
0.4000499 -0.465 0.2893 0.7071068 0 -0.7071068 
0.4000499 -0.5 0.2893 0.7071068 0 -0.7071068 
0.10945 -0.4849999 -0.001249974 0.7071068 0 -0.7071068 
0.4000499 0.2918501 0.485 -1 0 0 
0.4000499 0.2918501 0.465 -1 0 0 
0.4000499 -0.2893 0.465 -1 0 0 
0.4000499 -0.2893 0.4999999 -1 0 0 
0.4000499 0.40005 0.4999999 -1 0 0 
0.4000499 0.40005 0.485 -1 0 0 
-0.11115 -0.0004000496 0.465 0 0 1 
-0.40005 0.2884999 0.465 0 0 1 
-0.40005 -0.2893 0.465 0 0 1 
0.2885 0.40005 0.465 0 0 1 
-0.2892999 0.40005 0.465 0 0 1 
-0.0003999797 0.11115 0.465 0 0 1 
0.10945 0.001250068 0.465 0 0 1 
0.4000499 -0.2893 0.465 0 0 1 
0.4000499 0.2918501 0.465 0 0 1 
-0.2892999 -0.4000499 0.465 0 0 1 
0.2885 -0.4000499 0.465 0 0 1 
-0.0003999797 -0.1111499 0.465 0 0 1 
-0.40005 -0.2893 0.485 1 0 0 
-0.40005 -0.2893 0.465 1 0 0 
-0.40005 0.2884999 0.465 1 0 0 
-0.40005 0.2884999 0.4999999 1 0 0 
-0.40005 -0.4000499 0.4999999 1 0 0 
-0.40005 -0.4000499 0.485 1 0 0 
0.2885 -0.4000499 0.4999999 0 1 0 
0.2885 -0.4000499 0.465 0 1 0 
-0.2892999 -0.4000499 0.465 0 1 0 
-0.2892999 -0.4000499 0.485 0 1 0 
-0.40005 -0.4000499 0.485 0 1 0 
-0.40005 -0.4000499 0.4999999 0 1 0 
0.2885 -0.5 0.40005 -0.7071068 0 0.7071068 
0.2885 -0.465 0.40005 -0.7071068 0 0.7071068 
-0.0003999797 -0.465 0.11115 -0.7071068 0 0.7071068 
-0.0003999797 -0.4849999 0.11115 -0.7071068 0 0.7071068 
-0.11115 -0.465 0.000400003 -0.7071068 0 0.7071068 
-0.40005 -0.465 -0.2885 -0.7071068 0 0.7071068 
-0.40005 -0.5 -0.2885 -0.7071068 0 0.7071068 
-0.11115 -0.4849999 0.000400003 -0.7071068 0 0.7071068 
-0.4999999 -0.5 0.4999999 0 0 1 
-0.40005 -0.4000499 0.4999999 0 0 1 
-0.4999999 0.5 0.4999999 0 0 1 
0.4999999 -0.5 0.4999999 0 0 1 
0.2885 -0.4000499 0.4999999 0 0 1 
0.4000499 -0.2893 0.4999999 0 0 1 
0.4000499 0.40005 0.4999999 0 0 1 
-0.2892999 0.40005 0.4999999 0 0 1 
0.4999999 0.5 0.4999999 0 0 1 
-0.40005 0.2884999 0.4999999 0 0 1 
0.4000499 -0.465 -0.29185 0.7071068 0 0.7071068 
0.10945 -0.465 -0.001249974 0.7071068 0 0.7071068 
0.10945 -0.4849999 -0.001249974 0.7071068 0 0.7071068 
0.4000499 -0.4849999 -0.29185 0.7071068 0 0.7071068 
-0.0003999797 -0.465 -0.11115 -0.7071068 0 -0.7071068 
0.2885 -0.465 -0.40005 -0.7071068 0 -0.7071068 
0.2885 -0.4849999 -0.40005 -0.7071068 0 -0.7071068 
-0.0003999797 -0.4849999 -0.11115 -0.7071068 0 -0.7071068 
-0.40005 -0.465 0.2893 -0.7071068 0 -0.7071068 
-0.11115 -0.465 0.000400003 -0.7071068 0 -0.7071068 
-0.11115 -0.4849999 0.000400003 -0.7071068 0 -0.7071068 
-0.40005 -0.4849999 0.2893 -0.7071068 0 -0.7071068 
0.2885 -0.4849999 -0.40005 0 -1 0 
0.4000499 -0.4849999 -0.40005 0 -1 0 
0.4000499 -0.4849999 -0.29185 0 -1 0 
0.10945 -0.4849999 -0.001249974 0 -1 0 
-0.0003999797 -0.4849999 -0.11115 0 -1 0 
-0.0003999797 -0.465 0.11115 0.7071068 0 0.7071068 
-0.2892999 -0.465 0.40005 0.7071068 0 0.7071068 
-0.2892999 -0.4849999 0.40005 0.7071068 0 0.7071068 
-0.0003999797 -0.4849999 0.11115 0.7071068 0 0.7071068 
-0.2892999 -0.4849999 0.40005 0 -1 0 
-0.40005 -0.4849999 0.40005 0 -1 0 
-0.40005 -0.4849999 0.2893 0 -1 0 
-0.11115 -0.4849999 0.000400003 0 -1 0 
-0.0003999797 -0.4849999 0.11115 0 -1 0 
-0.465 0.40005 0.2885 -1 0 0 
-0.465 0.40005 -0.2893 -1 0 0 
-0.465 0.11115 -0.000400003 -1 0 0 
-0.4999999 0.40005 -0.2893 0 -1 0 
-0.465 0.40005 -0.2893 0 -1 0 
-0.465 0.40005 0.2885 0 -1 0 
-0.485 0.40005 0.2885 0 -1 0 
-0.485 0.40005 0.40005 0 -1 0 
-0.4999999 0.40005 0.40005 0 -1 0 
-0.485 0.2918501 0.40005 0 0 -1 
-0.465 0.2918501 0.40005 0 0 -1 
-0.465 -0.2893 0.40005 0 0 -1 
-0.4999999 -0.2893 0.40005 0 0 -1 
-0.4999999 0.40005 0.40005 0 0 -1 
-0.485 0.40005 0.40005 0 0 -1 
-0.4999999 -0.4000499 0.2885 0 1 0 
-0.465 -0.4000499 0.2885 0 1 0 
-0.465 -0.4000499 -0.2893 0 1 0 
-0.485 -0.4000499 -0.2893 0 1 0 
-0.485 -0.4000499 -0.40005 0 1 0 
-0.4999999 -0.4000499 -0.40005 0 1 0 
-0.465 0.001250068 0.10945 -1 0 0 
-0.465 -0.2893 0.40005 -1 0 0 
-0.465 0.2918501 0.40005 -1 0 0 
-0.465 -0.0004000496 -0.11115 -1 0 0 
-0.465 0.2884999 -0.40005 -1 0 0 
-0.465 -0.2893 -0.40005 -1 0 0 
-0.4999999 -0.2893 0.40005 -1 0 0 
-0.4999999 0.2884999 -0.40005 -1 0 0 
-0.4999999 -0.4000499 0.2885 -1 0 0 
-0.4999999 0.40005 -0.2893 -1 0 0 
-0.4999999 -0.5 0.4999999 -1 0 0 
-0.4999999 0.5 0.4999999 -1 0 0 
-0.4999999 0.40005 0.40005 -1 0 0 
-0.4999999 0.5 -0.4999999 -1 0 0 
-0.4999999 -0.5 -0.4999999 -1 0 0 
-0.4999999 -0.4000499 -0.40005 -1 0 0 
-0.485 -0.2893 -0.40005 0 0 1 
-0.465 -0.2893 -0.40005 0 0 1 
-0.465 0.2884999 -0.40005 0 0 1 
-0.4999999 0.2884999 -0.40005 0 0 1 
-0.4999999 -0.4000499 -0.40005 0 0 1 
-0.485 -0.4000499 -0.40005 0 0 1 
-0.465 -0.4000499 -0.2893 -1 0 0 
-0.465 -0.4000499 0.2885 -1 0 0 
-0.465 -0.1111499 -0.000400003 -1 0 0 
-0.4999999 -0.2893 0.40005 0 0.7071068 0.7071068 
-0.465 -0.2893 0.40005 0 0.7071068 0.7071068 
-0.465 0.001250068 0.10945 0 0.7071068 0.7071068 
-0.485 0.001250068 0.10945 0 0.7071068 0.7071068 
-0.465 0.11115 -0.000400003 0 0.7071068 0.7071068 
-0.465 0.40005 -0.2893 0 0.7071068 0.7071068 
-0.4999999 0.40005 -0.2893 0 0.7071068 0.7071068 
-0.485 0.11115 -0.000400003 0 0.7071068 0.7071068 
-0.4999999 0.2884999 -0.40005 0 -0.7071068 -0.7071068 
-0.465 0.2884999 -0.40005 0 -0.7071068 -0.7071068 
-0.465 -0.0004000496 -0.11115 0 -0.7071068 -0.7071068 
-0.485 -0.0004000496 -0.11115 0 -0.7071068 -0.7071068 
-0.465 -0.1111499 -0.000400003 0 -0.7071068 -0.7071068 
-0.465 -0.4000499 0.2885 0 -0.7071068 -0.7071068 
-0.4999999 -0.4000499 0.2885 0 -0.7071068 -0.7071068 
-0.485 -0.1111499 -0.000400003 0 -0.7071068 -0.7071068 
-0.465 0.001250068 0.10945 0 -0.7071068 0.7071068 
-0.465 0.2918501 0.40005 0 -0.7071068 0.7071068 
-0.485 0.2918501 0.40005 0 -0.7071068 0.7071068 
-0.485 0.001250068 0.10945 0 -0.7071068 0.7071068 
-0.465 0.40005 0.2885 0 0.7071068 -0.7071068 
-0.465 0.11115 -0.000400003 0 0.7071068 -0.7071068 
-0.485 0.11115 -0.000400003 0 0.7071068 -0.7071068 
-0.485 0.40005 0.2885 0 0.7071068 -0.7071068 
-0.465 -0.0004000496 -0.11115 0 0.7071068 -0.7071068 
-0.465 -0.2893 -0.40005 0 0.7071068 -0.7071068 
-0.485 -0.2893 -0.40005 0 0.7071068 -0.7071068 
-0.485 -0.0004000496 -0.11115 0 0.7071068 -0.7071068 
-0.485 0.001250068 0.10945 -1 0 0 
-0.485 0.2918501 0.40005 -1 0 0 
-0.485 0.40005 0.40005 -1 0 0 
-0.485 0.40005 0.2885 -1 0 0 
-0.485 0.11115 -0.000400003 -1 0 0 
-0.465 -0.4000499 -0.2893 0 -0.7071068 0.7071068 
-0.465 -0.1111499 -0.000400003 0 -0.7071068 0.7071068 
-0.485 -0.1111499 -0.000400003 0 -0.7071068 0.7071068 
-0.485 -0.4000499 -0.2893 0 -0.7071068 0.7071068 
-0.485 -0.0004000496 -0.11115 -1 0 0 
-0.485 -0.2893 -0.40005 -1 0 0 
-0.485 -0.4000499 -0.40005 -1 0 0 
-0.485 -0.4000499 -0.2893 -1 0 0 
-0.485 -0.1111499 -0.000400003 -1 0 0 
3 0 1 2 6 0.789300 0.900037 0.211513 0.900037 0.500406 0.611143 
3 3 4 5 6 0.789300 0.900037 0.211513 0.900037 0.500406 0.611143 
3 6 7 8 6 0.211513 0.915037 0.211513 0.935037 0.789300 0.935037 
3 8 9 10 6 0.789300 0.935037 0.789300 0.900037 0.099963 0.900037 
3 10 11 6 6 0.099963 0.900037 0.099963 0.915037 0.211513 0.915037 
3 8 10 6 6 0.789300 0.935037 0.099963 0.900037 0.211513 0.915037 
3 12 13 14 6 0.099963 0.210700 0.064963 0.210700 0.064963 0.791844 
3 15 16 17 6 0.084963 0.791844 0.084963 0.900037 0.099963 0.900037 
3 12 14 15 6 0.099963 0.210700 0.064963 0.791844 0.084963 0.791844 
3 15 17 12 6 0.084963 0.791844 0.099963 0.900037 0.099963 0.210700 
3 18 19 20 6 9.210700 0.020000 9.210700 0.000000 9.788487 0.000000 
3 20 21 22 6 9.788487 0.000000 9.788487 0.035000 9.099963 0.035000 
3 22 23 18 6 9.099963 0.035000 9.099963 0.020000 9.210700 0.020000 
3 20 22 18 6 9.788487 0.000000 9.099963 0.035000 9.210700 0.020000 
3 24 25 26 6 0.099963 0.210700 0.390535 0.501272 0.099963 0.791844 
3 27 28 29 6 0.900037 0.788487 0.611143 0.499594 0.900037 0.210700 
3 30 31 32 6 0.789300 0.900037 0.211513 0.099963 0.900037 0.788487 
3 31 30 33 6 0.211513 0.099963 0.789300 0.900037 0.099963 0.210700 
3 34 32 35 6 1.000000 1.000000 0.900037 0.788487 1.000000 0.000000 
3 32 34 30 6 0.900037 0.788487 1.000000 1.000000 0.789300 0.900037 
3 30 34 36 6 0.789300 0.900037 1.000000 1.000000 -0.000000 1.000000 
3 30 36 37 6 0.789300 0.900037 -0.000000 1.000000 0.099963 0.900037 
3 37 36 33 6 0.099963 0.900037 -0.000000 1.000000 0.099963 0.210700 
3 35 38 39 6 1.000000 0.000000 0.900037 0.099963 -0.000000 0.000000 
3 38 35 32 6 0.900037 0.099963 1.000000 0.000000 0.900037 0.788487 
3 39 38 31 6 -0.000000 0.000000 0.900037 0.099963 0.211513 0.099963 
3 39 31 33 6 -0.000000 0.000000 0.211513 0.099963 0.099963 0.210700 
3 39 33 36 6 -0.000000 0.000000 0.099963 0.210700 -0.000000 1.000000 
3 40 41 42 6 9.788487 0.035000 9.788487 -0.000000 9.210700 -0.000000 
3 43 44 45 6 9.210700 0.020000 9.099963 0.020000 9.099963 0.035000 
3 40 42 43 6 9.788487 0.035000 9.210700 -0.000000 9.210700 0.020000 
3 43 45 40 6 9.210700 0.020000 9.099963 0.035000 9.788487 0.035000 
3 46 47 48 6 0.211513 0.099963 0.789300 0.099963 0.500406 0.388857 
3 49 50 51 6 7.054114 -0.000990 7.054114 -0.035990 7.462671 -0.035990 
3 49 51 52 6 7.054114 -0.000990 7.462671 -0.035990 7.462671 -0.015990 
3 53 54 55 6 7.618052 -0.035990 8.028983 -0.035990 8.028983 -0.000990 
3 49 52 56 6 7.054114 -0.000990 7.462671 -0.015990 7.618052 -0.015990 
3 56 53 55 6 7.618052 -0.015990 7.618052 -0.035990 8.028983 -0.000990 
3 55 49 56 6 8.028983 -0.000990 7.054114 -0.000990 7.618052 -0.015990 
3 57 58 59 6 0.211513 0.099963 0.186764 0.124712 0.475658 0.413605 
3 57 59 60 6 0.211513 0.099963 0.475658 0.413605 0.489800 0.399463 
3 61 62 63 6 0.586395 0.524342 0.875288 0.813236 0.900037 0.788487 
3 57 60 64 6 0.211513 0.099963 0.489800 0.399463 0.600537 0.510200 
3 64 61 63 6 0.600537 0.510200 0.586395 0.524342 0.900037 0.788487 
3 63 57 64 6 0.900037 0.788487 0.211513 0.099963 0.600537 0.510200 
3 65 66 67 6 5.864024 -4.845087 5.573452 -4.554514 5.587594 -4.540372 
3 65 67 68 6 5.864024 -4.845087 5.587594 -4.540372 5.878166 -4.830944 
3 69 70 71 6 0.462715 0.556222 0.173821 0.845116 0.187963 0.859258 
3 69 71 72 6 0.462715 0.556222 0.187963 0.859258 0.476857 0.570365 
3 73 74 75 6 0.862751 0.156186 0.573858 0.445079 0.588000 0.459221 
3 73 75 76 6 0.862751 0.156186 0.588000 0.459221 0.876894 0.170328 
3 77 78 79 6 0.211513 0.900037 0.099963 0.900037 0.099963 0.791844 
3 79 80 81 6 0.099963 0.791844 0.390535 0.501272 0.500406 0.611143 
3 79 81 77 6 0.099963 0.791844 0.500406 0.611143 0.211513 0.900037 
3 82 83 84 6 5.462308 -4.443371 5.173415 -4.154478 5.187557 -4.140336 
3 82 84 85 6 5.462308 -4.443371 5.187557 -4.140336 5.476450 -4.429229 
3 86 87 88 6 0.789300 0.099963 0.900037 0.099963 0.900037 0.210700 
3 88 89 90 6 0.900037 0.210700 0.611143 0.499594 0.500406 0.388857 
3 88 90 86 6 0.900037 0.210700 0.500406 0.388857 0.789300 0.099963 
3 91 92 93 6 0.789300 0.900037 0.211513 0.900037 0.500406 0.611143 
3 94 95 96 6 0.211513 0.915037 0.211513 0.935037 0.789300 0.935037 
3 96 97 98 6 0.789300 0.935037 0.789300 0.900037 0.099963 0.900037 
3 98 99 94 6 0.099963 0.900037 0.099963 0.915037 0.211513 0.915037 
3 96 98 94 6 0.789300 0.935037 0.099963 0.900037 0.211513 0.915037 
3 100 101 102 6 0.099963 0.210700 0.064963 0.210700 0.064963 0.791844 
3 103 104 105 6 0.084963 0.791844 0.084963 0.900037 0.099963 0.900037 
3 100 102 103 6 0.099963 0.210700 0.064963 0.791844 0.084963 0.791844 
3 103 105 100 6 0.084963 0.791844 0.099963 0.900037 0.099963 0.210700 
3 106 107 108 6 9.210700 0.020000 9.210700 0.000000 9.788487 0.000000 
3 108 109 110 6 9.788487 0.000000 9.788487 0.035000 9.099963 0.035000 
3 110 111 106 6 9.099963 0.035000 9.099963 0.020000 9.210700 0.020000 
3 108 110 106 6 9.788487 0.000000 9.099963 0.035000 9.210700 0.020000 
3 112 113 114 6 0.099963 0.210700 0.390535 0.501272 0.099963 0.791844 
3 115 116 117 6 0.900037 0.788487 0.611143 0.499594 0.900037 0.210700 
3 118 119 120 6 1.000000 -0.000000 0.900037 0.099963 0.000000 -0.000000 
3 119 118 121 6 0.900037 0.099963 1.000000 -0.000000 1.000000 1.000000 
3 119 121 122 6 0.900037 0.099963 1.000000 1.000000 0.900037 0.788487 
3 122 121 123 6 0.900037 0.788487 1.000000 1.000000 0.789300 0.900037 
3 123 121 124 6 0.789300 0.900037 1.000000 1.000000 0.099963 0.900037 
3 120 125 126 6 0.000000 -0.000000 0.099963 0.210700 0.000000 1.000000 
3 125 120 127 6 0.099963 0.210700 0.000000 -0.000000 0.211513 0.099963 
3 127 120 119 6 0.211513 0.099963 0.000000 -0.000000 0.900037 0.099963 
3 126 125 124 6 0.000000 1.000000 0.099963 0.210700 0.099963 0.900037 
3 126 124 121 6 0.000000 1.000000 0.099963 0.900037 1.000000 1.000000 
3 122 125 127 6 0.900037 0.788487 0.099963 0.210700 0.211513 0.099963 
3 125 122 123 6 0.099963 0.210700 0.900037 0.788487 0.789300 0.900037 
3 128 129 130 6 9.788487 0.035000 9.788487 -0.000000 9.210700 -0.000000 
3 131 132 133 6 9.210700 0.020000 9.099963 0.020000 9.099963 0.035000 
3 128 130 131 6 9.788487 0.035000 9.210700 -0.000000 9.210700 0.020000 
3 131 133 128 6 9.210700 0.020000 9.099963 0.035000 9.788487 0.035000 
3 134 135 136 6 0.211513 0.099963 0.789300 0.099963 0.500406 0.388857 
3 137 138 139 6 7.054114 -0.000990 7.054114 -0.035990 7.462671 -0.035990 
3 137 139 140 6 7.054114 -0.000990 7.462671 -0.035990 7.462671 -0.015990 
3 141 142 143 6 7.618052 -0.035990 8.028983 -0.035990 8.028983 -0.000990 
3 137 140 144 6 7.054114 -0.000990 7.462671 -0.015990 7.618052 -0.015990 
3 144 141 143 6 7.618052 -0.015990 7.618052 -0.035990 8.028983 -0.000990 
3 143 137 144 6 8.028983 -0.000990 7.054114 -0.000990 7.618052 -0.015990 
3 145 146 147 6 0.211513 0.099963 0.186764 0.124712 0.475658 0.413605 
3 145 147 148 6 0.211513 0.099963 0.475658 0.413605 0.489800 0.399463 
3 149 150 151 6 0.586395 0.524342 0.875288 0.813236 0.900037 0.788487 
3 145 148 152 6 0.211513 0.099963 0.489800 0.399463 0.600537 0.510200 
3 152 149 151 6 0.600537 0.510200 0.586395 0.524342 0.900037 0.788487 
3 151 145 152 6 0.900037 0.788487 0.211513 0.099963 0.600537 0.510200 
3 153 154 155 6 5.864024 -4.845087 5.573452 -4.554514 5.587594 -4.540372 
3 153 155 156 6 5.864024 -4.845087 5.587594 -4.540372 5.878166 -4.830944 
3 157 158 159 6 0.462715 0.556222 0.173821 0.845116 0.187963 0.859258 
3 157 159 160 6 0.462715 0.556222 0.187963 0.859258 0.476857 0.570365 
3 161 162 163 6 0.862751 0.156186 0.573858 0.445079 0.588000 0.459221 
3 161 163 164 6 0.862751 0.156186 0.588000 0.459221 0.876894 0.170328 
3 165 166 167 6 0.211513 0.915037 0.211513 0.935037 0.789300 0.935037 
3 167 168 169 6 0.789300 0.935037 0.789300 0.900037 0.099963 0.900037 
3 169 170 165 6 0.099963 0.900037 0.099963 0.915037 0.211513 0.915037 
3 167 169 165 6 0.789300 0.935037 0.099963 0.900037 0.211513 0.915037 
3 171 172 173 6 0.099963 0.210700 0.064963 0.210700 0.064963 0.791844 
3 174 175 176 6 0.084963 0.791844 0.084963 0.900037 0.099963 0.900037 
3 171 173 174 6 0.099963 0.210700 0.064963 0.791844 0.084963 0.791844 
3 174 176 171 6 0.084963 0.791844 0.099963 0.900037 0.099963 0.210700 
3 177 178 179 6 9.210700 0.020000 9.210700 0.000000 9.788487 0.000000 
3 179 180 181 6 9.788487 0.000000 9.788487 0.035000 9.099963 0.035000 
3 181 182 177 6 9.099963 0.035000 9.099963 0.020000 9.210700 0.020000 
3 179 181 177 6 9.788487 0.000000 9.099963 0.035000 9.210700 0.020000 
3 183 184 185 6 0.211513 0.900037 0.099963 0.900037 0.099963 0.791844 
3 185 186 187 6 0.099963 0.791844 0.390535 0.501272 0.500406 0.611143 
3 185 187 183 6 0.099963 0.791844 0.500406 0.611143 0.211513 0.900037 
3 188 189 190 6 5.462308 -4.443371 5.173415 -4.154478 5.187557 -4.140336 
3 188 190 191 6 5.462308 -4.443371 5.187557 -4.140336 5.476450 -4.429229 
3 192 193 194 6 0.789300 0.099963 0.900037 0.099963 0.900037 0.210700 
3 194 195 196 6 0.900037 0.210700 0.611143 0.499594 0.500406 0.388857 
3 194 196 192 6 0.900037 0.210700 0.500406 0.388857 0.789300 0.099963 
3 197 198 199 6 0.211513 0.900037 0.789300 0.900037 0.500406 0.611143 
3 200 201 202 6 0.789300 0.900037 0.789300 0.935037 0.211513 0.935037 
3 203 204 205 6 0.211513 0.915037 0.099963 0.915037 0.099963 0.900037 
3 200 202 203 6 0.789300 0.900037 0.211513 0.935037 0.211513 0.915037 
3 203 205 200 6 0.211513 0.915037 0.099963 0.900037 0.789300 0.900037 
3 206 207 208 6 0.084963 0.791844 0.064963 0.791844 0.064963 0.210700 
3 208 209 210 6 0.064963 0.210700 0.099963 0.210700 0.099963 0.900037 
3 210 211 206 6 0.099963 0.900037 0.084963 0.900037 0.084963 0.791844 
3 208 210 206 6 0.064963 0.210700 0.099963 0.900037 0.084963 0.791844 
3 212 213 214 6 9.788487 0.035000 9.788487 0.000000 9.210700 0.000000 
3 215 216 217 6 9.210700 0.020000 9.099963 0.020000 9.099963 0.035000 
3 212 214 215 6 9.788487 0.035000 9.210700 0.000000 9.210700 0.020000 
3 215 217 212 6 9.210700 0.020000 9.099963 0.035000 9.788487 0.035000 
3 218 219 220 6 0.390535 0.501272 0.099963 0.210700 0.099963 0.791844 
3 221 222 223 6 0.611143 0.499594 0.900037 0.788487 0.900037 0.210700 
3 224 225 226 6 0.900037 0.788487 0.099963 0.210700 0.789300 0.900037 
3 225 224 227 6 0.099963 0.210700 0.900037 0.788487 0.211513 0.099963 
3 228 226 229 6 1.000000 1.000000 0.789300 0.900037 -0.000000 1.000000 
3 226 228 224 6 0.789300 0.900037 1.000000 1.000000 0.900037 0.788487 
3 224 228 230 6 0.900037 0.788487 1.000000 1.000000 1.000000 0.000000 
3 224 230 231 6 0.900037 0.788487 1.000000 0.000000 0.900037 0.099963 
3 231 230 227 6 0.900037 0.099963 1.000000 0.000000 0.211513 0.099963 
3 229 232 233 6 -0.000000 1.000000 0.099963 0.900037 -0.000000 0.000000 
3 232 229 226 6 0.099963 0.900037 -0.000000 1.000000 0.789300 0.900037 
3 233 232 225 6 -0.000000 0.000000 0.099963 0.900037 0.099963 0.210700 
3 233 225 227 6 -0.000000 0.000000 0.099963 0.210700 0.211513 0.099963 
3 233 227 230 6 -0.000000 0.000000 0.211513 0.099963 1.000000 0.000000 
3 234 235 236 6 9.210700 0.020000 9.210700 -0.000000 9.788487 -0.000000 
3 236 237 238 6 9.788487 -0.000000 9.788487 0.035000 9.099963 0.035000 
3 238 239 234 6 9.099963 0.035000 9.099963 0.020000 9.210700 0.020000 
3 236 238 234 6 9.788487 -0.000000 9.099963 0.035000 9.210700 0.020000 
3 240 241 242 6 0.789300 0.099963 0.211513 0.099963 0.500406 0.388857 
3 243 244 245 6 8.028983 -0.000990 8.028983 -0.035990 7.618052 -0.035990 
3 243 245 246 6 8.028983 -0.000990 7.618052 -0.035990 7.618052 -0.015990 
3 247 248 249 6 7.462671 -0.035990 7.054114 -0.035990 7.054114 -0.000990 
3 243 246 250 6 8.028983 -0.000990 7.618052 -0.015990 7.462671 -0.015990 
3 250 247 249 6 7.462671 -0.015990 7.462671 -0.035990 7.054114 -0.000990 
3 249 243 250 6 7.054114 -0.000990 8.028983 -0.000990 7.462671 -0.015990 
3 251 252 253 6 0.900037 0.788487 0.875288 0.813236 0.586395 0.524342 
3 251 253 254 6 0.900037 0.788487 0.586395 0.524342 0.600537 0.510200 
3 255 256 257 6 0.475658 0.413605 0.186764 0.124712 0.211513 0.099963 
3 251 254 258 6 0.900037 0.788487 0.600537 0.510200 0.489800 0.399463 
3 258 255 257 6 0.489800 0.399463 0.475658 0.413605 0.211513 0.099963 
3 257 251 258 6 0.211513 0.099963 0.900037 0.788487 0.489800 0.399463 
3 259 260 261 6 5.573452 -4.554514 5.864024 -4.845087 5.878166 -4.830944 
3 259 261 262 6 5.573452 -4.554514 5.878166 -4.830944 5.587594 -4.540372 
3 263 264 265 6 0.173821 0.845116 0.462715 0.556222 0.476857 0.570365 
3 263 265 266 6 0.173821 0.845116 0.476857 0.570365 0.187963 0.859258 
3 267 268 269 6 0.573858 0.445079 0.862751 0.156186 0.876894 0.170328 
3 267 269 270 6 0.573858 0.445079 0.876894 0.170328 0.588000 0.459221 
3 271 272 273 6 0.390535 0.501272 0.099963 0.791844 0.099963 0.900037 
3 273 274 275 6 0.099963 0.900037 0.211513 0.900037 0.500406 0.611143 
3 273 275 271 6 0.099963 0.900037 0.500406 0.611143 0.390535 0.501272 
3 276 277 278 6 5.173415 -4.154478 5.462308 -4.443371 5.476450 -4.429229 
3 276 278 279 6 5.173415 -4.154478 5.476450 -4.429229 5.187557 -4.140336 
3 280 281 282 6 0.611143 0.499594 0.900037 0.210700 0.900037 0.099963 
3 282 283 284 6 0.900037 0.099963 0.789300 0.099963 0.500406 0.388857 
3 282 284 280 6 0.900037 0.099963 0.500406 0.388857 0.611143 0.499594 
3 285 286 287 6 0.900037 0.788487 0.875288 0.813236 0.586395 0.524342 
3 285 287 288 6 0.900037 0.788487 0.586395 0.524342 0.600537 0.510200 
3 289 290 291 6 0.475658 0.413605 0.186764 0.124712 0.211513 0.099963 
3 285 288 292 6 0.900037 0.788487 0.600537 0.510200 0.489800 0.399463 
3 292 289 291 6 0.489800 0.399463 0.475658 0.413605 0.211513 0.099963 
3 291 285 292 6 0.211513 0.099963 0.900037 0.788487 0.489800 0.399463 
3 293 294 295 6 8.028983 -0.000990 8.028983 -0.035990 7.618052 -0.035990 
3 293 295 296 6 8.028983 -0.000990 7.618052 -0.035990 7.618052 -0.015990 
3 297 298 299 6 7.462671 -0.035990 7.054114 -0.035990 7.054114 -0.000990 
3 293 296 300 6 8.028983 -0.000990 7.618052 -0.015990 7.462671 -0.015990 
3 300 297 299 6 7.462671 -0.015990 7.462671 -0.035990 7.054114 -0.000990 
3 299 293 300 6 7.054114 -0.000990 8.028983 -0.000990 7.462671 -0.015990 
3 301 302 303 6 0.573858 0.445079 0.862751 0.156186 0.876894 0.170328 
3 301 303 304 6 0.573858 0.445079 0.876894 0.170328 0.588000 0.459221 
3 305 306 307 6 5.573452 -4.554514 5.864024 -4.845087 5.878166 -4.830944 
3 305 307 308 6 5.573452 -4.554514 5.878166 -4.830944 5.587594 -4.540372 
3 309 310 311 6 0.390535 0.501272 0.099963 0.791844 0.099963 0.900037 
3 311 312 313 6 0.099963 0.900037 0.211513 0.900037 0.500406 0.611143 
3 311 313 309 6 0.099963 0.900037 0.500406 0.611143 0.390535 0.501272 
3 314 315 316 6 5.173415 -4.154478 5.462308 -4.443371 5.476450 -4.429229 
3 314 316 317 6 5.173415 -4.154478 5.476450 -4.429229 5.187557 -4.140336 
3 318 319 320 6 0.099963 0.210700 0.390535 0.501272 0.099963 0.791844 
3 321 322 323 6 0.611143 0.499594 0.900037 0.210700 0.900037 0.099963 
3 323 324 325 6 0.900037 0.099963 0.789300 0.099963 0.500406 0.388857 
3 323 325 321 6 0.900037 0.099963 0.500406 0.388857 0.611143 0.499594 
3 326 327 328 6 0.173821 0.845116 0.462715 0.556222 0.476857 0.570365 
3 326 328 329 6 0.173821 0.845116 0.476857 0.570365 0.187963 0.859258 
3 330 331 332 6 0.900037 0.788487 0.611143 0.499594 0.900037 0.210700 
3 333 334 335 6 -0.000000 1.000000 0.099963 0.900037 1.000000 1.000000 
3 334 333 336 6 0.099963 0.900037 -0.000000 1.000000 -0.000000 0.000000 
3 334 336 337 6 0.099963 0.900037 -0.000000 0.000000 0.099963 0.210700 
3 337 336 338 6 0.099963 0.210700 -0.000000 0.000000 0.211513 0.099963 
3 338 336 339 6 0.211513 0.099963 -0.000000 0.000000 0.900037 0.099963 
3 335 340 341 6 1.000000 1.000000 0.900037 0.788487 1.000000 0.000000 
3 340 335 342 6 0.900037 0.788487 1.000000 1.000000 0.789300 0.900037 
3 342 335 334 6 0.789300 0.900037 1.000000 1.000000 0.099963 0.900037 
3 341 340 339 6 1.000000 0.000000 0.900037 0.788487 0.900037 0.099963 
3 341 339 336 6 1.000000 0.000000 0.900037 0.099963 -0.000000 0.000000 
3 337 340 342 6 0.099963 0.210700 0.900037 0.788487 0.789300 0.900037 
3 340 337 338 6 0.900037 0.788487 0.099963 0.210700 0.211513 0.099963 
3 343 344 345 6 9.788487 0.035000 9.788487 -0.000000 9.210700 -0.000000 
3 346 347 348 6 9.210700 0.020000 9.099963 0.020000 9.099963 0.035000 
3 343 345 346 6 9.788487 0.035000 9.210700 -0.000000 9.210700 0.020000 
3 346 348 343 6 9.210700 0.020000 9.099963 0.035000 9.788487 0.035000 
3 349 350 351 6 0.211513 0.099963 0.789300 0.099963 0.500406 0.388857 
3 352 353 354 6 0.789300 0.900037 0.789300 0.935037 0.211513 0.935037 
3 355 356 357 6 0.211513 0.915037 0.099963 0.915037 0.099963 0.900037 
3 352 354 355 6 0.789300 0.900037 0.211513 0.935037 0.211513 0.915037 
3 355 357 352 6 0.211513 0.915037 0.099963 0.900037 0.789300 0.900037 
3 358 359 360 6 7.054114 -0.000990 7.054114 -0.035990 7.462671 -0.035990 
3 358 360 361 6 7.054114 -0.000990 7.462671 -0.035990 7.462671 -0.015990 
3 362 363 364 6 7.618052 -0.035990 8.028983 -0.035990 8.028983 -0.000990 
3 358 361 365 6 7.054114 -0.000990 7.462671 -0.015990 7.618052 -0.015990 
3 365 362 364 6 7.618052 -0.015990 7.618052 -0.035990 8.028983 -0.000990 
3 364 358 365 6 8.028983 -0.000990 7.054114 -0.000990 7.618052 -0.015990 
3 366 367 368 6 0.084963 0.791844 0.064963 0.791844 0.064963 0.210700 
3 368 369 370 6 0.064963 0.210700 0.099963 0.210700 0.099963 0.900037 
3 370 371 366 6 0.099963 0.900037 0.084963 0.900037 0.084963 0.791844 
3 368 370 366 6 0.064963 0.210700 0.099963 0.900037 0.084963 0.791844 
3 372 373 374 6 0.611143 0.499594 0.900037 0.788487 0.900037 0.210700 
3 375 376 377 6 0.211513 0.900037 0.789300 0.900037 0.500406 0.611143 
3 378 379 380 6 0.390535 0.501272 0.099963 0.210700 0.099963 0.791844 
3 381 382 383 6 0.789300 0.099963 0.211513 0.099963 0.500406 0.388857 
3 384 385 386 6 9.210700 0.020000 9.210700 -0.000000 9.788487 -0.000000 
3 386 387 388 6 9.788487 -0.000000 9.788487 0.035000 9.099963 0.035000 
3 388 389 384 6 9.099963 0.035000 9.099963 0.020000 9.210700 0.020000 
3 386 388 384 6 9.788487 -0.000000 9.099963 0.035000 9.210700 0.020000 
3 390 391 392 6 9.788487 0.035000 9.788487 0.000000 9.210700 0.000000 
3 393 394 395 6 9.210700 0.020000 9.099963 0.020000 9.099963 0.035000 
3 390 392 393 6 9.788487 0.035000 9.210700 0.000000 9.210700 0.020000 
3 393 395 390 6 9.210700 0.020000 9.099963 0.035000 9.788487 0.035000 
3 396 397 398 6 0.211513 0.099963 0.186764 0.124712 0.475658 0.413605 
3 396 398 399 6 0.211513 0.099963 0.475658 0.413605 0.489800 0.399463 
3 400 401 402 6 0.586395 0.524342 0.875288 0.813236 0.900037 0.788487 
3 396 399 403 6 0.211513 0.099963 0.489800 0.399463 0.600537 0.510200 
3 403 400 402 6 0.600537 0.510200 0.586395 0.524342 0.900037 0.788487 
3 402 396 403 6 0.900037 0.788487 0.211513 0.099963 0.600537 0.510200 
3 404 405 406 6 1.000000 -0.000000 0.900037 0.099963 1.000000 1.000000 
3 405 404 407 6 0.900037 0.099963 1.000000 -0.000000 -0.000000 -0.000000 
3 405 407 408 6 0.900037 0.099963 -0.000000 -0.000000 0.211513 0.099963 
3 408 407 409 6 0.211513 0.099963 -0.000000 -0.000000 0.099963 0.210700 
3 409 407 410 6 0.099963 0.210700 -0.000000 -0.000000 0.099963 0.900037 
3 406 411 412 6 1.000000 1.000000 0.789300 0.900037 -0.000000 1.000000 
3 411 406 413 6 0.789300 0.900037 1.000000 1.000000 0.900037 0.788487 
3 413 406 405 6 0.900037 0.788487 1.000000 1.000000 0.900037 0.099963 
3 412 411 410 6 -0.000000 1.000000 0.789300 0.900037 0.099963 0.900037 
3 412 410 407 6 -0.000000 1.000000 0.099963 0.900037 -0.000000 -0.000000 
3 408 411 413 6 0.211513 0.099963 0.789300 0.900037 0.900037 0.788487 
3 411 408 409 6 0.789300 0.900037 0.211513 0.099963 0.099963 0.210700 
3 414 415 416 6 5.864024 -4.845087 5.573452 -4.554514 5.587594 -4.540372 
3 414 416 417 6 5.864024 -4.845087 5.587594 -4.540372 5.878166 -4.830944 
3 418 419 420 6 0.462715 0.556222 0.173821 0.845116 0.187963 0.859258 
3 418 420 421 6 0.462715 0.556222 0.187963 0.859258 0.476857 0.570365 
3 422 423 424 6 0.862751 0.156186 0.573858 0.445079 0.588000 0.459221 
3 422 424 425 6 0.862751 0.156186 0.588000 0.459221 0.876894 0.170328 
3 426 427 428 6 0.211513 0.900037 0.099963 0.900037 0.099963 0.791844 
3 428 429 430 6 0.099963 0.791844 0.390535 0.501272 0.500406 0.611143 
3 428 430 426 6 0.099963 0.791844 0.500406 0.611143 0.211513 0.900037 
3 431 432 433 6 5.462308 -4.443371 5.173415 -4.154478 5.187557 -4.140336 
3 431 433 434 6 5.462308 -4.443371 5.187557 -4.140336 5.476450 -4.429229 
3 435 436 437 6 0.789300 0.099963 0.900037 0.099963 0.900037 0.210700 
3 437 438 439 6 0.900037 0.210700 0.611143 0.499594 0.500406 0.388857 
3 437 439 435 6 0.900037 0.210700 0.500406 0.388857 0.789300 0.099963 
3 440 441 442 6 0.211513 0.900037 0.789300 0.900037 0.500406 0.611143 
3 443 444 445 6 0.789300 0.900037 0.789300 0.935037 0.211513 0.935037 
3 446 447 448 6 0.211513 0.915037 0.099963 0.915037 0.099963 0.900037 
3 443 445 446 6 0.789300 0.900037 0.211513 0.935037 0.211513 0.915037 
3 446 448 443 6 0.211513 0.915037 0.099963 0.900037 0.789300 0.900037 
3 449 450 451 6 0.084963 0.791844 0.064963 0.791844 0.064963 0.210700 
3 451 452 453 6 0.064963 0.210700 0.099963 0.210700 0.099963 0.900037 
3 453 454 449 6 0.099963 0.900037 0.084963 0.900037 0.084963 0.791844 
3 451 453 449 6 0.064963 0.210700 0.099963 0.900037 0.084963 0.791844 
3 455 456 457 6 9.788487 0.035000 9.788487 0.000000 9.210700 0.000000 
3 458 459 460 6 9.210700 0.020000 9.099963 0.020000 9.099963 0.035000 
3 455 457 458 6 9.788487 0.035000 9.210700 0.000000 9.210700 0.020000 
3 458 460 455 6 9.210700 0.020000 9.099963 0.035000 9.788487 0.035000 
3 461 462 463 6 0.390535 0.501272 0.099963 0.210700 0.099963 0.791844 
3 464 465 466 6 0.611143 0.499594 0.900037 0.788487 0.900037 0.210700 
3 467 468 469 6 0.099963 0.210700 0.900037 0.788487 0.211513 0.099963 
3 468 467 470 6 0.900037 0.788487 0.099963 0.210700 0.789300 0.900037 
3 471 467 469 6 0.000000 -0.000000 0.099963 0.210700 0.211513 0.099963 
3 467 471 472 6 0.099963 0.210700 0.000000 -0.000000 0.000000 1.000000 
3 467 472 473 6 0.099963 0.210700 0.000000 1.000000 0.099963 0.900037 
3 473 472 470 6 0.099963 0.900037 0.000000 1.000000 0.789300 0.900037 
3 470 472 474 6 0.789300 0.900037 0.000000 1.000000 1.000000 1.000000 
3 475 476 474 6 1.000000 -0.000000 0.900037 0.099963 1.000000 1.000000 
3 476 475 471 6 0.900037 0.099963 1.000000 -0.000000 0.000000 -0.000000 
3 476 471 469 6 0.900037 0.099963 0.000000 -0.000000 0.211513 0.099963 
3 474 476 468 6 1.000000 1.000000 0.900037 0.099963 0.900037 0.788487 
3 474 468 470 6 1.000000 1.000000 0.900037 0.788487 0.789300 0.900037 
3 477 478 479 6 9.210700 0.020000 9.210700 -0.000000 9.788487 -0.000000 
3 479 480 481 6 9.788487 -0.000000 9.788487 0.035000 9.099963 0.035000 
3 481 482 477 6 9.099963 0.035000 9.099963 0.020000 9.210700 0.020000 
3 479 481 477 6 9.788487 -0.000000 9.099963 0.035000 9.210700 0.020000 
3 483 484 485 6 0.789300 0.099963 0.211513 0.099963 0.500406 0.388857 
3 486 487 488 6 8.028983 -0.000990 8.028983 -0.035990 7.618052 -0.035990 
3 486 488 489 6 8.028983 -0.000990 7.618052 -0.035990 7.618052 -0.015990 
3 490 491 492 6 7.462671 -0.035990 7.054114 -0.035990 7.054114 -0.000990 
3 486 489 493 6 8.028983 -0.000990 7.618052 -0.015990 7.462671 -0.015990 
3 493 490 492 6 7.462671 -0.015990 7.462671 -0.035990 7.054114 -0.000990 
3 492 486 493 6 7.054114 -0.000990 8.028983 -0.000990 7.462671 -0.015990 
3 494 495 496 6 0.900037 0.788487 0.875288 0.813236 0.586395 0.524342 
3 494 496 497 6 0.900037 0.788487 0.586395 0.524342 0.600537 0.510200 
3 498 499 500 6 0.475658 0.413605 0.186764 0.124712 0.211513 0.099963 
3 494 497 501 6 0.900037 0.788487 0.600537 0.510200 0.489800 0.399463 
3 501 498 500 6 0.489800 0.399463 0.475658 0.413605 0.211513 0.099963 
3 500 494 501 6 0.211513 0.099963 0.900037 0.788487 0.489800 0.399463 
3 502 503 504 6 5.573452 -4.554514 5.864024 -4.845087 5.878166 -4.830944 
3 502 504 505 6 5.573452 -4.554514 5.878166 -4.830944 5.587594 -4.540372 
3 506 507 508 6 0.173821 0.845116 0.462715 0.556222 0.476857 0.570365 
3 506 508 509 6 0.173821 0.845116 0.476857 0.570365 0.187963 0.859258 
3 510 511 512 6 0.573858 0.445079 0.862751 0.156186 0.876894 0.170328 
3 510 512 513 6 0.573858 0.445079 0.876894 0.170328 0.588000 0.459221 
3 514 515 516 6 0.390535 0.501272 0.099963 0.791844 0.099963 0.900037 
3 516 517 518 6 0.099963 0.900037 0.211513 0.900037 0.500406 0.611143 
3 516 518 514 6 0.099963 0.900037 0.500406 0.611143 0.390535 0.501272 
3 519 520 521 6 5.173415 -4.154478 5.462308 -4.443371 5.476450 -4.429229 
3 519 521 522 6 5.173415 -4.154478 5.476450 -4.429229 5.187557 -4.140336 
3 523 524 525 6 0.611143 0.499594 0.900037 0.210700 0.900037 0.099963 
3 525 526 527 6 0.900037 0.099963 0.789300 0.099963 0.500406 0.388857 
3 525 527 523 6 0.900037 0.099963 0.500406 0.388857 0.611143 0.499594 
