ply
format ascii 1.0
comment VCGLIB generated
element vertex 263
property float x
property float y
property float z
property float nx
property float ny
property float nz
element face 470
property list uchar int vertex_indices
end_header
0.1448805 0.3371298 -0.1071697 -0.07217547 -0.4647838 -0.8824776 
0.4758248 1.086046 -0.2304197 -0.003434355 0.2054302 -0.9786658 
0.2146629 0.3062932 -0.07556843 0.1458125 -0.9131906 -0.3805544 
0.6253219 1.019984 -0.1627193 0.6488619 -0.09865396 -0.7544837 
0.2435678 0.2935202 0.0007237056 0.6235557 -0.7722256 0.1218444 
0.6872456 0.9926198 0.0007236651 0.9644976 -0.2495719 -0.08636092 
0.214663 0.3062931 0.07701583 -0.04862865 -0.9043886 0.4239299 
0.6253219 1.019984 0.1641667 0.7579826 -0.1579981 0.6328499 
0.1448805 0.3371298 0.1086171 -0.2950721 -0.3662861 0.8824778 
0.4758248 1.086046 0.231867 0.1515671 0.1218292 0.9809104 
0.07509812 0.3679665 0.07701583 -0.7733901 -0.5069972 0.3805543 
0.3263277 1.152108 0.1641667 -0.4988688 0.4250481 0.7552908 
0.0461933 0.3807395 0.000723707 -0.9908034 -0.05884406 -0.1218447 
0.264404 1.179472 0.0007236681 -0.8135441 0.5746192 0.08921304 
0.0750981 0.3679665 -0.0755684 -0.6359729 -0.6448426 -0.4239299 
0.3263277 1.152108 -0.1627193 -0.6088886 0.4839103 -0.6285583 
0.6116658 1.341501 0.008927114 0.4255604 0.9048834 0.009182219 
0.1502107 0.2704332 -0.1835467 0.3150361 -0.9043885 0.2878084 
0.3401161 0.876407 -0.5611368 0.4951659 -0.249572 -0.8321806 
0.1105796 0.2591557 -0.243697 0.4641089 -0.7722256 -0.4339015 
0.1911407 0.9005672 -0.6013893 -0.2311921 -0.09865408 -0.9678934 
0.04104067 0.2704333 -0.262486 -0.2229421 -0.9131906 -0.3411448 
0.0653607 0.9588952 -0.5294527 -0.7950708 0.20543 -0.570667 
-0.01767107 0.2976597 -0.2289075 -0.7574041 -0.4647837 -0.4586013 
0.4250191 0.9005672 -0.4322749 0.9569682 -0.1579983 -0.2434099 
0.1367187 0.2976597 -0.1172703 0.5422152 -0.3662861 0.7561992 
0.3961146 0.9588952 -0.290289 0.8836883 0.1218291 0.4519433 
0.0780069 0.3248861 -0.08369167 -0.1447875 -0.506997 0.8497003 
0.2703346 1.017223 -0.2183524 0.3197349 0.4250478 0.8468199 
0.008468002 0.3361637 -0.1024807 -0.6792985 -0.05884385 0.7314992 
0.1213592 1.041384 -0.2586048 -0.4044033 0.5746191 0.7115272 
-0.03116312 0.3248861 -0.162631 -0.7161791 -0.6448425 0.2669565 
0.03645624 1.017223 -0.3874668 -0.866129 0.4839102 0.1251063 
0.3068843 1.184443 -0.5028175 0.2567984 0.9048834 -0.3394713 
-0.05673206 0.2764142 -0.2356901 0.4196779 -0.9043885 -0.0771476 
-0.2469938 0.8957896 -0.6235402 -0.3639523 -0.249572 -0.8973587 
-0.1301966 0.2648872 -0.240557 -0.06534829 -0.7722258 -0.6319786 
-0.3717767 0.9204841 -0.5270616 -0.9109455 -0.09865406 -0.4005568 
-0.1884429 0.2764142 -0.1955225 -0.4065373 -0.9131907 -0.02846151 
-0.3908609 0.9801021 -0.3801936 -0.9351007 0.2054301 0.2887652 
-0.1973511 0.3042427 -0.1269674 -0.8230437 -0.4647838 0.3264584 
-0.08960832 0.9204841 -0.6131136 0.3842201 -0.1579983 -0.9096217 
-0.01108376 0.3042427 -0.1837727 0.9301712 -0.3662863 0.02481726 
0.008185442 0.9801021 -0.5018895 0.8940367 0.121829 -0.4311104 
-0.0199919 0.3320713 -0.1152175 0.589604 -0.5069973 0.6287456 
-0.01089878 1.03972 -0.3550215 0.8679641 0.4250479 0.2568513 
-0.07823822 0.3435983 -0.07018308 0.1724752 -0.05884396 0.9832547 
-0.1356817 1.064415 -0.2585429 0.3226465 0.5746192 0.7521383 
-0.1517028 0.3320713 -0.07505 -0.219977 -0.6448426 0.7319755 
-0.2930672 1.03972 -0.2689695 -0.4236069 0.4839102 0.7657598 
-0.2200164 1.210638 -0.5604593 -0.1153548 0.9048833 -0.4097311 
-0.2022505 0.2422091 -0.06494873 0.1523711 -0.9043887 -0.3985776 
-0.5792334 0.7849395 -0.09930263 -0.9557347 -0.2495719 -0.1558363 
-0.2393722 0.2321085 -0.0121839 -0.5737714 -0.7722259 -0.2728621 
-0.5638924 0.8065782 0.03805534 -0.8158846 -0.09865401 0.5697364 
-0.2322112 0.2422092 0.05193225 -0.23574 -0.9131908 0.3324293 
-0.4626696 0.8588187 0.119269 -0.2396838 0.2054302 0.9488679 
-0.1849623 0.266594 0.08984126 -0.1492113 -0.4647841 0.872761 
-0.4997063 0.8065782 -0.2123424 -0.5771019 -0.1579983 -0.8012428 
-0.1425914 0.266594 -0.07545339 0.504957 -0.3662865 -0.7815707 
-0.3718969 0.8588187 -0.2348469 0.09674737 0.121829 -0.9878247 
-0.09534245 0.2909789 -0.03754436 0.8436631 -0.5069973 -0.1765965 
-0.2706741 0.9110591 -0.1536332 0.6707894 0.4250479 -0.607763 
-0.0881815 0.3010795 0.02657175 0.9295175 -0.05884391 0.364053 
-0.2553329 0.932698 -0.01627521 0.8102171 0.5746192 0.1155904 
-0.1253032 0.2909789 0.07933661 0.5107898 -0.6448428 0.5685697 
-0.3348601 0.9110591 0.09676457 0.4337426 0.4839102 0.7600647 
-0.5197279 1.060827 -0.09074605 -0.4099527 0.9048833 -0.1145648 
-0.2121912 0.2845167 0.1312976 -0.2044598 -0.9043888 -0.374536 
-0.5301948 0.9220479 0.4421069 -0.7386376 -0.2495719 0.6262017 
-0.193314 0.2726518 0.2046927 -0.5798881 -0.7722257 0.2596098 
-0.3957175 0.9474663 0.5330722 -0.09575542 -0.09865399 0.9905041 
-0.1305425 0.2845168 0.2471535 0.1000345 -0.9131908 0.3950641 
-0.2459789 1.008832 0.5044798 0.5665784 0.20543 0.7979897 
-0.06064735 0.3131609 0.2338072 0.5673575 -0.4647842 0.6797655 
-0.5706358 0.9474663 0.2848703 -0.9841402 -0.1579982 -0.08065125 
-0.1761159 0.3131609 0.06996213 -0.2671672 -0.3662866 -0.8913226 
-0.4933508 1.008832 0.1534694 -0.6889566 0.1218288 -0.7144905 
-0.1062207 0.3418053 0.05661573 0.4129518 -0.5069975 -0.7565873 
-0.3436121 1.070197 0.124877 -0.02731513 0.4250478 -0.9047587 
-0.04344923 0.3536702 0.09907658 0.8800791 -0.05884408 -0.4711668 
-0.2091348 1.095616 0.2158423 0.6136041 0.5746191 -0.5415745 
-0.02457208 0.3418053 0.1724717 0.7640577 -0.6448429 -0.01983647 
-0.1686938 1.070197 0.3730789 0.8597976 0.4839103 0.1630308 
-0.4771975 1.246125 0.395435 -0.3531457 0.9048833 0.2376433 
0.01753699 0.2589559 0.2264323 -0.426598 -0.9043887 0.009762014 
0.1360352 0.8392116 0.6134144 0.2173593 -0.2495719 0.9436466 
0.08477274 0.248157 0.2418259 -0.03548567 -0.7722256 0.6343568 
0.2657672 0.8623465 0.542668 0.8360788 -0.09865402 0.5396663 
0.1453292 0.258956 0.2088027 0.3969104 -0.9131908 0.09243769 
0.3051946 0.918199 0.4096393 0.9690145 0.2054301 -0.1371471 
0.1637332 0.2850268 0.1467075 0.8643345 -0.4647841 -0.192098 
-0.008006144 0.8623465 0.5804363 -0.5233261 -0.1579982 0.8373568 
-0.0169923 0.2850268 0.1716394 -0.9145229 -0.3662865 -0.1717038 
-0.08197929 0.918199 0.4630518 -0.9509941 0.121829 0.2841969 
0.001411681 0.3110977 0.1095441 -0.4826756 -0.5069974 -0.7141274 
-0.04255182 0.9740514 0.3300231 -0.8163804 0.4250478 -0.3909699 
0.06196813 0.3218967 0.07652097 -0.01470211 -0.05884405 -0.9981589 
0.08718018 0.9971865 0.2592766 -0.1995553 0.5746191 -0.7937195 
0.1292039 0.3110977 0.09191451 0.3330399 -0.6448428 -0.6879405 
0.2312215 0.9740514 0.2922547 0.5394504 0.4839101 -0.6890749 
0.1204322 1.134174 0.5510628 0.0490612 0.9048834 0.4228228 
-0.08931179 0.3978503 0.03171074 -0.5236787 -0.8087717 0.2676732 
0.03718906 1.251735 0.21393 0.1721377 0.05845565 0.983337 
-0.023026 0.3850522 0.05314195 -0.1278406 -0.4830367 0.8662173 
0.1708636 1.237275 0.14612 0.8103947 0.05118777 0.583644 
0.03937078 0.3783025 0.02148936 0.3172233 -0.8476912 0.4251929 
0.2179017 1.244244 0.004309254 0.9839625 0.1016568 -0.1465735 
0.06132728 0.3815553 -0.0447051 0.8667823 -0.4985493 0.01170755 
-0.1048172 1.279153 0.1680172 -0.5597069 0.120947 0.819817 
-0.1206574 0.4092 -0.03025008 -0.929915 -0.3558224 -0.09299768 
-0.1719697 1.303468 0.03527665 -0.9621637 0.2044425 0.1801231 
-0.09870087 0.412453 -0.09644467 -0.5164652 -0.6710011 -0.5319973 
-0.1249316 1.310437 -0.106534 -0.7830658 0.2574424 -0.566155 
-0.03630411 0.4057034 -0.1280971 -0.006455208 -0.3646662 -0.931116 
0.00874299 1.295977 -0.1743442 -0.1288988 0.2460669 -0.9606436 
0.02998172 0.3929052 -0.1066659 0.2810659 -0.8453971 -0.4542089 
0.1507492 1.268559 -0.1284313 0.5973188 0.1810798 -0.781294 
0.0358885 1.582502 0.05816204 0.1144495 0.9873943 0.1093333 
0.07943108 0.1060373 0.09974027 -0.9046913 -0.3793367 -0.1940034 
0.3916484 0.5495765 0.4042673 -0.339913 -0.02142189 0.9402129 
0.09720547 0.07960646 0.1248882 -0.7531533 -0.3072297 0.5816959 
0.4817487 0.4868805 0.4008456 0.3018435 -0.4096727 0.8608478 
0.130247 0.0566144 0.1236334 -0.3946365 -0.8768601 0.2745513 
0.5607011 0.4702885 0.3274312 0.8116633 -0.4981352 0.3050639 
0.1592006 0.05052992 0.09671084 0.3298153 -0.9181012 0.2198001 
0.34318 0.6216499 0.3356921 -0.7422193 0.4388528 0.5064769 
0.0873359 0.1204242 0.06292085 -0.791639 0.2233924 -0.5686858 
0.3647355 0.6608813 0.2352905 -0.6742082 0.7117295 -0.1971914 
0.1162894 0.1143396 0.0359983 -0.430946 -0.3035244 -0.8497991 
0.443688 0.6442891 0.1618762 -0.160349 0.627353 -0.7620475 
0.149331 0.09134769 0.03474344 0.2434122 -0.3613614 -0.9000936 
0.5337882 0.5815933 0.1584543 0.4893065 0.231864 -0.8407248 
0.1671054 0.06491677 0.05989138 -0.005750977 -0.8737268 -0.4863831 
0.5822564 0.5095197 0.2270295 0.8874445 -0.2323532 -0.3980632 
0.5630504 0.7503795 0.3669305 0.4996222 0.7707899 0.395298 
-0.06019648 0.08786903 0.09903666 -0.1198529 -0.3445083 -0.9311012 
-0.2251837 0.459201 0.4630587 -0.9991294 -0.04170866 0.0009442186 
-0.07510761 0.06350484 0.1202687 -0.7980704 -0.3026349 -0.5210526 
-0.1941974 0.401918 0.5340162 -0.6969939 -0.4468734 0.5608063 
-0.06374419 0.04249784 0.1462902 -0.3752835 -0.8727298 -0.3122579 
-0.109715 0.3873458 0.5764682 0.001422657 -0.5328258 0.8462238 
-0.03276282 0.03715412 0.1618583 -0.0749725 -0.9346123 0.3476767 
-0.184523 0.5256387 0.4051617 -0.7387587 0.4448151 -0.5063348 
-0.02774557 0.1013183 0.09503158 0.2586199 0.2663937 -0.9285204 
-0.09603364 0.5623134 0.3942405 -0.06000788 0.7383962 -0.671692 
0.003235834 0.09597432 0.1105996 0.6568351 -0.2619528 -0.7070703 
-0.01155144 0.547741 0.4366924 0.6482316 0.6566982 -0.3854133 
0.01459926 0.07496754 0.1366212 0.9361438 -0.3390065 -0.09332468 
0.01943513 0.4904583 0.50765 0.9525716 0.2440351 0.1818083 
-0.0003118721 0.05060335 0.1578532 0.4725793 -0.8566945 -0.2067447 
-0.02122561 0.4240203 0.5655468 0.6824696 -0.2465907 0.6880612 
-0.1465176 0.6315386 0.6001507 -0.2158406 0.7415262 0.6352572 
-0.2234451 0.3383052 -0.2501043 0.9271417 -0.3712038 -0.05114857 
-0.3790843 0.4510634 -0.3522286 -0.0174405 -0.1731177 -0.9847468 
-0.2585419 0.2944105 -0.2685789 0.531103 -0.426006 -0.7324265 
-0.4376737 0.4077229 -0.3197871 -0.5948097 -0.4963844 -0.6323006 
-0.3016615 0.2625133 -0.2447032 0.300308 -0.9180775 -0.2587447 
-0.4728435 0.4060735 -0.2488051 -0.8810743 -0.4694076 0.05800487 
-0.3275449 0.2612996 -0.1924634 -0.4232889 -0.9052312 0.03719019 
-0.3313958 0.5107063 -0.3271259 0.5205228 0.3187347 -0.7921264 
-0.2169304 0.3684852 -0.2001018 0.9396069 0.2541345 0.2292479 
-0.3225438 0.5517141 -0.2591841 0.7021695 0.6953886 -0.1529473 
-0.2428139 0.3672712 -0.1478621 0.7079221 -0.1654595 0.6866364 
-0.3577136 0.5500644 -0.1882024 0.406285 0.7230738 0.5586563 
-0.2859335 0.3353742 -0.1239865 0.06133799 -0.1673641 0.9839852 
-0.416303 0.506724 -0.1557606 -0.1862879 0.3833447 0.9046235 
-0.3210301 0.2914796 -0.1424609 0.1777859 -0.7743493 0.6072689 
-0.4639913 0.4470809 -0.1808632 -0.714668 -0.1091729 0.6908914 
-0.491143 0.603919 -0.2984484 -0.6376907 0.7086453 -0.301948 
0.1028258 0.08684785 -0.01823537 -0.6018887 -0.3793369 0.702733 
0.4439918 0.4501203 -0.1240901 0.6643869 -0.02142189 0.7470818 
0.1278719 0.06520021 -0.02121118 0.1522134 -0.3072295 0.9393834 
0.476714 0.3987703 -0.1902928 0.9006141 -0.4096727 0.1451291 
0.1398717 0.04636895 -0.04548908 0.05317081 -0.8768601 0.4777962 
0.4546923 0.385181 -0.2758031 0.6551566 -0.4981353 -0.5680063 
0.131796 0.04138562 -0.07684751 0.3504628 -0.9181011 -0.1851111 
0.3756943 0.5091507 -0.1159754 0.09130787 0.4388528 0.8939078 
0.07940507 0.09863114 -0.03830487 -0.8773355 0.2233923 0.4247096 
0.3118291 0.5412825 -0.1707025 -0.4947967 0.7117294 0.4986156 
0.07132929 0.09364773 -0.06966328 -0.9524583 -0.3035249 -0.02637852 
0.2898075 0.5276929 -0.2562126 -0.7463029 0.6273531 -0.2223962 
0.08332912 0.07481661 -0.09394123 -0.6751332 -0.3613617 -0.6431274 
0.3225295 0.4763431 -0.3224155 -0.505705 0.2318642 -0.8309642 
0.1083752 0.05316891 -0.09691702 -0.4302779 -0.8737269 -0.2268529 
0.3908269 0.4173126 -0.3305301 0.07323226 -0.2323531 -0.9698707 
0.4840467 0.6145843 -0.2620694 0.5856916 0.7707902 -0.250695 
0.03877798 0.09223501 -0.1207922 0.3184754 -0.3072937 0.8967408 
0.1203847 0.4819761 -0.5539076 0.9784921 -0.01892656 -0.2054143 
0.05059863 0.06551059 -0.1456794 0.8966324 -0.2650414 0.3546877 
0.07384465 0.4166877 -0.6199411 0.5802017 -0.4511418 -0.6781129 
0.03353139 0.04156783 -0.1698951 0.4572262 -0.8519032 0.2553532 
-0.02420663 0.3972303 -0.6454622 -0.1590178 -0.5634081 -0.810731 
-0.00242603 0.03443257 -0.1792543 0.0299504 -0.9447867 -0.3263144 
0.08815134 0.5548501 -0.4860435 0.8132756 0.4798189 0.3291759 
0.004993793 0.1060864 -0.1098121 -0.07054988 0.2943154 0.9531009 
-0.003973768 0.5926214 -0.4561026 0.1744028 0.7637189 0.6215442 
-0.03096363 0.09895094 -0.1191713 -0.4897596 -0.250741 0.8350237 
-0.1020249 0.5731636 -0.4816237 -0.5747297 0.6554472 0.4899742 
-0.04803093 0.07500841 -0.1433871 -0.8865636 -0.3566076 0.2946796 
-0.1485651 0.5078754 -0.5476571 -0.976462 0.2154207 0.01076559 
-0.03621024 0.04828392 -0.1682743 -0.394348 -0.8590834 0.3262905 
-0.1163317 0.4350013 -0.615521 -0.8013923 -0.2871637 -0.5246975 
0.001521691 0.6603013 -0.6868382 0.05874607 0.7224479 -0.6889253 
-0.6583387 0.6330245 0.1914397 -0.6925059 0.7075271 0.1408585 
-0.5523579 0.4156026 0.2830443 -0.2581122 -0.2852536 0.9230431 
-0.1480969 0.04452229 0.08211154 0.4482931 -0.8462176 0.2880087 
-0.4812443 0.4887701 0.2929627 0.2931181 0.2305776 0.9278555 
-0.1220181 0.0713544 0.08574879 0.5513496 -0.3369682 0.7631947 
-0.4344179 0.5532883 0.2297625 0.6220099 0.6738791 0.3987363 
-0.1048459 0.09501449 0.06257196 0.9479998 -0.2264203 0.2236744 
-0.4393091 0.5713637 0.1304658 0.5242315 0.7732338 -0.3567785 
-0.1066396 0.1016431 0.02615776 0.9242837 0.3143815 -0.216481 
-0.4930527 0.5324073 0.05323905 0.0632797 0.4737519 -0.878382 
-0.1678058 0.03023635 0.05379089 -0.2981898 -0.9514768 0.07599192 
-0.6061015 0.3766464 0.2058177 -0.7142268 -0.5770094 0.3961569 
-0.1695995 0.03686468 0.01737667 0.1292556 -0.8535498 -0.5047235 
-0.6109928 0.3947214 0.1065208 -0.8081753 -0.4734883 -0.3502308 
-0.1524273 0.06052508 -0.005800107 0.08069185 -0.2716418 -0.9590098 
-0.5641662 0.45924 0.04332083 -0.4843025 -0.03807291 -0.8740719 
-0.1263485 0.08735712 -0.002162863 0.7699664 -0.294144 -0.5662429 
0.1651167 0.4097943 -0.06035039 0.3532471 0.9355301 -5.929624e-08 
-0.2168266 0.36827 0.1752069 -0.3736413 0.8263565 0.4213396 
0.2052266 0.2431459 0.3207928 0.4990065 0.4858262 0.717611 
0.4385365 0.1488995 -0.06035046 0.8149835 0.5794842 -1.428338e-07 
0.2052269 0.2431458 -0.4414935 0.399278 0.7152929 -0.573527 
-0.2168266 0.3682701 -0.2959076 -0.3736414 0.8263568 -0.4213392 
-0.1918512 0.08682801 0.4159935 -0.4652588 0.5248228 0.7128081 
0.4562685 0.002141054 0.3402313 0.8456532 -0.3815673 0.3731984 
0.4562685 0.002141019 -0.4609323 0.8077995 -0.4203839 -0.4132036 
-0.1918509 0.08682805 -0.5366945 -0.5188354 0.4045644 -0.7530853 
-0.4538001 0.1736708 -0.06035049 -0.9489383 0.315462 3.29019e-08 
-0.1931113 0.002194378 -0.06035059 0.0001314185 -1 -4.548651e-06 
0.2065753 0.3518778 0.1636782 0.4482957 0.8303337 0.3310242 
-0.02964464 0.4325717 0.07810571 0.01481088 0.9793428 0.2016644 
-0.007977939 0.3342738 0.3021365 0.00241534 0.793664 0.6083516 
-0.2564001 0.4046791 -0.06035039 -0.4110005 0.9116352 1.388691e-07 
-0.02964464 0.4325717 -0.1988065 0.01481105 0.9793428 -0.201664 
0.3332976 0.2985238 -0.06035038 0.700706 0.7134501 -3.883677e-08 
0.3675247 0.1901442 0.1636789 0.7329857 0.5873859 0.3430885 
0.2065753 0.3518778 -0.2843789 0.4482959 0.8303338 -0.3310237 
0.3675247 0.1901442 -0.2843798 0.7068916 0.6644187 -0.2425945 
-0.007977939 0.334274 -0.4228373 0.00241538 0.7936612 -0.6083553 
-0.3806289 0.2846848 0.07810619 -0.7941239 0.5207056 0.3134214 
-0.3806289 0.2846848 -0.1988072 -0.7941238 0.5207057 -0.3134214 
0.008800994 0.1779555 0.435888 0.1001553 0.5529508 0.8271726 
-0.2319639 0.2373987 0.3021387 -0.5515093 0.4828379 0.6802244 
0.4874755 0.054499 0.1197829 0.9032469 0.4209344 0.08342193 
0.4188483 0.1306757 0.2433715 0.5853195 0.6912279 0.4237984 
0.3578186 0.1346524 -0.4698628 0.5555319 0.6305922 -0.5419759 
0.4874754 0.05449891 -0.2404838 0.8911266 0.4365266 -0.1238468 
-0.2319639 0.2373987 -0.4228397 -0.5515066 0.4828371 -0.680227 
0.008800979 0.1779545 -0.5565858 -0.02082415 0.5940593 -0.8041517 
-0.3561897 0.0885078 0.1636789 -0.808291 0.3369083 0.4828649 
0.1154892 0.002126035 0.5560842 0.1203665 0.1194149 0.9855212 
0.5055568 0.002165021 -0.06035051 0.7188264 -0.6951897 -5.30387e-08 
0.1154892 0.002125981 -0.6767852 0.02822413 -0.1566175 -0.987256 
-0.3561897 0.08850801 -0.2843798 -0.8083043 0.3408104 -0.4800965 
-0.2492879 0.002155622 0.4760765 -0.6207365 -0.4706552 0.6270326 
-0.5308804 0.002105373 -0.06035051 -0.9971143 -0.07550896 0.007838864 
0.1182751 0.002197035 0.1751039 -4.312544e-05 -1 -8.587518e-05 
0.1182751 0.002197015 -0.295805 -3.379602e-05 -1 8.689475e-05 
-0.3144564 0.00215558 -0.491913 -0.591438 -0.569988 -0.5703637 
3 0 1 3 
3 0 3 2 
3 2 3 5 
3 2 5 4 
3 4 5 7 
3 4 7 6 
3 6 7 9 
3 6 9 8 
3 8 9 11 
3 8 11 10 
3 10 11 13 
3 10 13 12 
3 7 5 16 
3 12 13 15 
3 12 15 14 
3 1 0 14 
3 1 14 15 
3 14 0 2 
3 2 4 6 
3 6 8 10 
3 10 12 14 
3 14 2 6 
3 6 10 14 
3 27 28 30 
3 27 30 29 
3 13 11 16 
3 9 7 16 
3 15 13 16 
3 5 3 16 
3 11 9 16 
3 1 15 16 
3 3 1 16 
3 25 26 28 
3 25 28 27 
3 17 24 26 
3 17 26 25 
3 19 18 24 
3 19 24 17 
3 21 20 18 
3 21 18 19 
3 23 22 20 
3 23 20 21 
3 24 18 33 
3 29 30 32 
3 29 32 31 
3 31 32 22 
3 31 22 23 
3 31 23 21 
3 21 19 17 
3 17 25 27 
3 27 29 31 
3 31 21 17 
3 17 27 31 
3 30 28 33 
3 26 24 33 
3 32 30 33 
3 18 20 33 
3 28 26 33 
3 22 32 33 
3 20 22 33 
3 44 45 47 
3 44 47 46 
3 42 43 45 
3 42 45 44 
3 34 41 43 
3 34 43 42 
3 36 35 41 
3 36 41 34 
3 38 37 35 
3 38 35 36 
3 40 39 37 
3 40 37 38 
3 41 35 50 
3 46 47 49 
3 46 49 48 
3 48 49 39 
3 48 39 40 
3 48 40 38 
3 38 36 34 
3 34 42 44 
3 44 46 48 
3 48 38 34 
3 34 44 48 
3 47 45 50 
3 43 41 50 
3 49 47 50 
3 35 37 50 
3 45 43 50 
3 39 49 50 
3 37 39 50 
3 61 62 64 
3 61 64 63 
3 59 60 62 
3 59 62 61 
3 51 58 60 
3 51 60 59 
3 53 52 58 
3 53 58 51 
3 55 54 52 
3 55 52 53 
3 57 56 54 
3 57 54 55 
3 58 52 67 
3 63 64 66 
3 63 66 65 
3 65 66 56 
3 65 56 57 
3 65 57 55 
3 55 53 51 
3 51 59 61 
3 61 63 65 
3 65 55 51 
3 51 61 65 
3 64 62 67 
3 60 58 67 
3 66 64 67 
3 52 54 67 
3 62 60 67 
3 56 66 67 
3 54 56 67 
3 78 79 81 
3 78 81 80 
3 76 77 79 
3 76 79 78 
3 68 75 77 
3 68 77 76 
3 70 69 75 
3 70 75 68 
3 72 71 69 
3 72 69 70 
3 74 73 71 
3 74 71 72 
3 75 69 84 
3 80 81 83 
3 80 83 82 
3 82 83 73 
3 82 73 74 
3 82 74 72 
3 72 70 68 
3 68 76 78 
3 78 80 82 
3 82 72 68 
3 68 78 82 
3 81 79 84 
3 77 75 84 
3 83 81 84 
3 69 71 84 
3 79 77 84 
3 73 83 84 
3 71 73 84 
3 95 96 98 
3 95 98 97 
3 93 94 96 
3 93 96 95 
3 85 92 94 
3 85 94 93 
3 87 86 92 
3 87 92 85 
3 89 88 86 
3 89 86 87 
3 91 90 88 
3 91 88 89 
3 92 86 101 
3 97 98 100 
3 97 100 99 
3 99 100 90 
3 99 90 91 
3 99 91 89 
3 89 87 85 
3 85 93 95 
3 95 97 99 
3 99 89 85 
3 85 95 99 
3 98 96 101 
3 94 92 101 
3 100 98 101 
3 86 88 101 
3 96 94 101 
3 90 100 101 
3 88 90 101 
3 112 113 115 
3 112 115 114 
3 110 111 113 
3 110 113 112 
3 102 109 111 
3 102 111 110 
3 104 103 109 
3 104 109 102 
3 106 105 103 
3 106 103 104 
3 108 107 105 
3 108 105 106 
3 109 103 118 
3 114 115 117 
3 114 117 116 
3 116 117 107 
3 116 107 108 
3 116 108 106 
3 106 104 102 
3 102 110 112 
3 112 114 116 
3 116 106 102 
3 102 112 116 
3 115 113 118 
3 111 109 118 
3 117 115 118 
3 103 105 118 
3 113 111 118 
3 107 117 118 
3 105 107 118 
3 129 130 132 
3 129 132 131 
3 127 128 130 
3 127 130 129 
3 119 126 128 
3 119 128 127 
3 121 120 126 
3 121 126 119 
3 123 122 120 
3 123 120 121 
3 125 124 122 
3 125 122 123 
3 126 120 135 
3 131 132 134 
3 131 134 133 
3 133 134 124 
3 133 124 125 
3 133 125 123 
3 123 121 119 
3 119 127 129 
3 129 131 133 
3 133 123 119 
3 119 129 133 
3 132 130 135 
3 128 126 135 
3 134 132 135 
3 120 122 135 
3 130 128 135 
3 124 134 135 
3 122 124 135 
3 146 147 149 
3 146 149 148 
3 144 145 147 
3 144 147 146 
3 136 143 145 
3 136 145 144 
3 138 137 143 
3 138 143 136 
3 140 139 137 
3 140 137 138 
3 142 141 139 
3 142 139 140 
3 143 137 152 
3 148 149 151 
3 148 151 150 
3 150 151 141 
3 150 141 142 
3 150 142 140 
3 140 138 136 
3 136 144 146 
3 146 148 150 
3 150 140 136 
3 136 146 150 
3 149 147 152 
3 145 143 152 
3 151 149 152 
3 137 139 152 
3 147 145 152 
3 141 151 152 
3 139 141 152 
3 163 164 166 
3 163 166 165 
3 161 162 164 
3 161 164 163 
3 153 160 162 
3 153 162 161 
3 155 154 160 
3 155 160 153 
3 157 156 154 
3 157 154 155 
3 159 158 156 
3 159 156 157 
3 160 154 169 
3 165 166 168 
3 165 168 167 
3 167 168 158 
3 167 158 159 
3 167 159 157 
3 157 155 153 
3 153 161 163 
3 163 165 167 
3 167 157 153 
3 153 163 167 
3 166 164 169 
3 162 160 169 
3 168 166 169 
3 154 156 169 
3 164 162 169 
3 158 168 169 
3 156 158 169 
3 180 181 183 
3 180 183 182 
3 178 179 181 
3 178 181 180 
3 170 177 179 
3 170 179 178 
3 172 171 177 
3 172 177 170 
3 174 173 171 
3 174 171 172 
3 176 175 173 
3 176 173 174 
3 177 171 186 
3 182 183 185 
3 182 185 184 
3 184 185 175 
3 184 175 176 
3 184 176 174 
3 174 172 170 
3 170 178 180 
3 180 182 184 
3 184 174 170 
3 170 180 184 
3 183 181 186 
3 179 177 186 
3 185 183 186 
3 171 173 186 
3 181 179 186 
3 175 185 186 
3 173 175 186 
3 197 198 200 
3 197 200 199 
3 195 196 198 
3 195 198 197 
3 187 194 196 
3 187 196 195 
3 189 188 194 
3 189 194 187 
3 191 190 188 
3 191 188 189 
3 193 192 190 
3 193 190 191 
3 194 188 203 
3 199 200 202 
3 199 202 201 
3 201 202 192 
3 201 192 193 
3 201 193 191 
3 191 189 187 
3 187 195 197 
3 197 199 201 
3 201 191 187 
3 187 197 201 
3 200 198 203 
3 196 194 203 
3 202 200 203 
3 188 190 203 
3 198 196 203 
3 192 202 203 
3 190 192 203 
3 217 215 204 
3 215 205 204 
3 209 211 204 
3 219 217 204 
3 205 207 204 
3 211 213 204 
3 207 209 204 
3 206 214 216 
3 216 218 220 
3 220 212 210 
3 210 208 206 
3 206 216 220 
3 220 210 206 
3 206 205 215 
3 206 215 214 
3 208 207 205 
3 208 205 206 
3 213 219 204 
3 214 215 217 
3 214 217 216 
3 216 217 219 
3 216 219 218 
3 218 219 213 
3 218 213 220 
3 220 213 211 
3 220 211 212 
3 212 211 209 
3 212 209 210 
3 210 209 207 
3 210 207 208 
3 221 234 233 
3 236 226 244 
3 236 244 243 
3 221 233 238 
3 221 238 240 
3 221 240 237 
3 222 236 243 
3 223 235 245 
3 234 237 236 
3 234 236 222 
3 227 258 254 
3 227 254 245 
3 226 242 251 
3 222 243 246 
3 235 222 246 
3 235 246 245 
3 239 248 247 
3 239 247 224 
3 226 251 244 
3 261 255 260 
3 261 260 232 
3 228 254 260 
3 229 255 261 
3 230 256 262 
3 231 257 259 
3 259 262 232 
3 259 257 262 
3 257 230 262 
3 262 261 232 
3 262 256 261 
3 256 229 261 
3 255 228 260 
3 260 258 232 
3 239 223 245 
3 239 245 248 
3 258 259 232 
3 253 231 259 
3 244 257 231 
3 246 243 253 
3 246 253 227 
3 252 256 230 
3 252 249 256 
3 249 229 256 
3 250 255 229 
3 247 228 255 
3 248 254 228 
3 248 245 254 
3 251 230 257 
3 251 257 244 
3 233 223 239 
3 233 239 238 
3 243 231 253 
3 251 252 230 
3 251 242 252 
3 242 225 252 
3 249 250 229 
3 249 241 250 
3 241 224 250 
3 247 248 228 
3 245 246 227 
3 249 252 225 
3 249 225 241 
3 243 244 231 
3 240 238 241 
3 240 241 225 
3 247 255 250 
3 247 250 224 
3 240 225 242 
3 253 259 258 
3 253 258 227 
3 238 224 241 
3 238 239 224 
3 237 240 242 
3 237 242 226 
3 236 237 226 
3 234 221 237 
3 233 235 223 
3 233 234 235 
3 234 222 235 
3 258 260 254 
