ply
format ascii 1.0
comment VCGLIB generated
element vertex 482
property float x
property float y
property float z
property float nx
property float ny
property float nz
element face 960
property list uchar int vertex_indices
end_header
0.4755286 -0.4904426 -0.1545079 2.074361 -0.1071673 -0.6739966 
0.474819 -0.4933837 -0.1542774 1.979669 -0.4210977 -0.6432295 
0.4468885 -0.4933837 -0.2277003 1.854969 -0.4204521 -0.9451533 
0.4475564 -0.4904426 -0.2280405 1.943366 -0.107334 -0.9901926 
0.4727596 -0.496037 -0.1536083 1.686201 -0.8012983 -0.547877 
0.4449503 -0.4960369 -0.2267127 1.581214 -0.7998595 -0.8056664 
0.4695521 -0.4981426 -0.1525661 1.228766 -1.103682 -0.3992487 
0.4419315 -0.4981426 -0.2251745 1.15521 -1.101608 -0.5886065 
0.4655105 -0.4994945 -0.1512529 0.6515354 -1.298844 -0.2116961 
0.4381276 -0.4994945 -0.2232364 0.6181089 -1.297047 -0.3149427 
0.4610303 -0.4999603 -0.1497972 0.1681488 -1.363145 -0.05463491 
0.4339108 -0.4999603 -0.2210878 0.1624299 -1.362862 -0.08276172 
0.4039054 -0.4933837 -0.2934533 1.684013 -0.4210846 -1.223505 
0.354653 -0.4933837 -0.3546517 1.472113 -0.420447 -1.472114 
0.355183 -0.4904426 -0.3551816 1.542264 -0.1073264 -1.542265 
0.4021536 -0.4960369 -0.2921807 1.434374 -0.8012907 -1.042135 
0.3531148 -0.4960369 -0.3531135 1.254856 -0.7998605 -1.254858 
0.3994252 -0.4981426 -0.2901983 1.045243 -1.103686 -0.7594126 
0.3507191 -0.4981426 -0.3507177 0.9167759 -1.10161 -0.9167772 
0.3959872 -0.4994945 -0.2877004 0.554222 -1.298846 -0.4026651 
0.3477003 -0.4994945 -0.3476989 0.4905328 -1.297047 -0.4905339 
0.3921761 -0.4999603 -0.2849316 0.1430382 -1.363145 -0.1039239 
0.3443539 -0.4999603 -0.3443525 0.1289075 -1.362862 -0.1289077 
0.2934547 -0.4933837 -0.4039041 1.223502 -0.4210964 -1.684007 
0.2277015 -0.4933837 -0.4468872 0.9451488 -0.4204583 -1.854968 
0.2280419 -0.4904426 -0.4475551 0.9901965 -0.1073452 -1.943363 
0.2921819 -0.4960369 -0.4021521 1.042129 -0.8012971 -1.434369 
0.2267141 -0.4960369 -0.444949 0.8056722 -0.7998561 -1.581216 
0.2901996 -0.4981426 -0.3994238 0.759422 -1.103678 -1.045257 
0.2251759 -0.4981426 -0.4419302 0.5886067 -1.101611 -1.155204 
0.2877017 -0.4994945 -0.3959856 0.4026593 -1.298848 -0.5542126 
0.2232376 -0.4994944 -0.4381263 0.3149398 -1.297048 -0.6181049 
0.2849328 -0.4999603 -0.3921747 0.1039239 -1.363145 -0.1430398 
0.2210892 -0.4999603 -0.4339095 0.08276449 -1.362862 -0.1624336 
0.1545093 -0.4904426 -0.4755274 0.6739998 -0.1071877 -2.074357 
0.1542787 -0.4933837 -0.4748176 0.6432312 -0.4211157 -1.979659 
0.07846127 -0.4933837 -0.4953783 0.3256767 -0.4204445 -2.056253 
0.1536096 -0.4960369 -0.4727583 0.5478841 -0.8012875 -1.686211 
0.078121 -0.4960369 -0.4932299 0.2776166 -0.7998469 -1.752803 
0.1525674 -0.4981426 -0.4695509 0.399255 -1.103674 -1.228781 
0.07759098 -0.4981426 -0.4898835 0.2028197 -1.101611 -1.280553 
0.1512542 -0.4994944 -0.4655093 0.2116963 -1.298844 -0.6515352 
0.07692312 -0.4994944 -0.4856668 0.10852 -1.297049 -0.6851683 
0.1497985 -0.4999603 -0.4610291 0.0546348 -1.363145 -0.168149 
0.07618279 -0.4999603 -0.4809924 0.02851825 -1.362862 -0.1800575 
1.015846e-06 -0.4933837 -0.4992529 -1.849348e-08 -0.4211028 -2.081544 
-0.07845923 -0.4933837 -0.4953783 -0.3256767 -0.4204599 -2.056245 
1.016597e-06 -0.4960369 -0.4970875 -3.45741e-07 -0.8012958 -1.772978 
-0.07811897 -0.4960369 -0.4932297 -0.2776176 -0.7998516 -1.752797 
1.017766e-06 -0.4981426 -0.493715 -4.743682e-07 -1.103678 -1.29201 
-0.07758895 -0.4981426 -0.4898835 -0.2028235 -1.101602 -1.280572 
1.01924e-06 -0.4994944 -0.4894653 -1.009624e-07 -1.298846 -0.685052 
-0.07692109 -0.4994944 -0.4856668 -0.1085201 -1.297049 -0.685168 
1.020874e-06 -0.4999603 -0.4847546 -1.581244e-07 -1.363145 -0.1768047 
-0.07618076 -0.4999603 -0.4809924 -0.02851825 -1.362862 -0.1800577 
-0.1542767 -0.4933837 -0.4748176 -0.6432341 -0.4210916 -1.979671 
-0.2276994 -0.4933837 -0.4468872 -0.9451491 -0.4204601 -1.854967 
-0.1536076 -0.4960369 -0.4727583 -0.5478775 -0.801302 -1.686196 
-0.226712 -0.4960369 -0.444949 -0.8056719 -0.7998558 -1.581216 
-0.1525654 -0.4981426 -0.4695507 -0.3992494 -1.103683 -1.228763 
-0.2251738 -0.4981426 -0.4419302 -0.5886077 -1.101608 -1.15521 
-0.1512522 -0.4994944 -0.4655092 -0.2116975 -1.298843 -0.651537 
-0.2232357 -0.4994944 -0.4381263 -0.3149433 -1.297047 -0.6181093 
-0.1497965 -0.4999603 -0.4610289 -0.05463443 -1.363145 -0.1681474 
-0.2210871 -0.4999603 -0.4339095 -0.0827627 -1.362862 -0.1624318 
-0.2934527 -0.4933837 -0.4039039 -1.223505 -0.4210983 -1.684004 
-0.3546508 -0.4933837 -0.3546515 -1.472114 -0.420449 -1.472112 
-0.3551807 -0.4904426 -0.3551815 -1.542265 -0.10733 -1.542263 
-0.2921798 -0.4960369 -0.4021521 -1.042139 -0.8012853 -1.434378 
-0.3531126 -0.4960369 -0.3531133 -1.254858 -0.7998596 -1.254857 
-0.2901976 -0.4981426 -0.3994238 -0.7594252 -1.103678 -1.045257 
-0.3507169 -0.4981426 -0.3507176 -0.9167788 -1.101609 -0.9167783 
-0.2876996 -0.4994945 -0.3959856 -0.4026593 -1.298848 -0.5542122 
-0.3476981 -0.4994945 -0.3476988 -0.4905329 -1.297048 -0.4905319 
-0.2849307 -0.4999603 -0.3921747 -0.1039242 -1.363145 -0.1430391 
-0.3443516 -0.4999603 -0.3443524 -0.128907 -1.362862 -0.1289071 
-0.4045067 -0.4904426 -0.2938918 -1.775768 -0.1071619 -1.26645 
-0.403899 -0.4933837 -0.2934585 -1.694784 -0.4209135 -1.208694 
-0.4454463 -0.4933837 -0.2273919 -1.854522 -0.4205335 -0.945939 
-0.4021353 -0.4960369 -0.2922006 -1.443796 -0.8009645 -1.029692 
-0.4435119 -0.4960369 -0.2264053 -1.580602 -0.800114 -0.8062216 
-0.3993883 -0.4981426 -0.2902414 -1.052598 -1.103285 -0.7506964 
-0.4404993 -0.4981426 -0.2248685 -1.153998 -1.102102 -0.5886179 
-0.3959267 -0.4994945 -0.2877727 -0.558916 -1.298548 -0.3986109 
-0.436703 -0.4994945 -0.2229322 -0.6157926 -1.297557 -0.3140984 
-0.3920895 -0.4999603 -0.285036 -0.1446516 -1.363101 -0.1031634 
-0.4324947 -0.4999603 -0.2207856 -0.1609461 -1.362947 -0.08209413 
0.4039051 -0.4933838 0.2934537 1.684016 -0.4210797 1.223505 
0.4468882 -0.4933838 0.2277005 1.854963 -0.4204674 0.9451472 
0.4475561 -0.4904426 0.2280409 1.943365 -0.1073443 0.9901932 
0.4021534 -0.496037 0.292181 1.434375 -0.8012909 1.042132 
0.44495 -0.496037 0.2267129 1.581217 -0.7998577 0.8056662 
0.3994249 -0.4981426 0.2901986 1.045247 -1.103684 0.7594151 
0.4419312 -0.4981426 0.2251748 1.155216 -1.101605 0.5886115 
0.3959868 -0.4994945 0.2877008 0.5542284 -1.298844 0.4026701 
0.4381273 -0.4994945 0.2232366 0.6181086 -1.297047 0.3149399 
0.3921757 -0.4999603 0.2849318 0.1430359 -1.363145 0.1039212 
0.4339105 -0.4999603 0.2210881 0.162432 -1.362862 0.08276329 
0.4748187 -0.4933838 0.1542774 1.979672 -0.4210921 0.6432317 
0.4953792 -0.4933838 0.07846024 2.05624 -0.4204694 0.3256791 
0.4961197 -0.4904426 0.0785775 2.154233 -0.107362 0.3412002 
0.4727593 -0.496037 0.1536083 1.686212 -0.8012874 0.5478821 
0.4932307 -0.496037 0.07811996 1.752798 -0.7998508 0.2776164 
0.469552 -0.4981426 0.1525662 1.228773 -1.103678 0.3992514 
0.4898843 -0.4981426 0.07758995 1.28055 -1.101612 0.2028206 
0.4655102 -0.4994945 0.1512529 0.6515254 -1.298846 0.2116929 
0.4856676 -0.4994945 0.07692209 0.6851765 -1.297048 0.1085214 
0.4610301 -0.4999603 0.1497972 0.1681536 -1.363145 0.0546359 
0.4809935 -0.4999603 0.07618178 0.1800629 -1.362862 0.02851888 
0.3921741 0.4999603 -0.2849317 0.1430545 1.363144 -0.1039351 
0.3959852 0.4994945 -0.2877007 0.554265 1.298834 -0.4026979 
0.3476984 0.4994945 -0.3476991 0.4905667 1.297038 -0.4905666 
0.344352 0.4999603 -0.3443527 0.1289244 1.362861 -0.1289245 
0.3994233 0.4981425 -0.2901984 1.045253 1.10368 -0.7594213 
0.3507172 0.4981425 -0.3507179 0.9167815 1.101607 -0.9167812 
0.4021517 0.4960369 -0.2921808 1.434361 0.8013047 -1.042125 
0.3531129 0.4960369 -0.3531137 1.254845 0.7998757 -1.254845 
0.4039035 0.4933838 -0.2934535 1.684001 0.4211096 -1.223499 
0.3546511 0.4933838 -0.3546519 1.472103 0.4204715 -1.472106 
0.4045072 0.4904428 -0.2938921 1.764553 0.1071852 -1.282025 
0.3551812 0.4904428 -0.3551818 1.542265 0.1073458 -1.542261 
0.284931 0.4999603 -0.3921748 0.1039355 1.363144 -0.1430549 
0.2876999 0.4994945 -0.395986 0.4026974 1.298834 -0.5542644 
0.2232358 0.4994945 -0.4381264 0.3149601 1.297039 -0.6181417 
0.2210872 0.4999603 -0.4339098 0.08277535 1.362861 -0.1624565 
0.2901977 0.4981425 -0.399424 0.7594201 1.103681 -1.045252 
0.2251739 0.4981425 -0.4419305 0.5886068 1.101608 -1.155212 
0.2921802 0.4960369 -0.4021525 1.042125 0.8013043 -1.434361 
0.2267121 0.4960369 -0.4449493 0.8056662 0.7998625 -1.581211 
0.2934528 0.4933838 -0.4039042 1.223498 0.4211092 -1.684002 
0.2276997 0.4933838 -0.4468874 0.9451556 0.420451 -1.854969 
0.1497966 0.4999603 -0.4610291 0.05464048 1.363144 -0.1681667 
0.1512524 0.4994945 -0.4655095 0.2117097 1.298835 -0.6515754 
0.07692128 0.4994945 -0.4856669 0.1085279 1.297039 -0.6852195 
0.07618095 0.4999603 -0.4809928 0.02852341 1.36286 -0.180089 
0.1525656 0.4981425 -0.4695511 0.3992572 1.103672 -1.228787 
0.07758914 0.4981425 -0.4898837 0.2028185 1.101612 -1.280552 
0.1536078 0.4960369 -0.4727585 0.5478728 0.8013168 -1.686179 
0.07811916 0.4960369 -0.49323 0.2776137 0.7998658 -1.752781 
0.1542769 0.4933838 -0.4748179 0.6432309 0.4211044 -1.979665 
0.07845944 0.4933838 -0.4953785 0.3256781 0.4204529 -2.056248 
0.1545075 0.4904428 -0.4755274 0.6740023 0.1071522 -2.074361 
0.07857669 0.4904428 -0.4961188 0.3411969 0.1073381 -2.154237 
-8.18511e-07 0.4999603 -0.4847547 -1.203828e-07 1.363144 -0.1768266 
-8.201448e-07 0.4994945 -0.4894655 2.89404e-08 1.298836 -0.6851022 
-0.07692292 0.4994945 -0.4856669 -0.1085281 1.29704 -0.6852152 
-0.0761826 0.4999603 -0.4809927 -0.02852256 1.362861 -0.1800837 
-8.216186e-07 0.4981425 -0.4937152 -3.649983e-07 1.103676 -1.292014 
-0.07759079 0.4981425 -0.4898837 -0.2028233 1.1016 -1.280577 
-8.227886e-07 0.4960369 -0.4970877 -1.248365e-06 0.8013102 -1.772962 
-0.07812079 0.4960369 -0.4932299 -0.2776133 0.799871 -1.752775 
-8.235397e-07 0.4933838 -0.499253 -5.574465e-07 0.4211058 -2.081542 
-0.07846107 0.4933838 -0.4953785 -0.3256765 0.4204746 -2.056237 
-0.1497983 0.4999603 -0.4610291 -0.05464211 1.363144 -0.1681714 
-0.151254 0.4994945 -0.4655093 -0.2117104 1.298834 -0.6515786 
-0.2232374 0.4994945 -0.4381264 -0.3149616 1.297038 -0.6181495 
-0.221089 0.4999603 -0.4339097 -0.08277487 1.362861 -0.1624542 
-0.1525673 0.4981425 -0.4695509 -0.3992527 1.103679 -1.22877 
-0.2251757 0.4981425 -0.4419303 -0.5886156 1.101602 -1.15522 
-0.1536094 0.4960369 -0.4727585 -0.5478745 0.8013133 -1.686183 
-0.2267137 0.4960369 -0.4449491 -0.8056601 0.7998729 -1.5812 
-0.1542785 0.4933838 -0.4748178 -0.6432315 0.4211069 -1.979664 
-0.2277013 0.4933838 -0.4468874 -0.9451512 0.420466 -1.854962 
-0.1545091 0.4904428 -0.4755274 -0.674001 0.1071695 -2.074359 
-0.2849326 0.4999603 -0.3921748 -0.1039374 1.363144 -0.1430574 
-0.2877014 0.4994945 -0.395986 -0.4026937 1.298836 -0.5542599 
-0.3477 0.4994945 -0.3476989 -0.4905666 1.297038 -0.4905653 
-0.3443536 0.4999603 -0.3443525 -0.1289252 1.362861 -0.1289247 
-0.2901993 0.4981425 -0.399424 -0.7594284 1.103674 -1.045263 
-0.3507188 0.4981425 -0.3507177 -0.9167827 1.101606 -0.9167808 
-0.2921818 0.4960369 -0.4021523 -1.042124 0.8013083 -1.434356 
-0.3531145 0.4960369 -0.3531135 -1.254846 0.7998745 -1.254845 
-0.2934544 0.4933838 -0.4039042 -1.223499 0.4211068 -1.684003 
-0.3546527 0.4933838 -0.3546517 -1.47211 0.4204577 -1.472109 
-0.3920914 0.4999603 -0.2850362 -0.1446757 1.363099 -0.1031804 
-0.3959284 0.4994945 -0.2877728 -0.5589569 1.298538 -0.3986391 
-0.4367048 0.4994945 -0.2229323 -0.615837 1.297547 -0.3141217 
-0.4324966 0.4999603 -0.2207858 -0.1609717 1.362945 -0.08210693 
-0.39939 0.4981425 -0.2902415 -1.052588 1.103291 -0.7506878 
-0.4405011 0.4981425 -0.2248687 -1.153983 1.102109 -0.5886127 
-0.4021372 0.4960369 -0.2922007 -1.443771 0.800992 -1.029672 
-0.4435139 0.4960369 -0.2264054 -1.580592 0.8001244 -0.8062134 
-0.403901 0.4933838 -0.2934586 -1.694782 0.4209189 -1.208691 
-0.4454481 0.4933838 -0.227392 -1.854527 0.4205241 -0.9459398 
0.3921738 0.4999603 0.2849317 0.1430509 1.363144 0.1039325 
0.3959851 0.4994945 0.2877007 0.5542723 1.298833 0.4027028 
0.4381256 0.4994945 0.2232364 0.6181502 1.297038 0.3149606 
0.4339088 0.4999603 0.2210879 0.1624543 1.362861 0.08277463 
0.3994229 0.4981425 0.2901984 1.045263 1.103675 0.7594278 
0.4419294 0.4981425 0.2251747 1.155212 1.101607 0.5886084 
0.4021514 0.4960369 0.2921809 1.434361 0.801305 1.042124 
0.4449482 0.4960369 0.2267129 1.581215 0.7998574 0.8056704 
0.4039032 0.4933838 0.2934535 1.684003 0.4211088 1.223497 
0.4468863 0.4933838 0.2277003 1.854976 0.4204368 0.9451567 
0.4045069 0.4904428 0.2938921 1.764557 0.1071822 1.282021 
0.4610282 0.4999603 0.1497971 0.1681717 1.363144 0.05464219 
0.4655084 0.4994945 0.1512528 0.6515832 1.298833 0.2117118 
0.4856659 0.4994945 0.07692192 0.6852185 1.297039 0.1085275 
0.4809916 0.4999603 0.0761816 0.1800819 1.362861 0.02852204 
0.46955 0.4981425 0.152566 1.228769 1.10368 0.3992499 
0.4898826 0.4981425 0.07758979 1.280574 1.101601 0.2028236 
0.4727576 0.4960369 0.1536082 1.686179 0.8013176 0.54787 
0.4932288 0.4960369 0.07811979 1.752776 0.7998702 0.2776129 
0.4748169 0.4933838 0.1542773 1.979667 0.4211002 0.6432317 
0.4953774 0.4933838 0.07846007 2.05624 0.4204687 0.3256758 
1.012008e-06 -0.4999603 2.74755e-07 3.10544e-15 -1.367618 -1.651773e-07 
-0.461065 -0.4999603 -0.1496611 -0.1685014 -1.363099 -0.05647453 
-0.4809916 -0.4999603 -0.07618146 -0.1800574 -1.362862 -0.02851861 
-0.4755265 -0.4904426 -0.1545079 -2.068049 -0.1071716 -0.6931205 
-0.4961177 -0.4904426 -0.0785772 -2.154237 -0.1073375 -0.3411967 
-0.4782271 -0.4999603 0.0757442 -0.1767744 -1.363034 0.02799807 
-0.4847401 -0.4999603 -0.0002753405 -0.17855 -1.363055 0.003225289 
-0.4999981 -0.4904426 2.759045e-07 -2.180754 -0.1071771 0.03939251 
-0.4933041 -0.4904426 0.07813216 -2.154256 -0.1071846 0.3412006 
-0.4339088 -0.4999603 0.2210883 -0.1624359 -1.362862 0.08276504 
-0.46093 -0.4999603 0.1500557 -0.1708001 -1.363055 0.05210492 
-0.4755265 -0.4904426 0.1545085 -2.086191 -0.107197 0.6364238 
-0.4475541 -0.4904426 0.228041 -1.943365 -0.1073309 0.9901969 
-0.4475559 0.4904428 0.2280409 -1.943365 0.1073356 0.9901943 
-0.3443516 -0.4999603 0.344353 -0.1289071 -1.362862 0.1289069 
-0.3921736 -0.4999603 0.2849318 -0.1430309 -1.363145 0.1039178 
-0.4045086 0.4904428 0.2938921 -1.764554 0.1071807 1.282025 
-0.3551807 -0.4904426 0.3551821 -1.542262 -0.1073442 1.542263 
-0.2210871 -0.4999603 0.43391 -0.08276545 -1.362862 0.1624364 
-0.2849307 -0.4999603 0.392175 -0.103921 -1.363145 0.1430349 
-0.2938911 -0.4904426 0.4045081 -1.282023 -0.1071833 1.764555 
-0.2280397 -0.4904426 0.4475554 -0.9901915 -0.107335 1.943367 
-0.07618076 -0.4999603 0.4809928 -0.02851853 -1.362862 0.1800592 
-0.1497965 -0.4999603 0.4610292 -0.05463492 -1.363145 0.1681489 
-0.1545091 0.4904428 0.4755273 -0.6739988 0.1071633 2.074361 
-0.1545072 -0.4904426 0.4755275 -0.6739989 -0.1071683 2.07436 
0.07618274 -0.4999603 0.4809928 0.02851843 -1.362862 0.1800594 
9.962499e-07 -0.4999603 0.4847547 1.028134e-07 -1.363145 0.1768041 
-8.431273e-07 0.4904428 0.4999989 -4.988779e-07 0.1071564 2.181113 
0.07857847 -0.4904426 0.4961187 0.3411963 -0.1073366 2.154237 
0.07857663 0.4904428 0.4961186 0.3411967 0.1073388 2.154237 
0.2210888 -0.4999603 0.4339098 0.082762 -1.362862 0.16243 
0.1497984 -0.4999603 0.4610292 0.054635 -1.363145 0.1681485 
0.2280416 -0.4904426 0.4475554 0.9901946 -0.107334 1.943365 
0.3443536 -0.4999603 0.3443528 0.1289069 -1.362862 0.128907 
0.2849324 -0.4999603 0.392175 0.103921 -1.363145 0.1430349 
0.2938929 -0.4904426 0.4045079 1.282026 -0.1071476 1.764558 
0.3551827 -0.4904426 0.3551819 1.542264 -0.1073289 1.542265 
0.4847555 -0.4999603 2.577015e-07 0.1767974 -1.363145 2.964017e-07 
0.4809937 -0.4999603 -0.07618149 0.1800594 -1.362862 -0.02851844 
-8.273772e-07 0.4999603 1.061593e-07 0 1.367618 0 
0.4809918 0.4999603 -0.07618166 0.1800838 1.362861 -0.02852223 
0.4610284 0.4999603 -0.1497974 0.1681717 1.363144 -0.05464188 
0.4961197 -0.4904426 -0.0785772 2.154238 -0.107336 -0.3411943 
0.4339091 0.4999603 -0.221088 0.1624519 1.362861 -0.08277315 
0.4045089 -0.4904426 -0.293892 1.764556 -0.1071629 -1.282025 
0.2938932 -0.4904426 -0.4045076 1.282025 -0.10715 -1.764558 
0.2938914 0.4904428 -0.4045079 1.282022 0.1071852 -1.764555 
0.22804 0.4904428 -0.4475552 0.9901922 0.107337 -1.943366 
1.015587e-06 -0.4904426 -0.499999 -1.097009e-07 -0.1071613 -2.181112 
-8.237985e-07 0.4904428 -0.4999991 7.835781e-08 0.1071628 -2.181112 
0.07857853 -0.4904426 -0.4961186 0.3411964 -0.107337 -2.154237 
-0.1545072 -0.4904426 -0.4755272 -0.6740006 -0.1071623 -2.074361 
-0.07857835 0.4904428 -0.4961188 -0.3411982 0.1073385 -2.154237 
-0.07857651 -0.4904426 -0.4961186 -0.3411984 -0.1073373 -2.154237 
-0.2938911 -0.4904426 -0.4045076 -1.282027 -0.1071646 -1.764555 
-0.293893 0.4904428 -0.4045078 -1.282027 0.1071628 -1.764555 
-0.2280416 0.4904428 -0.4475552 -0.9901935 0.1073359 -1.943366 
-0.2280398 -0.4904426 -0.4475551 -0.9901949 -0.1073454 -1.943364 
-0.4045086 0.4904428 -0.293892 -1.775769 0.1071566 -1.26645 
-0.3551827 0.4904428 -0.3551816 -1.542265 0.1073305 -1.542263 
-0.4610669 0.4999603 -0.1496613 -0.1685245 1.363098 -0.05648197 
-0.4461147 0.4904428 -0.227732 -1.942947 0.1072505 -0.9910384 
-0.4461129 -0.4904426 -0.2277318 -1.942946 -0.1072506 -0.9910407 
-0.4809935 0.4999603 -0.07618163 -0.1800871 1.36286 -0.02852296 
-0.4847419 0.4999603 -0.0002755091 -0.1785671 1.363054 0.003225597 
-0.4782289 0.4999603 0.07574403 -0.1767929 1.363033 0.02800129 
-0.4609319 0.4999603 0.1500555 -0.1708251 1.363054 0.05211266 
-0.4339105 0.4999603 0.2210881 -0.1624517 1.362861 0.08277351 
-0.3921756 0.4999603 0.2849317 -0.1430548 1.363144 0.1039354 
-0.3443536 0.4999603 0.3443528 -0.1289281 1.362861 0.1289275 
-0.2849324 0.4999603 0.3921748 -0.1039349 1.363144 0.1430544 
-0.2210888 0.4999603 0.4339097 -0.08277392 1.362861 0.1624536 
-0.1497983 0.4999603 0.4610291 -0.0546417 1.363144 0.1681702 
-0.0761826 0.4999603 0.4809926 -0.02852342 1.36286 0.1800889 
-8.431354e-07 0.4999603 0.4847546 2.242028e-07 1.363144 0.1768233 
0.07618091 0.4999603 0.4809926 0.02852302 1.36286 0.180089 
0.1497965 0.4999603 0.4610291 0.05464171 1.363144 0.1681696 
0.2210871 0.4999603 0.4339097 0.08277557 1.362861 0.1624556 
0.2849307 0.4999603 0.3921747 0.1039349 1.363144 0.1430537 
0.3443518 0.4999603 0.3443527 0.128928 1.36286 0.1289282 
0.4755282 -0.4904426 0.154508 2.074361 -0.1071621 0.6739993 
0.4755265 0.4904428 0.1545078 2.07436 0.1071636 0.6740007 
0.4475541 0.4904428 0.2280405 1.943367 0.1073315 0.9901926 
0.4847537 0.4999603 8.910568e-08 0.1768284 1.363144 3.377226e-07 
0.4999981 0.4904428 1.050097e-07 2.181112 0.1071637 2.896627e-06 
0.4961177 0.4904428 0.07857732 2.154237 0.1073392 0.3411974 
0.4045086 -0.4904426 0.2938923 1.764557 -0.1071614 1.282025 
0.4755267 0.4904428 -0.1545081 2.074361 0.107171 -0.6739964 
-0.4748187 -0.4933837 -0.1542707 -1.973737 -0.4209124 -0.6615108 
-0.4727646 -0.496037 -0.1535823 -1.681445 -0.800956 -0.5635486 
-0.4695652 -0.4981426 -0.15251 -1.225879 -1.103271 -0.410863 
-0.4655339 -0.4994945 -0.1511589 -0.6509821 -1.298533 -0.218181 
-0.4953774 -0.4933837 -0.07845995 -2.056245 -0.4204602 -0.3256765 
-0.4932288 -0.496037 -0.07811967 -1.752793 -0.7998552 -0.277615 
-0.4898826 -0.4981426 -0.07758964 -1.280569 -1.101604 -0.202821 
-0.4856659 -0.4994945 -0.07692179 -0.6851732 -1.297049 -0.1085209 
-0.4992514 -0.4933837 -1.321402e-05 -2.081378 -0.4207675 0.03759694 
-0.4970841 -0.496037 -5.236261e-05 -1.773417 -0.800666 0.03203413 
-0.4937086 -0.4981426 -0.0001133377 -1.293492 -1.102902 0.02336505 
-0.489455 -0.4994945 -0.0001901707 -0.6878489 -1.298245 0.01242489 
-0.4925663 -0.4933838 0.07801529 -2.056121 -0.4207015 0.3256584 
-0.4904247 -0.496037 0.07767609 -1.752006 -0.8005458 0.2774902 
-0.4870892 -0.4981426 0.0771478 -1.278127 -1.102739 0.2024352 
-0.4828862 -0.4994945 0.07648212 -0.6801402 -1.298109 0.1077233 
-0.474812 -0.4933838 0.1542906 -1.991121 -0.4207773 0.6074218 
-0.4727387 -0.496037 0.1536581 -1.696523 -0.8006621 0.5175503 
-0.4695095 -0.4981426 0.152673 -1.237412 -1.102899 0.3774923 
-0.4654406 -0.4994945 0.1514317 -0.6580353 -1.298243 0.2007437 
-0.4468863 -0.4933838 0.2277008 -1.854974 -0.4204389 0.94516 
-0.4449482 -0.496037 0.2267132 -1.581214 -0.7998591 0.8056675 
-0.4419293 -0.4981426 0.225175 -1.155195 -1.101616 0.5886009 
-0.4381254 -0.4994945 0.2232369 -0.6181118 -1.297046 0.314945 
-0.4039032 -0.4933838 0.2934537 -1.684007 -0.4210977 1.223501 
-0.4045067 -0.4904426 0.2938923 -1.764556 -0.1071625 1.282026 
-0.4021513 -0.496037 0.292181 -1.434369 -0.8012947 1.042132 
-0.3994229 -0.4981426 0.2901986 -1.045262 -1.103675 0.7594269 
-0.3959849 -0.4994945 0.2877008 -0.5542241 -1.298845 0.4026672 
-0.3546508 -0.4933838 0.354652 -1.472116 -0.4204485 1.47211 
-0.3531126 -0.496037 0.3531139 -1.254866 -0.7998487 1.254868 
-0.3507169 -0.4981426 0.3507182 -0.9167776 -1.101609 0.916777 
-0.3476981 -0.4994945 0.3476994 -0.4905331 -1.297048 0.4905328 
-0.2934525 -0.4933838 0.4039043 -1.223501 -0.4211005 1.684005 
-0.2921798 -0.496037 0.4021527 -1.042135 -0.8012893 1.434375 
-0.2901974 -0.4981426 0.3994241 -0.7594166 -1.103683 1.045248 
-0.2876996 -0.4994945 0.3959861 -0.4026697 -1.298844 0.5542277 
-0.2276994 -0.4933838 0.4468875 -0.9451559 -0.420443 1.854973 
-0.2267118 -0.496037 0.4449494 -0.8056752 -0.799841 1.581234 
-0.2251738 -0.4981426 0.4419307 -0.588609 -1.101608 1.155209 
-0.2232355 -0.4994945 0.4381266 -0.3149357 -1.29705 0.6180955 
-0.1542766 -0.4933838 0.4748179 -0.6432321 -0.4210975 1.979669 
-0.1536075 -0.496037 0.4727586 -0.547882 -0.8012879 1.686212 
-0.1525654 -0.4981426 0.4695512 -0.3992507 -1.103679 1.228772 
-0.1512521 -0.4994945 0.4655095 -0.2116919 -1.298846 0.6515213 
-0.07845923 -0.4933838 0.4953784 -0.3256781 -0.4204437 2.056253 
-0.07857648 -0.4904426 0.4961187 -0.3411959 -0.1073364 2.154237 
-0.07811894 -0.496037 0.49323 -0.2776157 -0.7998479 1.752802 
-0.07758892 -0.4981426 0.4898837 -0.2028201 -1.101606 1.280564 
-0.07692108 -0.4994945 0.485667 -0.1085215 -1.297046 0.6851843 
9.962575e-07 -0.4933838 0.499253 2.873911e-07 -0.42108 2.081556 
9.962579e-07 -0.4904426 0.4999991 1.605519e-07 -0.1071612 2.181112 
9.962564e-07 -0.496037 0.4970878 -2.680499e-07 -0.8012912 1.772984 
9.962547e-07 -0.4981426 0.4937152 -9.183038e-07 -1.103689 1.291985 
9.962524e-07 -0.4994945 0.4894655 -4.229754e-07 -1.298846 0.685052 
0.07846122 -0.4933838 0.4953784 0.3256781 -0.4204435 2.056253 
0.07812093 -0.496037 0.49323 0.2776166 -0.7998474 1.752802 
0.07759091 -0.4981426 0.4898837 0.202821 -1.101606 1.280563 
0.07692306 -0.4994945 0.485667 0.1085223 -1.297046 0.6851838 
0.1542786 -0.4933838 0.4748179 0.6432316 -0.4210984 1.979668 
0.1545092 -0.4904426 0.4755275 0.6739989 -0.1071682 2.07436 
0.1536095 -0.496037 0.4727586 0.5478834 -0.8012881 1.686211 
0.1525673 -0.4981426 0.4695512 0.3992518 -1.103679 1.228772 
0.1512541 -0.4994945 0.4655095 0.2116922 -1.298846 0.6515218 
0.2277013 -0.4933838 0.4468875 0.9451537 -0.4204577 1.854966 
0.2267137 -0.496037 0.4449493 0.8056688 -0.7998577 1.581216 
0.2251757 -0.4981426 0.4419305 0.588614 -1.101605 1.155215 
0.2232374 -0.4994945 0.4381266 0.3149403 -1.297048 0.6181058 
0.2934544 -0.4933838 0.4039043 1.223502 -0.4210964 1.684007 
0.2921816 -0.496037 0.4021524 1.04213 -0.8012961 1.434369 
0.2901993 -0.4981426 0.3994241 0.7594326 -1.103671 1.045268 
0.2877014 -0.4994945 0.3959861 0.4026639 -1.298846 0.5542197 
0.3546527 -0.4933838 0.354652 1.472112 -0.4204484 1.472114 
0.3531145 -0.496037 0.3531138 1.254856 -0.7998599 1.254859 
0.3507188 -0.4981426 0.350718 0.9167784 -1.101608 0.9167795 
0.3477 -0.4994945 0.3476992 0.4905325 -1.297048 0.4905328 
0.4894664 -0.4994945 2.630276e-07 0.6850509 -1.298846 1.30758e-06 
0.4937161 -0.4981426 2.679448e-07 1.292014 -1.103676 1.138483e-06 
0.4970885 -0.496037 2.71972e-07 1.772978 -0.801296 2.602296e-06 
0.4992539 -0.4933837 2.747147e-07 2.081543 -0.4211029 2.1928e-06 
0.5 -0.4904426 2.759045e-07 2.181112 -0.1071605 4.179084e-08 
0.4856679 -0.4994945 -0.07692182 0.6851841 -1.297046 -0.1085219 
0.4898845 -0.4981426 -0.07758966 1.280558 -1.101609 -0.2028186 
0.4932309 -0.496037 -0.07811967 1.752798 -0.7998513 -0.2776139 
0.4953794 -0.4933837 -0.07845995 2.056254 -0.4204434 -0.3256761 
0.4748171 0.4933838 -0.1542775 1.979665 0.4211066 -0.6432282 
0.4475546 0.4904428 -0.2280407 1.943367 0.1073369 -0.9901907 
0.4468868 0.4933838 -0.2277005 1.854963 0.4204664 -0.9451495 
0.4727577 0.4960369 -0.1536084 1.686196 0.801303 -0.5478744 
0.4449486 0.4960369 -0.2267129 1.581194 0.7998782 -0.8056582 
0.4695503 0.4981425 -0.1525663 1.228779 1.103676 -0.399251 
0.4419298 0.4981425 -0.2251747 1.155215 1.101606 -0.588609 
0.4655086 0.4994945 -0.1512531 0.6515667 1.298837 -0.2117058 
0.4381258 0.4994945 -0.2232366 0.6181502 1.297037 -0.3149635 
0.4953776 0.4933838 -0.07846012 2.056249 0.4204531 -0.3256738 
0.4961179 0.4904428 -0.07857738 2.154237 0.1073394 -0.3411945 
0.4932292 0.4960369 -0.07811984 1.752766 0.79988 -0.2776075 
0.4898826 0.4981425 -0.07758983 1.280542 1.101616 -0.202817 
0.485666 0.4994945 -0.07692198 0.6852347 1.297036 -0.1085284 
-0.4655358 0.4994945 -0.151159 -0.6510314 1.298522 -0.2181977 
-0.4695671 0.4981425 -0.1525102 -1.225904 1.103258 -0.4108706 
-0.4727663 0.4960369 -0.1535825 -1.68144 0.8009604 -0.5635469 
-0.4748205 0.4933838 -0.1542709 -1.973733 0.4209204 -0.6615108 
-0.4755282 0.4904428 -0.1545081 -2.068048 0.1071713 -0.6931229 
-0.4856676 0.4994945 -0.07692196 -0.6852228 1.297038 -0.108528 
-0.4898843 0.4981425 -0.07758982 -1.280556 1.10161 -0.2028184 
-0.4932307 0.4960369 -0.07811984 -1.752781 0.7998658 -0.2776124 
-0.4953792 0.4933838 -0.07846012 -2.056236 0.4204785 -0.3256756 
-0.4961197 0.4904428 -0.07857738 -2.154234 0.1073638 -0.3411966 
-0.489457 0.4994945 -0.0001903394 -0.6879092 1.298233 0.01242532 
-0.4937103 0.4981425 -0.0001135067 -1.293513 1.102893 0.02336405 
-0.4970858 0.4960369 -5.253215e-05 -1.7734 0.8006806 0.0320342 
-0.4992531 0.4933838 -1.338421e-05 -2.081363 0.4207956 0.03759737 
-0.5 0.4904428 1.050097e-07 -2.180752 0.1071974 0.03939203 
-0.4828881 0.4994945 0.07648195 -0.6801775 1.298101 0.10773 
-0.4870911 0.4981425 0.07714764 -1.278135 1.102735 0.2024366 
-0.4904266 0.4960369 0.07767593 -1.752011 0.8005417 0.2774889 
-0.492568 0.4933838 0.07801511 -2.056113 0.4207193 0.3256556 
-0.4933061 0.4904428 0.078132 -2.154253 0.1072109 0.341201 
-0.4654425 0.4994945 0.1514315 -0.6580951 1.29823 0.200761 
-0.4695113 0.4981425 0.1526729 -1.237408 1.1029 0.3774917 
-0.4727406 0.4960369 0.153658 -1.696495 0.8006871 0.5175438 
-0.4748139 0.4933838 0.1542905 -1.991126 0.4207673 0.6074247 
-0.4755282 0.4904428 0.1545084 -2.086193 0.1071794 0.6364273 
-0.4381273 0.4994945 0.2232367 -0.6181532 1.297037 0.3149666 
-0.4419312 0.4981425 0.2251748 -1.155217 1.101604 0.5886121 
-0.44495 0.4960369 0.226713 -1.581212 0.7998609 0.8056672 
-0.4468881 0.4933838 0.2277006 -1.85497 0.4204468 0.9451578 
-0.3959867 0.4994945 0.2877007 -0.554264 1.298835 0.4026971 
-0.3994247 0.4981425 0.2901984 -1.045254 1.10368 0.7594219 
-0.4021532 0.4960369 0.2921809 -1.43436 0.8013054 1.042125 
-0.4039049 0.4933838 0.2934535 -1.684002 0.4211086 1.223499 
-0.3476998 0.4994945 0.3476992 -0.490568 1.297037 0.4905681 
-0.3507186 0.4981425 0.350718 -0.9167808 1.101607 0.9167807 
-0.3531144 0.4960369 0.3531138 -1.254854 0.7998634 1.254856 
-0.3546526 0.4933838 0.3546518 -1.472112 0.4204572 1.472107 
-0.3551825 0.4904428 0.3551819 -1.54226 0.1073449 1.542265 
-0.2877014 0.4994945 0.3959859 -0.402691 1.298836 0.554258 
-0.2901993 0.4981425 0.399424 -0.7594252 1.103677 1.045259 
-0.2921816 0.4960369 0.4021524 -1.04212 0.8013096 1.434358 
-0.2934544 0.4933838 0.4039042 -1.223505 0.4210914 1.684008 
-0.2938929 0.4904428 0.4045078 -1.282027 0.1071497 1.764557 
-0.2232374 0.4994945 0.4381264 -0.3149649 1.297037 0.6181509 
-0.2251755 0.4981425 0.4419303 -0.5886097 1.101606 1.155214 
-0.2267137 0.4960369 0.4449491 -0.8056577 0.7998786 1.581194 
-0.2277013 0.4933838 0.4468874 -0.9451503 0.4204662 1.854963 
-0.2280416 0.4904428 0.4475552 -0.9901935 0.1073357 1.943366 
-0.151254 0.4994945 0.4655093 -0.2117056 1.298837 0.651565 
-0.1525672 0.4981425 0.4695511 -0.3992538 1.103676 1.228778 
-0.1536094 0.4960369 0.4727585 -0.5478778 0.8013027 1.686195 
-0.1542785 0.4933838 0.4748178 -0.6432309 0.4211007 1.979667 
-0.07692292 0.4994945 0.4856667 -0.1085279 1.297039 0.6852196 
-0.07759076 0.4981425 0.4898834 -0.2028173 1.101612 1.280552 
-0.07812078 0.4960369 0.4932299 -0.2776119 0.7998661 1.752781 
-0.07846106 0.4933838 0.4953783 -0.3256768 0.4204525 2.056249 
-0.07857832 0.4904428 0.4961186 -0.341196 0.1073384 2.154237 
-8.431328e-07 0.4994945 0.4894655 -3.970266e-07 1.298833 0.6851137 
-8.431305e-07 0.4981425 0.493715 -1.017992e-06 1.103671 1.292025 
-8.431288e-07 0.4960369 0.4970875 5.935007e-07 0.8013147 1.772956 
-8.431278e-07 0.4933838 0.4992529 5.075811e-07 0.421105 2.081542 
0.07692122 0.4994945 0.4856667 0.108528 1.297039 0.685219 
0.07758908 0.4981425 0.4898834 0.2028191 1.101611 1.280552 
0.07811909 0.4960369 0.4932299 0.2776116 0.7998655 1.752782 
0.07845937 0.4933838 0.4953783 0.3256758 0.4204528 2.056249 
0.1512523 0.4994945 0.4655093 0.2117065 1.298837 0.6515653 
0.1525655 0.4981425 0.4695511 0.3992532 1.103676 1.228778 
0.1536077 0.4960369 0.4727585 0.5478786 0.8013027 1.686195 
0.1542768 0.4933838 0.4748178 0.6432324 0.4211009 1.979667 
0.1545073 0.4904428 0.4755273 0.6739988 0.1071639 2.074361 
0.2232355 0.4994945 0.4381264 0.3149614 1.297038 0.6181464 
0.2251738 0.4981425 0.4419303 0.5886104 1.101608 1.155209 
0.226712 0.4960369 0.4449491 0.8056732 0.7998531 1.581219 
0.2276994 0.4933838 0.4468872 0.9451504 0.4204722 1.854959 
0.2280398 0.4904428 0.4475552 0.9901944 0.1073703 1.94336 
0.2876995 0.4994945 0.3959859 0.402698 1.298834 0.5542684 
0.2901974 0.4981425 0.3994238 0.7594225 1.103679 1.045255 
0.2921798 0.4960369 0.4021523 1.042122 0.8013087 1.434357 
0.2934525 0.4933838 0.4039041 1.223498 0.4211083 1.684003 
0.2938911 0.4904428 0.4045078 1.282024 0.1071806 1.764555 
0.3476981 0.4994945 0.3476991 0.490559 1.29704 0.490561 
0.350717 0.4981425 0.3507179 0.916786 1.101604 0.9167848 
0.3531126 0.4960369 0.3531137 1.25485 0.7998667 1.254854 
0.3546508 0.4933838 0.3546518 1.472102 0.4204713 1.472107 
0.3551809 0.4904428 0.3551818 1.542263 0.1073459 1.542263 
0.499252 0.4933838 1.045303e-07 2.081539 0.4211117 2.684199e-06 
0.4970866 0.4960369 1.024285e-07 1.772957 0.8013145 2.680155e-06 
0.4937141 0.4981425 9.890996e-08 1.292013 1.103676 1.514018e-06 
0.4894644 0.4994945 9.431927e-08 0.6851037 1.298836 3.26566e-07 
3 0 1 2 
3 2 3 0 
3 1 4 5 
3 5 2 1 
3 4 6 7 
3 7 5 4 
3 6 8 9 
3 9 7 6 
3 8 10 11 
3 11 9 8 
3 250 12 13 
3 13 14 250 
3 12 15 16 
3 16 13 12 
3 15 17 18 
3 18 16 15 
3 17 19 20 
3 20 18 17 
3 19 21 22 
3 22 20 19 
3 251 23 24 
3 24 25 251 
3 23 26 27 
3 27 24 23 
3 26 28 29 
3 29 27 26 
3 28 30 31 
3 31 29 28 
3 30 32 33 
3 33 31 30 
3 34 35 36 
3 36 256 34 
3 35 37 38 
3 38 36 35 
3 37 39 40 
3 40 38 37 
3 39 41 42 
3 42 40 39 
3 41 43 44 
3 44 42 41 
3 254 45 46 
3 46 259 254 
3 45 47 48 
3 48 46 45 
3 47 49 50 
3 50 48 47 
3 49 51 52 
3 52 50 49 
3 51 53 54 
3 54 52 51 
3 257 55 56 
3 56 263 257 
3 55 57 58 
3 58 56 55 
3 57 59 60 
3 60 58 57 
3 59 61 62 
3 62 60 59 
3 61 63 64 
3 64 62 61 
3 260 65 66 
3 66 67 260 
3 65 68 69 
3 69 66 65 
3 68 70 71 
3 71 69 68 
3 70 72 73 
3 73 71 70 
3 72 74 75 
3 75 73 72 
3 76 77 78 
3 78 268 76 
3 77 79 80 
3 80 78 77 
3 79 81 82 
3 82 80 79 
3 81 83 84 
3 84 82 81 
3 83 85 86 
3 86 84 83 
3 292 87 88 
3 88 89 292 
3 87 90 91 
3 91 88 87 
3 90 92 93 
3 93 91 90 
3 92 94 95 
3 95 93 92 
3 94 96 97 
3 97 95 94 
3 286 98 99 
3 99 100 286 
3 98 101 102 
3 102 99 98 
3 101 103 104 
3 104 102 101 
3 103 105 106 
3 106 104 103 
3 105 107 108 
3 108 106 105 
3 109 110 111 
3 111 112 109 
3 110 113 114 
3 114 111 110 
3 113 115 116 
3 116 114 113 
3 115 117 118 
3 118 116 115 
3 117 119 120 
3 120 118 117 
3 121 122 123 
3 123 124 121 
3 122 125 126 
3 126 123 122 
3 125 127 128 
3 128 126 125 
3 127 129 130 
3 130 128 127 
3 129 252 253 
3 253 130 129 
3 131 132 133 
3 133 134 131 
3 132 135 136 
3 136 133 132 
3 135 137 138 
3 138 136 135 
3 137 139 140 
3 140 138 137 
3 139 141 142 
3 142 140 139 
3 143 144 145 
3 145 146 143 
3 144 147 148 
3 148 145 144 
3 147 149 150 
3 150 148 147 
3 149 151 152 
3 152 150 149 
3 151 255 258 
3 258 152 151 
3 153 154 155 
3 155 156 153 
3 154 157 158 
3 158 155 154 
3 157 159 160 
3 160 158 157 
3 159 161 162 
3 162 160 159 
3 161 163 262 
3 262 162 161 
3 164 165 166 
3 166 167 164 
3 165 168 169 
3 169 166 165 
3 168 170 171 
3 171 169 168 
3 170 172 173 
3 173 171 170 
3 172 261 265 
3 265 173 172 
3 174 175 176 
3 176 177 174 
3 175 178 179 
3 179 176 175 
3 178 180 181 
3 181 179 178 
3 180 182 183 
3 183 181 180 
3 182 264 267 
3 267 183 182 
3 184 185 186 
3 186 187 184 
3 185 188 189 
3 189 186 185 
3 188 190 191 
3 191 189 188 
3 190 192 193 
3 193 191 190 
3 192 194 288 
3 288 193 192 
3 195 196 197 
3 197 198 195 
3 196 199 200 
3 200 197 196 
3 199 201 202 
3 202 200 199 
3 201 203 204 
3 204 202 201 
3 203 287 291 
3 291 204 203 
3 205 21 11 
3 205 32 22 
3 205 43 33 
3 205 53 44 
3 205 63 54 
3 205 74 64 
3 205 85 75 
3 205 206 86 
3 205 207 206 
3 208 209 402 
3 402 397 208 
3 205 210 211 
3 407 212 213 
3 213 412 407 
3 205 214 215 
3 417 216 217 
3 217 218 417 
3 205 219 220 
3 221 319 222 
3 222 430 221 
3 205 223 224 
3 435 225 226 
3 226 440 435 
3 205 227 228 
3 229 230 340 
3 340 449 229 
3 205 231 232 
3 233 345 234 
3 234 235 233 
3 205 236 237 
3 462 354 238 
3 238 467 462 
3 205 239 240 
3 472 241 242 
3 242 477 472 
3 205 107 97 
3 205 243 108 
3 205 10 244 
3 245 246 247 
3 293 389 248 
3 248 0 293 
3 109 245 249 
3 250 119 380 
3 380 3 250 
3 121 245 112 
3 251 252 120 
3 120 14 251 
3 131 245 124 
3 34 141 253 
3 253 25 34 
3 143 245 134 
3 254 255 142 
3 142 256 254 
3 153 245 146 
3 257 163 258 
3 258 259 257 
3 164 245 156 
3 260 261 262 
3 262 263 260 
3 174 245 167 
3 76 264 265 
3 265 67 76 
3 266 245 177 
3 208 397 267 
3 267 268 208 
3 245 266 269 
3 245 270 271 
3 245 272 273 
3 245 274 275 
3 245 276 277 
3 245 278 279 
3 245 280 281 
3 245 282 283 
3 245 284 285 
3 195 245 187 
3 286 287 288 
3 288 89 286 
3 245 198 289 
3 290 291 100 
3 100 374 290 
3 205 211 207 
3 407 402 209 
3 209 212 407 
3 270 245 269 
3 205 215 210 
3 417 412 213 
3 213 216 417 
3 272 245 271 
3 205 220 214 
3 221 218 217 
3 217 319 221 
3 274 245 273 
3 205 224 219 
3 435 430 222 
3 222 225 435 
3 276 245 275 
3 205 228 223 
3 229 440 226 
3 226 230 229 
3 278 245 277 
3 205 232 227 
3 233 449 340 
3 340 345 233 
3 280 245 279 
3 205 237 231 
3 462 235 234 
3 234 354 462 
3 282 245 281 
3 205 240 236 
3 472 467 238 
3 238 241 472 
3 284 245 283 
3 205 96 239 
3 194 477 242 
3 242 292 194 
3 184 245 285 
3 245 184 187 
3 194 292 89 
3 89 288 194 
3 97 96 205 
3 245 195 198 
3 287 286 100 
3 100 291 287 
3 108 107 205 
3 245 289 246 
3 290 374 248 
3 248 389 290 
3 243 205 244 
3 245 247 249 
3 293 0 3 
3 3 380 293 
3 11 10 205 
3 245 109 112 
3 119 250 14 
3 14 120 119 
3 22 21 205 
3 245 121 124 
3 252 251 25 
3 25 253 252 
3 33 32 205 
3 245 131 134 
3 141 34 256 
3 256 142 141 
3 44 43 205 
3 245 143 146 
3 255 254 259 
3 259 258 255 
3 54 53 205 
3 245 153 156 
3 163 257 263 
3 263 262 163 
3 64 63 205 
3 245 164 167 
3 261 260 67 
3 67 265 261 
3 75 74 205 
3 245 174 177 
3 264 76 268 
3 268 267 264 
3 86 85 205 
3 3 2 12 
3 12 250 3 
3 2 5 15 
3 15 12 2 
3 5 7 17 
3 17 15 5 
3 7 9 19 
3 19 17 7 
3 9 11 21 
3 21 19 9 
3 14 13 23 
3 23 251 14 
3 13 16 26 
3 26 23 13 
3 16 18 28 
3 28 26 16 
3 18 20 30 
3 30 28 18 
3 20 22 32 
3 32 30 20 
3 25 24 35 
3 35 34 25 
3 24 27 37 
3 37 35 24 
3 27 29 39 
3 39 37 27 
3 29 31 41 
3 41 39 29 
3 31 33 43 
3 43 41 31 
3 256 36 45 
3 45 254 256 
3 36 38 47 
3 47 45 36 
3 38 40 49 
3 49 47 38 
3 40 42 51 
3 51 49 40 
3 42 44 53 
3 53 51 42 
3 259 46 55 
3 55 257 259 
3 46 48 57 
3 57 55 46 
3 48 50 59 
3 59 57 48 
3 50 52 61 
3 61 59 50 
3 52 54 63 
3 63 61 52 
3 263 56 65 
3 65 260 263 
3 56 58 68 
3 68 65 56 
3 58 60 70 
3 70 68 58 
3 60 62 72 
3 72 70 60 
3 62 64 74 
3 74 72 62 
3 67 66 77 
3 77 76 67 
3 66 69 79 
3 79 77 66 
3 69 71 81 
3 81 79 69 
3 71 73 83 
3 83 81 71 
3 73 75 85 
3 85 83 73 
3 268 78 294 
3 294 208 268 
3 78 80 295 
3 295 294 78 
3 80 82 296 
3 296 295 80 
3 82 84 297 
3 297 296 82 
3 84 86 206 
3 206 297 84 
3 208 294 298 
3 298 209 208 
3 294 295 299 
3 299 298 294 
3 295 296 300 
3 300 299 295 
3 296 297 301 
3 301 300 296 
3 297 206 207 
3 207 301 297 
3 209 298 302 
3 302 212 209 
3 298 299 303 
3 303 302 298 
3 299 300 304 
3 304 303 299 
3 300 301 305 
3 305 304 300 
3 301 207 211 
3 211 305 301 
3 212 302 306 
3 306 213 212 
3 302 303 307 
3 307 306 302 
3 303 304 308 
3 308 307 303 
3 304 305 309 
3 309 308 304 
3 305 211 210 
3 210 309 305 
3 213 306 310 
3 310 216 213 
3 306 307 311 
3 311 310 306 
3 307 308 312 
3 312 311 307 
3 308 309 313 
3 313 312 308 
3 309 210 215 
3 215 313 309 
3 216 310 314 
3 314 217 216 
3 310 311 315 
3 315 314 310 
3 311 312 316 
3 316 315 311 
3 312 313 317 
3 317 316 312 
3 313 215 214 
3 214 317 313 
3 217 314 318 
3 318 319 217 
3 314 315 320 
3 320 318 314 
3 315 316 321 
3 321 320 315 
3 316 317 322 
3 322 321 316 
3 317 214 220 
3 220 322 317 
3 319 318 323 
3 323 222 319 
3 318 320 324 
3 324 323 318 
3 320 321 325 
3 325 324 320 
3 321 322 326 
3 326 325 321 
3 322 220 219 
3 219 326 322 
3 222 323 327 
3 327 225 222 
3 323 324 328 
3 328 327 323 
3 324 325 329 
3 329 328 324 
3 325 326 330 
3 330 329 325 
3 326 219 224 
3 224 330 326 
3 225 327 331 
3 331 226 225 
3 327 328 332 
3 332 331 327 
3 328 329 333 
3 333 332 328 
3 329 330 334 
3 334 333 329 
3 330 224 223 
3 223 334 330 
3 226 331 335 
3 335 230 226 
3 331 332 336 
3 336 335 331 
3 332 333 337 
3 337 336 332 
3 333 334 338 
3 338 337 333 
3 334 223 228 
3 228 338 334 
3 230 335 339 
3 339 340 230 
3 335 336 341 
3 341 339 335 
3 336 337 342 
3 342 341 336 
3 337 338 343 
3 343 342 337 
3 338 228 227 
3 227 343 338 
3 340 339 344 
3 344 345 340 
3 339 341 346 
3 346 344 339 
3 341 342 347 
3 347 346 341 
3 342 343 348 
3 348 347 342 
3 343 227 232 
3 232 348 343 
3 345 344 349 
3 349 234 345 
3 344 346 350 
3 350 349 344 
3 346 347 351 
3 351 350 346 
3 347 348 352 
3 352 351 347 
3 348 232 231 
3 231 352 348 
3 234 349 353 
3 353 354 234 
3 349 350 355 
3 355 353 349 
3 350 351 356 
3 356 355 350 
3 351 352 357 
3 357 356 351 
3 352 231 237 
3 237 357 352 
3 354 353 358 
3 358 238 354 
3 353 355 359 
3 359 358 353 
3 355 356 360 
3 360 359 355 
3 356 357 361 
3 361 360 356 
3 357 237 236 
3 236 361 357 
3 238 358 362 
3 362 241 238 
3 358 359 363 
3 363 362 358 
3 359 360 364 
3 364 363 359 
3 360 361 365 
3 365 364 360 
3 361 236 240 
3 240 365 361 
3 241 362 366 
3 366 242 241 
3 362 363 367 
3 367 366 362 
3 363 364 368 
3 368 367 363 
3 364 365 369 
3 369 368 364 
3 365 240 239 
3 239 369 365 
3 242 366 87 
3 87 292 242 
3 366 367 90 
3 90 87 366 
3 367 368 92 
3 92 90 367 
3 368 369 94 
3 94 92 368 
3 369 239 96 
3 96 94 369 
3 89 88 98 
3 98 286 89 
3 88 91 101 
3 101 98 88 
3 91 93 103 
3 103 101 91 
3 93 95 105 
3 105 103 93 
3 95 97 107 
3 107 105 95 
3 106 108 243 
3 243 370 106 
3 104 106 370 
3 370 371 104 
3 102 104 371 
3 371 372 102 
3 100 99 373 
3 373 374 100 
3 99 102 372 
3 372 373 99 
3 10 8 375 
3 375 244 10 
3 8 6 376 
3 376 375 8 
3 6 4 377 
3 377 376 6 
3 4 1 378 
3 378 377 4 
3 1 0 248 
3 248 378 1 
3 379 293 380 
3 380 381 379 
3 382 379 381 
3 381 383 382 
3 384 382 383 
3 383 385 384 
3 247 386 387 
3 387 249 247 
3 386 384 385 
3 385 387 386 
3 293 379 388 
3 388 389 293 
3 379 382 390 
3 390 388 379 
3 382 384 391 
3 391 390 382 
3 384 386 392 
3 392 391 384 
3 386 247 246 
3 246 392 386 
3 249 387 110 
3 110 109 249 
3 387 385 113 
3 113 110 387 
3 385 383 115 
3 115 113 385 
3 383 381 117 
3 117 115 383 
3 381 380 119 
3 119 117 381 
3 112 111 122 
3 122 121 112 
3 111 114 125 
3 125 122 111 
3 114 116 127 
3 127 125 114 
3 116 118 129 
3 129 127 116 
3 118 120 252 
3 252 129 118 
3 124 123 132 
3 132 131 124 
3 123 126 135 
3 135 132 123 
3 126 128 137 
3 137 135 126 
3 128 130 139 
3 139 137 128 
3 130 253 141 
3 141 139 130 
3 134 133 144 
3 144 143 134 
3 133 136 147 
3 147 144 133 
3 136 138 149 
3 149 147 136 
3 138 140 151 
3 151 149 138 
3 140 142 255 
3 255 151 140 
3 146 145 154 
3 154 153 146 
3 145 148 157 
3 157 154 145 
3 148 150 159 
3 159 157 148 
3 150 152 161 
3 161 159 150 
3 152 258 163 
3 163 161 152 
3 156 155 165 
3 165 164 156 
3 155 158 168 
3 168 165 155 
3 158 160 170 
3 170 168 158 
3 160 162 172 
3 172 170 160 
3 162 262 261 
3 261 172 162 
3 167 166 175 
3 175 174 167 
3 166 169 178 
3 178 175 166 
3 169 171 180 
3 180 178 169 
3 171 173 182 
3 182 180 171 
3 173 265 264 
3 264 182 173 
3 177 176 393 
3 393 266 177 
3 176 179 394 
3 394 393 176 
3 179 181 395 
3 395 394 179 
3 181 183 396 
3 396 395 181 
3 183 267 397 
3 397 396 183 
3 266 393 398 
3 398 269 266 
3 393 394 399 
3 399 398 393 
3 394 395 400 
3 400 399 394 
3 395 396 401 
3 401 400 395 
3 396 397 402 
3 402 401 396 
3 269 398 403 
3 403 270 269 
3 398 399 404 
3 404 403 398 
3 399 400 405 
3 405 404 399 
3 400 401 406 
3 406 405 400 
3 401 402 407 
3 407 406 401 
3 270 403 408 
3 408 271 270 
3 403 404 409 
3 409 408 403 
3 404 405 410 
3 410 409 404 
3 405 406 411 
3 411 410 405 
3 406 407 412 
3 412 411 406 
3 271 408 413 
3 413 272 271 
3 408 409 414 
3 414 413 408 
3 409 410 415 
3 415 414 409 
3 410 411 416 
3 416 415 410 
3 411 412 417 
3 417 416 411 
3 272 413 418 
3 418 273 272 
3 413 414 419 
3 419 418 413 
3 414 415 420 
3 420 419 414 
3 415 416 421 
3 421 420 415 
3 416 417 218 
3 218 421 416 
3 273 418 422 
3 422 274 273 
3 418 419 423 
3 423 422 418 
3 419 420 424 
3 424 423 419 
3 420 421 425 
3 425 424 420 
3 421 218 221 
3 221 425 421 
3 274 422 426 
3 426 275 274 
3 422 423 427 
3 427 426 422 
3 423 424 428 
3 428 427 423 
3 424 425 429 
3 429 428 424 
3 425 221 430 
3 430 429 425 
3 275 426 431 
3 431 276 275 
3 426 427 432 
3 432 431 426 
3 427 428 433 
3 433 432 427 
3 428 429 434 
3 434 433 428 
3 429 430 435 
3 435 434 429 
3 276 431 436 
3 436 277 276 
3 431 432 437 
3 437 436 431 
3 432 433 438 
3 438 437 432 
3 433 434 439 
3 439 438 433 
3 434 435 440 
3 440 439 434 
3 277 436 441 
3 441 278 277 
3 436 437 442 
3 442 441 436 
3 437 438 443 
3 443 442 437 
3 438 439 444 
3 444 443 438 
3 439 440 229 
3 229 444 439 
3 278 441 445 
3 445 279 278 
3 441 442 446 
3 446 445 441 
3 442 443 447 
3 447 446 442 
3 443 444 448 
3 448 447 443 
3 444 229 449 
3 449 448 444 
3 279 445 450 
3 450 280 279 
3 445 446 451 
3 451 450 445 
3 446 447 452 
3 452 451 446 
3 447 448 453 
3 453 452 447 
3 448 449 233 
3 233 453 448 
3 280 450 454 
3 454 281 280 
3 450 451 455 
3 455 454 450 
3 451 452 456 
3 456 455 451 
3 452 453 457 
3 457 456 452 
3 453 233 235 
3 235 457 453 
3 281 454 458 
3 458 282 281 
3 454 455 459 
3 459 458 454 
3 455 456 460 
3 460 459 455 
3 456 457 461 
3 461 460 456 
3 457 235 462 
3 462 461 457 
3 282 458 463 
3 463 283 282 
3 458 459 464 
3 464 463 458 
3 459 460 465 
3 465 464 459 
3 460 461 466 
3 466 465 460 
3 461 462 467 
3 467 466 461 
3 283 463 468 
3 468 284 283 
3 463 464 469 
3 469 468 463 
3 464 465 470 
3 470 469 464 
3 465 466 471 
3 471 470 465 
3 466 467 472 
3 472 471 466 
3 284 468 473 
3 473 285 284 
3 468 469 474 
3 474 473 468 
3 469 470 475 
3 475 474 469 
3 470 471 476 
3 476 475 470 
3 471 472 477 
3 477 476 471 
3 285 473 185 
3 185 184 285 
3 473 474 188 
3 188 185 473 
3 474 475 190 
3 190 188 474 
3 475 476 192 
3 192 190 475 
3 476 477 194 
3 194 192 476 
3 187 186 196 
3 196 195 187 
3 186 189 199 
3 199 196 186 
3 189 191 201 
3 201 199 189 
3 191 193 203 
3 203 201 191 
3 193 288 287 
3 287 203 193 
3 204 291 290 
3 290 478 204 
3 202 204 478 
3 478 479 202 
3 200 202 479 
3 479 480 200 
3 198 197 481 
3 481 289 198 
3 197 200 480 
3 480 481 197 
3 389 388 478 
3 478 290 389 
3 388 390 479 
3 479 478 388 
3 390 391 480 
3 480 479 390 
3 391 392 481 
3 481 480 391 
3 392 246 289 
3 289 481 392 
3 244 375 370 
3 370 243 244 
3 375 376 371 
3 371 370 375 
3 376 377 372 
3 372 371 376 
3 377 378 373 
3 373 372 377 
3 378 248 374 
3 374 373 378 
