ply
format ascii 1.0
comment VCGLIB generated
element vertex 37
property float x
property float y
property float z
property float nx
property float ny
property float nz
element face 58
property list uchar int vertex_indices
end_header
0.02918099 0.1782636 -0.2919765 0.08862091 -0.4238184 -0.9014013 
0.001035549 0.6810498 -0.006213331 0.003528929 0.9999887 -0.003208823 
0.243046 0.178318 -0.1679195 0.7641703 -0.4148113 -0.4939386 
0.2698961 0.1784163 0.1051524 0.85018 -0.4164311 0.3221479 
0.1097462 0.1782314 0.2562374 0.3572296 -0.4372281 0.8253597 
-0.08231538 0.1782856 0.2685575 -0.2616467 -0.4331129 0.8625278 
-0.2351545 0.1782539 0.1516036 -0.7377493 -0.4424421 0.5098736 
-0.2830416 0.1782262 -0.006213603 -0.8976011 -0.4398989 -0.02830738 
-0.2047327 0.1784393 -0.211982 -0.632147 -0.4188652 -0.6518759 
-0.1045549 0.4105446 -0.2661842 -0.3556 -0.3643067 -0.8607144 
0.001035552 0.7739488 -0.006213354 0.001833635 0.9999977 -0.001179826 
0.1330453 0.410473 -0.2511062 0.4384281 -0.3698771 -0.8191287 
0.2775753 0.4105651 -0.06192351 0.9170685 -0.3614083 -0.1684323 
0.2008571 0.4106112 0.1909098 0.6784219 -0.3642246 0.6380314 
0.002699817 0.410426 0.2663117 0.01524991 -0.3850631 0.9227642 
-0.1727113 0.4104854 0.2064916 -0.5750585 -0.3831083 0.7228664 
-0.2570436 0.4104182 0.07154473 -0.8774058 -0.399282 0.2659567 
-0.2618921 0.4104935 -0.08751082 -0.8724764 -0.3784767 -0.3090962 
0.04121434 0.6155598 -0.2157536 0.1759969 -0.4236272 -0.8885748 
0.001035554 0.9989779 -0.006213399 0.005932404 0.9999822 -0.0005843886 
0.1855194 0.6155214 -0.10549 0.7880191 -0.4332069 -0.4374445 
0.20134 0.6155266 0.05516356 0.8582184 -0.4331862 0.2753377 
0.08131599 0.6155874 0.1914487 0.3459848 -0.4234883 0.8372288 
-0.09992213 0.6155266 0.1799503 -0.4002707 -0.4339361 0.8071449 
-0.1932842 0.615482 0.07379272 -0.8206856 -0.4477884 0.3549094 
-0.2051483 0.6155033 -0.04677077 -0.874198 -0.4476699 -0.1880677 
-0.1343007 0.6155265 -0.1691047 -0.5501244 -0.4339125 -0.7135006 
0.009287994 -0.0009717222 -0.09430181 0.05287931 -0.5665028 -0.8223614 
0 0.5544459 -4.524892e-08 -0.0004260541 0.9999999 -0.0004043607 
0.06628679 -0.0009981218 -0.06628673 0.554967 -0.583457 -0.59295 
0.0890119 -0.001022169 -0.02700143 0.7800693 -0.5900093 -0.2082811 
0.08872398 -0.0008205927 0.03675071 0.7602652 -0.5598285 0.3295282 
0.0358745 -0.001003659 0.08660877 0.3257064 -0.5747696 0.7507032 
-0.02750581 -0.0009500058 0.0906744 -0.2382741 -0.5712316 0.7854425 
-0.07794271 -0.0009813992 0.05207961 -0.6693987 -0.5803865 0.4637423 
-0.09374547 -0.001008805 -7.132619e-08 -0.8157167 -0.5777893 -0.02767157 
-0.06790352 -0.0007978145 -0.06790365 -0.5776379 -0.5562378 -0.5974396 
3 0 1 2 
3 2 1 3 
3 3 1 4 
3 4 1 5 
3 5 1 6 
3 6 1 7 
3 7 1 8 
3 8 1 0 
3 9 10 11 
3 11 10 12 
3 12 10 13 
3 13 10 14 
3 14 10 15 
3 15 10 16 
3 16 10 17 
3 17 10 9 
3 18 19 20 
3 20 19 21 
3 21 19 22 
3 22 19 23 
3 23 19 24 
3 24 19 25 
3 25 19 26 
3 26 19 18 
3 2 3 4 
3 2 4 5 
3 2 5 6 
3 2 6 7 
3 2 7 8 
3 2 8 0 
3 16 17 9 
3 16 9 11 
3 16 11 12 
3 16 12 13 
3 16 13 14 
3 16 14 15 
3 24 25 26 
3 24 26 18 
3 24 18 20 
3 24 20 21 
3 24 21 22 
3 24 22 23 
3 27 28 29 
3 29 28 30 
3 30 28 31 
3 31 28 32 
3 32 28 33 
3 33 28 34 
3 34 28 35 
3 35 28 36 
3 36 28 27 
3 30 31 32 
3 30 32 33 
3 30 33 34 
3 30 34 35 
3 30 35 36 
3 30 36 27 
3 30 27 29 
