ply
format ascii 1.0
comment VCGLIB generated
comment TextureFile plane_xyzn_uv.png
element vertex 100
property float x
property float y
property float z
property float nx
property float ny
property float nz
property float texture_u
property float texture_v
element face 162
property list uchar int vertex_indices
end_header
999.9998 -0.000218557 1000 8.742276e-08 1 1.311342e-07 1.000000 0.000000
777.7776 -0.0001991297 1000 8.74228e-08 1 1.311342e-07 0.888889 0.044445
555.5554 -0.0001797024 1000 8.742278e-08 1 1.311342e-07 0.777778 0.088889
333.3332 -0.0001602751 1000 8.742279e-08 1 1.311342e-07 0.666667 0.133333
111.111 -0.0001408478 1000 8.74228e-08 1 1.311342e-07 0.555556 0.177778
-111.1112 -0.0001214205 1000 8.74228e-08 1 1.311342e-07 0.444444 0.222222
-333.3334 -0.0001019932 1000 8.742281e-08 1 1.311342e-07 0.333333 0.266667
-555.5554 -8.256596e-05 1000 8.74228e-08 1 1.311342e-07 0.222222 0.311111
-777.7776 -6.313868e-05 1000 8.74228e-08 1 1.311342e-07 0.111111 0.355556
-999.9998 -4.37114e-05 1000 8.742279e-08 1 1.311342e-07 0.000000 0.400000
999.9998 -0.000189416 777.7778 8.742274e-08 1 1.311342e-07 1.000000 0.066667
777.7776 -0.0001699887 777.7778 8.74228e-08 1 1.311342e-07 0.888889 0.111111
555.5554 -0.0001505614 777.7778 8.74228e-08 1 1.311342e-07 0.777778 0.155556
333.3332 -0.0001311342 777.7778 8.742279e-08 1 1.311342e-07 0.666667 0.200000
111.111 -0.0001117069 777.7778 8.742279e-08 1 1.311342e-07 0.555556 0.244445
-111.1112 -9.22796e-05 777.7778 8.74228e-08 1 1.311342e-07 0.444444 0.288889
-333.3334 -7.28523e-05 777.7778 8.742282e-08 1 1.311342e-07 0.333333 0.333333
-555.5554 -5.342502e-05 777.7778 8.74228e-08 1 1.311342e-07 0.222222 0.377778
-777.7776 -3.399774e-05 777.7778 8.74228e-08 1 1.311342e-07 0.111111 0.422222
-999.9998 -1.457046e-05 777.7778 8.742281e-08 1 1.311342e-07 0.000000 0.466667
999.9998 -0.0001602751 555.5556 8.742278e-08 1 1.311341e-07 1.000000 0.133333
777.7776 -0.0001408478 555.5556 8.742279e-08 1 1.311341e-07 0.888889 0.177778
555.5554 -0.0001214205 555.5556 8.74228e-08 1 1.311342e-07 0.777778 0.222222
333.3332 -0.0001019932 555.5556 8.74228e-08 1 1.311341e-07 0.666667 0.266667
111.111 -8.256596e-05 555.5556 8.74228e-08 1 1.311342e-07 0.555556 0.311111
-111.1112 -6.313868e-05 555.5556 8.74228e-08 1 1.311342e-07 0.444444 0.355556
-333.3334 -4.371138e-05 555.5556 8.742281e-08 1 1.311342e-07 0.333333 0.400000
-555.5554 -2.42841e-05 555.5556 8.742281e-08 1 1.311342e-07 0.222222 0.444444
-777.7776 -4.85682e-06 555.5556 8.742279e-08 1 1.311342e-07 0.111111 0.488889
-999.9998 1.457045e-05 555.5556 8.742279e-08 1 1.311342e-07 0.000000 0.533333
999.9998 -0.0001311342 333.3334 8.742277e-08 1 1.311341e-07 1.000000 0.200000
777.7776 -0.0001117069 333.3334 8.742279e-08 1 1.311342e-07 0.888889 0.244445
555.5554 -9.22796e-05 333.3334 8.742279e-08 1 1.311342e-07 0.777778 0.288889
333.3332 -7.285232e-05 333.3334 8.74228e-08 1 1.311342e-07 0.666667 0.333333
111.111 -5.342502e-05 333.3334 8.74228e-08 1 1.311342e-07 0.555556 0.377778
-111.1112 -3.399774e-05 333.3334 8.742279e-08 1 1.311342e-07 0.444444 0.422222
-333.3334 -1.457046e-05 333.3334 8.74228e-08 1 1.311342e-07 0.333333 0.466667
-555.5554 4.856826e-06 333.3334 8.742281e-08 1 1.311341e-07 0.222222 0.511111
-777.7776 2.428412e-05 333.3334 8.74228e-08 1 1.311341e-07 0.111111 0.555556
-999.9998 4.371138e-05 333.3334 8.742279e-08 1 1.311341e-07 0.000000 0.600000
999.9998 -0.0001019933 111.1111 8.742281e-08 1 1.311341e-07 1.000000 0.266667
777.7776 -8.256596e-05 111.1111 8.742281e-08 1 1.311341e-07 0.888889 0.311111
555.5554 -6.313868e-05 111.1111 8.742279e-08 1 1.311342e-07 0.777778 0.355556
333.3332 -4.37114e-05 111.1111 8.742278e-08 1 1.311342e-07 0.666667 0.400000
111.111 -2.42841e-05 111.1111 8.74228e-08 1 1.311341e-07 0.555556 0.444444
-111.1112 -4.856822e-06 111.1111 8.74228e-08 1 1.311341e-07 0.444444 0.488889
-333.3334 1.457047e-05 111.1111 8.74228e-08 1 1.311342e-07 0.333333 0.533333
-555.5554 3.399774e-05 111.1111 8.742278e-08 1 1.311342e-07 0.222222 0.577778
-777.7776 5.342502e-05 111.1111 8.742279e-08 1 1.311342e-07 0.111111 0.622222
-999.9998 7.28523e-05 111.1111 8.742279e-08 1 1.311341e-07 0.000000 0.666667
999.9998 -7.285232e-05 -111.1112 8.742278e-08 1 1.311342e-07 1.000000 0.333333
777.7776 -5.342502e-05 -111.1112 8.742281e-08 1 1.311342e-07 0.888889 0.377778
555.5554 -3.399774e-05 -111.1112 8.74228e-08 1 1.311342e-07 0.777778 0.422222
333.3332 -1.457046e-05 -111.1112 8.742278e-08 1 1.311342e-07 0.666667 0.466667
111.111 4.856822e-06 -111.1112 8.742281e-08 1 1.311342e-07 0.555556 0.511111
-111.1112 2.42841e-05 -111.1112 8.742281e-08 1 1.311342e-07 0.444444 0.555556
-333.3334 4.37114e-05 -111.1112 8.742281e-08 1 1.311342e-07 0.333333 0.600000
-555.5554 6.313868e-05 -111.1112 8.74228e-08 1 1.311342e-07 0.222222 0.644444
-777.7776 8.256596e-05 -111.1112 8.742279e-08 1 1.311342e-07 0.111111 0.688889
-999.9998 0.0001019932 -111.1112 8.74228e-08 1 1.311342e-07 0.000000 0.733333
999.9998 -4.371138e-05 -333.3334 8.742277e-08 1 1.311341e-07 1.000000 0.400000
777.7776 -2.42841e-05 -333.3334 8.742279e-08 1 1.311342e-07 0.888889 0.444444
555.5554 -4.856818e-06 -333.3334 8.742281e-08 1 1.311342e-07 0.777778 0.488889
333.3332 1.457047e-05 -333.3334 8.742279e-08 1 1.311341e-07 0.666667 0.533333
111.111 3.399774e-05 -333.3334 8.74228e-08 1 1.311341e-07 0.555556 0.577778
-111.1112 5.342504e-05 -333.3334 8.742281e-08 1 1.311341e-07 0.444444 0.622222
-333.3334 7.285232e-05 -333.3334 8.74228e-08 1 1.311342e-07 0.333333 0.666667
-555.5554 9.22796e-05 -333.3334 8.742282e-08 1 1.311341e-07 0.222222 0.711111
-777.7776 0.0001117069 -333.3334 8.742283e-08 1 1.311342e-07 0.111111 0.755556
-999.9998 0.0001311342 -333.3334 8.742281e-08 1 1.311342e-07 0.000000 0.800000
999.9998 -1.457047e-05 -555.5556 8.742278e-08 1 1.311342e-07 1.000000 0.466667
777.7776 4.85682e-06 -555.5556 8.74228e-08 1 1.311342e-07 0.888889 0.511111
555.5554 2.42841e-05 -555.5556 8.74228e-08 1 1.311342e-07 0.777778 0.555556
333.3332 4.371138e-05 -555.5556 8.742279e-08 1 1.311342e-07 0.666667 0.600000
111.111 6.313868e-05 -555.5556 8.742279e-08 1 1.311342e-07 0.555556 0.644444
-111.1112 8.256596e-05 -555.5556 8.742279e-08 1 1.311342e-07 0.444444 0.688889
-333.3334 0.0001019932 -555.5556 8.742282e-08 1 1.311341e-07 0.333333 0.733333
-555.5554 0.0001214205 -555.5556 8.742281e-08 1 1.311341e-07 0.222222 0.777778
-777.7776 0.0001408478 -555.5556 8.742283e-08 1 1.311341e-07 0.111111 0.822222
-999.9998 0.0001602751 -555.5556 8.742283e-08 1 1.311341e-07 0.000000 0.866667
999.9998 1.457046e-05 -777.7778 8.74228e-08 1 1.311342e-07 1.000000 0.533333
777.7776 3.399774e-05 -777.7778 8.742279e-08 1 1.311342e-07 0.888889 0.577778
555.5554 5.342502e-05 -777.7778 8.742281e-08 1 1.311342e-07 0.777778 0.622222
333.3332 7.285232e-05 -777.7778 8.742279e-08 1 1.311342e-07 0.666667 0.666667
111.111 9.22796e-05 -777.7778 8.74228e-08 1 1.311342e-07 0.555556 0.711111
-111.1112 0.0001117069 -777.7778 8.74228e-08 1 1.311342e-07 0.444444 0.755556
-333.3334 0.0001311342 -777.7778 8.742279e-08 1 1.311342e-07 0.333333 0.800000
-555.5554 0.0001505614 -777.7778 8.74228e-08 1 1.311342e-07 0.222222 0.844444
-777.7776 0.0001699887 -777.7778 8.742277e-08 1 1.311342e-07 0.111111 0.888889
-999.9998 0.000189416 -777.7778 8.742279e-08 1 1.311341e-07 0.000000 0.933333
999.9998 4.371138e-05 -1000 8.742281e-08 1 1.311342e-07 1.000000 0.600000
777.7776 6.313868e-05 -1000 8.742279e-08 1 1.311342e-07 0.888889 0.644444
555.5554 8.256594e-05 -1000 8.74228e-08 1 1.311341e-07 0.777778 0.688889
333.3332 0.0001019932 -1000 8.742279e-08 1 1.311341e-07 0.666667 0.733333
111.111 0.0001214205 -1000 8.742277e-08 1 1.311341e-07 0.555556 0.777778
-111.1112 0.0001408478 -1000 8.742282e-08 1 1.311341e-07 0.444444 0.822222
-333.3334 0.0001602751 -1000 8.74228e-08 1 1.311342e-07 0.333333 0.866667
-555.5554 0.0001797024 -1000 8.74228e-08 1 1.311342e-07 0.222222 0.911111
-777.7776 0.0001991297 -1000 8.742279e-08 1 1.311342e-07 0.111111 0.955555
-999.9998 0.000218557 -1000 8.74228e-08 1 1.311342e-07 0.000000 1.000000
3 11 1 0 
3 0 10 11 
3 12 2 1 
3 1 11 12 
3 13 3 2 
3 2 12 13 
3 14 4 3 
3 3 13 14 
3 15 5 4 
3 4 14 15 
3 16 6 5 
3 5 15 16 
3 17 7 6 
3 6 16 17 
3 18 8 7 
3 7 17 18 
3 19 9 8 
3 8 18 19 
3 21 11 10 
3 10 20 21 
3 22 12 11 
3 11 21 22 
3 23 13 12 
3 12 22 23 
3 24 14 13 
3 13 23 24 
3 25 15 14 
3 14 24 25 
3 26 16 15 
3 15 25 26 
3 27 17 16 
3 16 26 27 
3 28 18 17 
3 17 27 28 
3 29 19 18 
3 18 28 29 
3 31 21 20 
3 20 30 31 
3 32 22 21 
3 21 31 32 
3 33 23 22 
3 22 32 33 
3 34 24 23 
3 23 33 34 
3 35 25 24 
3 24 34 35 
3 36 26 25 
3 25 35 36 
3 37 27 26 
3 26 36 37 
3 38 28 27 
3 27 37 38 
3 39 29 28 
3 28 38 39 
3 41 31 30 
3 30 40 41 
3 42 32 31 
3 31 41 42 
3 43 33 32 
3 32 42 43 
3 44 34 33 
3 33 43 44 
3 45 35 34 
3 34 44 45 
3 46 36 35 
3 35 45 46 
3 47 37 36 
3 36 46 47 
3 48 38 37 
3 37 47 48 
3 49 39 38 
3 38 48 49 
3 51 41 40 
3 40 50 51 
3 52 42 41 
3 41 51 52 
3 53 43 42 
3 42 52 53 
3 54 44 43 
3 43 53 54 
3 55 45 44 
3 44 54 55 
3 56 46 45 
3 45 55 56 
3 57 47 46 
3 46 56 57 
3 58 48 47 
3 47 57 58 
3 59 49 48 
3 48 58 59 
3 61 51 50 
3 50 60 61 
3 62 52 51 
3 51 61 62 
3 63 53 52 
3 52 62 63 
3 64 54 53 
3 53 63 64 
3 65 55 54 
3 54 64 65 
3 66 56 55 
3 55 65 66 
3 67 57 56 
3 56 66 67 
3 68 58 57 
3 57 67 68 
3 69 59 58 
3 58 68 69 
3 71 61 60 
3 60 70 71 
3 72 62 61 
3 61 71 72 
3 73 63 62 
3 62 72 73 
3 74 64 63 
3 63 73 74 
3 75 65 64 
3 64 74 75 
3 76 66 65 
3 65 75 76 
3 77 67 66 
3 66 76 77 
3 78 68 67 
3 67 77 78 
3 79 69 68 
3 68 78 79 
3 81 71 70 
3 70 80 81 
3 82 72 71 
3 71 81 82 
3 83 73 72 
3 72 82 83 
3 84 74 73 
3 73 83 84 
3 85 75 74 
3 74 84 85 
3 86 76 75 
3 75 85 86 
3 87 77 76 
3 76 86 87 
3 88 78 77 
3 77 87 88 
3 89 79 78 
3 78 88 89 
3 91 81 80 
3 80 90 91 
3 92 82 81 
3 81 91 92 
3 93 83 82 
3 82 92 93 
3 94 84 83 
3 83 93 94 
3 95 85 84 
3 84 94 95 
3 96 86 85 
3 85 95 96 
3 97 87 86 
3 86 96 97 
3 98 88 87 
3 87 97 98 
3 99 89 88 
3 88 98 99 
