ply
format ascii 1.0
comment VCGLIB generated
element vertex 8
property float x
property float y
property float z
property float nx
property float ny
property float nz
element face 12
property list uchar int vertex_indices
end_header
-54.27399 60.8786 1.454237 -0.5773503 0.5773503 0.5773503 
54.27399 60.8786 1.454237 0.5773504 0.5773502 0.5773503 
-54.27399 60.8786 -1.454243 -0.57735 0.5773503 -0.5773506 
54.27399 -60.8786 -1.454237 0.5773503 -0.5773501 -0.5773503 
-54.27399 -60.8786 1.454243 -0.57735 -0.5773504 0.5773506 
-54.27399 -60.8786 -1.454237 -0.5773503 -0.5773503 -0.5773503 
54.27399 -60.8786 1.454243 0.5773498 -0.5773504 0.5773505 
54.27399 60.8786 -1.454243 0.5773498 0.5773505 -0.5773504 
3 0 1 2 
3 3 4 5 
3 4 3 6 
3 7 2 1 
3 4 6 1 
3 4 2 5 
3 7 1 6 
3 5 2 7 
3 4 0 2 
3 6 3 7 
3 1 0 4 
3 7 3 5 
