ply
format ascii 1.0
comment VCGLIB generated
element vertex 134
property float x
property float y
property float z
property float nx
property float ny
property float nz
element face 112
property list uchar int vertex_indices
property list uchar float texcoord
end_header
-0.2795673 -0.5 0.2991953 -0.1706768 0 0.9853271 
0.2795673 -0.5 0.2991953 0.1706768 0 0.9853271 
0.2795673 -0.4397418 0.2991953 0.1706768 0 0.9853271 
-0.2795673 -0.4397418 0.2991953 -0.1706768 0 0.9853271 
-0.3134012 -0.5 0.2628924 -0.9546869 0 0.297612 
-0.2991951 -0.5 0.2921851 -0.8997714 0 0.4363617 
-0.2991951 -0.4397418 0.2921851 -0.8997714 0 0.4363617 
-0.3134012 -0.4397418 0.2628924 -0.9888664 0 0.148806 
0.2795673 -0.5 -0.2991951 0.1706768 0 -0.9853271 
-0.2795673 -0.5 -0.2991951 -0.1706768 0 -0.9853271 
-0.2795673 -0.4397415 -0.2991951 -0.1706768 0 -0.9853271 
0.2795673 -0.4397415 -0.2991951 0.1706768 0 -0.9853271 
0.3134012 -0.5 -0.2628922 0.9546869 0 -0.297612 
0.2991951 -0.5 -0.2921849 0.8997714 0 -0.4363617 
0.2991951 -0.4397415 -0.2921849 0.8997714 0 -0.4363617 
0.3134012 -0.4397415 -0.2628922 0.9888664 0 -0.148806 
0.2991951 -0.5 -0.2921849 0 -1 0 
0.3134012 -0.5 -0.2628922 0 -1 0 
0.2795673 -0.5 -0.2991951 0 -1 0 
-0.2991951 -0.4397415 -0.2921849 0 1 0 
-0.3134012 -0.4397415 -0.2628922 -1.439595e-07 1 2.737693e-07 
-0.2795673 -0.4397415 -0.2991951 0 1 0 
-0.3134012 -0.5 -0.2628922 0 -1 0 
-0.2991951 -0.5 -0.2921849 0 -1 0 
-0.2795673 -0.5 -0.2991951 0 -1 0 
0.3134012 -0.4397415 -0.2628922 -3.040896e-07 1 2.834081e-07 
0.2991951 -0.4397415 -0.2921849 0 1 0 
0.2795673 -0.4397415 -0.2991951 -1.086993e-07 1 3.246677e-07 
-0.2991951 -0.5 -0.2921849 -0.3363449 0 -0.9417389 
-0.2991951 -0.4397415 -0.2921849 -0.3363449 0 -0.9417389 
0.2991951 -0.4397415 -0.2921849 0.3363449 0 -0.9417389 
0.2991951 -0.5 -0.2921849 0.3363449 0 -0.9417389 
0.2991951 -0.5 0.2921851 0.3363449 0 0.9417389 
0.2991951 -0.4397418 0.2921851 0.3363449 0 0.9417389 
-0.2991951 -0.4397418 0.2921851 -0.3363449 0 0.9417389 
-0.2991951 -0.5 0.2921851 -0.3363449 0 0.9417389 
-0.1073868 -0.4397547 -0.1859991 -0.2552398 0.1657484 -0.952565 
-0.02562487 0.5 -0.04438328 -0.2552414 0.165753 -0.9525638 
0 0.5 -0.0512495 -0.08765564 0.1707712 -0.9814039 
0 -0.4397547 -0.2147733 4.572116e-07 0.1714243 -0.9851973 
0.0443835 0.5 -0.02562464 0 1 0 
0.02562487 0.5 -0.04438328 0 1 0 
0 0.5 -0.0512495 0 1 0 
-0.02562487 0.5 -0.04438328 0 1 0 
-0.0443835 0.5 -0.02562464 0 1 0 
-0.05124943 0.5 -6.556708e-08 0 1 0 
-0.0443835 0.5 0.0256248 0 1 0 
-0.02562487 0.5 0.04438344 0 1 0 
0 0.5 0.05124968 0 1 0 
0.02562487 0.5 0.04438344 0 1 0 
0.0443835 0.5 0.0256248 0 1 0 
0.05124943 0.5 -6.556708e-08 0 1 0 
-0.1089187 -0.4573614 -0.1886521 0 -1 0 
0 -0.4573614 -0.2178368 0 -1 0 
0.1089184 -0.4573614 -0.1886524 0 -1 0 
0.1886524 -0.4573614 -0.1089183 0 -1 0 
0.2178368 -0.4573614 5.997571e-08 0 -1 0 
0.1886524 -0.4573614 0.1089185 0 -1 0 
0.1089184 -0.4573614 0.1886525 0 -1 0 
0 -0.4573614 0.2178372 0 -1 0 
-0.1089184 -0.4573614 0.1886525 0 -1 0 
-0.1886524 -0.4573614 0.1089185 0 -1 0 
-0.2178368 -0.4573614 5.997571e-08 0 -1 0 
-0.1886524 -0.4573614 -0.1089183 0 -1 0 
0.2795673 -0.4397418 0.2991953 0 1 0 
0.2991951 -0.4397418 0.2921851 0 1 0 
0.3134012 -0.4397418 0.2628924 -1.439595e-07 1 2.737693e-07 
-0.2795673 -0.5 0.2991953 0 -1 0 
-0.2991951 -0.5 0.2921851 0 -1 0 
-0.3134012 -0.5 0.2628924 0 -1 0 
-0.2991951 -0.4397418 0.2921851 0 1 0 
-0.2795673 -0.4397418 0.2991953 -1.086993e-07 1 3.246677e-07 
-0.3134012 -0.4397418 0.2628924 -3.040896e-07 1 2.834081e-07 
0.2991951 -0.5 0.2921851 0 -1 0 
0.2795673 -0.5 0.2991953 0 -1 0 
0.3134012 -0.5 0.2628924 0 -1 0 
0.2991951 -0.5 0.2921851 0.8997714 0 0.4363617 
0.3134012 -0.5 0.2628924 0.9888664 0 0.148806 
0.3134012 -0.4397418 0.2628924 0.9546869 0 0.297612 
0.2991951 -0.4397418 0.2921851 0.8997714 0 0.4363617 
-0.2991951 -0.5 -0.2921849 -0.8997714 0 -0.4363617 
-0.3134012 -0.5 -0.2628922 -0.9888664 0 -0.148806 
-0.3134012 -0.4397415 -0.2628922 -0.9546869 0 -0.297612 
-0.2991951 -0.4397415 -0.2921849 -0.8997714 0 -0.4363617 
-0.1859991 -0.4397547 -0.1073865 -0.8532057 0.1714292 -0.4925974 
-0.0443835 0.5 -0.02562464 -0.8937493 0.1707711 -0.4147885 
-0.02562487 0.5 -0.04438328 -0.6973265 0.1657527 -0.6973248 
-0.1073868 -0.4397547 -0.1859991 -0.697327 0.1657505 -0.6973248 
-0.2147733 -0.4397547 5.766686e-08 -0.9525656 0.1657487 -0.2552376 
-0.05124943 0.5 -6.556708e-08 -0.9525659 0.1657531 -0.2552336 
-0.1859991 -0.4397547 0.1073869 -0.8532056 0.1714291 0.4925975 
-0.0443835 0.5 0.0256248 -0.8060942 0.170771 0.5666123 
-0.05124943 0.5 -6.556708e-08 -0.9525657 0.1657526 0.2552348 
-0.2147733 -0.4397547 5.766686e-08 -0.9525656 0.1657478 0.2552384 
-0.1073865 -0.4397547 0.1859992 -0.6973246 0.1657533 0.6973265 
-0.02562487 0.5 0.04438344 -0.6973254 0.1657526 0.6973258 
0 -0.4397547 0.2147734 -2.774093e-07 0.1714325 0.9851959 
0 0.5 0.05124968 0.0876559 0.1707711 0.9814039 
-0.02562487 0.5 0.04438344 -0.2552404 0.1657527 0.9525641 
-0.1073865 -0.4397547 0.1859992 -0.2552395 0.1657545 0.9525641 
0.1073865 -0.4397547 0.1859992 0.2552402 0.1657533 0.9525641 
0.02562487 0.5 0.04438344 0.255242 0.1657529 0.9525636 
0.1859991 -0.4397547 0.1073866 0.8532053 0.1714292 0.492598 
0.0443835 0.5 0.0256248 0.8937497 0.1707712 0.4147877 
0.02562487 0.5 0.04438344 0.6973257 0.1657526 0.6973256 
0.1073865 -0.4397547 0.1859992 0.6973255 0.1657539 0.6973255 
0.2147733 -0.4397547 5.766686e-08 0.9525658 0.1657487 0.2552367 
0.05124943 0.5 -6.556708e-08 0.9525666 0.1657533 0.2552308 
0.1859991 -0.4397547 -0.1073865 0.8532053 0.1714316 -0.4925973 
0.0443835 0.5 -0.02562464 0.8060942 0.170771 -0.5666124 
0.05124943 0.5 -6.556708e-08 0.9525652 0.1657526 -0.2552366 
0.2147733 -0.4397547 5.766686e-08 0.9525652 0.1657491 -0.2552388 
0.1073865 -0.4397547 -0.1859991 0.6973257 0.1657532 -0.6973254 
0.02562487 0.5 -0.04438328 0.6973257 0.1657527 -0.6973256 
0.02562487 0.5 -0.04438328 0.2552401 0.1657528 -0.9525642 
0.1073865 -0.4397547 -0.1859991 0.2552388 0.1657491 -0.9525652 
0 -0.4573614 -0.2178368 0.08765505 0.1707629 -0.9814054 
0.1089184 -0.4573614 -0.1886524 0.2552371 0.1657542 -0.9525648 
0.1089184 -0.4573614 -0.1886524 0.6973256 0.1657543 -0.6973252 
0.1886524 -0.4573614 -0.1089183 0.8937494 0.1707678 -0.4147898 
0.2178368 -0.4573614 5.997571e-08 0.952567 0.1657403 -0.2552377 
0.2178368 -0.4573614 5.997571e-08 0.9525656 0.1657472 0.2552385 
0.1886524 -0.4573614 0.1089185 0.8060932 0.1707727 0.5666132 
0.1089184 -0.4573614 0.1886525 0.6973254 0.1657546 0.6973254 
0.1089184 -0.4573614 0.1886525 0.2552395 0.1657554 0.9525639 
0 -0.4573614 0.2178372 -0.08765562 0.1707742 0.9814034 
-0.1089184 -0.4573614 0.1886525 -0.2552397 0.1657542 0.9525641 
-0.1089184 -0.4573614 0.1886525 -0.6973255 0.1657489 0.6973267 
-0.1886524 -0.4573614 0.1089185 -0.8937501 0.1707626 0.4147902 
-0.2178368 -0.4573614 5.997571e-08 -0.952567 0.1657404 0.2552377 
-0.2178368 -0.4573614 5.997571e-08 -0.9525656 0.1657472 -0.2552385 
-0.1886524 -0.4573614 -0.1089183 -0.8060941 0.1707692 -0.566613 
-0.1089187 -0.4573614 -0.1886521 -0.697327 0.1657441 -0.6973264 
-0.1089187 -0.4573614 -0.1886521 -0.2552394 0.1657399 -0.9525666 
3 0 1 2 6 0.574815 0.401336 0.574815 0.748474 0.537892 0.748474 
3 0 2 3 6 0.574815 0.401336 0.537892 0.748474 0.537892 0.401336 
3 4 5 6 6 0.574815 0.407336 0.575986 0.389150 0.612905 0.389150 
3 4 6 7 6 0.574815 0.407336 0.612905 0.389150 0.611734 0.407336 
3 8 9 10 6 0.537318 0.401336 0.537318 0.748474 0.500394 0.748474 
3 8 10 11 6 0.537318 0.401336 0.500394 0.748474 0.500394 0.401336 
3 12 13 14 6 0.612905 0.407336 0.614075 0.389150 0.650995 0.389150 
3 12 14 15 6 0.612905 0.407336 0.650995 0.389150 0.649824 0.407336 
3 16 17 18 6 0.374256 0.008820 0.392365 0.000000 0.369923 0.021006 
3 19 20 21 6 0.004334 0.008820 0.022442 0.000000 0.000000 0.021006 
3 22 23 24 6 0.392365 0.389150 0.374256 0.380330 0.369923 0.368144 
3 25 26 27 6 0.022442 0.389150 0.004334 0.380330 0.000000 0.368144 
3 28 29 10 6 0.536744 0.760660 0.499821 0.760660 0.500394 0.748474 
3 28 10 9 6 0.536744 0.760660 0.500394 0.748474 0.537318 0.748474 
3 30 31 8 6 0.499821 0.389150 0.536744 0.389150 0.537318 0.401336 
3 30 8 11 6 0.499821 0.389150 0.537318 0.401336 0.500394 0.401336 
3 32 33 2 6 0.574242 0.760660 0.537318 0.760660 0.537892 0.748474 
3 32 2 1 6 0.574242 0.760660 0.537892 0.748474 0.574815 0.748474 
3 34 35 0 6 0.537318 0.389150 0.574241 0.389150 0.574815 0.401336 
3 34 0 3 6 0.537318 0.389150 0.574815 0.401336 0.537892 0.401336 
3 36 37 38 6 0.231994 0.976929 0.303334 0.389150 0.319146 0.390278 
3 36 38 39 6 0.231994 0.976929 0.319146 0.390278 0.298255 0.981657 
3 40 41 42 6 0.673397 0.450618 0.659195 0.442383 0.650995 0.428119 
3 42 43 44 6 0.650995 0.428119 0.650995 0.411649 0.659195 0.397385 
3 44 45 46 6 0.659195 0.397385 0.673397 0.389150 0.689797 0.389150 
3 46 47 48 6 0.689797 0.389150 0.704000 0.397385 0.712200 0.411649 
3 48 49 50 6 0.712200 0.411649 0.712200 0.428119 0.704000 0.442383 
3 50 51 40 6 0.704000 0.442383 0.689797 0.450618 0.673397 0.450618 
3 40 42 44 6 0.673397 0.450618 0.650995 0.428119 0.659195 0.397385 
3 44 46 48 6 0.659195 0.397385 0.689797 0.389150 0.712200 0.411649 
3 48 50 40 6 0.712200 0.411649 0.704000 0.442383 0.673397 0.450618 
3 44 48 40 6 0.659195 0.397385 0.712200 0.411649 0.673397 0.450618 
3 52 53 54 6 1.000000 0.706482 1.000000 0.776490 0.965146 0.837118 
3 54 55 56 6 0.965146 0.837118 0.904777 0.872122 0.835068 0.872121 
3 56 57 58 6 0.835068 0.872121 0.774699 0.837118 0.739845 0.776490 
3 58 59 60 6 0.739845 0.776490 0.739845 0.706482 0.774699 0.645854 
3 60 61 62 6 0.774699 0.645854 0.835069 0.610850 0.904777 0.610850 
3 62 63 52 6 0.904777 0.610850 0.965146 0.645854 1.000000 0.706482 
3 52 54 56 6 1.000000 0.706482 0.965146 0.837118 0.835068 0.872121 
3 56 58 60 6 0.835068 0.872121 0.739845 0.776490 0.774699 0.645854 
3 60 62 52 6 0.774699 0.645854 0.904777 0.610850 1.000000 0.706482 
3 56 60 52 6 0.835068 0.872121 0.774699 0.645854 1.000000 0.706482 
3 64 65 66 6 0.369923 0.368144 0.365589 0.380330 0.347480 0.389150 
3 67 68 69 6 0.739845 0.368144 0.735512 0.380330 0.717403 0.389150 
3 70 71 72 6 0.365589 0.008820 0.369923 0.021006 0.347480 0.000000 
3 27 21 20 6 0.000000 0.368144 0.000000 0.021006 0.022442 0.000000 
3 20 72 71 6 0.022442 0.000000 0.347480 0.000000 0.369923 0.021006 
3 71 64 66 6 0.369923 0.021006 0.369923 0.368144 0.347480 0.389150 
3 66 25 27 6 0.347480 0.389150 0.022442 0.389150 0.000000 0.368144 
3 27 20 71 6 0.000000 0.368144 0.022442 0.000000 0.369923 0.021006 
3 71 66 27 6 0.369923 0.021006 0.347480 0.389150 0.000000 0.368144 
3 73 74 75 6 0.735512 0.008820 0.739845 0.021006 0.717403 0.000000 
3 76 77 78 6 0.614075 0.751955 0.612905 0.733769 0.649824 0.733769 
3 76 78 79 6 0.614075 0.751955 0.649824 0.733769 0.650995 0.751955 
3 77 12 15 6 0.612905 0.733769 0.612905 0.407336 0.649824 0.407336 
3 77 15 78 6 0.612905 0.733769 0.649824 0.407336 0.649824 0.733769 
3 80 81 82 6 0.575986 0.751955 0.574815 0.733769 0.611734 0.733769 
3 80 82 83 6 0.575986 0.751955 0.611734 0.733769 0.612905 0.751955 
3 81 4 7 6 0.574815 0.733769 0.574815 0.407336 0.611734 0.407336 
3 81 7 82 6 0.574815 0.733769 0.611734 0.407336 0.611734 0.733769 
3 74 67 69 6 0.739845 0.021006 0.739845 0.368144 0.717403 0.389150 
3 69 22 24 6 0.717403 0.389150 0.392365 0.389150 0.369923 0.368144 
3 24 18 17 6 0.369923 0.368144 0.369923 0.021006 0.392365 0.000000 
3 17 75 74 6 0.392365 0.000000 0.717403 0.000000 0.739845 0.021006 
3 74 69 24 6 0.739845 0.021006 0.717403 0.389150 0.369923 0.368144 
3 24 17 74 6 0.369923 0.368144 0.392365 0.000000 0.739845 0.021006 
3 84 85 86 6 0.050340 0.420871 0.187629 0.996734 0.176391 1.000000 
3 84 86 87 6 0.050340 0.420871 0.176391 1.000000 0.003244 0.434558 
3 88 89 85 6 0.115636 0.408608 0.203210 0.993808 0.187629 0.996734 
3 88 85 84 6 0.115636 0.408608 0.187629 0.996734 0.050340 0.420871 
3 90 91 92 6 0.181637 0.401054 0.218959 0.992005 0.203210 0.993808 
3 90 92 93 6 0.181637 0.401054 0.203210 0.993808 0.115636 0.408608 
3 94 95 91 6 0.230658 0.400233 0.230657 0.991809 0.218959 0.992005 
3 94 91 90 6 0.230658 0.400233 0.218959 0.992005 0.181637 0.401054 
3 96 97 98 6 0.432837 0.981657 0.453727 0.390278 0.469578 0.390278 
3 96 98 99 6 0.432837 0.981657 0.469578 0.390278 0.499264 0.981657 
3 100 101 97 6 0.366576 0.976929 0.437915 0.389150 0.453727 0.390278 
3 100 97 96 6 0.366576 0.976929 0.453727 0.390278 0.432837 0.981657 
3 102 103 104 6 0.921482 0.598946 0.958806 0.007995 0.970503 0.008191 
3 102 104 105 6 0.921482 0.598946 0.970503 0.008191 0.970503 0.599767 
3 106 107 103 6 0.855481 0.591392 0.943056 0.006192 0.958806 0.007995 
3 106 103 102 6 0.855481 0.591392 0.958806 0.007995 0.921482 0.598946 
3 108 109 110 6 0.790185 0.579128 0.927475 0.003266 0.943056 0.006192 
3 108 110 111 6 0.790185 0.579128 0.943056 0.006192 0.855481 0.591392 
3 112 113 109 6 0.743089 0.565442 0.916237 0.000000 0.927475 0.003266 
3 112 109 108 6 0.743089 0.565442 0.927475 0.003266 0.790185 0.579128 
3 39 38 114 6 0.298255 0.981657 0.319146 0.390278 0.334997 0.390278 
3 39 114 115 6 0.298255 0.981657 0.334997 0.390278 0.364683 0.981657 
3 116 39 115 6 0.297864 0.992737 0.298255 0.981657 0.364683 0.981657 
3 116 115 117 6 0.297864 0.992737 0.364683 0.981657 0.365239 0.992737 
3 118 112 108 6 0.739845 0.576035 0.743089 0.565442 0.790185 0.579128 
3 118 108 119 6 0.739845 0.576035 0.790185 0.579128 0.787613 0.589917 
3 119 108 111 6 0.787613 0.589917 0.790185 0.579128 0.855481 0.591392 
3 119 111 120 6 0.787613 0.589917 0.855481 0.591392 0.853840 0.602356 
3 121 106 102 6 0.853840 0.602356 0.855481 0.591392 0.921482 0.598946 
3 121 102 122 6 0.853840 0.602356 0.921482 0.598946 0.920783 0.610018 
3 122 102 105 6 0.920783 0.610018 0.921482 0.598946 0.970503 0.599767 
3 122 105 123 6 0.920783 0.610018 0.970503 0.599767 0.970503 0.610850 
3 124 100 96 6 0.365239 0.987942 0.366576 0.976929 0.432837 0.981657 
3 124 96 125 6 0.365239 0.987942 0.432837 0.981657 0.432445 0.992737 
3 125 96 99 6 0.432445 0.992737 0.432837 0.981657 0.499264 0.981657 
3 125 99 126 6 0.432445 0.992737 0.499264 0.981657 0.499821 0.992737 
3 127 94 90 6 0.230658 0.389150 0.230658 0.400233 0.181637 0.401054 
3 127 90 128 6 0.230658 0.389150 0.181637 0.401054 0.180938 0.389982 
3 128 90 93 6 0.180938 0.389982 0.181637 0.401054 0.115636 0.408608 
3 128 93 129 6 0.180938 0.389982 0.115636 0.408608 0.113995 0.397644 
3 130 88 84 6 0.113995 0.397644 0.115636 0.408608 0.050340 0.420871 
3 130 84 131 6 0.113995 0.397644 0.050340 0.420871 0.047767 0.410082 
3 131 84 87 6 0.047767 0.410082 0.050340 0.420871 0.003244 0.434558 
3 131 87 132 6 0.047767 0.410082 0.003244 0.434558 0.000000 0.423964 
3 133 36 39 6 0.230658 0.987942 0.231994 0.976929 0.298255 0.981657 
3 133 39 116 6 0.230658 0.987942 0.298255 0.981657 0.297864 0.992737 
